G04 MADE WITH FRITZING*
G04 WWW.FRITZING.ORG*
G04 DOUBLE SIDED*
G04 HOLES PLATED*
G04 CONTOUR ON CENTER OF CONTOUR VECTOR*
%ASAXBY*%
%FSLAX23Y23*%
%MOIN*%
%OFA0B0*%
%SFA1.0B1.0*%
%ADD10C,0.085000*%
%ADD11C,0.096614*%
%ADD12C,0.128110*%
%ADD13C,0.109055*%
%ADD14C,0.080000*%
%ADD15C,0.088000*%
%ADD16C,0.180000*%
%ADD17R,0.085000X0.085000*%
%ADD18R,0.080000X0.079972*%
%ADD19R,0.001000X0.001000*%
%LNMASK0*%
G90*
G70*
G54D10*
X2225Y1596D03*
X2325Y1596D03*
X2425Y1596D03*
X2525Y1596D03*
X2625Y1596D03*
X2725Y1596D03*
X2825Y1596D03*
X2925Y1596D03*
X3025Y1596D03*
X3125Y1596D03*
X3225Y1596D03*
X3325Y1596D03*
X3425Y1596D03*
X3525Y1596D03*
X3625Y1596D03*
X3725Y1596D03*
G54D11*
X108Y993D03*
X109Y1486D03*
X5152Y1489D03*
X5152Y992D03*
G54D12*
X190Y680D03*
X5127Y602D03*
X1994Y1597D03*
G54D13*
X390Y1486D03*
G54D14*
X3369Y1025D03*
X3269Y1025D03*
X3169Y1025D03*
X3069Y1025D03*
X2969Y1025D03*
X2869Y1025D03*
X2769Y1025D03*
X2669Y1025D03*
X2569Y1025D03*
X2469Y1025D03*
X2369Y1025D03*
X2269Y1025D03*
X2169Y1025D03*
X2069Y1025D03*
X1969Y1025D03*
X3369Y425D03*
X3269Y425D03*
X3169Y425D03*
X3069Y425D03*
X2969Y425D03*
X2869Y425D03*
X2769Y425D03*
X2669Y425D03*
X2569Y425D03*
X2469Y425D03*
X2369Y425D03*
X2269Y425D03*
X2169Y425D03*
X2069Y425D03*
X1969Y425D03*
G54D13*
X4878Y1319D03*
X4878Y1154D03*
G54D10*
X1340Y1517D03*
X1340Y1417D03*
X1340Y1317D03*
X1339Y959D03*
X1339Y1059D03*
X1339Y1159D03*
X3922Y951D03*
X3922Y1051D03*
X3922Y1151D03*
X3929Y1517D03*
X3929Y1417D03*
X3929Y1317D03*
X2980Y1291D03*
X2580Y1291D03*
X2985Y1195D03*
X2585Y1195D03*
X1760Y1210D03*
X2160Y1210D03*
X1874Y1323D03*
X2274Y1323D03*
G54D13*
X4879Y1484D03*
X606Y1484D03*
X4660Y1483D03*
X387Y1153D03*
X4662Y989D03*
X604Y987D03*
X387Y1317D03*
X4660Y1319D03*
X4664Y1153D03*
X605Y1154D03*
X603Y1319D03*
X390Y988D03*
X4878Y986D03*
G54D10*
X625Y594D03*
X925Y594D03*
X625Y494D03*
X925Y494D03*
X625Y394D03*
X925Y394D03*
X625Y294D03*
X925Y294D03*
X3627Y1464D03*
X3627Y1064D03*
X1340Y684D03*
X1623Y401D03*
X3985Y425D03*
X3585Y425D03*
X1176Y687D03*
X1459Y405D03*
X4511Y1315D03*
X4111Y1315D03*
X4511Y1157D03*
X4111Y1157D03*
X751Y1317D03*
X1151Y1317D03*
X754Y1159D03*
X1154Y1159D03*
G54D15*
X3828Y590D03*
X3928Y590D03*
G54D10*
X3697Y309D03*
X3586Y308D03*
G54D16*
X4870Y243D03*
X5106Y243D03*
X4988Y428D03*
X371Y332D03*
X135Y332D03*
X253Y147D03*
G54D17*
X2224Y1597D03*
G54D18*
X3369Y1025D03*
G54D17*
X625Y594D03*
G54D19*
D02*
G04 End of Mask0*
M02*