; NON-PLATED HOLES START AT T1
; THROUGH (PLATED) HOLES START AT T100
M48
INCH
T1C0.118110
T100C0.036000
T101C0.059055
T102C0.038000
T103C0.118000
T104C0.035000
%
T1
X046038Y003982
X006556Y004653
T100
X021500Y013407
X026500Y007407
X030500Y007407
X028500Y013407
X023500Y013407
X027500Y013407
X035500Y013407
X033500Y007407
X035500Y007407
X031500Y013407
X030500Y013407
X021500Y007407
X031500Y007407
X032500Y013407
X024500Y013407
X022500Y007407
X027500Y007407
X034500Y007407
X022500Y013407
X029500Y013407
X029500Y007407
X028500Y007407
X025500Y013407
X033500Y013407
X032500Y007407
X034500Y013407
X025500Y007407
X023500Y007407
X024500Y007407
X026500Y013407
T101
X006024Y009858
X046582Y014817
X006028Y011525
X046601Y009871
X006011Y013174
X003850Y013156
X048755Y013175
X046582Y013169
X003845Y011517
X006039Y014824
X046619Y011518
X048774Y014829
X048760Y011526
X048755Y009842
X003880Y009859
X003876Y014839
T102
X044230Y005843
X026458Y003899
X028458Y003899
X027458Y003899
X045230Y005843
X025458Y003899
T103
X001329Y003306
X003692Y003306
X002511Y001456
X051040Y002412
X048678Y002412
X049859Y004263
T104
X013380Y013156
X031949Y016080
X045123Y009489
X011493Y015169
X045118Y011480
X017806Y016045
X013365Y011575
X007489Y013157
X013365Y010575
X039205Y011490
X013365Y009575
X041095Y013132
X007493Y015169
X013991Y002662
X027780Y014730
X021983Y014771
X045110Y015154
X039269Y015155
X017983Y014771
X011519Y011575
X015093Y002662
X008574Y002653
X041118Y011480
X039205Y009490
X027949Y016080
X041123Y009489
X011489Y013157
X031780Y014730
X013380Y015156
X045095Y013132
X039269Y013155
X007519Y011575
X021806Y016045
X039269Y014155
X041110Y015154
X013380Y014156
X011569Y009543
X006546Y002651
X007569Y009543
X007585Y002638
X039205Y010490
T00
M30
