; NON-PLATED HOLES START AT T1
; THROUGH (PLATED) HOLES START AT T100
M48
INCH
T1C0.118110
T2C0.086614
T100C0.035000
T101C0.118000
T102C0.059055
T103C0.036000
T104C0.038000
%
T1
X019935Y015970
X051265Y006015
X001901Y006803
T2
X051522Y014888
X051520Y009920
X001081Y009932
X001090Y014859
T100
X006254Y003942
X013385Y011591
X011539Y011591
X029803Y012906
X039289Y015170
X006254Y002942
X039289Y014170
X013385Y009591
X022737Y013231
X029850Y011948
X021601Y012097
X032249Y015964
X024249Y015964
X035848Y004249
X025249Y015964
X036249Y015964
X036272Y010643
X041114Y013148
X039224Y011505
X011757Y006874
X045108Y011568
X014586Y004045
X013399Y013171
X039848Y004249
X009254Y004942
X009254Y002942
X029249Y015964
X006254Y004942
X017601Y012097
X007508Y013173
X027249Y015964
X035864Y003079
X023249Y015964
X030249Y015964
X013399Y014171
X007539Y011591
X033249Y015964
X018737Y013231
X045114Y013148
X013399Y015171
X028249Y015964
X031249Y015964
X036272Y014643
X037249Y015964
X025803Y012906
X026249Y015964
X006254Y005942
X013385Y010591
X036967Y003093
X016231Y004010
X039224Y010505
X025850Y011948
X039289Y013170
X041108Y011568
X022249Y015964
X009254Y003942
X035249Y015964
X034249Y015964
X039224Y009505
X009254Y005942
X011508Y013173
X013403Y006838
T101
X002530Y001472
X051059Y002428
X003711Y003322
X001349Y003322
X048697Y002428
X049878Y004278
T102
X048779Y011541
X046601Y014833
X046620Y009887
X003865Y011533
X006043Y009874
X006030Y013190
X048775Y009858
X003895Y014855
X003869Y013171
X046601Y013185
X003899Y009875
X048794Y014844
X006058Y014839
X048775Y013191
X006047Y011541
X046639Y011533
T103
X029691Y004251
X032691Y004251
X027691Y010252
X028691Y010252
X020691Y004251
X031691Y004251
X027691Y004251
X019691Y004251
X028691Y004251
X024691Y010252
X020691Y010252
X025691Y004251
X031691Y010252
X033691Y004251
X032691Y010252
X030691Y010252
X021691Y010252
X024691Y004251
X029691Y010252
X030691Y004251
X021691Y004251
X023691Y004251
X025691Y010252
X026691Y004251
X033691Y010252
X022691Y004251
X023691Y010252
X019691Y010252
X022691Y010252
X026691Y010252
T104
X039283Y005897
X038283Y005897
T00
M30
