G04 MADE WITH FRITZING*
G04 WWW.FRITZING.ORG*
G04 DOUBLE SIDED*
G04 HOLES PLATED*
G04 CONTOUR ON CENTER OF CONTOUR VECTOR*
%ASAXBY*%
%FSLAX23Y23*%
%MOIN*%
%OFA0B0*%
%SFA1.0B1.0*%
%ADD10C,0.085000*%
%ADD11C,0.096614*%
%ADD12C,0.109055*%
%ADD13C,0.080000*%
%ADD14C,0.090000*%
%ADD15C,0.088000*%
%ADD16C,0.180000*%
%ADD17R,0.085000X0.085000*%
%ADD18R,0.080000X0.079972*%
%ADD19R,0.090000X0.090000*%
%ADD20R,0.053307X0.057244*%
%ADD21R,0.001000X0.001000*%
%LNMASK1*%
G90*
G70*
G54D10*
X2225Y1596D03*
X2325Y1596D03*
X2425Y1596D03*
X2525Y1596D03*
X2625Y1596D03*
X2725Y1596D03*
X2825Y1596D03*
X2925Y1596D03*
X3025Y1596D03*
X3125Y1596D03*
X3225Y1596D03*
X3325Y1596D03*
X3425Y1596D03*
X3525Y1596D03*
X3625Y1596D03*
X3725Y1596D03*
G54D11*
X138Y993D03*
X139Y1486D03*
X5118Y1489D03*
X5118Y992D03*
G54D12*
X390Y1486D03*
G54D13*
X3371Y1031D03*
X3271Y1031D03*
X3171Y1031D03*
X3071Y1031D03*
X2971Y1031D03*
X2871Y1031D03*
X2771Y1031D03*
X2671Y1031D03*
X2571Y1031D03*
X2471Y1031D03*
X2371Y1031D03*
X2271Y1031D03*
X2171Y1031D03*
X2071Y1031D03*
X1971Y1031D03*
X3371Y431D03*
X3271Y431D03*
X3171Y431D03*
X3071Y431D03*
X2971Y431D03*
X2871Y431D03*
X2771Y431D03*
X2671Y431D03*
X2571Y431D03*
X2471Y431D03*
X2371Y431D03*
X2271Y431D03*
X2171Y431D03*
X2071Y431D03*
X1971Y431D03*
G54D12*
X4878Y1319D03*
X4878Y1154D03*
G54D10*
X1365Y1316D03*
X1365Y1416D03*
X1365Y1516D03*
X1369Y1156D03*
X1369Y1056D03*
X1369Y956D03*
X3933Y1156D03*
X3933Y1056D03*
X3933Y956D03*
X3934Y1316D03*
X3934Y1416D03*
X3934Y1516D03*
X2980Y1291D03*
X2580Y1291D03*
X2985Y1195D03*
X2585Y1195D03*
X1592Y902D03*
X1992Y902D03*
X1870Y1171D03*
X2270Y1171D03*
G54D12*
X4879Y1484D03*
X606Y1484D03*
X4660Y1483D03*
X387Y1153D03*
X4662Y989D03*
X604Y987D03*
X387Y1317D03*
X4660Y1319D03*
X4664Y1153D03*
X605Y1154D03*
X603Y1319D03*
X390Y988D03*
X4878Y986D03*
G54D14*
X1712Y1432D03*
X1712Y1569D03*
G54D10*
X625Y594D03*
X925Y594D03*
X625Y494D03*
X925Y494D03*
X625Y394D03*
X925Y394D03*
X625Y294D03*
X925Y294D03*
X3627Y1464D03*
X3627Y1064D03*
X1340Y684D03*
X1623Y401D03*
X4082Y414D03*
X3682Y414D03*
X1176Y687D03*
X1459Y405D03*
X4511Y1315D03*
X4111Y1315D03*
X4511Y1157D03*
X4111Y1157D03*
X751Y1317D03*
X1151Y1317D03*
X754Y1159D03*
X1154Y1159D03*
G54D15*
X3828Y590D03*
X3928Y590D03*
G54D10*
X4235Y589D03*
X4635Y589D03*
X3689Y135D03*
X3583Y137D03*
G54D15*
X3684Y256D03*
X3584Y256D03*
G54D16*
X371Y332D03*
X135Y332D03*
X253Y147D03*
X371Y332D03*
X135Y332D03*
X253Y147D03*
G54D17*
X2224Y1597D03*
G54D18*
X3371Y1031D03*
G54D19*
X1712Y1432D03*
G54D17*
X625Y594D03*
G54D20*
X4644Y237D03*
X4644Y304D03*
G54D21*
D02*
G04 End of Mask1*
M02*