<?xml version='1.0' encoding='UTF-8' standalone='no'?>
<!-- Created with Fritzing (http://www.fritzing.org/) -->
<svg xmlns="http://www.w3.org/2000/svg" baseProfile="tiny" y="0in" viewBox="0 0 378.417 134.466" height="1.86758in"  x="0in" width="5.25579in" version="1.2" xmlns:svg="http://www.w3.org/2000/svg">
 <g transform="matrix(-1, 0, 0, 1, 378.417, 0)">
  <g partID="1583830">
   <g  id="board">
    <rect y="0.288" stroke="black" height="133.89" stroke-width="0.5"  id="boardoutline" width="377.841" x="0.288" fill="none" fill-opacity="0.5"/>
   </g>
  </g>
  <g partID="56971">
   <g transform="translate(137.518,12.3207)">
    <g  id="copper1">
     <g  id="copper0">
      <rect y="5.184" height="3.96" stroke="black" stroke-width="2.16"  width="3.96" x="20.664" fill="black"/>
      <circle cx="22.68" cy="7.2" stroke="black" stroke-width="2.16" r="1.98"  id="connector0pin" fill="black"/>
      <circle cx="29.88" cy="7.2" stroke="black" stroke-width="2.16" r="1.98"  id="connector1pin" fill="black"/>
      <circle cx="37.08" cy="7.2" stroke="black" stroke-width="2.16" r="1.98"  id="connector2pin" fill="black"/>
      <circle cx="44.28" cy="7.2" stroke="black" stroke-width="2.16" r="1.98"  id="connector3pin" fill="black"/>
      <circle cx="51.48" cy="7.2" stroke="black" stroke-width="2.16" r="1.98"  id="connector4pin" fill="black"/>
      <circle cx="58.68" cy="7.2" stroke="black" stroke-width="2.16" r="1.98"  id="connector5pin" fill="black"/>
      <circle cx="65.88" cy="7.2" stroke="black" stroke-width="2.16" r="1.98"  id="connector6pin" fill="black"/>
      <circle cx="73.08" cy="7.2" stroke="black" stroke-width="2.16" r="1.98"  id="connector7pin" fill="black"/>
      <circle cx="80.28" cy="7.2" stroke="black" stroke-width="2.16" r="1.98"  id="connector8pin" fill="black"/>
      <circle cx="87.48" cy="7.2" stroke="black" stroke-width="2.16" r="1.98"  id="connector9pin" fill="black"/>
      <circle cx="94.68" cy="7.2" stroke="black" stroke-width="2.16" r="1.98"  id="connector10pin" fill="black"/>
      <circle cx="101.88" cy="7.2" stroke="black" stroke-width="2.16" r="1.98"  id="connector11pin" fill="black"/>
      <circle cx="109.08" cy="7.2" stroke="black" stroke-width="2.16" r="1.98"  id="connector12pin" fill="black"/>
      <circle cx="116.28" cy="7.2" stroke="black" stroke-width="2.16" r="1.98"  id="connector13pin" fill="black"/>
      <circle cx="123.48" cy="7.2" stroke="black" stroke-width="2.16" r="1.98"  id="connector14pin" fill="black"/>
      <circle cx="130.68" cy="7.2" stroke="black" stroke-width="2.16" r="1.98"  id="connector15pin" fill="black"/>
     </g>
    </g>
   </g>
  </g>
  <g partID="1333641">
   <g transform="translate(5.23332,58.2339)">
    <g  id="copper1">
     <circle cx="4.71811" cy="4.71811" stroke="black" stroke-width="0.72" r="3.11811"  id="nonconn0" fill="black"/>
    </g>
   </g>
  </g>
  <g partID="1333621">
   <g transform="translate(5.29675,22.7587)">
    <g  id="copper1">
     <circle cx="4.71811" cy="4.71811" stroke="black" stroke-width="0.72" r="3.11811"  id="nonconn0" fill="black"/>
    </g>
   </g>
  </g>
  <g partID="1333401">
   <g transform="translate(363.773,22.5527)">
    <g  id="copper1">
     <circle cx="4.71811" cy="4.71811" stroke="black" stroke-width="0.72" r="3.11811"  id="nonconn0" fill="black"/>
    </g>
   </g>
  </g>
  <g partID="1333331">
   <g transform="translate(363.758,58.3185)">
    <g  id="copper1">
     <circle cx="4.71811" cy="4.71811" stroke="black" stroke-width="0.72" r="3.11811"  id="nonconn0" fill="black"/>
    </g>
   </g>
  </g>
  <g partID="1356651">
   <g transform="translate(23.009,22.4661)">
    <g  id="copper1">
     <g  id="copper0">
      <circle cx="5.04" cy="5.04" stroke="black" stroke-width="2.16" r="2.84599"  id="connector0pin" fill="black"/>
     </g>
    </g>
   </g>
  </g>
  <g partID="381251">
   <g transform="translate(253.521,56.6682)">
    <g transform="matrix(0,1,-1,0,0,0)">
     <g  id="copper1">
      <g  id="copper0">
       <circle cx="3.6" cy="10.8" stroke="black" stroke-width="1.944" r="1.908"  id="connector16pad" fill="black"/>
       <rect y="8.892" stroke="black" height="3.816" stroke-width="1.944"  x="1.692" width="3.814" fill="black"/>
       <circle cx="3.6" cy="18" stroke="black" stroke-width="1.944" r="1.908"  id="connector17pad" fill="black"/>
       <circle cx="3.6" cy="25.2" stroke="black" stroke-width="1.944" r="1.908"  id="connector18pad" fill="black"/>
       <circle cx="3.6" cy="32.4" stroke="black" stroke-width="1.944" r="1.908"  id="connector19pad" fill="black"/>
       <circle cx="3.6" cy="39.6" stroke="black" stroke-width="1.944" r="1.908"  id="connector20pad" fill="black"/>
       <circle cx="3.6" cy="46.8" stroke="black" stroke-width="1.944" r="1.908"  id="connector21pad" fill="black"/>
       <circle cx="3.6" cy="54" stroke="black" stroke-width="1.944" r="1.908"  id="connector22pad" fill="black"/>
       <circle cx="3.6" cy="61.2" stroke="black" stroke-width="1.944" r="1.908"  id="connector23pad" fill="black"/>
       <circle cx="3.6" cy="68.4" stroke="black" stroke-width="1.944" r="1.908"  id="connector24pad" fill="black"/>
       <circle cx="3.6" cy="75.6" stroke="black" stroke-width="1.944" r="1.908"  id="connector25pad" fill="black"/>
       <circle cx="3.6" cy="82.8" stroke="black" stroke-width="1.944" r="1.908"  id="connector26pad" fill="black"/>
       <circle cx="3.6" cy="90" stroke="black" stroke-width="1.944" r="1.908"  id="connector27pad" fill="black"/>
       <circle cx="3.6" cy="97.2" stroke="black" stroke-width="1.944" r="1.908"  id="connector28pad" fill="black"/>
       <circle cx="3.6" cy="104.4" stroke="black" stroke-width="1.944" r="1.908"  id="connector29pad" fill="black"/>
       <circle cx="3.6" cy="111.6" stroke="black" stroke-width="1.944" r="1.908"  id="connector30pad" fill="black"/>
       <circle cx="46.8" cy="10.8" stroke="black" stroke-width="1.944" r="1.908"  id="connector31pad" fill="black"/>
       <circle cx="46.8" cy="18" stroke="black" stroke-width="1.944" r="1.908"  id="connector32pad" fill="black"/>
       <circle cx="46.8" cy="25.2" stroke="black" stroke-width="1.944" r="1.908"  id="connector33pad" fill="black"/>
       <circle cx="46.8" cy="32.4" stroke="black" stroke-width="1.944" r="1.908"  id="connector34pad" fill="black"/>
       <circle cx="46.8" cy="39.6" stroke="black" stroke-width="1.944" r="1.908"  id="connector35pad" fill="black"/>
       <circle cx="46.8" cy="46.8" stroke="black" stroke-width="1.944" r="1.908"  id="connector36pad" fill="black"/>
       <circle cx="46.8" cy="54" stroke="black" stroke-width="1.944" r="1.908"  id="connector37pad" fill="black"/>
       <circle cx="46.8" cy="61.2" stroke="black" stroke-width="1.944" r="1.908"  id="connector38pad" fill="black"/>
       <circle cx="46.8" cy="68.4" stroke="black" stroke-width="1.944" r="1.908"  id="connector39pad" fill="black"/>
       <circle cx="46.8" cy="75.6" stroke="black" stroke-width="1.944" r="1.908"  id="connector40pad" fill="black"/>
       <circle cx="46.8" cy="82.8" stroke="black" stroke-width="1.944" r="1.908"  id="connector41pad" fill="black"/>
       <circle cx="46.8" cy="90" stroke="black" stroke-width="1.944" r="1.908"  id="connector42pad" fill="black"/>
       <circle cx="46.8" cy="97.2" stroke="black" stroke-width="1.944" r="1.908"  id="connector43pad" fill="black"/>
       <circle cx="46.8" cy="104.4" stroke="black" stroke-width="1.944" r="1.908"  id="connector44pad" fill="black"/>
       <circle cx="46.8" cy="111.6" stroke="black" stroke-width="1.944" r="1.908"  id="connector45pad" fill="black"/>
      </g>
     </g>
    </g>
   </g>
  </g>
  <g partID="1353931">
   <g transform="translate(346.142,34.4492)">
    <g  id="copper1">
     <g  id="copper0">
      <circle cx="5.04" cy="5.04" stroke="black" stroke-width="2.16" r="2.84599"  id="connector0pin" fill="black"/>
     </g>
    </g>
   </g>
  </g>
  <g partID="1353331">
   <g transform="translate(346.171,46.325)">
    <g  id="copper1">
     <g  id="copper0">
      <circle cx="5.04" cy="5.04" stroke="black" stroke-width="2.16" r="2.84599"  id="connector0pin" fill="black"/>
     </g>
    </g>
   </g>
  </g>
  <g partID="322661">
   <g transform="translate(90.0664,43.2989)">
    <g transform="matrix(0,-1,1,0,0,0)">
     <g  id="copper1">
      <g  id="copper0">
       <circle cx="3.6" cy="8.208" stroke="black" stroke-width="2.16" r="1.98"  id="connector0pin" fill="black"/>
       <circle cx="10.8" cy="8.208" stroke="black" stroke-width="2.16" r="1.98"  id="connector1pin" fill="black"/>
       <circle cx="18" cy="8.208" stroke="black" stroke-width="2.16" r="1.98"  id="connector2pin" fill="black"/>
      </g>
     </g>
    </g>
   </g>
  </g>
  <g partID="323481">
   <g transform="translate(106.811,47.625)">
    <g transform="matrix(0,1,-1,0,0,0)">
     <g  id="copper1">
      <g  id="copper0">
       <circle cx="3.6" cy="8.208" stroke="black" stroke-width="2.16" r="1.98"  id="connector0pin" fill="black"/>
       <circle cx="10.8" cy="8.208" stroke="black" stroke-width="2.16" r="1.98"  id="connector1pin" fill="black"/>
       <circle cx="18" cy="8.208" stroke="black" stroke-width="2.16" r="1.98"  id="connector2pin" fill="black"/>
      </g>
     </g>
    </g>
   </g>
  </g>
  <g partID="325441">
   <g transform="translate(291.416,47.6647)">
    <g transform="matrix(0,1,-1,0,0,0)">
     <g  id="copper1">
      <g  id="copper0">
       <circle cx="3.6" cy="8.208" stroke="black" stroke-width="2.16" r="1.98"  id="connector0pin" fill="black"/>
       <circle cx="10.8" cy="8.208" stroke="black" stroke-width="2.16" r="1.98"  id="connector1pin" fill="black"/>
       <circle cx="18" cy="8.208" stroke="black" stroke-width="2.16" r="1.98"  id="connector2pin" fill="black"/>
      </g>
     </g>
    </g>
   </g>
  </g>
  <g partID="324621">
   <g transform="translate(275.033,43.3066)">
    <g transform="matrix(0,-1,1,0,0,0)">
     <g  id="copper1">
      <g  id="copper0">
       <circle cx="3.6" cy="8.208" stroke="black" stroke-width="2.16" r="1.98"  id="connector0pin" fill="black"/>
       <circle cx="10.8" cy="8.208" stroke="black" stroke-width="2.16" r="1.98"  id="connector1pin" fill="black"/>
       <circle cx="18" cy="8.208" stroke="black" stroke-width="2.16" r="1.98"  id="connector2pin" fill="black"/>
      </g>
     </g>
    </g>
   </g>
  </g>
  <g partID="327421">
   <g transform="translate(217.283,44.6329)">
    <g transform="matrix(-1,0,0,-1,0,0)">
     <g  id="copper1">
      <!-- <rect width="55" x="10" y="15.5" fill="none" height="55" stroke="rgb(255, 191, 0)" stroke-width="20" />  -->
      <circle cx="2.7" cy="3.096" stroke="black" stroke-width="2.16" r="1.98"  id="connector0pin" fill="black"/>
      <circle cx="31.5" cy="3.096" stroke="black" stroke-width="2.16" r="1.98"  id="connector1pin" fill="black"/>
     </g>
    </g>
   </g>
  </g>
  <g partID="327321">
   <g transform="translate(217.624,51.5317)">
    <g transform="matrix(-1,0,0,-1,0,0)">
     <g  id="copper1">
      <!-- <rect width="55" x="10" y="15.5" fill="none" height="55" stroke="rgb(255, 191, 0)" stroke-width="20" />  -->
      <circle cx="2.7" cy="3.096" stroke="black" stroke-width="2.16" r="1.98"  id="connector0pin" fill="black"/>
      <circle cx="31.5" cy="3.096" stroke="black" stroke-width="2.16" r="1.98"  id="connector1pin" fill="black"/>
     </g>
    </g>
   </g>
  </g>
  <g partID="327221">
   <g transform="translate(111.948,66.4122)">
    <g  id="copper1">
     <!-- <rect width="55" x="10" y="15.5" fill="none" height="55" stroke="rgb(255, 191, 0)" stroke-width="20" />  -->
     <circle cx="2.7" cy="3.096" stroke="black" stroke-width="2.16" r="1.98"  id="connector0pin" fill="black"/>
     <circle cx="31.5" cy="3.096" stroke="black" stroke-width="2.16" r="1.98"  id="connector1pin" fill="black"/>
    </g>
   </g>
  </g>
  <g partID="326261">
   <g transform="translate(131.923,47.0367)">
    <g  id="copper1">
     <!-- <rect width="55" x="10" y="15.5" fill="none" height="55" stroke="rgb(255, 191, 0)" stroke-width="20" />  -->
     <circle cx="2.7" cy="3.096" stroke="black" stroke-width="2.16" r="1.98"  id="connector0pin" fill="black"/>
     <circle cx="31.5" cy="3.096" stroke="black" stroke-width="2.16" r="1.98"  id="connector1pin" fill="black"/>
    </g>
   </g>
  </g>
  <g partID="1354511">
   <g transform="translate(346.278,22.5426)">
    <g  id="copper1">
     <g  id="copper0">
      <circle cx="5.04" cy="5.04" stroke="black" stroke-width="2.16" r="2.84599"  id="connector0pin" fill="black"/>
     </g>
    </g>
   </g>
  </g>
  <g partID="1356051">
   <g transform="translate(38.5817,22.5785)">
    <g  id="copper1">
     <g  id="copper0">
      <circle cx="5.04" cy="5.04" stroke="black" stroke-width="2.16" r="2.84599"  id="connector0pin" fill="black"/>
     </g>
    </g>
   </g>
  </g>
  <g partID="1354751">
   <g transform="translate(330.494,22.6242)">
    <g  id="copper1">
     <g  id="copper0">
      <circle cx="5.04" cy="5.04" stroke="black" stroke-width="2.16" r="2.84599"  id="connector0pin" fill="black"/>
     </g>
    </g>
   </g>
  </g>
  <g partID="1357511">
   <g transform="translate(22.7891,46.3863)">
    <g  id="copper1">
     <g  id="copper0">
      <circle cx="5.04" cy="5.04" stroke="black" stroke-width="2.16" r="2.84599"  id="connector0pin" fill="black"/>
     </g>
    </g>
   </g>
  </g>
  <g partID="1355471">
   <g transform="translate(330.63,58.236)">
    <g  id="copper1">
     <g  id="copper0">
      <circle cx="5.04" cy="5.04" stroke="black" stroke-width="2.16" r="2.84599"  id="connector0pin" fill="black"/>
     </g>
    </g>
   </g>
  </g>
  <g partID="1358151">
   <g transform="translate(38.4758,58.3286)">
    <g  id="copper1">
     <g  id="copper0">
      <circle cx="5.04" cy="5.04" stroke="black" stroke-width="2.16" r="2.84599"  id="connector0pin" fill="black"/>
     </g>
    </g>
   </g>
  </g>
  <g partID="1356931">
   <g transform="translate(22.8219,34.588)">
    <g  id="copper1">
     <g  id="copper0">
      <circle cx="5.04" cy="5.04" stroke="black" stroke-width="2.16" r="2.84599"  id="connector0pin" fill="black"/>
     </g>
    </g>
   </g>
  </g>
  <g partID="1355351">
   <g transform="translate(330.489,34.4915)">
    <g  id="copper1">
     <g  id="copper0">
      <circle cx="5.04" cy="5.04" stroke="black" stroke-width="2.16" r="2.84599"  id="connector0pin" fill="black"/>
     </g>
    </g>
   </g>
  </g>
  <g partID="1355411">
   <g transform="translate(330.762,46.3826)">
    <g  id="copper1">
     <g  id="copper0">
      <circle cx="5.04" cy="5.04" stroke="black" stroke-width="2.16" r="2.84599"  id="connector0pin" fill="black"/>
     </g>
    </g>
   </g>
  </g>
  <g partID="1358091">
   <g transform="translate(38.5004,46.3297)">
    <g  id="copper1">
     <g  id="copper0">
      <circle cx="5.04" cy="5.04" stroke="black" stroke-width="2.16" r="2.84599"  id="connector0pin" fill="black"/>
     </g>
    </g>
   </g>
  </g>
  <g partID="1356871">
   <g transform="translate(38.3794,34.4539)">
    <g  id="copper1">
     <g  id="copper0">
      <circle cx="5.04" cy="5.04" stroke="black" stroke-width="2.16" r="2.84599"  id="connector0pin" fill="black"/>
     </g>
    </g>
   </g>
  </g>
  <g partID="1358731">
   <g transform="translate(23.0386,58.3247)">
    <g  id="copper1">
     <g  id="copper0">
      <circle cx="5.04" cy="5.04" stroke="black" stroke-width="2.16" r="2.84599"  id="connector0pin" fill="black"/>
     </g>
    </g>
   </g>
  </g>
  <g partID="1353111">
   <g transform="translate(346.14,58.4469)">
    <g  id="copper1">
     <g  id="copper0">
      <circle cx="5.04" cy="5.04" stroke="black" stroke-width="2.16" r="2.84599"  id="connector0pin" fill="black"/>
     </g>
    </g>
   </g>
  </g>
  <g partID="330261">
   <g transform="translate(131.018,38.1463)">
    <g transform="matrix(-1,0,0,-1,0,0)">
     <g id="copper1">
      <g id="copper0">
       <rect y="4.60063" height="4.32" stroke="black" stroke-width="2.16" id="square" width="4.32" x="5.616" fill="black"/>
       <circle cx="7.776" cy="6.76063" stroke="black" stroke-width="2.16" r="2.16" id="connector0pin" fill="black"/>
       <circle cx="7.776" cy="16.6819" stroke="black" stroke-width="2.16" r="2.16" id="connector1pin" fill="black"/>
      </g>
     </g>
    </g>
   </g>
  </g>
  <g partID="72101">
   <g transform="translate(40.7105,87.3619)">
    <g  id="copper1">
     <g  id="copper0">
      <rect y="2.34" height="3.96" stroke="black" stroke-width="2.16"  id="square" width="3.96" x="2.34" fill="black"/>
      <circle cx="4.32" cy="4.32" stroke="black" stroke-width="2.16" r="1.98"  id="connector0pin" fill="black"/>
      <circle cx="25.92" cy="4.32" stroke="black" stroke-width="2.16" r="1.98"  id="connector7pin" fill="black"/>
      <circle cx="4.32" cy="11.52" stroke="black" stroke-width="2.16" r="1.98"  id="connector1pin" fill="black"/>
      <circle cx="25.92" cy="11.52" stroke="black" stroke-width="2.16" r="1.98"  id="connector6pin" fill="black"/>
      <circle cx="4.32" cy="18.72" stroke="black" stroke-width="2.16" r="1.98"  id="connector2pin" fill="black"/>
      <circle cx="25.92" cy="18.72" stroke="black" stroke-width="2.16" r="1.98"  id="connector5pin" fill="black"/>
      <circle cx="4.32" cy="25.92" stroke="black" stroke-width="2.16" r="1.98"  id="connector3pin" fill="black"/>
      <circle cx="25.92" cy="25.92" stroke="black" stroke-width="2.16" r="1.98"  id="connector4pin" fill="black"/>
     </g>
    </g>
   </g>
  </g>
  <g partID="57121">
   <g transform="translate(264.26,26.3316)">
    <g transform="matrix(0,1,-1,0,0,0)">
     <g  id="copper1">
      <!-- <rect width="55" x="10" y="15.5" fill="none" height="55" stroke="rgb(255, 191, 0)" stroke-width="20" />  -->
      <circle cx="2.7" cy="3.096" stroke="black" stroke-width="2.16" r="1.98"  id="connector0pin" fill="black"/>
      <circle cx="31.5" cy="3.096" stroke="black" stroke-width="2.16" r="1.98"  id="connector1pin" fill="black"/>
     </g>
    </g>
   </g>
  </g>
  <g partID="73311">
   <g transform="translate(96.7827,81.129)">
    <g transform="matrix(0.707107,0.707107,-0.707107,0.707107,0,0)">
     <g  id="copper1">
      <!-- <rect width="55" x="10" y="15.5" fill="none" height="55" stroke="rgb(255, 191, 0)" stroke-width="20" />  -->
      <circle cx="2.7" cy="3.096" stroke="black" stroke-width="2.16" r="1.98"  id="connector0pin" fill="black"/>
      <circle cx="31.5" cy="3.096" stroke="black" stroke-width="2.16" r="1.98"  id="connector1pin" fill="black"/>
     </g>
    </g>
   </g>
  </g>
  <g partID="383811">
   <g transform="translate(296.611,107.733)">
    <g transform="matrix(-1,0,0,-1,0,0)">
     <g  id="copper1">
      <!-- <rect width="55" x="10" y="15.5" fill="none" height="55" stroke="rgb(255, 191, 0)" stroke-width="20" />  -->
      <circle cx="2.7" cy="3.096" stroke="black" stroke-width="2.16" r="1.98"  id="connector0pin" fill="black"/>
      <circle cx="31.5" cy="3.096" stroke="black" stroke-width="2.16" r="1.98"  id="connector1pin" fill="black"/>
     </g>
    </g>
   </g>
  </g>
  <g partID="73251">
   <g transform="translate(84.9364,80.8724)">
    <g transform="matrix(0.707107,0.707107,-0.707107,0.707107,0,0)">
     <g  id="copper1">
      <!-- <rect width="55" x="10" y="15.5" fill="none" height="55" stroke="rgb(255, 191, 0)" stroke-width="20" />  -->
      <circle cx="2.7" cy="3.096" stroke="black" stroke-width="2.16" r="1.98"  id="connector0pin" fill="black"/>
      <circle cx="31.5" cy="3.096" stroke="black" stroke-width="2.16" r="1.98"  id="connector1pin" fill="black"/>
     </g>
    </g>
   </g>
  </g>
  <g partID="137661">
   <g transform="translate(327.526,42.892)">
    <g transform="matrix(-1,0,0,-1,0,0)">
     <g  id="copper1">
      <!-- <rect width="55" x="10" y="15.5" fill="none" height="55" stroke="rgb(255, 191, 0)" stroke-width="20" />  -->
      <circle cx="2.7" cy="3.096" stroke="black" stroke-width="2.16" r="1.98"  id="connector0pin" fill="black"/>
      <circle cx="31.5" cy="3.096" stroke="black" stroke-width="2.16" r="1.98"  id="connector1pin" fill="black"/>
     </g>
    </g>
   </g>
  </g>
  <g partID="137601">
   <g transform="translate(327.483,54.2708)">
    <g transform="matrix(-1,0,0,-1,0,0)">
     <g  id="copper1">
      <!-- <rect width="55" x="10" y="15.5" fill="none" height="55" stroke="rgb(255, 191, 0)" stroke-width="20" />  -->
      <circle cx="2.7" cy="3.096" stroke="black" stroke-width="2.16" r="1.98"  id="connector0pin" fill="black"/>
      <circle cx="31.5" cy="3.096" stroke="black" stroke-width="2.16" r="1.98"  id="connector1pin" fill="black"/>
     </g>
    </g>
   </g>
  </g>
  <g partID="137481">
   <g transform="translate(51.3617,36.5208)">
    <g  id="copper1">
     <!-- <rect width="55" x="10" y="15.5" fill="none" height="55" stroke="rgb(255, 191, 0)" stroke-width="20" />  -->
     <circle cx="2.7" cy="3.096" stroke="black" stroke-width="2.16" r="1.98"  id="connector0pin" fill="black"/>
     <circle cx="31.5" cy="3.096" stroke="black" stroke-width="2.16" r="1.98"  id="connector1pin" fill="black"/>
    </g>
   </g>
  </g>
  <g partID="137541">
   <g transform="translate(51.5814,47.9131)">
    <g  id="copper1">
     <!-- <rect width="55" x="10" y="15.5" fill="none" height="55" stroke="rgb(255, 191, 0)" stroke-width="20" />  -->
     <circle cx="2.7" cy="3.096" stroke="black" stroke-width="2.16" r="1.98"  id="connector0pin" fill="black"/>
     <circle cx="31.5" cy="3.096" stroke="black" stroke-width="2.16" r="1.98"  id="connector1pin" fill="black"/>
    </g>
   </g>
  </g>
  <g partID="1418041">
   <g transform="translate(270.601,97.0459)">
    <g transform="matrix(0,-1,1,0,0,0)">
     <g  id="copper1">
      <g  id="copper0">
       <circle cx="5.04" cy="5.04" stroke="black" stroke-width="2.16" r="2.088"  id="connector0pin" fill="black"/>
       <circle cx="5.04" cy="12.24" stroke="black" stroke-width="2.16" r="2.088"  id="connector1pin" fill="black"/>
      </g>
     </g>
    </g>
   </g>
  </g>
  <g partID="1421390">
   <g transform="translate(332.249,119.659)">
    <g transform="matrix(0,-1,1,0,0,0)">
     <g  id="copper1">
      <rect y="0.566929" height="3.11811" stroke="black" stroke-width="0.72"  id="connector0pad" width="3.40157" x="0.566929" fill="black" fill-opacity="1"/>
      <rect y="0.566929" height="3.11811" stroke="black" stroke-width="0.72"  id="connector1pad" width="3.40157" x="5.38583" fill="black" fill-opacity="1"/>
     </g>
    </g>
   </g>
  </g>
  <g partID="1421461">
   <g transform="translate(302.203,88.9835)">
    <g  id="copper1">
     <!-- <rect width="55" x="10" y="15.5" fill="none" height="55" stroke="rgb(255, 191, 0)" stroke-width="20" />  -->
     <circle cx="2.7" cy="3.096" stroke="black" stroke-width="2.16" r="1.98"  id="connector0pin" fill="black"/>
     <circle cx="31.5" cy="3.096" stroke="black" stroke-width="2.16" r="1.98"  id="connector1pin" fill="black"/>
    </g>
   </g>
  </g>
  <g partID="1445051">
   <g transform="translate(260.868,119.986)">
    <g  id="copper1">
     <circle cx="4.752" cy="4.752" stroke="black" stroke-width="2.16" r="1.98"  id="connector0pad" fill="black"/>
     <circle cx="4.752" cy="26.0111" stroke="black" stroke-width="2.16" r="1.98"  id="connector1pad" fill="black"/>
    </g>
   </g>
  </g>
  <g partID="1445991">
   <g transform="translate(253.197,119.816)">
    <g  id="copper1">
     <circle cx="4.752" cy="4.752" stroke="black" stroke-width="2.16" r="1.98"  id="connector0pad" fill="black"/>
     <circle cx="4.752" cy="26.352" stroke="black" stroke-width="2.16" r="1.98"  id="connector1pad" fill="black"/>
    </g>
   </g>
  </g>
  <g partID="1433601">
   <g transform="translate(270.306,110.966)">
    <g transform="matrix(0,1,-1,0,0,0)">
     <g  id="copper1">
      <g  id="copper0">
       <circle cx="5.04" cy="5.04" stroke="black" stroke-width="2.16" r="2.088"  id="connector0pin" fill="black"/>
       <circle cx="5.04" cy="12.24" stroke="black" stroke-width="2.16" r="2.088"  id="connector1pin" fill="black"/>
      </g>
     </g>
    </g>
   </g>
  </g>
  <g partID="1588311">
   <g transform="translate(32.8419,97.4991)">
    <g transform="matrix(0,1,-1,0,0,0)">
     <g  id="copper1">
      <circle cx="13.0439" cy="6.12" stroke="black" stroke-width="2.592" connectorname="PWR" r="5.184"  id="connector2pad" fill="black"/>
      <circle cx="13.0439" cy="23.1279" stroke="black" stroke-width="2.592" connectorname="GND" r="5.184"  id="connector0pad" fill="black"/>
      <circle cx="26.3668" cy="14.6239" stroke="black" stroke-width="2.592" connectorname="GNDBREAK" r="5.184"  id="connector1pad" fill="black"/>
      <g  id="copper0">
       <circle cx="13.0439" cy="6.12" stroke="black" stroke-width="2.592" connectorname="PWR" r="5.184"  id="connector2pad" fill="black"/>
       <circle cx="13.0439" cy="23.1279" stroke="black" stroke-width="2.592" connectorname="GND" r="5.184"  id="connector0pad" fill="black"/>
       <circle cx="26.3668" cy="14.6239" stroke="black" stroke-width="2.592" connectorname="GNDBREAK" r="5.184"  id="connector1pad" fill="black"/>
      </g>
     </g>
    </g>
   </g>
  </g>
 </g>
</svg>
