G04 MADE WITH FRITZING*
G04 WWW.FRITZING.ORG*
G04 DOUBLE SIDED*
G04 HOLES PLATED*
G04 CONTOUR ON CENTER OF CONTOUR VECTOR*
%ASAXBY*%
%FSLAX23Y23*%
%MOIN*%
%OFA0B0*%
%SFA1.0B1.0*%
%ADD10C,0.099055*%
%ADD11C,0.070000*%
%ADD12C,0.075000*%
%ADD13C,0.078000*%
%ADD14C,0.170000*%
%ADD15R,0.070000X0.069972*%
%ADD16R,0.059055X0.106299*%
%ADD17C,0.048000*%
%ADD18C,0.024000*%
%ADD19R,0.001000X0.001000*%
%LNCOPPER1*%
G90*
G70*
G54D10*
X388Y1484D03*
G54D11*
X3550Y1341D03*
X3450Y1341D03*
X3350Y1341D03*
X3250Y1341D03*
X3150Y1341D03*
X3050Y1341D03*
X2950Y1341D03*
X2850Y1341D03*
X2750Y1341D03*
X2650Y1341D03*
X2550Y1341D03*
X2450Y1341D03*
X2350Y1341D03*
X2250Y1341D03*
X2150Y1341D03*
X3550Y741D03*
X3450Y741D03*
X3350Y741D03*
X3250Y741D03*
X3150Y741D03*
X3050Y741D03*
X2950Y741D03*
X2850Y741D03*
X2750Y741D03*
X2650Y741D03*
X2550Y741D03*
X2450Y741D03*
X2350Y741D03*
X2250Y741D03*
X2150Y741D03*
G54D10*
X4876Y1318D03*
X4876Y1153D03*
G54D12*
X1338Y1516D03*
X1338Y1416D03*
X1338Y1316D03*
X1337Y958D03*
X1337Y1058D03*
X1337Y1158D03*
X3921Y949D03*
X3921Y1049D03*
X3921Y1149D03*
X3927Y1516D03*
X3927Y1416D03*
X3927Y1316D03*
X3195Y1608D03*
X2795Y1608D03*
X3178Y1473D03*
X2778Y1473D03*
X1798Y1477D03*
X2198Y1477D03*
X1781Y1605D03*
X2181Y1605D03*
G54D10*
X4877Y1483D03*
X604Y1482D03*
X4658Y1482D03*
X385Y1152D03*
X4660Y987D03*
X602Y986D03*
X385Y1316D03*
X4658Y1317D03*
X4662Y1152D03*
X603Y1153D03*
X601Y1317D03*
X388Y986D03*
X4876Y984D03*
G54D12*
X4510Y1313D03*
X4110Y1313D03*
X4512Y1148D03*
X4112Y1148D03*
X749Y1316D03*
X1149Y1316D03*
X752Y1158D03*
X1152Y1158D03*
G54D13*
X4423Y584D03*
X4523Y584D03*
X2546Y390D03*
X2646Y390D03*
X2746Y390D03*
X2846Y390D03*
G54D12*
X759Y264D03*
X1509Y266D03*
X857Y265D03*
X1399Y266D03*
X655Y265D03*
G54D14*
X4868Y241D03*
X5104Y241D03*
X4986Y426D03*
X4868Y241D03*
X5104Y241D03*
X4986Y426D03*
X369Y331D03*
X133Y331D03*
X251Y146D03*
X369Y331D03*
X133Y331D03*
X251Y146D03*
G54D12*
X4111Y1515D03*
X4511Y1515D03*
X1149Y1517D03*
X749Y1517D03*
X1157Y954D03*
X757Y954D03*
X4112Y949D03*
X4512Y949D03*
G54D15*
X3550Y1341D03*
G54D16*
X3991Y587D03*
X4188Y587D03*
G54D17*
X231Y1314D02*
X333Y1315D01*
D02*
X5045Y1152D02*
X5038Y1788D01*
D02*
X5038Y1788D02*
X238Y1739D01*
D02*
X238Y1739D02*
X224Y1342D01*
D02*
X224Y1342D02*
X231Y1314D01*
D02*
X4928Y1152D02*
X5045Y1152D01*
D02*
X328Y396D02*
X326Y399D01*
D02*
X370Y629D02*
X369Y412D01*
D02*
X236Y820D02*
X370Y629D01*
D02*
X229Y1324D02*
X236Y820D01*
D02*
X333Y1318D02*
X229Y1324D01*
D02*
X327Y626D02*
X328Y396D01*
D02*
X192Y816D02*
X327Y626D01*
D02*
X333Y1152D02*
X185Y1154D01*
D02*
X185Y1154D02*
X192Y816D01*
D02*
X269Y1318D02*
X261Y1711D01*
D02*
X261Y1711D02*
X1900Y1709D01*
D02*
X333Y1317D02*
X269Y1318D01*
D02*
X192Y1758D02*
X1812Y1784D01*
D02*
X333Y1152D02*
X186Y1153D01*
D02*
X186Y1153D02*
X192Y1758D01*
G54D18*
D02*
X2220Y1458D02*
X2328Y1360D01*
D02*
X1781Y1455D02*
X1466Y1062D01*
D02*
X1752Y1603D02*
X1609Y1595D01*
D02*
X1609Y1595D02*
X1458Y1416D01*
D02*
X2201Y1585D02*
X2429Y1361D01*
G54D17*
D02*
X5004Y1320D02*
X4999Y1718D01*
D02*
X4999Y1718D02*
X1900Y1709D01*
D02*
X4927Y1318D02*
X5004Y1320D01*
D02*
X5082Y1155D02*
X5084Y1761D01*
D02*
X5084Y1761D02*
X1812Y1784D01*
D02*
X4928Y1153D02*
X5082Y1155D01*
G54D18*
D02*
X3224Y1608D02*
X3656Y1609D01*
D02*
X2776Y1587D02*
X2570Y1362D01*
D02*
X2758Y1452D02*
X2670Y1362D01*
D02*
X3618Y1474D02*
X3207Y1473D01*
D02*
X3892Y1049D02*
X3807Y1049D01*
D02*
X3656Y1609D02*
X3820Y1417D01*
D02*
X2624Y369D02*
X2337Y91D01*
D02*
X2950Y712D02*
X2944Y296D01*
D02*
X2850Y712D02*
X2846Y420D01*
D02*
X1528Y288D02*
X2104Y984D01*
D02*
X1417Y288D02*
X2070Y1071D01*
D02*
X876Y287D02*
X1174Y634D01*
D02*
X777Y285D02*
X1157Y714D01*
G54D17*
D02*
X4804Y321D02*
X4817Y305D01*
D02*
X4927Y1318D02*
X5075Y1319D01*
D02*
X5035Y1147D02*
X5043Y779D01*
D02*
X4928Y1151D02*
X5035Y1147D01*
D02*
X4843Y594D02*
X4843Y326D01*
D02*
X5087Y872D02*
X4799Y594D01*
D02*
X5075Y1319D02*
X5087Y872D01*
D02*
X5043Y779D02*
X4843Y594D01*
G54D18*
D02*
X2104Y984D02*
X2877Y982D01*
D02*
X2877Y982D02*
X3132Y1318D01*
D02*
X2835Y1069D02*
X3032Y1318D01*
D02*
X1610Y633D02*
X2032Y1151D01*
D02*
X2805Y1149D02*
X2932Y1318D01*
D02*
X1174Y634D02*
X1610Y633D01*
D02*
X1567Y715D02*
X1993Y1231D01*
D02*
X2769Y1231D02*
X2833Y1317D01*
D02*
X1157Y714D02*
X1567Y715D01*
D02*
X2818Y167D02*
X2527Y167D01*
D02*
X2527Y167D02*
X2725Y368D01*
D02*
X2940Y94D02*
X3432Y718D01*
D02*
X801Y91D02*
X2940Y94D01*
D02*
X2944Y90D02*
X3432Y718D01*
D02*
X2944Y296D02*
X2818Y167D01*
D02*
X2070Y1071D02*
X2835Y1069D01*
D02*
X2337Y91D02*
X2944Y90D01*
D02*
X2032Y1151D02*
X2805Y1149D01*
D02*
X1993Y1231D02*
X2769Y1231D01*
D02*
X673Y243D02*
X801Y91D01*
D02*
X4767Y1059D02*
X4845Y1126D01*
D02*
X4546Y604D02*
X4772Y805D01*
D02*
X4772Y805D02*
X4767Y1059D01*
D02*
X1466Y1062D02*
X1365Y1058D01*
D02*
X3703Y1383D02*
X3618Y1474D01*
D02*
X3700Y1143D02*
X3703Y1383D01*
D02*
X3807Y1049D02*
X3700Y1143D01*
G54D17*
D02*
X5091Y1319D02*
X5123Y1791D01*
D02*
X5123Y1791D02*
X148Y1792D01*
D02*
X148Y1792D02*
X152Y808D01*
D02*
X152Y808D02*
X283Y614D01*
D02*
X283Y614D02*
X280Y412D01*
D02*
X280Y412D02*
X309Y386D01*
D02*
X4927Y1318D02*
X5091Y1319D01*
D02*
X5030Y1788D02*
X5129Y1793D01*
D02*
X5019Y1755D02*
X5030Y1788D01*
D02*
X5129Y1793D02*
X5129Y749D01*
D02*
X5129Y749D02*
X4885Y551D01*
D02*
X4885Y551D02*
X4789Y581D01*
D02*
X4789Y581D02*
X4782Y281D01*
D02*
X4782Y281D02*
X4794Y275D01*
D02*
X4865Y580D02*
X4863Y340D01*
D02*
X4863Y340D02*
X4864Y322D01*
D02*
X4843Y326D02*
X4845Y319D01*
D02*
X4799Y594D02*
X4804Y321D01*
D02*
X5087Y769D02*
X4865Y580D01*
D02*
X5084Y1761D02*
X5087Y769D01*
D02*
X238Y1739D02*
X5019Y1755D01*
G54D18*
D02*
X1458Y1416D02*
X1367Y1416D01*
D02*
X3820Y1417D02*
X3898Y1416D01*
D02*
X3712Y589D02*
X3571Y721D01*
D02*
X3967Y587D02*
X3712Y589D01*
D02*
X4393Y585D02*
X4212Y586D01*
G54D19*
D02*
G04 End of Copper1*
M02*