G04 MADE WITH FRITZING*
G04 WWW.FRITZING.ORG*
G04 DOUBLE SIDED*
G04 HOLES PLATED*
G04 CONTOUR ON CENTER OF CONTOUR VECTOR*
%ASAXBY*%
%FSLAX23Y23*%
%MOIN*%
%OFA0B0*%
%SFA1.0B1.0*%
%ADD10C,0.075000*%
%ADD11C,0.099055*%
%ADD12C,0.070000*%
%ADD13C,0.078000*%
%ADD14C,0.170000*%
%ADD15R,0.075000X0.075000*%
%ADD16R,0.070000X0.069972*%
%ADD17C,0.048000*%
%ADD18C,0.024000*%
%ADD19R,0.001000X0.001000*%
%LNCOPPER0*%
G90*
G70*
G54D10*
X2225Y1596D03*
X2325Y1596D03*
X2425Y1596D03*
X2525Y1596D03*
X2625Y1596D03*
X2725Y1596D03*
X2825Y1596D03*
X2925Y1596D03*
X3025Y1596D03*
X3125Y1596D03*
X3225Y1596D03*
X3325Y1596D03*
X3425Y1596D03*
X3525Y1596D03*
X3625Y1596D03*
X3725Y1596D03*
G54D11*
X390Y1486D03*
G54D12*
X3369Y1025D03*
X3269Y1025D03*
X3169Y1025D03*
X3069Y1025D03*
X2969Y1025D03*
X2869Y1025D03*
X2769Y1025D03*
X2669Y1025D03*
X2569Y1025D03*
X2469Y1025D03*
X2369Y1025D03*
X2269Y1025D03*
X2169Y1025D03*
X2069Y1025D03*
X1969Y1025D03*
X3369Y425D03*
X3269Y425D03*
X3169Y425D03*
X3069Y425D03*
X2969Y425D03*
X2869Y425D03*
X2769Y425D03*
X2669Y425D03*
X2569Y425D03*
X2469Y425D03*
X2369Y425D03*
X2269Y425D03*
X2169Y425D03*
X2069Y425D03*
X1969Y425D03*
G54D11*
X4878Y1319D03*
X4878Y1154D03*
G54D10*
X1340Y1517D03*
X1340Y1417D03*
X1340Y1317D03*
X1339Y959D03*
X1339Y1059D03*
X1339Y1159D03*
X3922Y951D03*
X3922Y1051D03*
X3922Y1151D03*
X3929Y1517D03*
X3929Y1417D03*
X3929Y1317D03*
X2980Y1291D03*
X2580Y1291D03*
X2985Y1195D03*
X2585Y1195D03*
X1760Y1210D03*
X2160Y1210D03*
X1874Y1323D03*
X2274Y1323D03*
G54D11*
X4879Y1484D03*
X606Y1484D03*
X4660Y1483D03*
X387Y1153D03*
X4662Y989D03*
X604Y987D03*
X387Y1317D03*
X4660Y1319D03*
X4664Y1153D03*
X605Y1154D03*
X603Y1319D03*
X390Y988D03*
X4878Y986D03*
G54D10*
X625Y594D03*
X925Y594D03*
X625Y494D03*
X925Y494D03*
X625Y394D03*
X925Y394D03*
X625Y294D03*
X925Y294D03*
X3627Y1464D03*
X3627Y1064D03*
X1340Y684D03*
X1623Y401D03*
X3985Y425D03*
X3585Y425D03*
X1176Y687D03*
X1459Y405D03*
X4511Y1315D03*
X4111Y1315D03*
X4511Y1157D03*
X4111Y1157D03*
X751Y1317D03*
X1151Y1317D03*
X754Y1159D03*
X1154Y1159D03*
G54D13*
X3828Y590D03*
X3928Y590D03*
G54D10*
X3697Y309D03*
X3586Y308D03*
G54D14*
X4870Y243D03*
X5106Y243D03*
X4988Y428D03*
X371Y332D03*
X135Y332D03*
X253Y147D03*
G54D15*
X2224Y1597D03*
G54D16*
X3369Y1025D03*
G54D15*
X625Y594D03*
G54D17*
X5173Y319D02*
X5160Y304D01*
D02*
X2611Y1767D02*
X5168Y1753D01*
D02*
X5168Y1753D02*
X5173Y319D01*
D02*
X2622Y1636D02*
X2611Y1767D01*
D02*
X5209Y310D02*
X5174Y287D01*
D02*
X2223Y1785D02*
X5209Y1790D01*
D02*
X5209Y1790D02*
X5209Y310D01*
D02*
X2225Y1636D02*
X2223Y1785D01*
D02*
X5136Y337D02*
X5131Y320D01*
D02*
X5136Y1712D02*
X5136Y337D01*
D02*
X1611Y1735D02*
X5136Y1712D01*
D02*
X1621Y1310D02*
X1611Y1735D01*
D02*
X1380Y1316D02*
X1621Y1310D01*
D02*
X1620Y1159D02*
X1602Y1728D01*
D02*
X1602Y1728D02*
X5109Y1711D01*
D02*
X5109Y1711D02*
X5103Y337D01*
D02*
X5103Y337D02*
X5103Y324D01*
D02*
X1378Y1159D02*
X1620Y1159D01*
G54D18*
D02*
X3585Y396D02*
X3586Y337D01*
G54D17*
D02*
X2229Y1717D02*
X142Y1725D01*
D02*
X142Y1725D02*
X135Y413D01*
D02*
X2226Y1636D02*
X2229Y1717D01*
D02*
X59Y362D02*
X65Y1794D01*
D02*
X65Y1794D02*
X1603Y1782D01*
D02*
X1603Y1782D02*
X1616Y1312D01*
D02*
X1616Y1312D02*
X1380Y1316D01*
D02*
X59Y362D02*
X59Y362D01*
D02*
X4072Y1315D02*
X3969Y1317D01*
D02*
X4071Y1156D02*
X3962Y1152D01*
D02*
X1300Y1317D02*
X1191Y1317D01*
D02*
X1299Y1159D02*
X1194Y1159D01*
D02*
X171Y375D02*
X188Y394D01*
D02*
X189Y1704D02*
X171Y375D01*
D02*
X1615Y1726D02*
X189Y1704D01*
D02*
X1613Y1161D02*
X1615Y1726D01*
D02*
X1378Y1159D02*
X1613Y1161D01*
D02*
X104Y384D02*
X93Y402D01*
D02*
X95Y1756D02*
X104Y384D01*
D02*
X3757Y1744D02*
X95Y1756D01*
D02*
X3769Y1152D02*
X3757Y1744D01*
D02*
X3883Y1151D02*
X3769Y1152D01*
D02*
X86Y1796D02*
X132Y413D01*
D02*
X3781Y1786D02*
X86Y1796D01*
D02*
X3781Y1316D02*
X3781Y1786D01*
D02*
X3889Y1317D02*
X3781Y1316D01*
D02*
X3732Y1316D02*
X3726Y1557D01*
D02*
X3735Y898D02*
X3732Y1316D01*
D02*
X3071Y896D02*
X3736Y898D01*
D02*
X3070Y985D02*
X3071Y896D01*
D02*
X3732Y1316D02*
X3889Y1317D01*
G54D18*
D02*
X4775Y1152D02*
X4837Y1153D01*
D02*
X4767Y584D02*
X4775Y1152D01*
D02*
X3958Y590D02*
X4767Y584D01*
D02*
X3325Y1424D02*
X3325Y1568D01*
D02*
X2772Y1424D02*
X3325Y1424D01*
D02*
X2769Y1054D02*
X2772Y1424D01*
D02*
X2967Y1118D02*
X3526Y1122D01*
D02*
X3526Y1122D02*
X3525Y1568D01*
D02*
X2968Y1054D02*
X2967Y1118D01*
D02*
X2667Y1479D02*
X2669Y1054D01*
D02*
X3227Y1482D02*
X2667Y1479D01*
D02*
X3226Y1568D02*
X3227Y1482D01*
D02*
X2872Y1364D02*
X2869Y1054D01*
D02*
X3421Y1361D02*
X2872Y1364D01*
D02*
X3424Y1568D02*
X3421Y1361D01*
D02*
X4230Y772D02*
X4230Y1315D01*
D02*
X2476Y769D02*
X4230Y772D01*
D02*
X4230Y1315D02*
X4483Y1315D01*
D02*
X2470Y454D02*
X2476Y769D01*
D02*
X4513Y708D02*
X4511Y1128D01*
D02*
X2569Y713D02*
X4513Y708D01*
D02*
X2569Y454D02*
X2569Y713D01*
G54D17*
D02*
X2627Y1715D02*
X2626Y1636D01*
D02*
X2225Y1714D02*
X2627Y1715D01*
D02*
X2225Y1636D02*
X2225Y1714D01*
D02*
X2630Y1710D02*
X3725Y1707D01*
D02*
X3725Y1707D02*
X3725Y1636D01*
D02*
X2627Y1636D02*
X2630Y1710D01*
G54D18*
D02*
X2571Y1119D02*
X2570Y1054D01*
D02*
X2433Y1118D02*
X2571Y1119D01*
D02*
X2425Y1568D02*
X2433Y1118D01*
D02*
X1040Y1313D02*
X779Y1317D01*
D02*
X1045Y727D02*
X1040Y1313D01*
D02*
X1156Y589D02*
X1045Y727D01*
D02*
X2230Y569D02*
X1156Y589D01*
D02*
X2349Y446D02*
X2230Y569D01*
D02*
X975Y730D02*
X968Y1158D01*
D02*
X1137Y532D02*
X975Y730D01*
D02*
X968Y1158D02*
X783Y1159D01*
D02*
X2166Y519D02*
X1137Y532D01*
D02*
X2248Y445D02*
X2166Y519D01*
D02*
X4540Y1316D02*
X4620Y1318D01*
D02*
X4539Y1156D02*
X4623Y1154D01*
D02*
X1625Y294D02*
X1624Y372D01*
D02*
X954Y294D02*
X1625Y294D01*
D02*
X1624Y295D02*
X2672Y302D01*
D02*
X2672Y302D02*
X2670Y396D01*
D02*
X1623Y372D02*
X1624Y295D01*
D02*
X254Y988D02*
X349Y988D01*
D02*
X349Y1486D02*
X257Y1487D01*
D02*
X257Y1487D02*
X254Y988D01*
D02*
X5006Y1487D02*
X5004Y986D01*
D02*
X5004Y986D02*
X4918Y986D01*
D02*
X4920Y1485D02*
X5006Y1487D01*
D02*
X1780Y763D02*
X1332Y760D01*
D02*
X1332Y760D02*
X1337Y712D01*
D02*
X1779Y1112D02*
X1780Y763D01*
D02*
X2326Y1120D02*
X1779Y1112D01*
D02*
X2325Y1568D02*
X2326Y1120D01*
D02*
X2865Y308D02*
X3558Y308D01*
D02*
X2868Y396D02*
X2865Y308D01*
D02*
X3367Y594D02*
X3798Y590D01*
D02*
X3369Y454D02*
X3367Y594D01*
G54D19*
D02*
G04 End of Copper0*
M02*