G04 MADE WITH FRITZING*
G04 WWW.FRITZING.ORG*
G04 DOUBLE SIDED*
G04 HOLES PLATED*
G04 CONTOUR ON CENTER OF CONTOUR VECTOR*
%ASAXBY*%
%FSLAX23Y23*%
%MOIN*%
%OFA0B0*%
%SFA1.0B1.0*%
%ADD10C,0.075000*%
%ADD11C,0.099055*%
%ADD12C,0.070000*%
%ADD13C,0.080000*%
%ADD14C,0.078000*%
%ADD15C,0.170000*%
%ADD16R,0.075000X0.075000*%
%ADD17R,0.070000X0.069972*%
%ADD18R,0.080000X0.080000*%
%ADD19R,0.043307X0.047244*%
%ADD20C,0.024000*%
%ADD21C,0.048000*%
%ADD22R,0.001000X0.001000*%
%LNCOPPER1*%
G90*
G70*
G54D10*
X2225Y1596D03*
X2325Y1596D03*
X2425Y1596D03*
X2525Y1596D03*
X2625Y1596D03*
X2725Y1596D03*
X2825Y1596D03*
X2925Y1596D03*
X3025Y1596D03*
X3125Y1596D03*
X3225Y1596D03*
X3325Y1596D03*
X3425Y1596D03*
X3525Y1596D03*
X3625Y1596D03*
X3725Y1596D03*
G54D11*
X390Y1486D03*
G54D12*
X3371Y1031D03*
X3271Y1031D03*
X3171Y1031D03*
X3071Y1031D03*
X2971Y1031D03*
X2871Y1031D03*
X2771Y1031D03*
X2671Y1031D03*
X2571Y1031D03*
X2471Y1031D03*
X2371Y1031D03*
X2271Y1031D03*
X2171Y1031D03*
X2071Y1031D03*
X1971Y1031D03*
X3371Y431D03*
X3271Y431D03*
X3171Y431D03*
X3071Y431D03*
X2971Y431D03*
X2871Y431D03*
X2771Y431D03*
X2671Y431D03*
X2571Y431D03*
X2471Y431D03*
X2371Y431D03*
X2271Y431D03*
X2171Y431D03*
X2071Y431D03*
X1971Y431D03*
G54D11*
X4878Y1319D03*
X4878Y1154D03*
G54D10*
X1365Y1316D03*
X1365Y1416D03*
X1365Y1516D03*
X1369Y1156D03*
X1369Y1056D03*
X1369Y956D03*
X3933Y1156D03*
X3933Y1056D03*
X3933Y956D03*
X3934Y1316D03*
X3934Y1416D03*
X3934Y1516D03*
X2980Y1291D03*
X2580Y1291D03*
X2985Y1195D03*
X2585Y1195D03*
X1592Y902D03*
X1992Y902D03*
X1870Y1171D03*
X2270Y1171D03*
G54D11*
X4879Y1484D03*
X606Y1484D03*
X4660Y1483D03*
X387Y1153D03*
X4662Y989D03*
X604Y987D03*
X387Y1317D03*
X4660Y1319D03*
X4664Y1153D03*
X605Y1154D03*
X603Y1319D03*
X390Y988D03*
X4878Y986D03*
G54D13*
X1712Y1432D03*
X1712Y1569D03*
G54D10*
X625Y594D03*
X925Y594D03*
X625Y494D03*
X925Y494D03*
X625Y394D03*
X925Y394D03*
X625Y294D03*
X925Y294D03*
X3627Y1464D03*
X3627Y1064D03*
X1340Y684D03*
X1623Y401D03*
X4082Y414D03*
X3682Y414D03*
X1176Y687D03*
X1459Y405D03*
X4511Y1315D03*
X4111Y1315D03*
X4511Y1157D03*
X4111Y1157D03*
X751Y1317D03*
X1151Y1317D03*
X754Y1159D03*
X1154Y1159D03*
G54D14*
X3828Y590D03*
X3928Y590D03*
G54D10*
X4235Y589D03*
X4635Y589D03*
X3689Y135D03*
X3583Y137D03*
G54D14*
X3684Y256D03*
X3584Y256D03*
G54D15*
X371Y332D03*
X135Y332D03*
X253Y147D03*
X371Y332D03*
X135Y332D03*
X253Y147D03*
G54D16*
X2224Y1597D03*
G54D17*
X3371Y1031D03*
G54D18*
X1712Y1432D03*
G54D16*
X625Y594D03*
G54D19*
X4644Y237D03*
X4644Y304D03*
G54D20*
X3670Y157D02*
X3604Y234D01*
G54D21*
D02*
X247Y1315D02*
X245Y1715D01*
D02*
X245Y1715D02*
X1508Y1710D01*
D02*
X1508Y1710D02*
X1686Y1587D01*
D02*
X335Y1316D02*
X247Y1315D01*
D02*
X53Y1803D02*
X1632Y1796D01*
D02*
X1632Y1796D02*
X1701Y1599D01*
D02*
X335Y1153D02*
X53Y1153D01*
D02*
X53Y1153D02*
X53Y1803D01*
G54D20*
D02*
X2021Y903D02*
X2172Y906D01*
D02*
X1591Y931D02*
X1588Y1055D01*
G54D21*
D02*
X1341Y957D02*
X645Y986D01*
G54D20*
D02*
X722Y1318D02*
X644Y1319D01*
D02*
X725Y1158D02*
X645Y1155D01*
G54D21*
D02*
X1336Y1515D02*
X646Y1486D01*
G54D20*
D02*
X1841Y1171D02*
X1542Y1169D01*
D02*
X1542Y1169D02*
X1535Y1417D01*
D02*
X2270Y1143D02*
X2271Y1060D01*
G54D21*
D02*
X1336Y1316D02*
X1179Y1317D01*
D02*
X1341Y1157D02*
X1183Y1159D01*
D02*
X1153Y1188D02*
X1151Y1289D01*
D02*
X5006Y1321D02*
X5001Y1720D01*
D02*
X5001Y1720D02*
X1876Y1719D01*
D02*
X4929Y1320D02*
X5006Y1321D01*
D02*
X1876Y1719D02*
X1735Y1590D01*
D02*
X5197Y1161D02*
X5194Y1792D01*
D02*
X5194Y1792D02*
X1804Y1797D01*
D02*
X4930Y1155D02*
X5197Y1161D01*
D02*
X1804Y1797D02*
X1727Y1609D01*
D02*
X3962Y1515D02*
X4620Y1485D01*
D02*
X3962Y957D02*
X4621Y987D01*
D02*
X3963Y1316D02*
X4083Y1315D01*
D02*
X3962Y1156D02*
X4082Y1157D01*
G54D20*
D02*
X3009Y1291D02*
X3759Y1292D01*
D02*
X2552Y1291D02*
X2370Y1292D01*
D02*
X2556Y1195D02*
X2468Y1196D01*
D02*
X3779Y1196D02*
X3014Y1195D01*
D02*
X3779Y1053D02*
X3779Y1196D01*
D02*
X3905Y1055D02*
X3779Y1053D01*
D02*
X3625Y1568D02*
X3627Y1493D01*
D02*
X2468Y1196D02*
X2471Y1060D01*
D02*
X2370Y1292D02*
X2371Y1060D01*
D02*
X1535Y1417D02*
X1394Y1416D01*
D02*
X2069Y1384D02*
X2723Y1384D01*
D02*
X2723Y1384D02*
X2725Y1568D01*
D02*
X2071Y1060D02*
X2069Y1384D01*
D02*
X3070Y674D02*
X3075Y680D01*
D02*
X3075Y680D02*
X1369Y684D01*
D02*
X3071Y460D02*
X3070Y674D01*
D02*
X3759Y1292D02*
X3757Y1412D01*
D02*
X3757Y1412D02*
X3905Y1415D01*
D02*
X1969Y1451D02*
X2525Y1452D01*
D02*
X2525Y1452D02*
X2525Y1568D01*
D02*
X1971Y1060D02*
X1969Y1451D01*
G54D21*
D02*
X4111Y1286D02*
X4111Y1185D01*
G54D20*
D02*
X921Y688D02*
X1147Y687D01*
D02*
X924Y623D02*
X921Y688D01*
D02*
X1204Y687D02*
X1312Y684D01*
D02*
X954Y395D02*
X1430Y404D01*
D02*
X2772Y294D02*
X1459Y294D01*
D02*
X1459Y294D02*
X1459Y376D01*
D02*
X2771Y401D02*
X2772Y294D01*
D02*
X2172Y906D02*
X2171Y1001D01*
D02*
X393Y682D02*
X921Y686D01*
D02*
X921Y686D02*
X924Y623D01*
D02*
X390Y947D02*
X393Y682D01*
D02*
X3068Y509D02*
X3070Y460D01*
D02*
X4079Y506D02*
X3068Y509D01*
D02*
X4081Y443D02*
X4079Y506D01*
D02*
X770Y301D02*
X768Y492D01*
D02*
X768Y492D02*
X897Y494D01*
D02*
X654Y295D02*
X770Y301D01*
D02*
X650Y300D02*
X652Y178D01*
D02*
X652Y178D02*
X3271Y177D01*
D02*
X3271Y177D02*
X3271Y401D01*
D02*
X653Y301D02*
X650Y300D01*
D02*
X3554Y257D02*
X3271Y262D01*
D02*
X3271Y262D02*
X3271Y401D01*
D02*
X1588Y1055D02*
X1398Y1056D01*
D02*
X3635Y674D02*
X3628Y1036D01*
D02*
X3070Y679D02*
X3635Y674D01*
D02*
X3071Y460D02*
X3070Y679D01*
D02*
X5010Y678D02*
X3636Y679D01*
D02*
X3636Y679D02*
X3628Y1036D01*
D02*
X5006Y984D02*
X5010Y678D01*
D02*
X4918Y985D02*
X5006Y984D01*
D02*
X4644Y322D02*
X4636Y560D01*
D02*
X4644Y219D02*
X4645Y142D01*
D02*
X4645Y142D02*
X3718Y135D01*
G54D22*
D02*
G04 End of Copper1*
M02*