<?xml version='1.0' encoding='UTF-8' standalone='no'?>
<!-- Created with Fritzing (http://www.fritzing.org/) -->
<svg xmlns="http://www.w3.org/2000/svg" version="1.2" x="0in" y="0in" baseProfile="tiny" height="1.86758in" xmlns:svg="http://www.w3.org/2000/svg"  width="5.25579in" viewBox="0 0 378.417 134.466">
 <g partID="1583832">
  <g id="silkscreen0">
   <rect stroke="black" x="0.288" y="0.288" height="133.89" stroke-width="0.576" fill="none" width="377.841"/>
  </g>
 </g>
 <g partID="1583830">
  <g id="board">
   <rect stroke="black" x="0.288" y="0.288" fill-opacity="0.5" height="133.89" stroke-width="0.5" id="boardoutline" fill="none" width="377.841"/>
  </g>
 </g>
 <g partID="1583832">
  <g id="silkscreen0">
   <rect stroke="black" x="0.288" y="0.288" height="133.89" stroke-width="0.576" fill="none" width="377.841"/>
  </g>
 </g>
 <g partID="56970">
  <g transform="translate(137.519,12.32)">
   <g id="copper0">
    <rect stroke="white" x="20.664" y="5.184" height="3.96" stroke-width="2.16" fill="white" width="3.96"/>
    <circle stroke="white" cx="22.68" stroke-width="2.16" id="connector0pin" r="1.98" fill="white" cy="7.2"/>
    <circle stroke="white" cx="29.88" stroke-width="2.16" id="connector1pin" r="1.98" fill="white" cy="7.2"/>
    <circle stroke="white" cx="37.08" stroke-width="2.16" id="connector2pin" r="1.98" fill="white" cy="7.2"/>
    <circle stroke="white" cx="44.28" stroke-width="2.16" id="connector3pin" r="1.98" fill="white" cy="7.2"/>
    <circle stroke="white" cx="51.48" stroke-width="2.16" id="connector4pin" r="1.98" fill="white" cy="7.2"/>
    <circle stroke="white" cx="58.68" stroke-width="2.16" id="connector5pin" r="1.98" fill="white" cy="7.2"/>
    <circle stroke="white" cx="65.88" stroke-width="2.16" id="connector6pin" r="1.98" fill="white" cy="7.2"/>
    <circle stroke="white" cx="73.08" stroke-width="2.16" id="connector7pin" r="1.98" fill="white" cy="7.2"/>
    <circle stroke="white" cx="80.28" stroke-width="2.16" id="connector8pin" r="1.98" fill="white" cy="7.2"/>
    <circle stroke="white" cx="87.48" stroke-width="2.16" id="connector9pin" r="1.98" fill="white" cy="7.2"/>
    <circle stroke="white" cx="94.68" stroke-width="2.16" id="connector10pin" r="1.98" fill="white" cy="7.2"/>
    <circle stroke="white" cx="101.88" stroke-width="2.16" id="connector11pin" r="1.98" fill="white" cy="7.2"/>
    <circle stroke="white" cx="109.08" stroke-width="2.16" id="connector12pin" r="1.98" fill="white" cy="7.2"/>
    <circle stroke="white" cx="116.28" stroke-width="2.16" id="connector13pin" r="1.98" fill="white" cy="7.2"/>
    <circle stroke="white" cx="123.48" stroke-width="2.16" id="connector14pin" r="1.98" fill="white" cy="7.2"/>
    <circle stroke="white" cx="130.68" stroke-width="2.16" id="connector15pin" r="1.98" fill="white" cy="7.2"/>
   </g>
  </g>
 </g>
 <g partID="1333640">
  <g transform="translate(3.07208,58.2335)">
   <g id="copper0">
    <circle stroke="white" cx="4.71811" stroke-width="0.72" id="nonconn0" r="3.11811" fill="white" cy="4.71811"/>
   </g>
  </g>
 </g>
 <g partID="1333620">
  <g transform="translate(3.13552,22.7584)">
   <g id="copper0">
    <circle stroke="white" cx="4.71811" stroke-width="0.72" id="nonconn0" r="3.11811" fill="white" cy="4.71811"/>
   </g>
  </g>
 </g>
 <g partID="1333400">
  <g transform="translate(366.243,22.552)">
   <g id="copper0">
    <circle stroke="white" cx="4.71811" stroke-width="0.72" id="nonconn0" r="3.11811" fill="white" cy="4.71811"/>
   </g>
  </g>
 </g>
 <g partID="1333330">
  <g transform="translate(366.229,58.3182)">
   <g id="copper0">
    <circle stroke="white" cx="4.71811" stroke-width="0.72" id="nonconn0" r="3.11811" fill="white" cy="4.71811"/>
   </g>
  </g>
 </g>
 <g partID="1591960">
  <g transform="translate(7.83534,79.6254)">
   <g id="copper0">
    <circle stroke="white" cx="5.85197" stroke-width="0.72" id="nonconn0" r="4.25197" fill="white" cy="5.85197"/>
   </g>
  </g>
 </g>
 <g partID="1591940">
  <g transform="translate(363.261,85.3022)">
   <g id="copper0">
    <circle stroke="white" cx="5.85197" stroke-width="0.72" id="nonconn0" r="4.25197" fill="white" cy="5.85197"/>
   </g>
  </g>
 </g>
 <g partID="1591980">
  <g transform="translate(137.685,13.628)">
   <g id="copper0">
    <circle stroke="white" cx="5.85197" stroke-width="0.72" id="nonconn0" r="4.25197" fill="white" cy="5.85197"/>
   </g>
  </g>
 </g>
 <g partID="1356650">
  <g transform="translate(23.009,22.4656)">
   <g id="copper0">
    <circle stroke="white" cx="5.04" stroke-width="2.16" id="connector0pin" r="2.84599" fill="white" cy="5.04"/>
   </g>
  </g>
 </g>
 <g partID="381250">
  <g transform="translate(253.376,57.0513)">
   <g transform="matrix(0,1,-1,0,0,0)">
    <g id="copper0">
     <circle stroke="white" cx="3.6" stroke-width="1.944" id="connector16pad" r="1.908" fill="white" cy="10.8"/>
     <rect stroke="white" x="1.692" y="8.892" height="3.816" stroke-width="1.944" fill="white" width="3.814"/>
     <circle stroke="white" cx="3.6" stroke-width="1.944" id="connector17pad" r="1.908" fill="white" cy="18"/>
     <circle stroke="white" cx="3.6" stroke-width="1.944" id="connector18pad" r="1.908" fill="white" cy="25.2"/>
     <circle stroke="white" cx="3.6" stroke-width="1.944" id="connector19pad" r="1.908" fill="white" cy="32.4"/>
     <circle stroke="white" cx="3.6" stroke-width="1.944" id="connector20pad" r="1.908" fill="white" cy="39.6"/>
     <circle stroke="white" cx="3.6" stroke-width="1.944" id="connector21pad" r="1.908" fill="white" cy="46.8"/>
     <circle stroke="white" cx="3.6" stroke-width="1.944" id="connector22pad" r="1.908" fill="white" cy="54"/>
     <circle stroke="white" cx="3.6" stroke-width="1.944" id="connector23pad" r="1.908" fill="white" cy="61.2"/>
     <circle stroke="white" cx="3.6" stroke-width="1.944" id="connector24pad" r="1.908" fill="white" cy="68.4"/>
     <circle stroke="white" cx="3.6" stroke-width="1.944" id="connector25pad" r="1.908" fill="white" cy="75.6"/>
     <circle stroke="white" cx="3.6" stroke-width="1.944" id="connector26pad" r="1.908" fill="white" cy="82.8"/>
     <circle stroke="white" cx="3.6" stroke-width="1.944" id="connector27pad" r="1.908" fill="white" cy="90"/>
     <circle stroke="white" cx="3.6" stroke-width="1.944" id="connector28pad" r="1.908" fill="white" cy="97.2"/>
     <circle stroke="white" cx="3.6" stroke-width="1.944" id="connector29pad" r="1.908" fill="white" cy="104.4"/>
     <circle stroke="white" cx="3.6" stroke-width="1.944" id="connector30pad" r="1.908" fill="white" cy="111.6"/>
     <circle stroke="white" cx="46.8" stroke-width="1.944" id="connector31pad" r="1.908" fill="white" cy="10.8"/>
     <circle stroke="white" cx="46.8" stroke-width="1.944" id="connector32pad" r="1.908" fill="white" cy="18"/>
     <circle stroke="white" cx="46.8" stroke-width="1.944" id="connector33pad" r="1.908" fill="white" cy="25.2"/>
     <circle stroke="white" cx="46.8" stroke-width="1.944" id="connector34pad" r="1.908" fill="white" cy="32.4"/>
     <circle stroke="white" cx="46.8" stroke-width="1.944" id="connector35pad" r="1.908" fill="white" cy="39.6"/>
     <circle stroke="white" cx="46.8" stroke-width="1.944" id="connector36pad" r="1.908" fill="white" cy="46.8"/>
     <circle stroke="white" cx="46.8" stroke-width="1.944" id="connector37pad" r="1.908" fill="white" cy="54"/>
     <circle stroke="white" cx="46.8" stroke-width="1.944" id="connector38pad" r="1.908" fill="white" cy="61.2"/>
     <circle stroke="white" cx="46.8" stroke-width="1.944" id="connector39pad" r="1.908" fill="white" cy="68.4"/>
     <circle stroke="white" cx="46.8" stroke-width="1.944" id="connector40pad" r="1.908" fill="white" cy="75.6"/>
     <circle stroke="white" cx="46.8" stroke-width="1.944" id="connector41pad" r="1.908" fill="white" cy="82.8"/>
     <circle stroke="white" cx="46.8" stroke-width="1.944" id="connector42pad" r="1.908" fill="white" cy="90"/>
     <circle stroke="white" cx="46.8" stroke-width="1.944" id="connector43pad" r="1.908" fill="white" cy="97.2"/>
     <circle stroke="white" cx="46.8" stroke-width="1.944" id="connector44pad" r="1.908" fill="white" cy="104.4"/>
     <circle stroke="white" cx="46.8" stroke-width="1.944" id="connector45pad" r="1.908" fill="white" cy="111.6"/>
    </g>
   </g>
  </g>
 </g>
 <g partID="1353930">
  <g transform="translate(346.141,34.4488)">
   <g id="copper0">
    <circle stroke="white" cx="5.04" stroke-width="2.16" id="connector0pin" r="2.84599" fill="white" cy="5.04"/>
   </g>
  </g>
 </g>
 <g partID="1353330">
  <g transform="translate(346.171,46.3248)">
   <g id="copper0">
    <circle stroke="white" cx="5.04" stroke-width="2.16" id="connector0pin" r="2.84599" fill="white" cy="5.04"/>
   </g>
  </g>
 </g>
 <g partID="322660">
  <g transform="translate(104.685,21.628)">
   <g transform="matrix(0,1,-1,0,0,0)">
    <g id="copper0">
     <circle stroke="white" cx="3.6" stroke-width="2.16" id="connector0pin" r="1.98" fill="white" cy="8.208"/>
     <circle stroke="white" cx="10.8" stroke-width="2.16" id="connector1pin" r="1.98" fill="white" cy="8.208"/>
     <circle stroke="white" cx="18" stroke-width="2.16" id="connector2pin" r="1.98" fill="white" cy="8.208"/>
    </g>
   </g>
  </g>
 </g>
 <g partID="323480">
  <g transform="translate(88.1648,69.008)">
   <g transform="matrix(0,-1,1,0,0,0)">
    <g id="copper0">
     <circle stroke="white" cx="3.6" stroke-width="2.16" id="connector0pin" r="1.98" fill="white" cy="8.208"/>
     <circle stroke="white" cx="10.8" stroke-width="2.16" id="connector1pin" r="1.98" fill="white" cy="8.208"/>
     <circle stroke="white" cx="18" stroke-width="2.16" id="connector2pin" r="1.98" fill="white" cy="8.208"/>
    </g>
   </g>
  </g>
 </g>
 <g partID="325440">
  <g transform="translate(274.208,69.623)">
   <g transform="matrix(0,-1,1,0,0,0)">
    <g id="copper0">
     <circle stroke="white" cx="3.6" stroke-width="2.16" id="connector0pin" r="1.98" fill="white" cy="8.208"/>
     <circle stroke="white" cx="10.8" stroke-width="2.16" id="connector1pin" r="1.98" fill="white" cy="8.208"/>
     <circle stroke="white" cx="18" stroke-width="2.16" id="connector2pin" r="1.98" fill="white" cy="8.208"/>
    </g>
   </g>
  </g>
 </g>
 <g partID="324620">
  <g transform="translate(291.09,21.636)">
   <g transform="matrix(0,1,-1,0,0,0)">
    <g id="copper0">
     <circle stroke="white" cx="3.6" stroke-width="2.16" id="connector0pin" r="1.98" fill="white" cy="8.208"/>
     <circle stroke="white" cx="10.8" stroke-width="2.16" id="connector1pin" r="1.98" fill="white" cy="8.208"/>
     <circle stroke="white" cx="18" stroke-width="2.16" id="connector2pin" r="1.98" fill="white" cy="8.208"/>
    </g>
   </g>
  </g>
 </g>
 <g partID="327420">
  <g transform="translate(217.283,44.6328)">
   <g transform="matrix(-1,0,0,-1,0,0)">
    <g id="copper0">
     <g id="copper1">
      <!-- <rect width="55" x="10" y="15.5" fill="none" height="55" stroke="rgb(255, 191, 0)" stroke-width="20" />  -->
      <circle stroke="white" cx="2.7" stroke-width="2.16" id="connector0pin" r="1.98" fill="white" cy="3.096"/>
      <circle stroke="white" cx="31.5" stroke-width="2.16" id="connector1pin" r="1.98" fill="white" cy="3.096"/>
     </g>
    </g>
   </g>
  </g>
 </g>
 <g partID="327320">
  <g transform="translate(217.624,51.5312)">
   <g transform="matrix(-1,0,0,-1,0,0)">
    <g id="copper0">
     <g id="copper1">
      <!-- <rect width="55" x="10" y="15.5" fill="none" height="55" stroke="rgb(255, 191, 0)" stroke-width="20" />  -->
      <circle stroke="white" cx="2.7" stroke-width="2.16" id="connector0pin" r="1.98" fill="white" cy="3.096"/>
      <circle stroke="white" cx="31.5" stroke-width="2.16" id="connector1pin" r="1.98" fill="white" cy="3.096"/>
     </g>
    </g>
   </g>
  </g>
 </g>
 <g partID="327220">
  <g transform="translate(124.028,44.2648)">
   <g id="copper0">
    <g id="copper1">
     <!-- <rect width="55" x="10" y="15.5" fill="none" height="55" stroke="rgb(255, 191, 0)" stroke-width="20" />  -->
     <circle stroke="white" cx="2.7" stroke-width="2.16" id="connector0pin" r="1.98" fill="white" cy="3.096"/>
     <circle stroke="white" cx="31.5" stroke-width="2.16" id="connector1pin" r="1.98" fill="white" cy="3.096"/>
    </g>
   </g>
  </g>
 </g>
 <g partID="326260">
  <g transform="translate(132.211,36.1064)">
   <g id="copper0">
    <g id="copper1">
     <!-- <rect width="55" x="10" y="15.5" fill="none" height="55" stroke="rgb(255, 191, 0)" stroke-width="20" />  -->
     <circle stroke="white" cx="2.7" stroke-width="2.16" id="connector0pin" r="1.98" fill="white" cy="3.096"/>
     <circle stroke="white" cx="31.5" stroke-width="2.16" id="connector1pin" r="1.98" fill="white" cy="3.096"/>
    </g>
   </g>
  </g>
 </g>
 <g partID="1354510">
  <g transform="translate(346.278,22.5424)">
   <g id="copper0">
    <circle stroke="white" cx="5.04" stroke-width="2.16" id="connector0pin" r="2.84599" fill="white" cy="5.04"/>
   </g>
  </g>
 </g>
 <g partID="1356050">
  <g transform="translate(38.5817,22.5784)">
   <g id="copper0">
    <circle stroke="white" cx="5.04" stroke-width="2.16" id="connector0pin" r="2.84599" fill="white" cy="5.04"/>
   </g>
  </g>
 </g>
 <g partID="1354750">
  <g transform="translate(330.493,22.624)">
   <g id="copper0">
    <circle stroke="white" cx="5.04" stroke-width="2.16" id="connector0pin" r="2.84599" fill="white" cy="5.04"/>
   </g>
  </g>
 </g>
 <g partID="1357510">
  <g transform="translate(22.7891,46.3856)">
   <g id="copper0">
    <circle stroke="white" cx="5.04" stroke-width="2.16" id="connector0pin" r="2.84599" fill="white" cy="5.04"/>
   </g>
  </g>
 </g>
 <g partID="1355470">
  <g transform="translate(330.63,58.2357)">
   <g id="copper0">
    <circle stroke="white" cx="5.04" stroke-width="2.16" id="connector0pin" r="2.84599" fill="white" cy="5.04"/>
   </g>
  </g>
 </g>
 <g partID="1358150">
  <g transform="translate(38.4758,58.3282)">
   <g id="copper0">
    <circle stroke="white" cx="5.04" stroke-width="2.16" id="connector0pin" r="2.84599" fill="white" cy="5.04"/>
   </g>
  </g>
 </g>
 <g partID="1356930">
  <g transform="translate(22.822,34.588)">
   <g id="copper0">
    <circle stroke="white" cx="5.04" stroke-width="2.16" id="connector0pin" r="2.84599" fill="white" cy="5.04"/>
   </g>
  </g>
 </g>
 <g partID="1355350">
  <g transform="translate(330.489,34.4912)">
   <g id="copper0">
    <circle stroke="white" cx="5.04" stroke-width="2.16" id="connector0pin" r="2.84599" fill="white" cy="5.04"/>
   </g>
  </g>
 </g>
 <g partID="1355410">
  <g transform="translate(330.762,46.3824)">
   <g id="copper0">
    <circle stroke="white" cx="5.04" stroke-width="2.16" id="connector0pin" r="2.84599" fill="white" cy="5.04"/>
   </g>
  </g>
 </g>
 <g partID="1358090">
  <g transform="translate(38.5005,46.3296)">
   <g id="copper0">
    <circle stroke="white" cx="5.04" stroke-width="2.16" id="connector0pin" r="2.84599" fill="white" cy="5.04"/>
   </g>
  </g>
 </g>
 <g partID="1356870">
  <g transform="translate(38.3794,34.4536)">
   <g id="copper0">
    <circle stroke="white" cx="5.04" stroke-width="2.16" id="connector0pin" r="2.84599" fill="white" cy="5.04"/>
   </g>
  </g>
 </g>
 <g partID="1358730">
  <g transform="translate(23.0386,58.3243)">
   <g id="copper0">
    <circle stroke="white" cx="5.04" stroke-width="2.16" id="connector0pin" r="2.84599" fill="white" cy="5.04"/>
   </g>
  </g>
 </g>
 <g partID="1353110">
  <g transform="translate(346.14,58.4466)">
   <g id="copper0">
    <circle stroke="white" cx="5.04" stroke-width="2.16" id="connector0pin" r="2.84599" fill="white" cy="5.04"/>
   </g>
  </g>
 </g>
 <g partID="72100">
  <g transform="translate(40.7105,87.3615)">
   <g id="copper0">
    <rect stroke="white" x="2.34" y="2.34" height="3.96" stroke-width="2.16" id="square" fill="white" width="3.96"/>
    <circle stroke="white" cx="4.32" stroke-width="2.16" id="connector0pin" r="1.98" fill="white" cy="4.32"/>
    <circle stroke="white" cx="25.92" stroke-width="2.16" id="connector7pin" r="1.98" fill="white" cy="4.32"/>
    <circle stroke="white" cx="4.32" stroke-width="2.16" id="connector1pin" r="1.98" fill="white" cy="11.52"/>
    <circle stroke="white" cx="25.92" stroke-width="2.16" id="connector6pin" r="1.98" fill="white" cy="11.52"/>
    <circle stroke="white" cx="4.32" stroke-width="2.16" id="connector2pin" r="1.98" fill="white" cy="18.72"/>
    <circle stroke="white" cx="25.92" stroke-width="2.16" id="connector5pin" r="1.98" fill="white" cy="18.72"/>
    <circle stroke="white" cx="4.32" stroke-width="2.16" id="connector3pin" r="1.98" fill="white" cy="25.92"/>
    <circle stroke="white" cx="25.92" stroke-width="2.16" id="connector4pin" r="1.98" fill="white" cy="25.92"/>
   </g>
  </g>
 </g>
 <g partID="57120">
  <g transform="translate(264.26,26.3312)">
   <g transform="matrix(0,1,-1,0,0,0)">
    <g id="copper0">
     <g id="copper1">
      <!-- <rect width="55" x="10" y="15.5" fill="none" height="55" stroke="rgb(255, 191, 0)" stroke-width="20" />  -->
      <circle stroke="white" cx="2.7" stroke-width="2.16" id="connector0pin" r="1.98" fill="white" cy="3.096"/>
      <circle stroke="white" cx="31.5" stroke-width="2.16" id="connector1pin" r="1.98" fill="white" cy="3.096"/>
     </g>
    </g>
   </g>
  </g>
 </g>
 <g partID="73310">
  <g transform="translate(96.7828,81.1287)">
   <g transform="matrix(0.707107,0.707107,-0.707107,0.707107,0,0)">
    <g id="copper0">
     <g id="copper1">
      <!-- <rect width="55" x="10" y="15.5" fill="none" height="55" stroke="rgb(255, 191, 0)" stroke-width="20" />  -->
      <circle stroke="white" cx="2.7" stroke-width="2.16" id="connector0pin" r="1.98" fill="white" cy="3.096"/>
      <circle stroke="white" cx="31.5" stroke-width="2.16" id="connector1pin" r="1.98" fill="white" cy="3.096"/>
     </g>
    </g>
   </g>
  </g>
 </g>
 <g partID="383810">
  <g transform="translate(289.606,106.967)">
   <g transform="matrix(-1,0,0,-1,0,0)">
    <g id="copper0">
     <g id="copper1">
      <!-- <rect width="55" x="10" y="15.5" fill="none" height="55" stroke="rgb(255, 191, 0)" stroke-width="20" />  -->
      <circle stroke="white" cx="2.7" stroke-width="2.16" id="connector0pin" r="1.98" fill="white" cy="3.096"/>
      <circle stroke="white" cx="31.5" stroke-width="2.16" id="connector1pin" r="1.98" fill="white" cy="3.096"/>
     </g>
    </g>
   </g>
  </g>
 </g>
 <g partID="73250">
  <g transform="translate(84.9365,80.8721)">
   <g transform="matrix(0.707107,0.707107,-0.707107,0.707107,0,0)">
    <g id="copper0">
     <g id="copper1">
      <!-- <rect width="55" x="10" y="15.5" fill="none" height="55" stroke="rgb(255, 191, 0)" stroke-width="20" />  -->
      <circle stroke="white" cx="2.7" stroke-width="2.16" id="connector0pin" r="1.98" fill="white" cy="3.096"/>
      <circle stroke="white" cx="31.5" stroke-width="2.16" id="connector1pin" r="1.98" fill="white" cy="3.096"/>
     </g>
    </g>
   </g>
  </g>
 </g>
 <g partID="137660">
  <g transform="translate(327.525,42.892)">
   <g transform="matrix(-1,0,0,-1,0,0)">
    <g id="copper0">
     <g id="copper1">
      <!-- <rect width="55" x="10" y="15.5" fill="none" height="55" stroke="rgb(255, 191, 0)" stroke-width="20" />  -->
      <circle stroke="white" cx="2.7" stroke-width="2.16" id="connector0pin" r="1.98" fill="white" cy="3.096"/>
      <circle stroke="white" cx="31.5" stroke-width="2.16" id="connector1pin" r="1.98" fill="white" cy="3.096"/>
     </g>
    </g>
   </g>
  </g>
 </g>
 <g partID="137600">
  <g transform="translate(327.483,54.2704)">
   <g transform="matrix(-1,0,0,-1,0,0)">
    <g id="copper0">
     <g id="copper1">
      <!-- <rect width="55" x="10" y="15.5" fill="none" height="55" stroke="rgb(255, 191, 0)" stroke-width="20" />  -->
      <circle stroke="white" cx="2.7" stroke-width="2.16" id="connector0pin" r="1.98" fill="white" cy="3.096"/>
      <circle stroke="white" cx="31.5" stroke-width="2.16" id="connector1pin" r="1.98" fill="white" cy="3.096"/>
     </g>
    </g>
   </g>
  </g>
 </g>
 <g partID="137480">
  <g transform="translate(51.3617,36.5208)">
   <g id="copper0">
    <g id="copper1">
     <!-- <rect width="55" x="10" y="15.5" fill="none" height="55" stroke="rgb(255, 191, 0)" stroke-width="20" />  -->
     <circle stroke="white" cx="2.7" stroke-width="2.16" id="connector0pin" r="1.98" fill="white" cy="3.096"/>
     <circle stroke="white" cx="31.5" stroke-width="2.16" id="connector1pin" r="1.98" fill="white" cy="3.096"/>
    </g>
   </g>
  </g>
 </g>
 <g partID="137540">
  <g transform="translate(51.5814,47.9128)">
   <g id="copper0">
    <g id="copper1">
     <!-- <rect width="55" x="10" y="15.5" fill="none" height="55" stroke="rgb(255, 191, 0)" stroke-width="20" />  -->
     <circle stroke="white" cx="2.7" stroke-width="2.16" id="connector0pin" r="1.98" fill="white" cy="3.096"/>
     <circle stroke="white" cx="31.5" stroke-width="2.16" id="connector1pin" r="1.98" fill="white" cy="3.096"/>
    </g>
   </g>
  </g>
 </g>
 <g partID="1418040">
  <g transform="translate(270.601,97.0455)">
   <g transform="matrix(0,-1,1,0,0,0)">
    <g id="copper0">
     <circle stroke="white" cx="5.04" stroke-width="2.16" id="connector0pin" r="2.088" fill="white" cy="5.04"/>
     <circle stroke="white" cx="5.04" stroke-width="2.16" id="connector1pin" r="2.088" fill="white" cy="12.24"/>
    </g>
   </g>
  </g>
 </g>
 <g partID="1445050">
  <g transform="translate(260.868,107.44)">
   <g id="copper0">
    <circle stroke="white" cx="5.29749" stroke-width="2.16" id="connector0pad" r="1.98" fill="white" cy="4.752"/>
    <circle stroke="white" cx="4.752" stroke-width="2.16" id="connector1pad" r="1.98" fill="white" cy="38.5574"/>
   </g>
  </g>
 </g>
 <g partID="1445990">
  <g transform="translate(253.197,107.542)">
   <g id="copper0">
    <circle stroke="white" cx="5.02475" stroke-width="2.16" id="connector0pad" r="1.98" fill="white" cy="4.752"/>
    <circle stroke="white" cx="4.752" stroke-width="2.16" id="connector1pad" r="1.98" fill="white" cy="38.6256"/>
   </g>
  </g>
 </g>
 <g partID="1732350">
  <g transform="translate(344.502,130.023)">
   <g transform="matrix(0,-1,1,0,0,0)">
    <g id="copper0">
     <circle connectorname="PWR" stroke="white" cx="13.0439" stroke-width="2.592" id="connector2pad" r="5.184" fill="white" cy="6.12"/>
     <circle connectorname="GND" stroke="white" cx="13.0439" stroke-width="2.592" id="connector0pad" r="5.184" fill="white" cy="23.1279"/>
     <circle connectorname="GNDBREAK" stroke="white" cx="26.3668" stroke-width="2.592" id="connector1pad" r="5.184" fill="white" cy="14.6239"/>
    </g>
   </g>
  </g>
 </g>
 <g partID="1588310">
  <g transform="translate(32.8419,97.4987)">
   <g transform="matrix(0,1,-1,0,0,0)">
    <g id="copper0">
     <circle connectorname="PWR" stroke="white" cx="13.0439" stroke-width="2.592" id="connector2pad" r="5.184" fill="white" cy="6.12"/>
     <circle connectorname="GND" stroke="white" cx="13.0439" stroke-width="2.592" id="connector0pad" r="5.184" fill="white" cy="23.1279"/>
     <circle connectorname="GNDBREAK" stroke="white" cx="26.3668" stroke-width="2.592" id="connector1pad" r="5.184" fill="white" cy="14.6239"/>
    </g>
   </g>
  </g>
 </g>
</svg>
