<?xml version='1.0' encoding='UTF-8' standalone='no'?>
<!-- Created with Fritzing (http://www.fritzing.org/) -->
<svg xmlns="http://www.w3.org/2000/svg" baseProfile="tiny" y="0in" viewBox="0 0 378.417 134.466" height="1.86758in"  x="0in" width="5.25579in" version="1.2" xmlns:svg="http://www.w3.org/2000/svg">
 <g transform="matrix(-1, 0, 0, 1, 378.417, 0)">
  <g partID="1583830">
   <g  id="board">
    <rect y="0.288" stroke="black" height="133.89" stroke-width="0.5"  id="boardoutline" width="377.841" x="0.288" fill="none" fill-opacity="0.5"/>
   </g>
  </g>
  <g partID="56971">
   <g transform="translate(137.518,12.3207)">
    <g  id="copper1">
     <g  id="copper0">
      <g y="5.184" height="3.96" stroke="black" stroke-width="1.44"  id="0" width="3.96" x="20.664" fill="none"/>
      <g cx="22.68" cy="7.2" stroke="black" stroke-width="1.44" r="1.98"  id="1" fill="none"/>
      <g cx="29.88" cy="7.2" stroke="black" stroke-width="1.44" r="1.98"  id="2" fill="none"/>
      <g cx="37.08" cy="7.2" stroke="black" stroke-width="1.44" r="1.98"  id="3" fill="none"/>
      <g cx="44.28" cy="7.2" stroke="black" stroke-width="1.44" r="1.98"  id="4" fill="none"/>
      <g cx="51.48" cy="7.2" stroke="black" stroke-width="1.44" r="1.98"  id="5" fill="none"/>
      <g cx="58.68" cy="7.2" stroke="black" stroke-width="1.44" r="1.98"  id="6" fill="none"/>
      <g cx="65.88" cy="7.2" stroke="black" stroke-width="1.44" r="1.98"  id="7" fill="none"/>
      <g cx="73.08" cy="7.2" stroke="black" stroke-width="1.44" r="1.98"  id="8" fill="none"/>
      <g cx="80.28" cy="7.2" stroke="black" stroke-width="1.44" r="1.98"  id="9" fill="none"/>
      <g cx="87.48" cy="7.2" stroke="black" stroke-width="1.44" r="1.98"  id="10" fill="none"/>
      <g cx="94.68" cy="7.2" stroke="black" stroke-width="1.44" r="1.98"  id="11" fill="none"/>
      <g cx="101.88" cy="7.2" stroke="black" stroke-width="1.44" r="1.98"  id="12" fill="none"/>
      <g cx="109.08" cy="7.2" stroke="black" stroke-width="1.44" r="1.98"  id="13" fill="none"/>
      <g cx="116.28" cy="7.2" stroke="black" stroke-width="1.44" r="1.98"  id="14" fill="none"/>
      <g cx="123.48" cy="7.2" stroke="black" stroke-width="1.44" r="1.98"  id="15" fill="none"/>
      <g cx="130.68" cy="7.2" stroke="black" stroke-width="1.44" r="1.98"  id="16" fill="none"/>
     </g>
    </g>
   </g>
  </g>
  <g partID="1356651">
   <g transform="translate(23.009,22.4661)">
    <g  id="copper1">
     <g  id="copper0">
      <g cx="5.04" cy="5.04" stroke="black" stroke-width="1.44" r="2.84599"  id="17" fill="none"/>
     </g>
    </g>
   </g>
  </g>
  <g partID="381251">
   <g transform="translate(253.521,56.6682)">
    <g transform="matrix(0,1,-1,0,0,0)">
     <g  id="copper1">
      <g  id="copper0">
       <g cx="3.6" cy="10.8" stroke="black" stroke-width="1.224" r="1.908"  id="18" fill="none"/>
       <g y="8.892" stroke="black" height="3.816" stroke-width="1.224"  id="19" x="1.692" width="3.814" fill="none"/>
       <g cx="3.6" cy="18" stroke="black" stroke-width="1.224" r="1.908"  id="20" fill="none"/>
       <g cx="3.6" cy="25.2" stroke="black" stroke-width="1.224" r="1.908"  id="21" fill="none"/>
       <g cx="3.6" cy="32.4" stroke="black" stroke-width="1.224" r="1.908"  id="22" fill="none"/>
       <g cx="3.6" cy="39.6" stroke="black" stroke-width="1.224" r="1.908"  id="23" fill="none"/>
       <g cx="3.6" cy="46.8" stroke="black" stroke-width="1.224" r="1.908"  id="24" fill="none"/>
       <g cx="3.6" cy="54" stroke="black" stroke-width="1.224" r="1.908"  id="25" fill="none"/>
       <g cx="3.6" cy="61.2" stroke="black" stroke-width="1.224" r="1.908"  id="26" fill="none"/>
       <g cx="3.6" cy="68.4" stroke="black" stroke-width="1.224" r="1.908"  id="27" fill="none"/>
       <g cx="3.6" cy="75.6" stroke="black" stroke-width="1.224" r="1.908"  id="28" fill="none"/>
       <g cx="3.6" cy="82.8" stroke="black" stroke-width="1.224" r="1.908"  id="29" fill="none"/>
       <g cx="3.6" cy="90" stroke="black" stroke-width="1.224" r="1.908"  id="30" fill="none"/>
       <g cx="3.6" cy="97.2" stroke="black" stroke-width="1.224" r="1.908"  id="31" fill="none"/>
       <g cx="3.6" cy="104.4" stroke="black" stroke-width="1.224" r="1.908"  id="32" fill="none"/>
       <g cx="3.6" cy="111.6" stroke="black" stroke-width="1.224" r="1.908"  id="33" fill="none"/>
       <g cx="46.8" cy="10.8" stroke="black" stroke-width="1.224" r="1.908"  id="34" fill="none"/>
       <g cx="46.8" cy="18" stroke="black" stroke-width="1.224" r="1.908"  id="35" fill="none"/>
       <g cx="46.8" cy="25.2" stroke="black" stroke-width="1.224" r="1.908"  id="36" fill="none"/>
       <g cx="46.8" cy="32.4" stroke="black" stroke-width="1.224" r="1.908"  id="37" fill="none"/>
       <g cx="46.8" cy="39.6" stroke="black" stroke-width="1.224" r="1.908"  id="38" fill="none"/>
       <g cx="46.8" cy="46.8" stroke="black" stroke-width="1.224" r="1.908"  id="39" fill="none"/>
       <g cx="46.8" cy="54" stroke="black" stroke-width="1.224" r="1.908"  id="40" fill="none"/>
       <g cx="46.8" cy="61.2" stroke="black" stroke-width="1.224" r="1.908"  id="41" fill="none"/>
       <g cx="46.8" cy="68.4" stroke="black" stroke-width="1.224" r="1.908"  id="42" fill="none"/>
       <g cx="46.8" cy="75.6" stroke="black" stroke-width="1.224" r="1.908"  id="43" fill="none"/>
       <g cx="46.8" cy="82.8" stroke="black" stroke-width="1.224" r="1.908"  id="44" fill="none"/>
       <g cx="46.8" cy="90" stroke="black" stroke-width="1.224" r="1.908"  id="45" fill="none"/>
       <g cx="46.8" cy="97.2" stroke="black" stroke-width="1.224" r="1.908"  id="46" fill="none"/>
       <g cx="46.8" cy="104.4" stroke="black" stroke-width="1.224" r="1.908"  id="47" fill="none"/>
       <g cx="46.8" cy="111.6" stroke="black" stroke-width="1.224" r="1.908"  id="48" fill="none"/>
      </g>
     </g>
    </g>
   </g>
  </g>
  <g partID="1353931">
   <g transform="translate(346.142,34.4492)">
    <g  id="copper1">
     <g  id="copper0">
      <g cx="5.04" cy="5.04" stroke="black" stroke-width="1.44" r="2.84599"  id="49" fill="none"/>
     </g>
    </g>
   </g>
  </g>
  <g partID="1353331">
   <g transform="translate(346.171,46.325)">
    <g  id="copper1">
     <g  id="copper0">
      <g cx="5.04" cy="5.04" stroke="black" stroke-width="1.44" r="2.84599"  id="50" fill="none"/>
     </g>
    </g>
   </g>
  </g>
  <g partID="322661">
   <g transform="translate(90.0664,43.2989)">
    <g transform="matrix(0,-1,1,0,0,0)">
     <g  id="copper1">
      <g  id="copper0">
       <g cx="3.6" cy="8.208" stroke="black" stroke-width="1.44" r="1.98"  id="51" fill="none"/>
       <g cx="10.8" cy="8.208" stroke="black" stroke-width="1.44" r="1.98"  id="52" fill="none"/>
       <g cx="18" cy="8.208" stroke="black" stroke-width="1.44" r="1.98"  id="53" fill="none"/>
      </g>
     </g>
    </g>
   </g>
  </g>
  <g partID="323481">
   <g transform="translate(106.811,47.625)">
    <g transform="matrix(0,1,-1,0,0,0)">
     <g  id="copper1">
      <g  id="copper0">
       <g cx="3.6" cy="8.208" stroke="black" stroke-width="1.44" r="1.98"  id="54" fill="none"/>
       <g cx="10.8" cy="8.208" stroke="black" stroke-width="1.44" r="1.98"  id="55" fill="none"/>
       <g cx="18" cy="8.208" stroke="black" stroke-width="1.44" r="1.98"  id="56" fill="none"/>
      </g>
     </g>
    </g>
   </g>
  </g>
  <g partID="325441">
   <g transform="translate(291.416,47.6647)">
    <g transform="matrix(0,1,-1,0,0,0)">
     <g  id="copper1">
      <g  id="copper0">
       <g cx="3.6" cy="8.208" stroke="black" stroke-width="1.44" r="1.98"  id="57" fill="none"/>
       <g cx="10.8" cy="8.208" stroke="black" stroke-width="1.44" r="1.98"  id="58" fill="none"/>
       <g cx="18" cy="8.208" stroke="black" stroke-width="1.44" r="1.98"  id="59" fill="none"/>
      </g>
     </g>
    </g>
   </g>
  </g>
  <g partID="324621">
   <g transform="translate(275.033,43.3066)">
    <g transform="matrix(0,-1,1,0,0,0)">
     <g  id="copper1">
      <g  id="copper0">
       <g cx="3.6" cy="8.208" stroke="black" stroke-width="1.44" r="1.98"  id="60" fill="none"/>
       <g cx="10.8" cy="8.208" stroke="black" stroke-width="1.44" r="1.98"  id="61" fill="none"/>
       <g cx="18" cy="8.208" stroke="black" stroke-width="1.44" r="1.98"  id="62" fill="none"/>
      </g>
     </g>
    </g>
   </g>
  </g>
  <g partID="327421">
   <g transform="translate(217.283,44.6329)">
    <g transform="matrix(-1,0,0,-1,0,0)">
     <g  id="copper1">
      <!-- <rect width="55" x="10" y="15.5" fill="none" height="55" stroke="rgb(255, 191, 0)" stroke-width="20" />  -->
      <g cx="2.7" cy="3.096" stroke="black" stroke-width="1.44" r="1.98"  id="63" fill="none"/>
      <g cx="31.5" cy="3.096" stroke="black" stroke-width="1.44" r="1.98"  id="64" fill="none"/>
     </g>
    </g>
   </g>
  </g>
  <g partID="327321">
   <g transform="translate(217.624,51.5317)">
    <g transform="matrix(-1,0,0,-1,0,0)">
     <g  id="copper1">
      <!-- <rect width="55" x="10" y="15.5" fill="none" height="55" stroke="rgb(255, 191, 0)" stroke-width="20" />  -->
      <g cx="2.7" cy="3.096" stroke="black" stroke-width="1.44" r="1.98"  id="65" fill="none"/>
      <g cx="31.5" cy="3.096" stroke="black" stroke-width="1.44" r="1.98"  id="66" fill="none"/>
     </g>
    </g>
   </g>
  </g>
  <g partID="327221">
   <g transform="translate(111.948,66.4122)">
    <g  id="copper1">
     <!-- <rect width="55" x="10" y="15.5" fill="none" height="55" stroke="rgb(255, 191, 0)" stroke-width="20" />  -->
     <g cx="2.7" cy="3.096" stroke="black" stroke-width="1.44" r="1.98"  id="67" fill="none"/>
     <g cx="31.5" cy="3.096" stroke="black" stroke-width="1.44" r="1.98"  id="68" fill="none"/>
    </g>
   </g>
  </g>
  <g partID="326261">
   <g transform="translate(131.923,47.0367)">
    <g  id="copper1">
     <!-- <rect width="55" x="10" y="15.5" fill="none" height="55" stroke="rgb(255, 191, 0)" stroke-width="20" />  -->
     <g cx="2.7" cy="3.096" stroke="black" stroke-width="1.44" r="1.98"  id="69" fill="none"/>
     <g cx="31.5" cy="3.096" stroke="black" stroke-width="1.44" r="1.98"  id="70" fill="none"/>
    </g>
   </g>
  </g>
  <g partID="1354511">
   <g transform="translate(346.278,22.5426)">
    <g  id="copper1">
     <g  id="copper0">
      <g cx="5.04" cy="5.04" stroke="black" stroke-width="1.44" r="2.84599"  id="71" fill="none"/>
     </g>
    </g>
   </g>
  </g>
  <g partID="1356051">
   <g transform="translate(38.5817,22.5785)">
    <g  id="copper1">
     <g  id="copper0">
      <g cx="5.04" cy="5.04" stroke="black" stroke-width="1.44" r="2.84599"  id="72" fill="none"/>
     </g>
    </g>
   </g>
  </g>
  <g partID="1354751">
   <g transform="translate(330.494,22.6242)">
    <g  id="copper1">
     <g  id="copper0">
      <g cx="5.04" cy="5.04" stroke="black" stroke-width="1.44" r="2.84599"  id="73" fill="none"/>
     </g>
    </g>
   </g>
  </g>
  <g partID="1357511">
   <g transform="translate(22.7891,46.3863)">
    <g  id="copper1">
     <g  id="copper0">
      <g cx="5.04" cy="5.04" stroke="black" stroke-width="1.44" r="2.84599"  id="74" fill="none"/>
     </g>
    </g>
   </g>
  </g>
  <g partID="1355471">
   <g transform="translate(330.63,58.236)">
    <g  id="copper1">
     <g  id="copper0">
      <g cx="5.04" cy="5.04" stroke="black" stroke-width="1.44" r="2.84599"  id="75" fill="none"/>
     </g>
    </g>
   </g>
  </g>
  <g partID="1358151">
   <g transform="translate(38.4758,58.3286)">
    <g  id="copper1">
     <g  id="copper0">
      <g cx="5.04" cy="5.04" stroke="black" stroke-width="1.44" r="2.84599"  id="76" fill="none"/>
     </g>
    </g>
   </g>
  </g>
  <g partID="1356931">
   <g transform="translate(22.8219,34.588)">
    <g  id="copper1">
     <g  id="copper0">
      <g cx="5.04" cy="5.04" stroke="black" stroke-width="1.44" r="2.84599"  id="77" fill="none"/>
     </g>
    </g>
   </g>
  </g>
  <g partID="1355351">
   <g transform="translate(330.489,34.4915)">
    <g  id="copper1">
     <g  id="copper0">
      <g cx="5.04" cy="5.04" stroke="black" stroke-width="1.44" r="2.84599"  id="78" fill="none"/>
     </g>
    </g>
   </g>
  </g>
  <g partID="1355411">
   <g transform="translate(330.762,46.3826)">
    <g  id="copper1">
     <g  id="copper0">
      <g cx="5.04" cy="5.04" stroke="black" stroke-width="1.44" r="2.84599"  id="79" fill="none"/>
     </g>
    </g>
   </g>
  </g>
  <g partID="1358091">
   <g transform="translate(38.5004,46.3297)">
    <g  id="copper1">
     <g  id="copper0">
      <g cx="5.04" cy="5.04" stroke="black" stroke-width="1.44" r="2.84599"  id="80" fill="none"/>
     </g>
    </g>
   </g>
  </g>
  <g partID="1356871">
   <g transform="translate(38.3794,34.4539)">
    <g  id="copper1">
     <g  id="copper0">
      <g cx="5.04" cy="5.04" stroke="black" stroke-width="1.44" r="2.84599"  id="81" fill="none"/>
     </g>
    </g>
   </g>
  </g>
  <g partID="1358731">
   <g transform="translate(23.0386,58.3247)">
    <g  id="copper1">
     <g  id="copper0">
      <g cx="5.04" cy="5.04" stroke="black" stroke-width="1.44" r="2.84599"  id="82" fill="none"/>
     </g>
    </g>
   </g>
  </g>
  <g partID="1353111">
   <g transform="translate(346.14,58.4469)">
    <g  id="copper1">
     <g  id="copper0">
      <g cx="5.04" cy="5.04" stroke="black" stroke-width="1.44" r="2.84599"  id="83" fill="none"/>
     </g>
    </g>
   </g>
  </g>
  <g partID="330261">
   <g transform="translate(131.018,38.1463)">
    <g transform="matrix(-1,0,0,-1,0,0)">
     <g id="copper1">
      <g id="copper0">
       <g y="4.60063" height="4.32" stroke="black" stroke-width="1.44" id="84" width="4.32" x="5.616" fill="none"/>
       <g cx="7.776" cy="6.76063" stroke="black" stroke-width="1.44" r="2.16" id="85" fill="none"/>
       <g cx="7.776" cy="16.6819" stroke="black" stroke-width="1.44" r="2.16" id="86" fill="none"/>
      </g>
     </g>
    </g>
   </g>
  </g>
  <g partID="72101">
   <g transform="translate(40.7105,87.3619)">
    <g  id="copper1">
     <g  id="copper0">
      <g y="2.34" height="3.96" stroke="black" stroke-width="1.44"  id="87" width="3.96" x="2.34" fill="none"/>
      <g cx="4.32" cy="4.32" stroke="black" stroke-width="1.44" r="1.98"  id="88" fill="none"/>
      <g cx="25.92" cy="4.32" stroke="black" stroke-width="1.44" r="1.98"  id="89" fill="none"/>
      <g cx="4.32" cy="11.52" stroke="black" stroke-width="1.44" r="1.98"  id="90" fill="none"/>
      <g cx="25.92" cy="11.52" stroke="black" stroke-width="1.44" r="1.98"  id="91" fill="none"/>
      <g cx="4.32" cy="18.72" stroke="black" stroke-width="1.44" r="1.98"  id="92" fill="none"/>
      <g cx="25.92" cy="18.72" stroke="black" stroke-width="1.44" r="1.98"  id="93" fill="none"/>
      <g cx="4.32" cy="25.92" stroke="black" stroke-width="1.44" r="1.98"  id="94" fill="none"/>
      <g cx="25.92" cy="25.92" stroke="black" stroke-width="1.44" r="1.98"  id="95" fill="none"/>
     </g>
    </g>
   </g>
  </g>
  <g partID="57121">
   <g transform="translate(264.26,26.3316)">
    <g transform="matrix(0,1,-1,0,0,0)">
     <g  id="copper1">
      <!-- <rect width="55" x="10" y="15.5" fill="none" height="55" stroke="rgb(255, 191, 0)" stroke-width="20" />  -->
      <g cx="2.7" cy="3.096" stroke="black" stroke-width="1.44" r="1.98"  id="96" fill="none"/>
      <g cx="31.5" cy="3.096" stroke="black" stroke-width="1.44" r="1.98"  id="97" fill="none"/>
     </g>
    </g>
   </g>
  </g>
  <g partID="73311">
   <g transform="translate(96.7827,81.129)">
    <g transform="matrix(0.707107,0.707107,-0.707107,0.707107,0,0)">
     <g  id="copper1">
      <!-- <rect width="55" x="10" y="15.5" fill="none" height="55" stroke="rgb(255, 191, 0)" stroke-width="20" />  -->
      <g cx="2.7" cy="3.096" stroke="black" stroke-width="1.44" r="1.98"  id="98" fill="none"/>
      <g cx="31.5" cy="3.096" stroke="black" stroke-width="1.44" r="1.98"  id="99" fill="none"/>
     </g>
    </g>
   </g>
  </g>
  <g partID="383811">
   <g transform="translate(296.611,107.733)">
    <g transform="matrix(-1,0,0,-1,0,0)">
     <g  id="copper1">
      <!-- <rect width="55" x="10" y="15.5" fill="none" height="55" stroke="rgb(255, 191, 0)" stroke-width="20" />  -->
      <g cx="2.7" cy="3.096" stroke="black" stroke-width="1.44" r="1.98"  id="100" fill="none"/>
      <g cx="31.5" cy="3.096" stroke="black" stroke-width="1.44" r="1.98"  id="101" fill="none"/>
     </g>
    </g>
   </g>
  </g>
  <g partID="73251">
   <g transform="translate(84.9364,80.8724)">
    <g transform="matrix(0.707107,0.707107,-0.707107,0.707107,0,0)">
     <g  id="copper1">
      <!-- <rect width="55" x="10" y="15.5" fill="none" height="55" stroke="rgb(255, 191, 0)" stroke-width="20" />  -->
      <g cx="2.7" cy="3.096" stroke="black" stroke-width="1.44" r="1.98"  id="102" fill="none"/>
      <g cx="31.5" cy="3.096" stroke="black" stroke-width="1.44" r="1.98"  id="103" fill="none"/>
     </g>
    </g>
   </g>
  </g>
  <g partID="137661">
   <g transform="translate(327.526,42.892)">
    <g transform="matrix(-1,0,0,-1,0,0)">
     <g  id="copper1">
      <!-- <rect width="55" x="10" y="15.5" fill="none" height="55" stroke="rgb(255, 191, 0)" stroke-width="20" />  -->
      <g cx="2.7" cy="3.096" stroke="black" stroke-width="1.44" r="1.98"  id="104" fill="none"/>
      <g cx="31.5" cy="3.096" stroke="black" stroke-width="1.44" r="1.98"  id="105" fill="none"/>
     </g>
    </g>
   </g>
  </g>
  <g partID="137601">
   <g transform="translate(327.483,54.2708)">
    <g transform="matrix(-1,0,0,-1,0,0)">
     <g  id="copper1">
      <!-- <rect width="55" x="10" y="15.5" fill="none" height="55" stroke="rgb(255, 191, 0)" stroke-width="20" />  -->
      <g cx="2.7" cy="3.096" stroke="black" stroke-width="1.44" r="1.98"  id="106" fill="none"/>
      <g cx="31.5" cy="3.096" stroke="black" stroke-width="1.44" r="1.98"  id="107" fill="none"/>
     </g>
    </g>
   </g>
  </g>
  <g partID="137481">
   <g transform="translate(51.3617,36.5208)">
    <g  id="copper1">
     <!-- <rect width="55" x="10" y="15.5" fill="none" height="55" stroke="rgb(255, 191, 0)" stroke-width="20" />  -->
     <g cx="2.7" cy="3.096" stroke="black" stroke-width="1.44" r="1.98"  id="108" fill="none"/>
     <g cx="31.5" cy="3.096" stroke="black" stroke-width="1.44" r="1.98"  id="109" fill="none"/>
    </g>
   </g>
  </g>
  <g partID="137541">
   <g transform="translate(51.5814,47.9131)">
    <g  id="copper1">
     <!-- <rect width="55" x="10" y="15.5" fill="none" height="55" stroke="rgb(255, 191, 0)" stroke-width="20" />  -->
     <g cx="2.7" cy="3.096" stroke="black" stroke-width="1.44" r="1.98"  id="110" fill="none"/>
     <g cx="31.5" cy="3.096" stroke="black" stroke-width="1.44" r="1.98"  id="111" fill="none"/>
    </g>
   </g>
  </g>
  <g partID="1418041">
   <g transform="translate(270.601,97.0459)">
    <g transform="matrix(0,-1,1,0,0,0)">
     <g  id="copper1">
      <g  id="copper0">
       <g cx="5.04" cy="5.04" stroke="black" stroke-width="1.44" r="2.088"  id="112" fill="none"/>
       <g cx="5.04" cy="12.24" stroke="black" stroke-width="1.44" r="2.088"  id="113" fill="none"/>
      </g>
     </g>
    </g>
   </g>
  </g>
  <g partID="1421390">
   <g transform="translate(332.249,119.659)">
    <g transform="matrix(0,-1,1,0,0,0)">
     <g  id="copper1">
      <rect y="0.566929" height="3.11811" stroke="none"  id="114" width="3.40157" x="0.566929" fill="black" fill-opacity="1"/>
      <rect y="0.566929" height="3.11811" stroke="none"  id="115" width="3.40157" x="5.38583" fill="black" fill-opacity="1"/>
     </g>
    </g>
   </g>
  </g>
  <g partID="1421461">
   <g transform="translate(302.203,88.9835)">
    <g  id="copper1">
     <!-- <rect width="55" x="10" y="15.5" fill="none" height="55" stroke="rgb(255, 191, 0)" stroke-width="20" />  -->
     <g cx="2.7" cy="3.096" stroke="black" stroke-width="1.44" r="1.98"  id="116" fill="none"/>
     <g cx="31.5" cy="3.096" stroke="black" stroke-width="1.44" r="1.98"  id="117" fill="none"/>
    </g>
   </g>
  </g>
  <g partID="1445051">
   <g transform="translate(260.868,119.986)">
    <g  id="copper1">
     <g cx="4.752" cy="4.752" stroke="black" stroke-width="1.44" r="1.98"  id="118" fill="none"/>
     <g cx="4.752" cy="26.0111" stroke="black" stroke-width="1.44" r="1.98"  id="119" fill="none"/>
    </g>
   </g>
  </g>
  <g partID="1445991">
   <g transform="translate(253.197,119.816)">
    <g  id="copper1">
     <g cx="4.752" cy="4.752" stroke="black" stroke-width="1.44" r="1.98"  id="120" fill="none"/>
     <g cx="4.752" cy="26.352" stroke="black" stroke-width="1.44" r="1.98"  id="121" fill="none"/>
    </g>
   </g>
  </g>
  <g partID="1433601">
   <g transform="translate(270.306,110.966)">
    <g transform="matrix(0,1,-1,0,0,0)">
     <g  id="copper1">
      <g  id="copper0">
       <g cx="5.04" cy="5.04" stroke="black" stroke-width="1.44" r="2.088"  id="122" fill="none"/>
       <g cx="5.04" cy="12.24" stroke="black" stroke-width="1.44" r="2.088"  id="123" fill="none"/>
      </g>
     </g>
    </g>
   </g>
  </g>
  <g partID="1588311">
   <g transform="translate(32.8419,97.4991)">
    <g transform="matrix(0,1,-1,0,0,0)">
     <g  id="copper1">
      <g cx="13.0439" cy="6.12" stroke="black" stroke-width="1.872" connectorname="PWR" r="5.184"  id="124" fill="none"/>
      <g cx="13.0439" cy="23.1279" stroke="black" stroke-width="1.872" connectorname="GND" r="5.184"  id="125" fill="none"/>
      <g cx="26.3668" cy="14.6239" stroke="black" stroke-width="1.872" connectorname="GNDBREAK" r="5.184"  id="126" fill="none"/>
      <g  id="copper0">
       <g cx="13.0439" cy="6.12" stroke="black" stroke-width="1.872" connectorname="PWR" r="5.184"  id="127" fill="none"/>
       <g cx="13.0439" cy="23.1279" stroke="black" stroke-width="1.872" connectorname="GND" r="5.184"  id="128" fill="none"/>
       <g cx="26.3668" cy="14.6239" stroke="black" stroke-width="1.872" connectorname="GNDBREAK" r="5.184"  id="129" fill="none"/>
      </g>
     </g>
    </g>
   </g>
  </g>
 </g>
</svg>
