G04 MADE WITH FRITZING*
G04 WWW.FRITZING.ORG*
G04 DOUBLE SIDED*
G04 HOLES PLATED*
G04 CONTOUR ON CENTER OF CONTOUR VECTOR*
%ASAXBY*%
%FSLAX23Y23*%
%MOIN*%
%OFA0B0*%
%SFA1.0B1.0*%
%ADD10C,0.075000*%
%ADD11C,0.099055*%
%ADD12C,0.070000*%
%ADD13C,0.080000*%
%ADD14C,0.078000*%
%ADD15C,0.170000*%
%ADD16R,0.075000X0.075000*%
%ADD17R,0.070000X0.069972*%
%ADD18R,0.080000X0.080000*%
%ADD19C,0.048000*%
%ADD20C,0.024000*%
%ADD21R,0.001000X0.001000*%
%LNCOPPER0*%
G90*
G70*
G54D10*
X2225Y1596D03*
X2325Y1596D03*
X2425Y1596D03*
X2525Y1596D03*
X2625Y1596D03*
X2725Y1596D03*
X2825Y1596D03*
X2925Y1596D03*
X3025Y1596D03*
X3125Y1596D03*
X3225Y1596D03*
X3325Y1596D03*
X3425Y1596D03*
X3525Y1596D03*
X3625Y1596D03*
X3725Y1596D03*
G54D11*
X390Y1486D03*
G54D12*
X3371Y1031D03*
X3271Y1031D03*
X3171Y1031D03*
X3071Y1031D03*
X2971Y1031D03*
X2871Y1031D03*
X2771Y1031D03*
X2671Y1031D03*
X2571Y1031D03*
X2471Y1031D03*
X2371Y1031D03*
X2271Y1031D03*
X2171Y1031D03*
X2071Y1031D03*
X1971Y1031D03*
X3371Y431D03*
X3271Y431D03*
X3171Y431D03*
X3071Y431D03*
X2971Y431D03*
X2871Y431D03*
X2771Y431D03*
X2671Y431D03*
X2571Y431D03*
X2471Y431D03*
X2371Y431D03*
X2271Y431D03*
X2171Y431D03*
X2071Y431D03*
X1971Y431D03*
G54D11*
X4878Y1319D03*
X4878Y1154D03*
G54D10*
X1365Y1316D03*
X1365Y1416D03*
X1365Y1516D03*
X1369Y1156D03*
X1369Y1056D03*
X1369Y956D03*
X3933Y1156D03*
X3933Y1056D03*
X3933Y956D03*
X3934Y1316D03*
X3934Y1416D03*
X3934Y1516D03*
X2980Y1291D03*
X2580Y1291D03*
X2985Y1195D03*
X2585Y1195D03*
X1592Y902D03*
X1992Y902D03*
X1870Y1171D03*
X2270Y1171D03*
G54D11*
X4879Y1484D03*
X606Y1484D03*
X4660Y1483D03*
X387Y1153D03*
X4662Y989D03*
X604Y987D03*
X387Y1317D03*
X4660Y1319D03*
X4664Y1153D03*
X605Y1154D03*
X603Y1319D03*
X390Y988D03*
X4878Y986D03*
G54D13*
X1712Y1432D03*
X1712Y1569D03*
G54D10*
X625Y594D03*
X925Y594D03*
X625Y494D03*
X925Y494D03*
X625Y394D03*
X925Y394D03*
X625Y294D03*
X925Y294D03*
X3627Y1464D03*
X3627Y1064D03*
X1340Y684D03*
X1623Y401D03*
X4082Y414D03*
X3682Y414D03*
X1176Y687D03*
X1459Y405D03*
X4511Y1315D03*
X4111Y1315D03*
X4235Y589D03*
X4635Y589D03*
X4511Y1157D03*
X4111Y1157D03*
X751Y1317D03*
X1151Y1317D03*
X754Y1159D03*
X1154Y1159D03*
G54D14*
X3828Y590D03*
X3928Y590D03*
X3684Y256D03*
X3584Y256D03*
G54D10*
X3689Y135D03*
X3583Y137D03*
G54D15*
X371Y332D03*
X135Y332D03*
X253Y147D03*
G54D16*
X2224Y1597D03*
G54D17*
X3371Y1031D03*
G54D18*
X1712Y1432D03*
G54D16*
X625Y594D03*
G54D19*
X1713Y1316D02*
X1712Y1401D01*
D02*
X1394Y1316D02*
X1713Y1316D01*
G54D20*
D02*
X3325Y1424D02*
X3325Y1568D01*
D02*
X2772Y1424D02*
X3325Y1424D01*
D02*
X2771Y1060D02*
X2772Y1424D01*
D02*
X2967Y1118D02*
X3526Y1122D01*
D02*
X3526Y1122D02*
X3525Y1568D01*
D02*
X2970Y1060D02*
X2967Y1118D01*
D02*
X2667Y1479D02*
X2671Y1060D01*
D02*
X3227Y1482D02*
X2667Y1479D01*
D02*
X3226Y1568D02*
X3227Y1482D01*
D02*
X2872Y1364D02*
X2871Y1060D01*
D02*
X3421Y1361D02*
X2872Y1364D01*
D02*
X3424Y1568D02*
X3421Y1361D01*
D02*
X4230Y772D02*
X4230Y1315D01*
D02*
X2476Y769D02*
X4230Y772D01*
D02*
X4230Y1315D02*
X4483Y1315D01*
D02*
X2472Y460D02*
X2476Y769D01*
D02*
X4513Y708D02*
X4511Y1128D01*
D02*
X2569Y713D02*
X4513Y708D01*
D02*
X2571Y460D02*
X2569Y713D01*
D02*
X2627Y1715D02*
X2625Y1625D01*
D02*
X2222Y1716D02*
X2627Y1715D01*
D02*
X2224Y1625D02*
X2222Y1716D01*
D02*
X2630Y1710D02*
X3728Y1708D01*
D02*
X3728Y1708D02*
X3726Y1625D01*
D02*
X2626Y1625D02*
X2630Y1710D01*
G54D19*
D02*
X3729Y1311D02*
X3905Y1315D01*
D02*
X3725Y1568D02*
X3729Y1311D01*
D02*
X3068Y929D02*
X3733Y935D01*
D02*
X3733Y935D02*
X3727Y1311D01*
D02*
X3070Y1001D02*
X3068Y929D01*
D02*
X3727Y1311D02*
X3905Y1315D01*
G54D20*
D02*
X2227Y1437D02*
X2225Y1568D01*
D02*
X1743Y1432D02*
X2227Y1437D01*
D02*
X2571Y1119D02*
X2571Y1060D01*
D02*
X2433Y1118D02*
X2571Y1119D01*
D02*
X2425Y1568D02*
X2433Y1118D01*
D02*
X1040Y1313D02*
X779Y1317D01*
D02*
X1045Y727D02*
X1040Y1313D01*
D02*
X1156Y589D02*
X1045Y727D01*
D02*
X2367Y587D02*
X1156Y589D01*
D02*
X2370Y460D02*
X2367Y587D01*
D02*
X975Y730D02*
X968Y1158D01*
D02*
X1137Y532D02*
X975Y730D01*
D02*
X968Y1158D02*
X783Y1159D01*
D02*
X2269Y531D02*
X1137Y532D01*
D02*
X2271Y460D02*
X2269Y531D01*
D02*
X4540Y1316D02*
X4620Y1318D01*
D02*
X4539Y1156D02*
X4623Y1154D01*
D02*
X1625Y294D02*
X1624Y372D01*
D02*
X954Y294D02*
X1625Y294D01*
D02*
X1624Y295D02*
X2672Y302D01*
D02*
X2672Y302D02*
X2671Y401D01*
D02*
X1623Y372D02*
X1624Y295D01*
D02*
X254Y988D02*
X349Y988D01*
D02*
X349Y1486D02*
X257Y1487D01*
D02*
X257Y1487D02*
X254Y988D01*
D02*
X5006Y1487D02*
X5004Y986D01*
D02*
X5004Y986D02*
X4918Y986D01*
D02*
X4920Y1485D02*
X5006Y1487D01*
D02*
X3684Y287D02*
X3682Y386D01*
D02*
X3601Y159D02*
X3665Y234D01*
D02*
X1780Y763D02*
X1332Y760D01*
D02*
X1332Y760D02*
X1337Y712D01*
D02*
X1780Y1280D02*
X1780Y763D01*
D02*
X2329Y1284D02*
X1780Y1280D01*
D02*
X2325Y1568D02*
X2329Y1284D01*
D02*
X4787Y452D02*
X4785Y1154D01*
D02*
X4785Y1154D02*
X4837Y1154D01*
D02*
X4233Y451D02*
X4787Y452D01*
D02*
X4234Y560D02*
X4233Y451D01*
D02*
X2865Y137D02*
X3554Y137D01*
D02*
X2871Y401D02*
X2865Y137D01*
D02*
X3376Y592D02*
X3798Y590D01*
D02*
X3372Y460D02*
X3376Y592D01*
D02*
X4206Y589D02*
X3958Y590D01*
G54D21*
D02*
G04 End of Copper0*
M02*