<?xml version='1.0' encoding='UTF-8' standalone='no'?>
<!-- Created with Fritzing (http://www.fritzing.org/) -->
<svg xmlns="http://www.w3.org/2000/svg" version="1.2" x="0in" y="0in" baseProfile="tiny" height="1.86758in" xmlns:svg="http://www.w3.org/2000/svg"  width="5.25579in" viewBox="0 0 378.417 134.466">
 <g transform="matrix(-1, 0, 0, 1, 378.417, 0)">
  <g partID="1583830">
   <g id="board" >
    <rect stroke="black" x="0.288" y="0.288" fill-opacity="0.5" height="133.89" stroke-width="0.5" id="boardoutline" fill="none"  width="377.841"/>
   </g>
  </g>
  <g partID="56970">
   <g transform="translate(137.519,12.32)">
    <g id="copper0" >
     <rect stroke="black" x="20.664" y="5.184" height="3.96" stroke-width="1.44" fill="none"  width="3.96"/>
     <circle stroke="black" cx="22.68" stroke-width="1.44" id="connector0pin" r="1.98" fill="none"  cy="7.2"/>
     <circle stroke="black" cx="29.88" stroke-width="1.44" id="connector1pin" r="1.98" fill="none"  cy="7.2"/>
     <circle stroke="black" cx="37.08" stroke-width="1.44" id="connector2pin" r="1.98" fill="none"  cy="7.2"/>
     <circle stroke="black" cx="44.28" stroke-width="1.44" id="connector3pin" r="1.98" fill="none"  cy="7.2"/>
     <circle stroke="black" cx="51.48" stroke-width="1.44" id="connector4pin" r="1.98" fill="none"  cy="7.2"/>
     <circle stroke="black" cx="58.68" stroke-width="1.44" id="connector5pin" r="1.98" fill="none"  cy="7.2"/>
     <circle stroke="black" cx="65.88" stroke-width="1.44" id="connector6pin" r="1.98" fill="none"  cy="7.2"/>
     <circle stroke="black" cx="73.08" stroke-width="1.44" id="connector7pin" r="1.98" fill="none"  cy="7.2"/>
     <circle stroke="black" cx="80.28" stroke-width="1.44" id="connector8pin" r="1.98" fill="none"  cy="7.2"/>
     <circle stroke="black" cx="87.48" stroke-width="1.44" id="connector9pin" r="1.98" fill="none"  cy="7.2"/>
     <circle stroke="black" cx="94.68" stroke-width="1.44" id="connector10pin" r="1.98" fill="none"  cy="7.2"/>
     <circle stroke="black" cx="101.88" stroke-width="1.44" id="connector11pin" r="1.98" fill="none"  cy="7.2"/>
     <circle stroke="black" cx="109.08" stroke-width="1.44" id="connector12pin" r="1.98" fill="none"  cy="7.2"/>
     <circle stroke="black" cx="116.28" stroke-width="1.44" id="connector13pin" r="1.98" fill="none"  cy="7.2"/>
     <circle stroke="black" cx="123.48" stroke-width="1.44" id="connector14pin" r="1.98" fill="none"  cy="7.2"/>
     <circle stroke="black" cx="130.68" stroke-width="1.44" id="connector15pin" r="1.98" fill="none"  cy="7.2"/>
    </g>
   </g>
  </g>
  <g partID="1333640">
   <g transform="translate(3.07208,58.2335)">
    <g id="copper0" >
     <circle stroke="black" cx="4.71811" stroke-width="0" id="nonconn0" r="3.11811" fill="black"  cy="4.71811"/>
    </g>
   </g>
  </g>
  <g partID="1333620">
   <g transform="translate(3.13552,22.7584)">
    <g id="copper0" >
     <circle stroke="black" cx="4.71811" stroke-width="0" id="nonconn0" r="3.11811" fill="black"  cy="4.71811"/>
    </g>
   </g>
  </g>
  <g partID="1333400">
   <g transform="translate(366.243,22.552)">
    <g id="copper0" >
     <circle stroke="black" cx="4.71811" stroke-width="0" id="nonconn0" r="3.11811" fill="black"  cy="4.71811"/>
    </g>
   </g>
  </g>
  <g partID="1333330">
   <g transform="translate(366.229,58.3182)">
    <g id="copper0" >
     <circle stroke="black" cx="4.71811" stroke-width="0" id="nonconn0" r="3.11811" fill="black"  cy="4.71811"/>
    </g>
   </g>
  </g>
  <g partID="1591960">
   <g transform="translate(7.83534,79.6254)">
    <g id="copper0" >
     <circle stroke="black" cx="5.85197" stroke-width="0" id="nonconn0" r="4.25197" fill="black"  cy="5.85197"/>
    </g>
   </g>
  </g>
  <g partID="1591940">
   <g transform="translate(363.261,85.3022)">
    <g id="copper0" >
     <circle stroke="black" cx="5.85197" stroke-width="0" id="nonconn0" r="4.25197" fill="black"  cy="5.85197"/>
    </g>
   </g>
  </g>
  <g partID="1591980">
   <g transform="translate(137.685,13.628)">
    <g id="copper0" >
     <circle stroke="black" cx="5.85197" stroke-width="0" id="nonconn0" r="4.25197" fill="black"  cy="5.85197"/>
    </g>
   </g>
  </g>
  <g partID="1356650">
   <g transform="translate(23.009,22.4656)">
    <g id="copper0" >
     <circle stroke="black" cx="5.04" stroke-width="1.44" id="connector0pin" r="2.84599" fill="none"  cy="5.04"/>
    </g>
   </g>
  </g>
  <g partID="381250">
   <g transform="translate(253.376,57.0513)">
    <g transform="matrix(0,1,-1,0,0,0)">
     <g id="copper0" >
      <circle stroke="black" cx="3.6" stroke-width="1.224" id="connector16pad" r="1.908" fill="none"  cy="10.8"/>
      <rect stroke="black" x="1.692" y="8.892" height="3.816" stroke-width="1.224" fill="none"  width="3.814"/>
      <circle stroke="black" cx="3.6" stroke-width="1.224" id="connector17pad" r="1.908" fill="none"  cy="18"/>
      <circle stroke="black" cx="3.6" stroke-width="1.224" id="connector18pad" r="1.908" fill="none"  cy="25.2"/>
      <circle stroke="black" cx="3.6" stroke-width="1.224" id="connector19pad" r="1.908" fill="none"  cy="32.4"/>
      <circle stroke="black" cx="3.6" stroke-width="1.224" id="connector20pad" r="1.908" fill="none"  cy="39.6"/>
      <circle stroke="black" cx="3.6" stroke-width="1.224" id="connector21pad" r="1.908" fill="none"  cy="46.8"/>
      <circle stroke="black" cx="3.6" stroke-width="1.224" id="connector22pad" r="1.908" fill="none"  cy="54"/>
      <circle stroke="black" cx="3.6" stroke-width="1.224" id="connector23pad" r="1.908" fill="none"  cy="61.2"/>
      <circle stroke="black" cx="3.6" stroke-width="1.224" id="connector24pad" r="1.908" fill="none"  cy="68.4"/>
      <circle stroke="black" cx="3.6" stroke-width="1.224" id="connector25pad" r="1.908" fill="none"  cy="75.6"/>
      <circle stroke="black" cx="3.6" stroke-width="1.224" id="connector26pad" r="1.908" fill="none"  cy="82.8"/>
      <circle stroke="black" cx="3.6" stroke-width="1.224" id="connector27pad" r="1.908" fill="none"  cy="90"/>
      <circle stroke="black" cx="3.6" stroke-width="1.224" id="connector28pad" r="1.908" fill="none"  cy="97.2"/>
      <circle stroke="black" cx="3.6" stroke-width="1.224" id="connector29pad" r="1.908" fill="none"  cy="104.4"/>
      <circle stroke="black" cx="3.6" stroke-width="1.224" id="connector30pad" r="1.908" fill="none"  cy="111.6"/>
      <circle stroke="black" cx="46.8" stroke-width="1.224" id="connector31pad" r="1.908" fill="none"  cy="10.8"/>
      <circle stroke="black" cx="46.8" stroke-width="1.224" id="connector32pad" r="1.908" fill="none"  cy="18"/>
      <circle stroke="black" cx="46.8" stroke-width="1.224" id="connector33pad" r="1.908" fill="none"  cy="25.2"/>
      <circle stroke="black" cx="46.8" stroke-width="1.224" id="connector34pad" r="1.908" fill="none"  cy="32.4"/>
      <circle stroke="black" cx="46.8" stroke-width="1.224" id="connector35pad" r="1.908" fill="none"  cy="39.6"/>
      <circle stroke="black" cx="46.8" stroke-width="1.224" id="connector36pad" r="1.908" fill="none"  cy="46.8"/>
      <circle stroke="black" cx="46.8" stroke-width="1.224" id="connector37pad" r="1.908" fill="none"  cy="54"/>
      <circle stroke="black" cx="46.8" stroke-width="1.224" id="connector38pad" r="1.908" fill="none"  cy="61.2"/>
      <circle stroke="black" cx="46.8" stroke-width="1.224" id="connector39pad" r="1.908" fill="none"  cy="68.4"/>
      <circle stroke="black" cx="46.8" stroke-width="1.224" id="connector40pad" r="1.908" fill="none"  cy="75.6"/>
      <circle stroke="black" cx="46.8" stroke-width="1.224" id="connector41pad" r="1.908" fill="none"  cy="82.8"/>
      <circle stroke="black" cx="46.8" stroke-width="1.224" id="connector42pad" r="1.908" fill="none"  cy="90"/>
      <circle stroke="black" cx="46.8" stroke-width="1.224" id="connector43pad" r="1.908" fill="none"  cy="97.2"/>
      <circle stroke="black" cx="46.8" stroke-width="1.224" id="connector44pad" r="1.908" fill="none"  cy="104.4"/>
      <circle stroke="black" cx="46.8" stroke-width="1.224" id="connector45pad" r="1.908" fill="none"  cy="111.6"/>
     </g>
    </g>
   </g>
  </g>
  <g partID="1353930">
   <g transform="translate(346.141,34.4488)">
    <g id="copper0" >
     <circle stroke="black" cx="5.04" stroke-width="1.44" id="connector0pin" r="2.84599" fill="none"  cy="5.04"/>
    </g>
   </g>
  </g>
  <g partID="1353330">
   <g transform="translate(346.171,46.3248)">
    <g id="copper0" >
     <circle stroke="black" cx="5.04" stroke-width="1.44" id="connector0pin" r="2.84599" fill="none"  cy="5.04"/>
    </g>
   </g>
  </g>
  <g partID="322660">
   <g transform="translate(104.685,21.628)">
    <g transform="matrix(0,1,-1,0,0,0)">
     <g id="copper0" >
      <circle stroke="black" cx="3.6" stroke-width="1.44" id="connector0pin" r="1.98" fill="none"  cy="8.208"/>
      <circle stroke="black" cx="10.8" stroke-width="1.44" id="connector1pin" r="1.98" fill="none"  cy="8.208"/>
      <circle stroke="black" cx="18" stroke-width="1.44" id="connector2pin" r="1.98" fill="none"  cy="8.208"/>
     </g>
    </g>
   </g>
  </g>
  <g partID="323480">
   <g transform="translate(88.1648,69.008)">
    <g transform="matrix(0,-1,1,0,0,0)">
     <g id="copper0" >
      <circle stroke="black" cx="3.6" stroke-width="1.44" id="connector0pin" r="1.98" fill="none"  cy="8.208"/>
      <circle stroke="black" cx="10.8" stroke-width="1.44" id="connector1pin" r="1.98" fill="none"  cy="8.208"/>
      <circle stroke="black" cx="18" stroke-width="1.44" id="connector2pin" r="1.98" fill="none"  cy="8.208"/>
     </g>
    </g>
   </g>
  </g>
  <g partID="325440">
   <g transform="translate(274.208,69.623)">
    <g transform="matrix(0,-1,1,0,0,0)">
     <g id="copper0" >
      <circle stroke="black" cx="3.6" stroke-width="1.44" id="connector0pin" r="1.98" fill="none"  cy="8.208"/>
      <circle stroke="black" cx="10.8" stroke-width="1.44" id="connector1pin" r="1.98" fill="none"  cy="8.208"/>
      <circle stroke="black" cx="18" stroke-width="1.44" id="connector2pin" r="1.98" fill="none"  cy="8.208"/>
     </g>
    </g>
   </g>
  </g>
  <g partID="324620">
   <g transform="translate(291.09,21.636)">
    <g transform="matrix(0,1,-1,0,0,0)">
     <g id="copper0" >
      <circle stroke="black" cx="3.6" stroke-width="1.44" id="connector0pin" r="1.98" fill="none"  cy="8.208"/>
      <circle stroke="black" cx="10.8" stroke-width="1.44" id="connector1pin" r="1.98" fill="none"  cy="8.208"/>
      <circle stroke="black" cx="18" stroke-width="1.44" id="connector2pin" r="1.98" fill="none"  cy="8.208"/>
     </g>
    </g>
   </g>
  </g>
  <g partID="327420">
   <g transform="translate(217.283,44.6328)">
    <g transform="matrix(-1,0,0,-1,0,0)">
     <g id="copper0" >
      <g id="copper1" >
       <!-- <rect width="55" x="10" y="15.5" fill="none" height="55" stroke="rgb(255, 191, 0)" stroke-width="20" />  -->
       <circle stroke="black" cx="2.7" stroke-width="1.44" id="connector0pin" r="1.98" fill="none"  cy="3.096"/>
       <circle stroke="black" cx="31.5" stroke-width="1.44" id="connector1pin" r="1.98" fill="none"  cy="3.096"/>
      </g>
     </g>
    </g>
   </g>
  </g>
  <g partID="327320">
   <g transform="translate(217.624,51.5312)">
    <g transform="matrix(-1,0,0,-1,0,0)">
     <g id="copper0" >
      <g id="copper1" >
       <!-- <rect width="55" x="10" y="15.5" fill="none" height="55" stroke="rgb(255, 191, 0)" stroke-width="20" />  -->
       <circle stroke="black" cx="2.7" stroke-width="1.44" id="connector0pin" r="1.98" fill="none"  cy="3.096"/>
       <circle stroke="black" cx="31.5" stroke-width="1.44" id="connector1pin" r="1.98" fill="none"  cy="3.096"/>
      </g>
     </g>
    </g>
   </g>
  </g>
  <g partID="327220">
   <g transform="translate(124.028,44.2648)">
    <g id="copper0" >
     <g id="copper1" >
      <!-- <rect width="55" x="10" y="15.5" fill="none" height="55" stroke="rgb(255, 191, 0)" stroke-width="20" />  -->
      <circle stroke="black" cx="2.7" stroke-width="1.44" id="connector0pin" r="1.98" fill="none"  cy="3.096"/>
      <circle stroke="black" cx="31.5" stroke-width="1.44" id="connector1pin" r="1.98" fill="none"  cy="3.096"/>
     </g>
    </g>
   </g>
  </g>
  <g partID="326260">
   <g transform="translate(132.211,36.1064)">
    <g id="copper0" >
     <g id="copper1" >
      <!-- <rect width="55" x="10" y="15.5" fill="none" height="55" stroke="rgb(255, 191, 0)" stroke-width="20" />  -->
      <circle stroke="black" cx="2.7" stroke-width="1.44" id="connector0pin" r="1.98" fill="none"  cy="3.096"/>
      <circle stroke="black" cx="31.5" stroke-width="1.44" id="connector1pin" r="1.98" fill="none"  cy="3.096"/>
     </g>
    </g>
   </g>
  </g>
  <g partID="1354510">
   <g transform="translate(346.278,22.5424)">
    <g id="copper0" >
     <circle stroke="black" cx="5.04" stroke-width="1.44" id="connector0pin" r="2.84599" fill="none"  cy="5.04"/>
    </g>
   </g>
  </g>
  <g partID="1356050">
   <g transform="translate(38.5817,22.5784)">
    <g id="copper0" >
     <circle stroke="black" cx="5.04" stroke-width="1.44" id="connector0pin" r="2.84599" fill="none"  cy="5.04"/>
    </g>
   </g>
  </g>
  <g partID="1354750">
   <g transform="translate(330.493,22.624)">
    <g id="copper0" >
     <circle stroke="black" cx="5.04" stroke-width="1.44" id="connector0pin" r="2.84599" fill="none"  cy="5.04"/>
    </g>
   </g>
  </g>
  <g partID="1357510">
   <g transform="translate(22.7891,46.3856)">
    <g id="copper0" >
     <circle stroke="black" cx="5.04" stroke-width="1.44" id="connector0pin" r="2.84599" fill="none"  cy="5.04"/>
    </g>
   </g>
  </g>
  <g partID="1355470">
   <g transform="translate(330.63,58.2357)">
    <g id="copper0" >
     <circle stroke="black" cx="5.04" stroke-width="1.44" id="connector0pin" r="2.84599" fill="none"  cy="5.04"/>
    </g>
   </g>
  </g>
  <g partID="1358150">
   <g transform="translate(38.4758,58.3282)">
    <g id="copper0" >
     <circle stroke="black" cx="5.04" stroke-width="1.44" id="connector0pin" r="2.84599" fill="none"  cy="5.04"/>
    </g>
   </g>
  </g>
  <g partID="1356930">
   <g transform="translate(22.822,34.588)">
    <g id="copper0" >
     <circle stroke="black" cx="5.04" stroke-width="1.44" id="connector0pin" r="2.84599" fill="none"  cy="5.04"/>
    </g>
   </g>
  </g>
  <g partID="1355350">
   <g transform="translate(330.489,34.4912)">
    <g id="copper0" >
     <circle stroke="black" cx="5.04" stroke-width="1.44" id="connector0pin" r="2.84599" fill="none"  cy="5.04"/>
    </g>
   </g>
  </g>
  <g partID="1355410">
   <g transform="translate(330.762,46.3824)">
    <g id="copper0" >
     <circle stroke="black" cx="5.04" stroke-width="1.44" id="connector0pin" r="2.84599" fill="none"  cy="5.04"/>
    </g>
   </g>
  </g>
  <g partID="1358090">
   <g transform="translate(38.5005,46.3296)">
    <g id="copper0" >
     <circle stroke="black" cx="5.04" stroke-width="1.44" id="connector0pin" r="2.84599" fill="none"  cy="5.04"/>
    </g>
   </g>
  </g>
  <g partID="1356870">
   <g transform="translate(38.3794,34.4536)">
    <g id="copper0" >
     <circle stroke="black" cx="5.04" stroke-width="1.44" id="connector0pin" r="2.84599" fill="none"  cy="5.04"/>
    </g>
   </g>
  </g>
  <g partID="1358730">
   <g transform="translate(23.0386,58.3243)">
    <g id="copper0" >
     <circle stroke="black" cx="5.04" stroke-width="1.44" id="connector0pin" r="2.84599" fill="none"  cy="5.04"/>
    </g>
   </g>
  </g>
  <g partID="1353110">
   <g transform="translate(346.14,58.4466)">
    <g id="copper0" >
     <circle stroke="black" cx="5.04" stroke-width="1.44" id="connector0pin" r="2.84599" fill="none"  cy="5.04"/>
    </g>
   </g>
  </g>
  <g partID="72100">
   <g transform="translate(40.7105,87.3615)">
    <g id="copper0" >
     <rect stroke="black" x="2.34" y="2.34" height="3.96" stroke-width="1.44" id="square" fill="none"  width="3.96"/>
     <circle stroke="black" cx="4.32" stroke-width="1.44" id="connector0pin" r="1.98" fill="none"  cy="4.32"/>
     <circle stroke="black" cx="25.92" stroke-width="1.44" id="connector7pin" r="1.98" fill="none"  cy="4.32"/>
     <circle stroke="black" cx="4.32" stroke-width="1.44" id="connector1pin" r="1.98" fill="none"  cy="11.52"/>
     <circle stroke="black" cx="25.92" stroke-width="1.44" id="connector6pin" r="1.98" fill="none"  cy="11.52"/>
     <circle stroke="black" cx="4.32" stroke-width="1.44" id="connector2pin" r="1.98" fill="none"  cy="18.72"/>
     <circle stroke="black" cx="25.92" stroke-width="1.44" id="connector5pin" r="1.98" fill="none"  cy="18.72"/>
     <circle stroke="black" cx="4.32" stroke-width="1.44" id="connector3pin" r="1.98" fill="none"  cy="25.92"/>
     <circle stroke="black" cx="25.92" stroke-width="1.44" id="connector4pin" r="1.98" fill="none"  cy="25.92"/>
    </g>
   </g>
  </g>
  <g partID="57120">
   <g transform="translate(264.26,26.3312)">
    <g transform="matrix(0,1,-1,0,0,0)">
     <g id="copper0" >
      <g id="copper1" >
       <!-- <rect width="55" x="10" y="15.5" fill="none" height="55" stroke="rgb(255, 191, 0)" stroke-width="20" />  -->
       <circle stroke="black" cx="2.7" stroke-width="1.44" id="connector0pin" r="1.98" fill="none"  cy="3.096"/>
       <circle stroke="black" cx="31.5" stroke-width="1.44" id="connector1pin" r="1.98" fill="none"  cy="3.096"/>
      </g>
     </g>
    </g>
   </g>
  </g>
  <g partID="73310">
   <g transform="translate(96.7828,81.1287)">
    <g transform="matrix(0.707107,0.707107,-0.707107,0.707107,0,0)">
     <g id="copper0" >
      <g id="copper1" >
       <!-- <rect width="55" x="10" y="15.5" fill="none" height="55" stroke="rgb(255, 191, 0)" stroke-width="20" />  -->
       <circle stroke="black" cx="2.7" stroke-width="1.44" id="connector0pin" r="1.98" fill="none"  cy="3.096"/>
       <circle stroke="black" cx="31.5" stroke-width="1.44" id="connector1pin" r="1.98" fill="none"  cy="3.096"/>
      </g>
     </g>
    </g>
   </g>
  </g>
  <g partID="383810">
   <g transform="translate(289.606,106.967)">
    <g transform="matrix(-1,0,0,-1,0,0)">
     <g id="copper0" >
      <g id="copper1" >
       <!-- <rect width="55" x="10" y="15.5" fill="none" height="55" stroke="rgb(255, 191, 0)" stroke-width="20" />  -->
       <circle stroke="black" cx="2.7" stroke-width="1.44" id="connector0pin" r="1.98" fill="none"  cy="3.096"/>
       <circle stroke="black" cx="31.5" stroke-width="1.44" id="connector1pin" r="1.98" fill="none"  cy="3.096"/>
      </g>
     </g>
    </g>
   </g>
  </g>
  <g partID="73250">
   <g transform="translate(84.9365,80.8721)">
    <g transform="matrix(0.707107,0.707107,-0.707107,0.707107,0,0)">
     <g id="copper0" >
      <g id="copper1" >
       <!-- <rect width="55" x="10" y="15.5" fill="none" height="55" stroke="rgb(255, 191, 0)" stroke-width="20" />  -->
       <circle stroke="black" cx="2.7" stroke-width="1.44" id="connector0pin" r="1.98" fill="none"  cy="3.096"/>
       <circle stroke="black" cx="31.5" stroke-width="1.44" id="connector1pin" r="1.98" fill="none"  cy="3.096"/>
      </g>
     </g>
    </g>
   </g>
  </g>
  <g partID="137660">
   <g transform="translate(327.525,42.892)">
    <g transform="matrix(-1,0,0,-1,0,0)">
     <g id="copper0" >
      <g id="copper1" >
       <!-- <rect width="55" x="10" y="15.5" fill="none" height="55" stroke="rgb(255, 191, 0)" stroke-width="20" />  -->
       <circle stroke="black" cx="2.7" stroke-width="1.44" id="connector0pin" r="1.98" fill="none"  cy="3.096"/>
       <circle stroke="black" cx="31.5" stroke-width="1.44" id="connector1pin" r="1.98" fill="none"  cy="3.096"/>
      </g>
     </g>
    </g>
   </g>
  </g>
  <g partID="137600">
   <g transform="translate(327.483,54.2704)">
    <g transform="matrix(-1,0,0,-1,0,0)">
     <g id="copper0" >
      <g id="copper1" >
       <!-- <rect width="55" x="10" y="15.5" fill="none" height="55" stroke="rgb(255, 191, 0)" stroke-width="20" />  -->
       <circle stroke="black" cx="2.7" stroke-width="1.44" id="connector0pin" r="1.98" fill="none"  cy="3.096"/>
       <circle stroke="black" cx="31.5" stroke-width="1.44" id="connector1pin" r="1.98" fill="none"  cy="3.096"/>
      </g>
     </g>
    </g>
   </g>
  </g>
  <g partID="137480">
   <g transform="translate(51.3617,36.5208)">
    <g id="copper0" >
     <g id="copper1" >
      <!-- <rect width="55" x="10" y="15.5" fill="none" height="55" stroke="rgb(255, 191, 0)" stroke-width="20" />  -->
      <circle stroke="black" cx="2.7" stroke-width="1.44" id="connector0pin" r="1.98" fill="none"  cy="3.096"/>
      <circle stroke="black" cx="31.5" stroke-width="1.44" id="connector1pin" r="1.98" fill="none"  cy="3.096"/>
     </g>
    </g>
   </g>
  </g>
  <g partID="137540">
   <g transform="translate(51.5814,47.9128)">
    <g id="copper0" >
     <g id="copper1" >
      <!-- <rect width="55" x="10" y="15.5" fill="none" height="55" stroke="rgb(255, 191, 0)" stroke-width="20" />  -->
      <circle stroke="black" cx="2.7" stroke-width="1.44" id="connector0pin" r="1.98" fill="none"  cy="3.096"/>
      <circle stroke="black" cx="31.5" stroke-width="1.44" id="connector1pin" r="1.98" fill="none"  cy="3.096"/>
     </g>
    </g>
   </g>
  </g>
  <g partID="1418040">
   <g transform="translate(270.601,97.0455)">
    <g transform="matrix(0,-1,1,0,0,0)">
     <g id="copper0" >
      <circle stroke="black" cx="5.04" stroke-width="1.44" id="connector0pin" r="2.088" fill="none"  cy="5.04"/>
      <circle stroke="black" cx="5.04" stroke-width="1.44" id="connector1pin" r="2.088" fill="none"  cy="12.24"/>
     </g>
    </g>
   </g>
  </g>
  <g partID="1445050">
   <g transform="translate(260.868,107.44)">
    <g id="copper0" >
     <circle stroke="black" cx="5.29749" stroke-width="1.44" id="connector0pad" r="1.98" fill="none"  cy="4.752"/>
     <circle stroke="black" cx="4.752" stroke-width="1.44" id="connector1pad" r="1.98" fill="none"  cy="38.5574"/>
    </g>
   </g>
  </g>
  <g partID="1445990">
   <g transform="translate(253.197,107.542)">
    <g id="copper0" >
     <circle stroke="black" cx="5.02475" stroke-width="1.44" id="connector0pad" r="1.98" fill="none"  cy="4.752"/>
     <circle stroke="black" cx="4.752" stroke-width="1.44" id="connector1pad" r="1.98" fill="none"  cy="38.6256"/>
    </g>
   </g>
  </g>
  <g partID="1732350">
   <g transform="translate(344.502,130.023)">
    <g transform="matrix(0,-1,1,0,0,0)">
     <g id="copper0" >
      <circle connectorname="PWR" stroke="black" cx="13.0439" stroke-width="1.872" id="connector2pad" r="5.184" fill="none"  cy="6.12"/>
      <circle connectorname="GND" stroke="black" cx="13.0439" stroke-width="1.872" id="connector0pad" r="5.184" fill="none"  cy="23.1279"/>
      <circle connectorname="GNDBREAK" stroke="black" cx="26.3668" stroke-width="1.872" id="connector1pad" r="5.184" fill="none"  cy="14.6239"/>
     </g>
    </g>
   </g>
  </g>
  <g partID="1588310">
   <g transform="translate(32.8419,97.4987)">
    <g transform="matrix(0,1,-1,0,0,0)">
     <g id="copper0" >
      <circle connectorname="PWR" stroke="black" cx="13.0439" stroke-width="1.872" id="connector2pad" r="5.184" fill="none"  cy="6.12"/>
      <circle connectorname="GND" stroke="black" cx="13.0439" stroke-width="1.872" id="connector0pad" r="5.184" fill="none"  cy="23.1279"/>
      <circle connectorname="GNDBREAK" stroke="black" cx="26.3668" stroke-width="1.872" id="connector1pad" r="5.184" fill="none"  cy="14.6239"/>
     </g>
    </g>
   </g>
  </g>
  <g partID="1741570">
   <line x2="371.486" stroke="black" y2="112.584" stroke-width="3.456" x1="372.444" y1="111.492" stroke-linecap="round"/>
  </g>
  <g partID="1739420">
   <line x2="372.116" stroke="black" y2="8.25039" stroke-width="3.456" x1="187.99" y1="7.264" stroke-linecap="round"/>
  </g>
  <g partID="1734910">
   <line x2="372.444" stroke="black" y2="111.493" stroke-width="3.456" x1="372.116" y1="8.2504" stroke-linecap="round"/>
  </g>
  <g partID="1734480">
   <line x2="187.99" stroke="black" y2="7.26368" stroke-width="3.456" x1="188.764" y1="16.6696" stroke-linecap="round"/>
  </g>
  <g partID="1741140">
   <line x2="372.535" stroke="black" y2="113.797" stroke-width="3.456" x1="375.075" y1="112.15" stroke-linecap="round"/>
  </g>
  <g partID="1740710">
   <line x2="375.075" stroke="black" y2="5.62" stroke-width="3.456" x1="160.042" y1="5.9488" stroke-linecap="round"/>
  </g>
  <g partID="1740280">
   <line x2="375.075" stroke="black" y2="112.15" stroke-width="3.456" x1="375.075" y1="5.62" stroke-linecap="round"/>
  </g>
  <g partID="1739850">
   <line x2="160.042" stroke="black" y2="5.94856" stroke-width="3.456" x1="160.166" y1="16.6602" stroke-linecap="round"/>
  </g>
  <g partID="1743720">
   <line x2="369.417" stroke="black" y2="111.412" stroke-width="3.456" x1="369.814" y1="110.177" stroke-linecap="round"/>
  </g>
  <g partID="1743290">
   <line x2="369.814" stroke="black" y2="110.178" stroke-width="3.456" x1="369.814" y1="11.2096" stroke-linecap="round"/>
  </g>
  <g partID="1742860">
   <line x2="369.815" stroke="black" y2="11.2096" stroke-width="3.456" x1="115.984" y1="9.5656" stroke-linecap="round"/>
  </g>
  <g partID="1742430">
   <line x2="115.984" stroke="black" y2="9.5652" stroke-width="3.456" x1="116.734" y1="40.1216" stroke-linecap="round"/>
  </g>
  <g partID="1742000">
   <line x2="116.733" stroke="black" y2="40.1217" stroke-width="3.456" x1="99.3364" y1="39.6977" stroke-linecap="round"/>
  </g>
  <g partID="1745870">
   <line x2="115.373" stroke="black" y2="10.05" stroke-width="3.456" x1="116.615" y1="51.0202" stroke-linecap="round"/>
  </g>
  <g partID="1745440">
   <line x2="367.816" stroke="black" y2="11.2919" stroke-width="3.456" x1="115.373" y1="10.0504" stroke-linecap="round"/>
  </g>
  <g partID="1745010">
   <line x2="367.402" stroke="black" y2="110.199" stroke-width="3.456" x1="367.816" y1="11.2912" stroke-linecap="round"/>
  </g>
  <g partID="1744580">
   <line x2="367.433" stroke="black" y2="111.135" stroke-width="3.456" x1="367.402" y1="110.199" stroke-linecap="round"/>
  </g>
  <g partID="1744150">
   <line x2="116.615" stroke="black" y2="51.0202" stroke-width="3.456" x1="99.2332" y1="51.0097" stroke-linecap="round"/>
  </g>
  <g partID="1705530">
   <line x2="258.194" stroke="black" y2="110.234" stroke-width="1.728" x1="258.134" y1="105.931" stroke-linecap="round"/>
  </g>
  <g partID="1718130">
   <line x2="10.2404" stroke="black" y2="10.295" stroke-width="3.456" x1="160.457" y1="10.872" stroke-linecap="round"/>
  </g>
  <g partID="1717740">
   <line x2="9.74474" stroke="black" y2="104.695" stroke-width="3.456" x1="10.2404" y1="10.2952" stroke-linecap="round"/>
  </g>
  <g partID="1717350">
   <line x2="160.457" stroke="black" y2="10.872" stroke-width="3.456" x1="160.284" y1="16.6613" stroke-linecap="round"/>
  </g>
  <g partID="1724300">
   <line x2="4.71499" stroke="black" y2="5.31416" stroke-width="3.456" x1="4.21504" y1="108.373" stroke-linecap="round"/>
  </g>
  <g partID="1723910">
   <line x2="115.409" stroke="black" y2="6.1507" stroke-width="3.456" x1="4.71496" y1="5.3144" stroke-linecap="round"/>
  </g>
  <g partID="1723520">
   <line x2="116.32" stroke="black" y2="39.9838" stroke-width="3.456" x1="115.409" y1="6.1504" stroke-linecap="round"/>
  </g>
  <g partID="1723130">
   <line x2="99.3369" stroke="black" y2="39.6794" stroke-width="3.456" x1="116.32" y1="39.984" stroke-linecap="round"/>
  </g>
  <g partID="1722380">
   <line x2="4.21504" stroke="black" y2="108.373" stroke-width="3.456" x1="4.27401" y1="108.397" stroke-linecap="round"/>
  </g>
  <g partID="1635300">
   <line x2="285.742" stroke="black" y2="39.6708" stroke-width="3.456" x1="293.165" y1="39.7612" stroke-linecap="round"/>
  </g>
  <g partID="1634810">
   <line x2="285.274" stroke="black" y2="51.5285" stroke-width="3.456" x1="293.124" y1="51.2689" stroke-linecap="round"/>
  </g>
  <g partID="1631820">
   <line x2="85.7215" stroke="black" y2="39.6192" stroke-width="3.456" x1="93.6172" y1="39.6256" stroke-linecap="round"/>
  </g>
  <g partID="1631270">
   <line x2="85.9418" stroke="black" y2="51.0086" stroke-width="3.456" x1="93.5132" y1="51.0082" stroke-linecap="round"/>
  </g>
  <g partID="1726610">
   <line x2="13.5035" stroke="black" y2="106.088" stroke-width="3.456" x1="12.304" y1="107.498" stroke-linecap="round"/>
  </g>
  <g partID="1726220">
   <line x2="12.304" stroke="black" y2="107.498" stroke-width="3.456" x1="13.6157" y1="11.7432" stroke-linecap="round"/>
  </g>
  <g partID="1725830">
   <line x2="13.6156" stroke="black" y2="11.7435" stroke-width="3.456" x1="116.312" y1="10.2232" stroke-linecap="round"/>
  </g>
  <g partID="1725440">
   <line x2="116.312" stroke="black" y2="10.2229" stroke-width="3.456" x1="116.148" y1="50.8768" stroke-linecap="round"/>
  </g>
  <g partID="1724690">
   <line x2="116.149" stroke="black" y2="50.8768" stroke-width="3.456" x1="99.2331" y1="50.989" stroke-linecap="round"/>
  </g>
  <g partID="1728940">
   <line x2="6.7052" stroke="black" y2="105.528" stroke-width="3.456" x1="7.49433" y1="106.843" stroke-linecap="round"/>
  </g>
  <g partID="1728550">
   <line x2="7.49433" stroke="black" y2="106.843" stroke-width="3.456" x1="6.83847" y1="8.0272" stroke-linecap="round"/>
  </g>
  <g partID="1728160">
   <line x2="6.8388" stroke="black" y2="8.0275" stroke-width="3.456" x1="270.518" y1="8.908" stroke-linecap="round"/>
  </g>
  <g partID="1727770">
   <line x2="270.518" stroke="black" y2="8.90768" stroke-width="3.456" x1="271.368" y1="51.5323" stroke-linecap="round"/>
  </g>
  <g partID="1727380">
   <line x2="271.368" stroke="black" y2="51.5323" stroke-width="3.456" x1="279.556" y1="51.5995" stroke-linecap="round"/>
  </g>
  <g partID="1730860">
   <line x2="9.51814" stroke="black" y2="104.698" stroke-width="3.456" x1="6.1828" y1="5.1848" stroke-linecap="round"/>
  </g>
  <g partID="1730470">
   <line x2="6.1828" stroke="black" y2="5.18494" stroke-width="3.456" x1="272.243" y1="5.8408" stroke-linecap="round"/>
  </g>
  <g partID="1730080">
   <line x2="272.243" stroke="black" y2="5.8412" stroke-width="3.456" x1="272.243" y1="39.7272" stroke-linecap="round"/>
  </g>
  <g partID="1729690">
   <line x2="272.243" stroke="black" y2="39.7269" stroke-width="3.456" x1="280.022" y1="39.6604" stroke-linecap="round"/>
  </g>
  <g partID="1637300">
   <line x2="268.274" stroke="black" y2="22.379" stroke-width="3.456" x1="268.731" y1="39.7128" stroke-linecap="round"/>
  </g>
  <g partID="1636850">
   <line x2="268.73" stroke="black" y2="39.7128" stroke-width="3.456" x1="268.956" y1="69.7971" stroke-linecap="round"/>
  </g>
  <g partID="1636400">
   <line x2="268.956" stroke="black" y2="69.7971" stroke-width="3.456" x1="221.08" y1="69.9677" stroke-linecap="round"/>
  </g>
  <g partID="1635950">
   <line x2="221.081" stroke="black" y2="69.9677" stroke-width="3.456" x1="221.009" y1="63.5473" stroke-linecap="round"/>
  </g>
  <g partID="1640520">
   <line x2="280.022" stroke="black" y2="39.6515" stroke-width="3.456" x1="268.731" y1="39.7128" stroke-linecap="round"/>
  </g>
  <g partID="1606840">
   <line x2="348.285" stroke="black" y2="51.4204" stroke-width="1.728" x1="343.802" y1="51.5056" stroke-linecap="round"/>
  </g>
  <g partID="1606700">
   <line x2="343.802" stroke="black" y2="51.5056" stroke-width="1.728" x1="343.235" y1="92.4383" stroke-linecap="round"/>
  </g>
  <g partID="1606710">
   <line x2="343.235" stroke="black" y2="92.4383" stroke-width="1.728" x1="285.009" y1="92.0211" stroke-linecap="round"/>
  </g>
  <g partID="1520450">
   <line x2="239.4" stroke="black" y2="21.5798" stroke-width="1.728" x1="239.406" y1="31.9056" stroke-linecap="round"/>
  </g>
  <g partID="1516820">
   <line x2="239.406" stroke="black" y2="31.9059" stroke-width="1.728" x1="199.594" y1="31.9688" stroke-linecap="round"/>
  </g>
  <g partID="1515550">
   <line x2="199.594" stroke="black" y2="31.9688" stroke-width="1.728" x1="199.392" y1="58.5556" stroke-linecap="round"/>
  </g>
  <g partID="1517320">
   <line x2="253.864" stroke="black" y2="53.7051" stroke-width="1.728" x1="213.617" y1="53.9518" stroke-linecap="round"/>
  </g>
  <g partID="1519730">
   <line x2="253.803" stroke="black" y2="21.58" stroke-width="1.728" x1="253.864" y1="53.7051" stroke-linecap="round"/>
  </g>
  <g partID="1515750">
   <line x2="213.618" stroke="black" y2="53.9518" stroke-width="1.728" x1="213.727" y1="58.5561" stroke-linecap="round"/>
  </g>
  <g partID="1517050">
   <line x2="192.166" stroke="black" y2="58.5555" stroke-width="1.728" x1="192.014" y1="27.9896" stroke-linecap="round"/>
  </g>
  <g partID="1517520">
   <line x2="192.014" stroke="black" y2="27.9897" stroke-width="1.728" x1="232.369" y1="27.7328" stroke-linecap="round"/>
  </g>
  <g partID="1517060">
   <line x2="232.369" stroke="black" y2="27.7328" stroke-width="1.728" x1="232.242" y1="21.5796" stroke-linecap="round"/>
  </g>
  <g partID="1517260">
   <line x2="206.594" stroke="black" y2="58.5556" stroke-width="1.728" x1="206.787" y1="36.26" stroke-linecap="round"/>
  </g>
  <g partID="1517420">
   <line x2="206.787" stroke="black" y2="36.26" stroke-width="1.728" x1="246.304" y1="36.468" stroke-linecap="round"/>
  </g>
  <g partID="1517270">
   <line x2="246.304" stroke="black" y2="36.468" stroke-width="1.728" x1="246.563" y1="21.5797" stroke-linecap="round"/>
  </g>
  <g partID="1530230">
   <line x2="304.581" stroke="black" y2="39.801" stroke-width="1.728" x1="304.539" y1="78.8959" stroke-linecap="round"/>
  </g>
  <g partID="1529710">
   <line x2="304.539" stroke="black" y2="78.8959" stroke-width="1.728" x1="178.294" y1="79.1039" stroke-linecap="round"/>
  </g>
  <g partID="1530300">
   <line x2="322.765" stroke="black" y2="39.796" stroke-width="1.728" x1="304.58" y1="39.8008" stroke-linecap="round"/>
  </g>
  <g partID="1529720">
   <line x2="178.294" stroke="black" y2="79.1039" stroke-width="1.728" x1="177.82" y1="101.756" stroke-linecap="round"/>
  </g>
  <g partID="1530650">
   <line x2="324.791" stroke="black" y2="53.2345" stroke-width="1.728" x1="324.92" y1="83.4715" stroke-linecap="round"/>
  </g>
  <g partID="1530730">
   <line x2="324.92" stroke="black" y2="83.4715" stroke-width="1.728" x1="185.002" y1="83.1357" stroke-linecap="round"/>
  </g>
  <g partID="1530660">
   <line x2="185.002" stroke="black" y2="83.1357" stroke-width="1.728" x1="184.979" y1="101.756" stroke-linecap="round"/>
  </g>
  <g partID="1540980">
   <line x2="189.045" stroke="black" y2="16.6605" stroke-width="3.456" x1="189.136" y1="11.0168" stroke-linecap="round"/>
  </g>
  <g partID="1542880">
   <line x2="189.135" stroke="black" y2="11.0166" stroke-width="3.456" x1="160.202" y1="11.0304" stroke-linecap="round"/>
  </g>
  <g partID="1540990">
   <line x2="160.202" stroke="black" y2="11.0304" stroke-width="3.456" x1="160.2" y1="16.66" stroke-linecap="round"/>
  </g>
  <g partID="1545560">
   <line x2="268.216" stroke="black" y2="11.5381" stroke-width="3.456" x1="189.36" y1="11.3128" stroke-linecap="round"/>
  </g>
  <g partID="1546170">
   <line x2="268.205" stroke="black" y2="16.6603" stroke-width="3.456" x1="268.216" y1="11.5384" stroke-linecap="round"/>
  </g>
  <g partID="1544950">
   <line x2="189.36" stroke="black" y2="11.3128" stroke-width="3.456" x1="189.125" y1="16.6628" stroke-linecap="round"/>
  </g>
  <g partID="1555180">
   <line x2="185.024" stroke="black" y2="58.5561" stroke-width="1.728" x1="185.131" y1="53.9275" stroke-linecap="round"/>
  </g>
  <g partID="1555240">
   <line x2="185.131" stroke="black" y2="53.9275" stroke-width="1.728" x1="175.148" y1="53.9518" stroke-linecap="round"/>
  </g>
  <g partID="1555190">
   <line x2="175.148" stroke="black" y2="53.9518" stroke-width="1.728" x1="174.632" y1="21.5797" stroke-linecap="round"/>
  </g>
  <g partID="1556980">
   <line x2="56.1214" stroke="black" y2="39.6469" stroke-width="1.728" x1="74.8991" y1="39.928" stroke-linecap="round"/>
  </g>
  <g partID="1588340">
   <line x2="74.8992" stroke="black" y2="39.9284" stroke-width="1.728" x1="75.2637" y1="82.0932" stroke-linecap="round"/>
  </g>
  <g partID="1557620">
   <line x2="75.2637" stroke="black" y2="82.0932" stroke-width="1.728" x1="83.2272" y1="92.09" stroke-linecap="round"/>
  </g>
  <g partID="1557690">
   <line x2="83.2269" stroke="black" y2="92.09" stroke-width="1.728" x1="160.57" y1="93.5248" stroke-linecap="round"/>
  </g>
  <g partID="1556990">
   <line x2="160.57" stroke="black" y2="93.5248" stroke-width="1.728" x1="169.118" y1="102.346" stroke-linecap="round"/>
  </g>
  <g partID="1588410">
   <line x2="69.6722" stroke="black" y2="51.0862" stroke-width="1.728" x1="70.1806" y1="81.9238" stroke-linecap="round"/>
  </g>
  <g partID="1557860">
   <line x2="70.1806" stroke="black" y2="81.9238" stroke-width="1.728" x1="81.8717" y1="96.1565" stroke-linecap="round"/>
  </g>
  <g partID="1557930">
   <line x2="56.3415" stroke="black" y2="51.0191" stroke-width="1.728" x1="69.6722" y1="51.0861" stroke-linecap="round"/>
  </g>
  <g partID="1557780">
   <line x2="81.8721" stroke="black" y2="96.1564" stroke-width="1.728" x1="155.934" y1="97.0705" stroke-linecap="round"/>
  </g>
  <g partID="1557790">
   <line x2="155.934" stroke="black" y2="97.0705" stroke-width="1.728" x1="161.827" y1="102.44" stroke-linecap="round"/>
  </g>
  <g partID="1507070">
   <line x2="332.604" stroke="black" y2="39.6038" stroke-width="1.728" x1="326.885" y1="39.7451" stroke-linecap="round"/>
  </g>
  <g partID="1507160">
   <line x2="332.877" stroke="black" y2="51.3565" stroke-width="1.728" x1="326.842" y1="51.2208" stroke-linecap="round"/>
  </g>
  <g partID="1562080">
   <line x2="116.911" stroke="black" y2="107.651" stroke-width="1.728" x1="117.031" y1="113.331" stroke-linecap="round"/>
  </g>
  <g partID="1562090">
   <line x2="117.031" stroke="black" y2="113.331" stroke-width="1.728" x1="68.6905" y1="113.284" stroke-linecap="round"/>
  </g>
  <g partID="1562280">
   <line x2="192.393" stroke="black" y2="112.699" stroke-width="1.728" x1="116.924" y1="113.224" stroke-linecap="round"/>
  </g>
  <g partID="1562360">
   <line x2="192.227" stroke="black" y2="105.947" stroke-width="1.728" x1="192.392" y1="112.699" stroke-linecap="round"/>
  </g>
  <g partID="1562290">
   <line x2="116.924" stroke="black" y2="113.224" stroke-width="1.728" x1="116.883" y1="107.652" stroke-linecap="round"/>
  </g>
  <g partID="1563850">
   <line x2="25.1527" stroke="black" y2="63.3487" stroke-width="1.728" x1="18.3022" y1="63.3122" stroke-linecap="round"/>
  </g>
  <g partID="1563860">
   <line x2="18.4786" stroke="black" y2="27.38" stroke-width="1.728" x1="25.1233" y1="27.4672" stroke-linecap="round"/>
  </g>
  <g partID="1564130">
   <line x2="18.3022" stroke="black" y2="63.3121" stroke-width="1.728" x1="18.4785" y1="27.38" stroke-linecap="round"/>
  </g>
  <g partID="1533630">
   <line x2="360.287" stroke="black" y2="63.4872" stroke-width="1.728" x1="360.433" y1="27.3728" stroke-linecap="round"/>
  </g>
  <g partID="1534030">
   <line x2="354.107" stroke="black" y2="63.4869" stroke-width="1.728" x1="360.288" y1="63.4874" stroke-linecap="round"/>
  </g>
  <g partID="1533640">
   <line x2="360.433" stroke="black" y2="27.3732" stroke-width="1.728" x1="354.243" y1="27.5153" stroke-linecap="round"/>
  </g>
  <g partID="1578680">
   <line x2="95.9324" stroke="black" y2="79.7334" stroke-width="1.728" x1="128.163" y1="79.4991" stroke-linecap="round"/>
  </g>
  <g partID="1578910">
   <line x2="96.29" stroke="black" y2="83.1781" stroke-width="1.728" x1="95.9324" y1="79.7334" stroke-linecap="round"/>
  </g>
  <g partID="1578450">
   <line x2="128.163" stroke="black" y2="79.4991" stroke-width="1.728" x1="128.08" y1="54.3819" stroke-linecap="round"/>
  </g>
  <g partID="1578210">
   <line x2="128.08" stroke="black" y2="54.3819" stroke-width="1.728" x1="167.485" y1="53.8066" stroke-linecap="round"/>
  </g>
  <g partID="1578220">
   <line x2="167.485" stroke="black" y2="53.8066" stroke-width="1.728" x1="167.404" y1="21.58" stroke-linecap="round"/>
  </g>
  <g partID="1589070">
   <line x2="256.162" stroke="black" y2="112.294" stroke-width="1.728" x1="206.262" y1="112.293" stroke-linecap="round"/>
  </g>
  <g partID="1589080">
   <line x2="206.262" stroke="black" y2="112.293" stroke-width="1.728" x1="206.498" y1="105.946" stroke-linecap="round"/>
  </g>
  <g partID="1571240">
   <line x2="273.473" stroke="black" y2="91.9845" stroke-width="1.728" x1="242.453" y1="91.6843" stroke-linecap="round"/>
  </g>
  <g partID="1562800">
   <line x2="242.453" stroke="black" y2="91.6843" stroke-width="1.728" x1="242.555" y1="101.755" stroke-linecap="round"/>
  </g>
 </g>
</svg>
