G04 MADE WITH FRITZING*
G04 WWW.FRITZING.ORG*
G04 DOUBLE SIDED*
G04 HOLES PLATED*
G04 CONTOUR ON CENTER OF CONTOUR VECTOR*
%ASAXBY*%
%FSLAX23Y23*%
%MOIN*%
%OFA0B0*%
%SFA1.0B1.0*%
%ADD10C,0.099055*%
%ADD11C,0.070000*%
%ADD12C,0.075000*%
%ADD13C,0.078000*%
%ADD14C,0.170000*%
%ADD15R,0.070000X0.069972*%
%ADD16C,0.048000*%
%ADD17C,0.024000*%
%ADD18R,0.001000X0.001000*%
%LNCOPPER0*%
G90*
G70*
G54D10*
X388Y1484D03*
G54D11*
X3550Y1341D03*
X3450Y1341D03*
X3350Y1341D03*
X3250Y1341D03*
X3150Y1341D03*
X3050Y1341D03*
X2950Y1341D03*
X2850Y1341D03*
X2750Y1341D03*
X2650Y1341D03*
X2550Y1341D03*
X2450Y1341D03*
X2350Y1341D03*
X2250Y1341D03*
X2150Y1341D03*
X3550Y741D03*
X3450Y741D03*
X3350Y741D03*
X3250Y741D03*
X3150Y741D03*
X3050Y741D03*
X2950Y741D03*
X2850Y741D03*
X2750Y741D03*
X2650Y741D03*
X2550Y741D03*
X2450Y741D03*
X2350Y741D03*
X2250Y741D03*
X2150Y741D03*
G54D10*
X4876Y1318D03*
X4876Y1153D03*
G54D12*
X1338Y1516D03*
X1338Y1416D03*
X1338Y1316D03*
X1337Y958D03*
X1337Y1058D03*
X1337Y1158D03*
X3921Y949D03*
X3921Y1049D03*
X3921Y1149D03*
X3927Y1516D03*
X3927Y1416D03*
X3927Y1316D03*
X3195Y1608D03*
X2795Y1608D03*
X3178Y1473D03*
X2778Y1473D03*
X1798Y1477D03*
X2198Y1477D03*
X1781Y1605D03*
X2181Y1605D03*
G54D10*
X4877Y1483D03*
X604Y1482D03*
X4658Y1482D03*
X385Y1152D03*
X4660Y987D03*
X602Y986D03*
X385Y1316D03*
X4658Y1317D03*
X4662Y1152D03*
X603Y1153D03*
X601Y1317D03*
X388Y986D03*
X4876Y984D03*
G54D12*
X4510Y1313D03*
X4110Y1313D03*
X4512Y1148D03*
X4112Y1148D03*
X749Y1316D03*
X1149Y1316D03*
X752Y1158D03*
X1152Y1158D03*
G54D13*
X4423Y584D03*
X4523Y584D03*
X2546Y390D03*
X2646Y390D03*
X2746Y390D03*
X2846Y390D03*
G54D12*
X759Y264D03*
X1509Y266D03*
X857Y265D03*
X1399Y266D03*
X655Y265D03*
G54D14*
X4868Y241D03*
X5104Y241D03*
X4986Y426D03*
X369Y331D03*
X133Y331D03*
X251Y146D03*
G54D12*
X4111Y1515D03*
X4511Y1515D03*
X1149Y1517D03*
X749Y1517D03*
X1157Y954D03*
X757Y954D03*
X4112Y949D03*
X4512Y949D03*
G54D15*
X3550Y1341D03*
G54D16*
X84Y1794D02*
X130Y412D01*
D02*
X3767Y1812D02*
X84Y1794D01*
D02*
X3779Y1314D02*
X3767Y1812D01*
D02*
X3887Y1315D02*
X3779Y1314D01*
D02*
X102Y382D02*
X91Y400D01*
D02*
X93Y1755D02*
X102Y382D01*
D02*
X3772Y1761D02*
X93Y1755D01*
D02*
X3767Y1150D02*
X3772Y1761D01*
D02*
X3881Y1149D02*
X3767Y1150D01*
D02*
X169Y373D02*
X186Y393D01*
D02*
X157Y1714D02*
X169Y373D01*
D02*
X1614Y1724D02*
X157Y1714D01*
D02*
X1611Y1159D02*
X1614Y1724D01*
D02*
X1376Y1158D02*
X1611Y1159D01*
D02*
X57Y361D02*
X59Y1801D01*
D02*
X59Y1801D02*
X1601Y1781D01*
D02*
X1601Y1781D02*
X1614Y1311D01*
D02*
X1614Y1311D02*
X1378Y1315D01*
D02*
X57Y360D02*
X57Y361D01*
D02*
X5134Y336D02*
X5129Y319D01*
D02*
X5134Y1710D02*
X5134Y336D01*
D02*
X1609Y1733D02*
X5134Y1710D01*
D02*
X1619Y1309D02*
X1609Y1733D01*
D02*
X1378Y1315D02*
X1619Y1309D01*
D02*
X1618Y1157D02*
X1622Y1714D01*
D02*
X1622Y1714D02*
X5105Y1731D01*
D02*
X5105Y1731D02*
X5119Y345D01*
D02*
X5119Y345D02*
X5115Y322D01*
D02*
X1376Y1158D02*
X1618Y1157D01*
G54D17*
D02*
X4070Y1314D02*
X3967Y1315D01*
D02*
X4083Y1148D02*
X3949Y1149D01*
D02*
X1298Y1316D02*
X1189Y1316D01*
D02*
X1297Y1158D02*
X1192Y1158D01*
G54D16*
D02*
X3772Y1770D02*
X3776Y1323D01*
D02*
X3273Y1374D02*
X3539Y1761D01*
G54D17*
D02*
X4137Y847D02*
X4225Y939D01*
D02*
X2843Y938D02*
X3756Y936D01*
D02*
X4228Y1313D02*
X4481Y1313D01*
D02*
X2670Y762D02*
X2843Y938D01*
D02*
X4181Y798D02*
X4492Y1127D01*
D02*
X2893Y879D02*
X3717Y879D01*
D02*
X2771Y761D02*
X2893Y879D01*
D02*
X996Y988D02*
X989Y1252D01*
D02*
X989Y1252D02*
X902Y1317D01*
D02*
X902Y1317D02*
X778Y1316D01*
D02*
X1089Y881D02*
X996Y988D01*
D02*
X2426Y877D02*
X1089Y881D01*
D02*
X2530Y762D02*
X2426Y877D01*
D02*
X948Y955D02*
X944Y1078D01*
D02*
X944Y1078D02*
X856Y1160D01*
D02*
X856Y1160D02*
X781Y1158D01*
D02*
X1069Y835D02*
X948Y955D01*
D02*
X2367Y832D02*
X1069Y835D01*
D02*
X2430Y762D02*
X2367Y832D01*
D02*
X4538Y1314D02*
X4618Y1316D01*
D02*
X4540Y1149D02*
X4621Y1151D01*
D02*
X263Y1110D02*
X359Y1015D01*
D02*
X355Y1460D02*
X261Y1393D01*
D02*
X261Y1393D02*
X263Y1110D01*
D02*
X4994Y1420D02*
X4999Y1088D01*
D02*
X4999Y1088D02*
X4907Y1010D01*
D02*
X4913Y1464D02*
X4994Y1420D01*
D02*
X3307Y824D02*
X3267Y765D01*
D02*
X4876Y944D02*
X4880Y803D01*
D02*
X4809Y732D02*
X3787Y727D01*
D02*
X3687Y822D02*
X3307Y824D01*
D02*
X3787Y727D02*
X3687Y822D01*
D02*
X4880Y803D02*
X4809Y732D01*
D02*
X3824Y786D02*
X4181Y798D01*
D02*
X3717Y879D02*
X3824Y786D01*
D02*
X3871Y844D02*
X4137Y847D01*
D02*
X3756Y936D02*
X3871Y844D01*
D02*
X4225Y939D02*
X4228Y1313D01*
D02*
X2718Y584D02*
X2566Y412D01*
D02*
X3139Y587D02*
X2718Y584D01*
D02*
X3233Y717D02*
X3139Y587D01*
D02*
X2361Y580D02*
X2525Y412D01*
D02*
X821Y584D02*
X2361Y580D01*
D02*
X418Y958D02*
X821Y584D01*
G54D16*
D02*
X3516Y1724D02*
X3273Y1374D01*
D02*
X113Y1757D02*
X3516Y1724D01*
D02*
X132Y412D02*
X113Y1757D01*
D02*
X3539Y1761D02*
X3772Y1770D01*
D02*
X3767Y1812D02*
X5190Y1802D01*
D02*
X5190Y1802D02*
X5181Y338D01*
D02*
X5181Y338D02*
X5155Y305D01*
D02*
X1362Y1770D02*
X5148Y1767D01*
D02*
X5148Y1767D02*
X5151Y364D01*
D02*
X5151Y364D02*
X5133Y317D01*
G54D17*
D02*
X723Y1157D02*
X643Y1154D01*
D02*
X720Y1316D02*
X642Y1317D01*
G54D16*
D02*
X1308Y957D02*
X1186Y955D01*
D02*
X1178Y1517D02*
X1309Y1516D01*
D02*
X643Y1492D02*
X721Y1510D01*
D02*
X729Y960D02*
X642Y978D01*
D02*
X4082Y1515D02*
X3956Y1515D01*
G54D17*
D02*
X4619Y1491D02*
X4539Y1509D01*
G54D16*
D02*
X4621Y977D02*
X4540Y956D01*
D02*
X4084Y949D02*
X3949Y949D01*
G54D18*
D02*
G04 End of Copper0*
M02*