  0
SECTION
  2
HEADER
  9
$ACADVER
  1
AC1027
  9
$ACADMAINTVER
 70
    19
  9
$DWGCODEPAGE
  3
ANSI_1252
  9
$REQUIREDVERSIONS
160
                 0
  9
$INSBASE
 10
0.0
 20
0.0
 30
0.0
  9
$EXTMIN
 10
237.8091941884238
 20
30.34306635179794
 30
3.089427544217719
  9
$EXTMAX
 10
382.1915570443983
 20
73.64120533319823
 30
3.089427544217735
  9
$LIMMIN
 10
0.0
 20
0.0
  9
$LIMMAX
 10
12.0
 20
9.0
  9
$ORTHOMODE
 70
     0
  9
$REGENMODE
 70
     1
  9
$FILLMODE
 70
     1
  9
$QTEXTMODE
 70
     0
  9
$MIRRTEXT
 70
     0
  9
$LTSCALE
 40
1.0
  9
$ATTMODE
 70
     1
  9
$TEXTSIZE
 40
0.2
  9
$TRACEWID
 40
0.05
  9
$TEXTSTYLE
  7
Standard
  9
$CLAYER
  8
0
  9
$CELTYPE
  6
ByLayer
  9
$CECOLOR
 62
   256
  9
$CELTSCALE
 40
1.0
  9
$DISPSILH
 70
     0
  9
$DIMSCALE
 40
1.0
  9
$DIMASZ
 40
0.18
  9
$DIMEXO
 40
0.0625
  9
$DIMDLI
 40
0.38
  9
$DIMRND
 40
0.0
  9
$DIMDLE
 40
0.0
  9
$DIMEXE
 40
0.18
  9
$DIMTP
 40
0.0
  9
$DIMTM
 40
0.0
  9
$DIMTXT
 40
0.18
  9
$DIMCEN
 40
0.09
  9
$DIMTSZ
 40
0.0
  9
$DIMTOL
 70
     0
  9
$DIMLIM
 70
     0
  9
$DIMTIH
 70
     1
  9
$DIMTOH
 70
     1
  9
$DIMSE1
 70
     0
  9
$DIMSE2
 70
     0
  9
$DIMTAD
 70
     0
  9
$DIMZIN
 70
     0
  9
$DIMBLK
  1

  9
$DIMASO
 70
     1
  9
$DIMSHO
 70
     1
  9
$DIMPOST
  1

  9
$DIMAPOST
  1

  9
$DIMALT
 70
     0
  9
$DIMALTD
 70
     2
  9
$DIMALTF
 40
25.4
  9
$DIMLFAC
 40
1.0
  9
$DIMTOFL
 70
     0
  9
$DIMTVP
 40
0.0
  9
$DIMTIX
 70
     0
  9
$DIMSOXD
 70
     0
  9
$DIMSAH
 70
     0
  9
$DIMBLK1
  1

  9
$DIMBLK2
  1

  9
$DIMSTYLE
  2
Standard
  9
$DIMCLRD
 70
     0
  9
$DIMCLRE
 70
     0
  9
$DIMCLRT
 70
     0
  9
$DIMTFAC
 40
1.0
  9
$DIMGAP
 40
0.09
  9
$DIMJUST
 70
     0
  9
$DIMSD1
 70
     0
  9
$DIMSD2
 70
     0
  9
$DIMTOLJ
 70
     1
  9
$DIMTZIN
 70
     0
  9
$DIMALTZ
 70
     0
  9
$DIMALTTZ
 70
     0
  9
$DIMUPT
 70
     0
  9
$DIMDEC
 70
     4
  9
$DIMTDEC
 70
     4
  9
$DIMALTU
 70
     2
  9
$DIMALTTD
 70
     2
  9
$DIMTXSTY
  7
Standard
  9
$DIMAUNIT
 70
     0
  9
$DIMADEC
 70
     0
  9
$DIMALTRND
 40
0.0
  9
$DIMAZIN
 70
     0
  9
$DIMDSEP
 70
    46
  9
$DIMATFIT
 70
     3
  9
$DIMFRAC
 70
     0
  9
$DIMLDRBLK
  1

  9
$DIMLUNIT
 70
     2
  9
$DIMLWD
 70
    -2
  9
$DIMLWE
 70
    -2
  9
$DIMTMOVE
 70
     0
  9
$DIMFXL
 40
1.0
  9
$DIMFXLON
 70
     0
  9
$DIMJOGANG
 40
0.7853981633974483
  9
$DIMTFILL
 70
     0
  9
$DIMTFILLCLR
 70
     0
  9
$DIMARCSYM
 70
     0
  9
$DIMLTYPE
  6

  9
$DIMLTEX1
  6

  9
$DIMLTEX2
  6

  9
$DIMTXTDIRECTION
 70
     0
  9
$LUNITS
 70
     2
  9
$LUPREC
 70
     4
  9
$SKETCHINC
 40
0.1
  9
$FILLETRAD
 40
0.0
  9
$AUNITS
 70
     0
  9
$AUPREC
 70
     0
  9
$MENU
  1
.
  9
$ELEVATION
 40
0.0
  9
$PELEVATION
 40
0.0
  9
$THICKNESS
 40
0.0
  9
$LIMCHECK
 70
     0
  9
$CHAMFERA
 40
0.0
  9
$CHAMFERB
 40
0.0
  9
$CHAMFERC
 40
0.0
  9
$CHAMFERD
 40
0.0
  9
$SKPOLY
 70
     0
  9
$TDCREATE
 40
2459546.363443507
  9
$TDUCREATE
 40
2459546.321776841
  9
$TDUPDATE
 40
2459546.363443507
  9
$TDUUPDATE
 40
2459546.321776841
  9
$TDINDWG
 40
0.0000000926
  9
$TDUSRTIMER
 40
0.0000000926
  9
$USRTIMER
 70
     1
  9
$ANGBASE
 50
0.0
  9
$ANGDIR
 70
     0
  9
$PDMODE
 70
     0
  9
$PDSIZE
 40
0.0
  9
$PLINEWID
 40
0.0
  9
$SPLFRAME
 70
     0
  9
$SPLINETYPE
 70
     6
  9
$SPLINESEGS
 70
     8
  9
$HANDSEED
  5
28B
  9
$SURFTAB1
 70
     6
  9
$SURFTAB2
 70
     6
  9
$SURFTYPE
 70
     6
  9
$SURFU
 70
     6
  9
$SURFV
 70
     6
  9
$UCSBASE
  2

  9
$UCSNAME
  2

  9
$UCSORG
 10
0.0
 20
0.0
 30
0.0
  9
$UCSXDIR
 10
1.0
 20
0.0
 30
0.0
  9
$UCSYDIR
 10
0.0
 20
1.0
 30
0.0
  9
$UCSORTHOREF
  2

  9
$UCSORTHOVIEW
 70
     0
  9
$UCSORGTOP
 10
0.0
 20
0.0
 30
0.0
  9
$UCSORGBOTTOM
 10
0.0
 20
0.0
 30
0.0
  9
$UCSORGLEFT
 10
0.0
 20
0.0
 30
0.0
  9
$UCSORGRIGHT
 10
0.0
 20
0.0
 30
0.0
  9
$UCSORGFRONT
 10
0.0
 20
0.0
 30
0.0
  9
$UCSORGBACK
 10
0.0
 20
0.0
 30
0.0
  9
$PUCSBASE
  2

  9
$PUCSNAME
  2

  9
$PUCSORG
 10
0.0
 20
0.0
 30
0.0
  9
$PUCSXDIR
 10
1.0
 20
0.0
 30
0.0
  9
$PUCSYDIR
 10
0.0
 20
1.0
 30
0.0
  9
$PUCSORTHOREF
  2

  9
$PUCSORTHOVIEW
 70
     0
  9
$PUCSORGTOP
 10
0.0
 20
0.0
 30
0.0
  9
$PUCSORGBOTTOM
 10
0.0
 20
0.0
 30
0.0
  9
$PUCSORGLEFT
 10
0.0
 20
0.0
 30
0.0
  9
$PUCSORGRIGHT
 10
0.0
 20
0.0
 30
0.0
  9
$PUCSORGFRONT
 10
0.0
 20
0.0
 30
0.0
  9
$PUCSORGBACK
 10
0.0
 20
0.0
 30
0.0
  9
$USERI1
 70
     0
  9
$USERI2
 70
     0
  9
$USERI3
 70
     0
  9
$USERI4
 70
     0
  9
$USERI5
 70
     0
  9
$USERR1
 40
0.0
  9
$USERR2
 40
0.0
  9
$USERR3
 40
0.0
  9
$USERR4
 40
0.0
  9
$USERR5
 40
0.0
  9
$WORLDVIEW
 70
     1
  9
$SHADEDGE
 70
     3
  9
$SHADEDIF
 70
    70
  9
$TILEMODE
 70
     1
  9
$MAXACTVP
 70
    64
  9
$PINSBASE
 10
0.0
 20
0.0
 30
0.0
  9
$PLIMCHECK
 70
     0
  9
$PEXTMIN
 10
1.000000000000000E+20
 20
1.000000000000000E+20
 30
1.000000000000000E+20
  9
$PEXTMAX
 10
-1.000000000000000E+20
 20
-1.000000000000000E+20
 30
-1.000000000000000E+20
  9
$PLIMMIN
 10
0.0
 20
0.0
  9
$PLIMMAX
 10
12.0
 20
9.0
  9
$UNITMODE
 70
     0
  9
$VISRETAIN
 70
     1
  9
$PLINEGEN
 70
     0
  9
$PSLTSCALE
 70
     1
  9
$TREEDEPTH
 70
  3020
  9
$CMLSTYLE
  2
Standard
  9
$CMLJUST
 70
     0
  9
$CMLSCALE
 40
1.0
  9
$PROXYGRAPHICS
 70
     1
  9
$MEASUREMENT
 70
     0
  9
$CELWEIGHT
370
    -1
  9
$ENDCAPS
280
     0
  9
$JOINSTYLE
280
     0
  9
$LWDISPLAY
290
     0
  9
$INSUNITS
 70
     0
  9
$HYPERLINKBASE
  1

  9
$STYLESHEET
  1

  9
$XEDIT
290
     1
  9
$CEPSNTYPE
380
     0
  9
$PSTYLEMODE
290
     1
  9
$FINGERPRINTGUID
  2
{8BEEABAC-0503-408C-A845-794641C9EF8A}
  9
$VERSIONGUID
  2
{8FEED7EC-2C25-40C0-A915-A3A067AC8E59}
  9
$EXTNAMES
290
     1
  9
$PSVPSCALE
 40
0.0
  9
$OLESTARTUP
290
     0
  9
$SORTENTS
280
   127
  9
$INDEXCTL
280
     0
  9
$HIDETEXT
280
     1
  9
$XCLIPFRAME
280
     2
  9
$HALOGAP
280
     0
  9
$OBSCOLOR
 70
   257
  9
$OBSLTYPE
280
     0
  9
$INTERSECTIONDISPLAY
280
     0
  9
$INTERSECTIONCOLOR
 70
   257
  9
$DIMASSOC
280
     2
  9
$PROJECTNAME
  1

  9
$CAMERADISPLAY
290
     0
  9
$LENSLENGTH
 40
50.0
  9
$CAMERAHEIGHT
 40
0.0
  9
$STEPSPERSEC
 40
2.0
  9
$STEPSIZE
 40
6.0
  9
$3DDWFPREC
 40
2.0
  9
$PSOLWIDTH
 40
0.25
  9
$PSOLHEIGHT
 40
4.0
  9
$LOFTANG1
 40
1.570796326794896
  9
$LOFTANG2
 40
1.570796326794896
  9
$LOFTMAG1
 40
0.0
  9
$LOFTMAG2
 40
0.0
  9
$LOFTPARAM
 70
     7
  9
$LOFTNORMALS
280
     1
  9
$LATITUDE
 40
37.795
  9
$LONGITUDE
 40
-122.394
  9
$NORTHDIRECTION
 40
0.0
  9
$TIMEZONE
 70
 -8000
  9
$LIGHTGLYPHDISPLAY
280
     1
  9
$TILEMODELIGHTSYNCH
280
     1
  9
$CMATERIAL
347
11
  9
$SOLIDHIST
280
     0
  9
$SHOWHIST
280
     1
  9
$DWFFRAME
280
     2
  9
$DGNFRAME
280
     0
  9
$REALWORLDSCALE
290
     1
  9
$INTERFERECOLOR
 62
     1
  9
$INTERFEREOBJVS
345
36
  9
$INTERFEREVPVS
346
33
  9
$CSHADOW
280
     0
  9
$SHADOWPLANELOCATION
 40
0.0
  0
ENDSEC
  0
SECTION
  2
CLASSES
  0
CLASS
  1
ACDBDICTIONARYWDFLT
  2
AcDbDictionaryWithDefault
  3
ObjectDBX Classes
 90
        0
 91
        1
280
     0
281
     0
  0
CLASS
  1
MATERIAL
  2
AcDbMaterial
  3
ObjectDBX Classes
 90
     1153
 91
        3
280
     0
281
     0
  0
CLASS
  1
VISUALSTYLE
  2
AcDbVisualStyle
  3
ObjectDBX Classes
 90
     4095
 91
       40
280
     0
281
     0
  0
CLASS
  1
SCENESTYLE
  2
AcDbSceneStyle
  3
ObjectDBX Classes
 90
     4095
 91
       14
280
     0
281
     0
  0
CLASS
  1
GROUNDPLANE
  2
AcDbGroundPlane
  3
ObjectDBX Classes
 90
     1153
 91
       14
280
     0
281
     0
  0
CLASS
  1
SUN
  2
AcDbSun
  3
ObjectDBX Classes
 90
     1153
 91
        3
280
     0
281
     0
  0
CLASS
  1
SKYLIGHT_BACKGROUND
  2
AcDbSkyBackground
  3
ObjectDBX Classes
 90
     4095
 91
        3
280
     0
281
     0
  0
CLASS
  1
IBL_BACKGROUND
  2
AcDbImageBasedLightingBackground
  3
ObjectDBX Classes
 90
     4095
 91
        1
280
     0
281
     0
  0
CLASS
  1
SOLID_BACKGROUND
  2
AcDbSolidBackground
  3
ObjectDBX Classes
 90
     4095
 91
        6
280
     0
281
     0
  0
CLASS
  1
GRADIENT_BACKGROUND
  2
AcDbGradientBackground
  3
ObjectDBX Classes
 90
     4095
 91
        2
280
     0
281
     0
  0
CLASS
  1
SCALE
  2
AcDbScale
  3
ObjectDBX Classes
 90
     1153
 91
       17
280
     0
281
     0
  0
CLASS
  1
TABLESTYLE
  2
AcDbTableStyle
  3
ObjectDBX Classes
 90
     4095
 91
        1
280
     0
281
     0
  0
CLASS
  1
MLEADERSTYLE
  2
AcDbMLeaderStyle
  3
ACDB_MLEADERSTYLE_CLASS
 90
     4095
 91
        1
280
     0
281
     0
  0
CLASS
  1
ACDBSECTIONVIEWSTYLE
  2
AcDbSectionViewStyle
  3
ObjectDBX Classes
 90
     1025
 91
        1
280
     0
281
     0
  0
CLASS
  1
ACDBDETAILVIEWSTYLE
  2
AcDbDetailViewStyle
  3
ObjectDBX Classes
 90
     1025
 91
        1
280
     0
281
     0
  0
CLASS
  1
DICTIONARYVAR
  2
AcDbDictionaryVar
  3
ObjectDBX Classes
 90
        0
 91
        5
280
     0
281
     0
  0
CLASS
  1
CELLSTYLEMAP
  2
AcDbCellStyleMap
  3
ObjectDBX Classes
 90
     1152
 91
        1
280
     0
281
     0
  0
ENDSEC
  0
SECTION
  2
TABLES
  0
TABLE
  2
VPORT
  5
8
330
0
100
AcDbSymbolTable
 70
     1
  0
VPORT
  5
B2
102
{ACAD_XDICTIONARY
360
286
102
}
330
8
100
AcDbSymbolTableRecord
100
AcDbViewportTableRecord
  2
*Active
 70
     0
 10
0.0
 20
0.0
 11
1.0
 21
1.0
 12
0.0
 22
0.0
 13
0.0
 23
0.0
 14
1.0
 24
1.0
 15
0.0
 25
0.0
 16
0.0113880742554945
 26
-0.8538272413985009
 36
0.5204318914234383
 17
310.0003756164111
 27
51.99213584249808
 37
3.089427544217727
 40
150.7348517865956
 41
1.0
 42
50.0
 43
0.0
 44
0.0
 50
0.0
 51
-360.0
 71
     0
 72
   100
 73
     1
 74
     1
 75
     0
 76
     1
 77
     0
 78
     0
281
     0
 65
     1
110
0.0
120
0.0
130
0.0
111
1.0
121
0.0
131
0.0
112
0.0
122
1.0
132
0.0
 79
     0
146
0.0
348
32
 60
     3
 61
     5
292
     1
282
     1
141
0.0
142
0.0
 63
   250
421
  3355443
  0
ENDTAB
  0
TABLE
  2
LTYPE
  5
5
330
0
100
AcDbSymbolTable
 70
     2
  0
LTYPE
  5
B6
330
5
100
AcDbSymbolTableRecord
100
AcDbLinetypeTableRecord
  2
ByBlock
 70
     0
  3

 72
    65
 73
     0
 40
0.0
  0
LTYPE
  5
B7
330
5
100
AcDbSymbolTableRecord
100
AcDbLinetypeTableRecord
  2
ByLayer
 70
     0
  3

 72
    65
 73
     0
 40
0.0
  0
LTYPE
  5
B8
330
5
100
AcDbSymbolTableRecord
100
AcDbLinetypeTableRecord
  2
Continuous
 70
     0
  3
Solid line
 72
    65
 73
     0
 40
0.0
  0
LTYPE
  5
C4
330
5
100
AcDbSymbolTableRecord
100
AcDbLinetypeTableRecord
  2
PHANTOM2
 70
     0
  3
___ _ _ ___ _ _ ___ _ _ ___ _ _
 72
    65
 73
     6
 40
1.25
 49
0.625
 74
     0
 49
-0.125
 74
     0
 49
0.125
 74
     0
 49
-0.125
 74
     0
 49
0.125
 74
     0
 49
-0.125
 74
     0
  0
ENDTAB
  0
TABLE
  2
LAYER
  5
2
330
0
100
AcDbSymbolTable
 70
     2
  0
LAYER
  5
AF
330
2
100
AcDbSymbolTableRecord
100
AcDbLayerTableRecord
  2
0
 70
     0
 62
     7
  6
Continuous
370
    -3
390
F
347
21
348
2A
  0
LAYER
  5
D6
330
2
100
AcDbSymbolTableRecord
100
AcDbLayerTableRecord
  2
Sketch77
 70
     0
 62
     7
  6
Continuous
370
    -3
390
F
347
21
348
2A
1001
NFusion_SketchTransform
1000
1.000000;0.000000;0.000000;0.000000;0.000000;1.000000;0.000000;0.000000;0.000000;0.000000;1.000000;0.000000;0.000000;0.000000;0.000000;1.000000
  0
ENDTAB
  0
TABLE
  2
STYLE
  5
3
330
0
100
AcDbSymbolTable
 70
     2
  0
STYLE
  5
B0
330
3
100
AcDbSymbolTableRecord
100
AcDbTextStyleTableRecord
  2
Standard
 70
     0
 40
0.0
 41
1.0
 50
0.0
 71
     0
 42
0.2
  3
txt
  4

  0
STYLE
  5
B5
330
3
100
AcDbSymbolTableRecord
100
AcDbTextStyleTableRecord
  2
Annotative
 70
     0
 40
0.0
 41
1.0
 50
0.0
 71
     0
 42
0.2
  3
txt
  4

1001
AcadAnnotative
1000
AnnotativeData
1002
{
1070
     1
1070
     1
1002
}
  0
ENDTAB
  0
TABLE
  2
VIEW
  5
6
330
0
100
AcDbSymbolTable
 70
     0
  0
ENDTAB
  0
TABLE
  2
UCS
  5
7
330
0
100
AcDbSymbolTable
 70
     0
  0
ENDTAB
  0
TABLE
  2
APPID
  5
9
330
0
100
AcDbSymbolTable
 70
     4
  0
APPID
  5
B1
330
9
100
AcDbSymbolTableRecord
100
AcDbRegAppTableRecord
  2
ACAD
 70
     0
  0
APPID
  5
B9
330
9
100
AcDbSymbolTableRecord
100
AcDbRegAppTableRecord
  2
AcadAnnotative
 70
     0
  0
APPID
  5
D4
330
9
100
AcDbSymbolTableRecord
100
AcDbRegAppTableRecord
  2
EDIT_IN_FUSION_ACAD_ADDIN
 70
     0
  0
APPID
  5
D5
330
9
100
AcDbSymbolTableRecord
100
AcDbRegAppTableRecord
  2
NFusion_SketchTransform
 70
     0
  0
ENDTAB
  0
TABLE
  2
DIMSTYLE
  5
A
330
0
100
AcDbSymbolTable
 70
     2
100
AcDbDimStyleTable
 71
     0
  0
DIMSTYLE
105
B3
330
A
100
AcDbSymbolTableRecord
100
AcDbDimStyleTableRecord
  2
Standard
 70
     0
340
B0
  0
DIMSTYLE
105
B4
330
A
100
AcDbSymbolTableRecord
100
AcDbDimStyleTableRecord
  2
Annotative
 70
     0
340
B0
1001
AcadAnnotative
1000
AnnotativeData
1002
{
1070
     1
1070
     1
1002
}
  0
ENDTAB
  0
TABLE
  2
BLOCK_RECORD
  5
1
330
0
100
AcDbSymbolTable
 70
     1
  0
BLOCK_RECORD
  5
CC
330
1
100
AcDbSymbolTableRecord
100
AcDbBlockTableRecord
  2
*Model_Space
340
CF
 70
     0
280
     1
281
     0
  0
BLOCK_RECORD
  5
C8
330
1
100
AcDbSymbolTableRecord
100
AcDbBlockTableRecord
  2
*Paper_Space
340
CB
 70
     0
280
     1
281
     0
  0
BLOCK_RECORD
  5
D0
330
1
100
AcDbSymbolTableRecord
100
AcDbBlockTableRecord
  2
*Paper_Space0
340
D3
 70
     0
280
     1
281
     0
  0
ENDTAB
  0
ENDSEC
  0
SECTION
  2
BLOCKS
  0
BLOCK
  5
CD
330
CC
100
AcDbEntity
  8
0
100
AcDbBlockBegin
  2
*Model_Space
 70
     0
 10
0.0
 20
0.0
 30
0.0
  3
*Model_Space
  1

  0
ENDBLK
  5
CE
330
CC
100
AcDbEntity
  8
0
100
AcDbBlockEnd
  0
BLOCK
  5
C9
330
C8
100
AcDbEntity
 67
     1
  8
0
100
AcDbBlockBegin
  2
*Paper_Space
 70
     0
 10
0.0
 20
0.0
 30
0.0
  3
*Paper_Space
  1

  0
ENDBLK
  5
CA
330
C8
100
AcDbEntity
 67
     1
  8
0
100
AcDbBlockEnd
  0
BLOCK
  5
D1
330
D0
100
AcDbEntity
 67
     1
  8
0
100
AcDbBlockBegin
  2
*Paper_Space0
 70
     0
 10
0.0
 20
0.0
 30
0.0
  3
*Paper_Space0
  1

  0
ENDBLK
  5
D2
330
D0
100
AcDbEntity
 67
     1
  8
0
100
AcDbBlockEnd
  0
ENDSEC
  0
SECTION
  2
ENTITIES
  0
LINE
  5
D7
330
CC
100
AcDbEntity
  8
Sketch77
100
AcDbLine
 10
271.6336850320637
 20
58.82762426420966
 30
3.089427544217726
 11
270.7917607912902
 21
58.60238137213656
 31
3.089427544217726
  0
LINE
  5
D8
330
CC
100
AcDbEntity
  8
Sketch77
100
AcDbLine
 10
268.1690614157598
 20
51.40517436969203
 30
3.089427544217726
 11
268.6686661170715
 21
50.69106747464029
 31
3.089427544217726
  0
LINE
  5
D9
330
CC
100
AcDbEntity
  8
Sketch77
100
AcDbLine
 10
272.4980706239698
 20
48.90358709812787
 30
3.089427544217731
 11
273.3663144769398
 21
48.97921080816892
 31
3.089427544217726
  0
LINE
  5
DA
330
CC
100
AcDbEntity
  8
Sketch77
100
AcDbLine
 10
276.8290092742303
 20
51.40183271973718
 30
3.089427544217731
 11
277.1976487373885
 21
52.19156148626545
 31
3.089427544217731
  0
LINE
  5
DB
330
CC
100
AcDbEntity
  8
Sketch77
100
AcDbLine
 10
277.4998311640416
 20
53.90148888221894
 30
3.089427544217731
 11
277.4241991383144
 21
54.76973043480133
 31
3.089427544217726
  0
LINE
  5
DC
330
CC
100
AcDbEntity
  8
Sketch77
100
AcDbLine
 10
277.1989686112511
 20
55.61164899894976
 30
3.089427544217726
 11
276.8309386778958
 21
56.40166389966342
 31
3.089427544217731
  0
LINE
  5
DD
330
CC
100
AcDbEntity
  8
Sketch77
100
AcDbLine
 10
275.0015865338457
 20
58.23243564548619
 30
3.089427544217726
 11
274.2118647304342
 21
58.60106179318329
 31
3.089427544217726
  0
LINE
  5
DE
330
CC
100
AcDbEntity
  8
Sketch77
100
AcDbLine
 10
381.7681378569749
 20
45.60914936449832
 30
3.089427544217726
 11
381.6199052759537
 21
44.75654094377148
 31
3.089427544217722
  0
LINE
  5
DF
330
CC
100
AcDbEntity
  8
Sketch77
100
AcDbLine
 10
381.6160661157983
 20
44.73366495350173
 30
3.089427544217722
 11
381.3051348162946
 21
43.36016657442473
 31
3.089427544217722
  0
LINE
  5
E0
330
CC
100
AcDbEntity
  8
Sketch77
100
AcDbLine
 10
381.291256978898
 20
43.29714129514826
 30
3.089427544217722
 11
380.9272323217238
 21
42.00713622047833
 31
3.089427544217724
  0
LINE
  5
E1
330
CC
100
AcDbEntity
  8
Sketch77
100
AcDbLine
 10
380.8982329012597
 20
41.90199802321185
 30
3.089427544217724
 11
380.4885899813513
 21
40.70521709739503
 31
3.089427544217726
  0
LINE
  5
E2
330
CC
100
AcDbEntity
  8
Sketch77
100
AcDbLine
 10
269.2846907854745
 20
50.07456420491144
 30
3.089427544217726
 11
269.9984134868714
 21
49.57440280679637
 31
3.089427544217726
  0
LINE
  5
E3
330
CC
100
AcDbEntity
  8
Sketch77
100
AcDbLine
 10
379.9930109467516
 20
39.46068263745844
 30
3.089427544217724
 11
379.9157684170702
 21
39.26746457561993
 31
3.089427544217724
  0
LINE
  5
E4
330
CC
100
AcDbEntity
  8
Sketch77
100
AcDbLine
 10
270.7881349742109
 20
49.20577499646263
 30
3.089427544217722
 11
271.6298847616901
 21
48.97988098427534
 31
3.089427544217731
  0
LINE
  5
E5
330
CC
100
AcDbEntity
  8
Sketch77
100
AcDbLine
 10
277.4235290051535
 20
53.03330595685877
 30
3.089427544217726
 11
277.4998311640416
 21
53.90148888221894
 31
3.089427544217731
  0
LINE
  5
E6
330
CC
100
AcDbEntity
  8
Sketch77
100
AcDbLine
 10
270.7917607912902
 20
58.60238137213656
 30
3.089427544217726
 11
270.0017553131017
 21
58.23436507263117
 31
3.089427544217726
  0
LINE
  5
E7
330
CC
100
AcDbEntity
  8
Sketch77
100
AcDbLine
 10
379.4461693741967
 20
38.26547858538953
 30
3.089427544217722
 11
379.0535863239917
 21
37.52772221782331
 31
3.089427544217724
  0
LINE
  5
E8
330
CC
100
AcDbEntity
  8
Sketch77
100
AcDbLine
 10
378.9386061502086
 20
37.30857257887115
 30
3.089427544217726
 11
378.5413945856437
 21
36.64742918034867
 31
3.089427544217722
  0
LINE
  5
E9
330
CC
100
AcDbEntity
  8
Sketch77
100
AcDbLine
 10
268.170990852525
 20
56.40500593554381
 30
3.089427544217726
 11
267.8023514666854
 21
55.61527589308616
 31
3.089427544217726
  0
LINE
  5
EA
330
CC
100
AcDbEntity
  8
Sketch77
100
AcDbLine
 10
381.6199052759537
 20
44.75654094377148
 30
3.089427544217722
 11
381.6160661157983
 21
44.73366495350173
 31
3.089427544217722
  0
LINE
  5
EB
330
CC
100
AcDbEntity
  8
Sketch77
100
AcDbLine
 10
277.1976487373885
 20
52.19156148626545
 30
3.089427544217731
 11
277.4235290051535
 21
53.03330595685877
 31
3.089427544217726
  0
LINE
  5
EC
330
CC
100
AcDbEntity
  8
Sketch77
100
AcDbLine
 10
381.3051348162946
 20
43.36016657442473
 30
3.089427544217722
 11
381.291256978898
 21
43.29714129514826
 31
3.089427544217722
  0
LINE
  5
ED
330
CC
100
AcDbEntity
  8
Sketch77
100
AcDbLine
 10
275.7123531002539
 20
50.07208373178475
 30
3.089427544217726
 11
276.3288536671653
 21
50.68811164422566
 31
3.089427544217722
  0
LINE
  5
EE
330
CC
100
AcDbEntity
  8
Sketch77
100
AcDbLine
 10
275.7153093901406
 20
57.73227256460697
 30
3.089427544217735
 11
275.0015865338457
 21
58.23243564548619
 31
3.089427544217726
  0
LINE
  5
EF
330
CC
100
AcDbEntity
  8
Sketch77
100
AcDbLine
 10
267.5764709850723
 20
54.77353094773589
 30
3.089427544217722
 11
267.5001688360197
 21
53.90534806020732
 31
3.089427544217726
  0
LINE
  5
F0
330
CC
100
AcDbEntity
  8
Sketch77
100
AcDbLine
 10
269.9984134868714
 20
49.57440280679637
 30
3.089427544217726
 11
270.7881349742109
 21
49.20577499646263
 31
3.089427544217722
  0
LINE
  5
F1
330
CC
100
AcDbEntity
  8
Sketch77
100
AcDbLine
 10
274.2082388949637
 20
49.20445519230937
 30
3.089427544217722
 11
274.9982447091445
 21
49.57247340858973
 31
3.089427544217726
  0
LINE
  5
F2
330
CC
100
AcDbEntity
  8
Sketch77
100
AcDbLine
 10
270.0017553131017
 20
58.23436507263117
 30
3.089427544217726
 11
269.2876471027475
 21
57.73475335549152
 31
3.089427544217726
  0
LINE
  5
F3
330
CC
100
AcDbEntity
  8
Sketch77
100
AcDbLine
 10
276.8309386778958
 20
56.40166389966342
 30
3.089427544217731
 11
276.3313340361491
 21
57.11577077738209
 31
3.089427544217731
  0
LINE
  5
F4
330
CC
100
AcDbEntity
  8
Sketch77
100
AcDbLine
 10
380.438671061137
 20
40.55648903519243
 30
3.089427544217726
 11
379.9930109467516
 21
39.46068263745844
 31
3.089427544217724
  0
LINE
  5
F5
330
CC
100
AcDbEntity
  8
Sketch77
100
AcDbLine
 10
267.8010315137707
 20
52.19518747616437
 30
3.089427544217726
 11
268.1690614157598
 21
51.40517436969203
 31
3.089427544217726
  0
LINE
  5
F6
330
CC
100
AcDbEntity
  8
Sketch77
100
AcDbLine
 10
273.3663144769398
 20
48.97921080816892
 30
3.089427544217726
 11
274.2082388949637
 21
49.20445519230937
 31
3.089427544217722
  0
LINE
  5
F7
330
CC
100
AcDbEntity
  8
Sketch77
100
AcDbLine
 10
380.9272323217238
 20
42.00713622047833
 30
3.089427544217724
 11
380.8982329012597
 21
41.90199802321185
 31
3.089427544217724
  0
LINE
  5
F8
330
CC
100
AcDbEntity
  8
Sketch77
100
AcDbLine
 10
380.4885899813513
 20
40.70521709739503
 30
3.089427544217726
 11
380.438671061137
 21
40.55648903519243
 31
3.089427544217726
  0
LINE
  5
F9
330
CC
100
AcDbEntity
  8
Sketch77
100
AcDbLine
 10
379.9157684170702
 20
39.26746457561993
 30
3.089427544217724
 11
379.5340372228134
 21
38.45530292850072
 31
3.089427544217719
  0
LINE
  5
FA
330
CC
100
AcDbEntity
  8
Sketch77
100
AcDbLine
 10
379.5340372228134
 20
38.45530292850072
 30
3.089427544217719
 11
379.4461693741967
 21
38.26547858538953
 31
3.089427544217722
  0
LINE
  5
FB
330
CC
100
AcDbEntity
  8
Sketch77
100
AcDbLine
 10
379.0535863239917
 20
37.52772221782331
 30
3.089427544217724
 11
378.9386061502086
 21
37.30857257887115
 31
3.089427544217726
  0
LINE
  5
FC
330
CC
100
AcDbEntity
  8
Sketch77
100
AcDbLine
 10
271.6298847616901
 20
48.97988098427534
 30
3.089427544217731
 11
272.4980706239698
 21
48.90358709812787
 31
3.089427544217731
  0
LINE
  5
FD
330
CC
100
AcDbEntity
  8
Sketch77
100
AcDbLine
 10
378.5413945856437
 20
36.64742918034867
 30
3.089427544217722
 11
378.3948423331608
 21
36.40021728045569
 31
3.089427544217724
  0
LINE
  5
FE
330
CC
100
AcDbEntity
  8
Sketch77
100
AcDbLine
 10
378.3948423331608
 20
36.40021728045569
 30
3.089427544217724
 11
377.9996743762102
 21
35.81724005033364
 31
3.089427544217724
  0
LINE
  5
FF
330
CC
100
AcDbEntity
  8
Sketch77
100
AcDbLine
 10
377.8166613818321
 20
35.54389035292787
 30
3.089427544217724
 11
377.4300932916546
 21
35.03939664867594
 31
3.089427544217722
  0
LINE
  5
100
330
CC
100
AcDbEntity
  8
Sketch77
100
AcDbLine
 10
269.2876471027475
 20
57.73475335549152
 30
3.089427544217726
 11
268.6711465218607
 21
57.11872701158907
 31
3.089427544217735
  0
LINE
  5
101
330
CC
100
AcDbEntity
  8
Sketch77
100
AcDbLine
 10
377.9996743762102
 20
35.81724005033364
 30
3.089427544217724
 11
377.8166613818321
 21
35.54389035292787
 31
3.089427544217724
  0
LINE
  5
102
330
CC
100
AcDbEntity
  8
Sketch77
100
AcDbLine
 10
273.3701147626129
 20
58.82695426258039
 30
3.089427544217726
 11
272.5019294654624
 21
58.90325136489501
 31
3.089427544217731
  0
LINE
  5
103
330
CC
100
AcDbEntity
  8
Sketch77
100
AcDbLine
 10
276.3313340361491
 20
57.11577077738209
 30
3.089427544217731
 11
275.7153093901406
 21
57.73227256460697
 31
3.089427544217735
  0
LINE
  5
104
330
CC
100
AcDbEntity
  8
Sketch77
100
AcDbLine
 10
274.2118647304342
 20
58.60106179318329
 30
3.089427544217726
 11
273.3701147626129
 21
58.82695426258039
 31
3.089427544217726
  0
LINE
  5
105
330
CC
100
AcDbEntity
  8
Sketch77
100
AcDbLine
 10
272.5019294654624
 20
58.90325136489501
 30
3.089427544217731
 11
271.6336850320637
 21
58.82762426420966
 31
3.089427544217726
  0
LINE
  5
106
330
CC
100
AcDbEntity
  8
Sketch77
100
AcDbLine
 10
267.8023514666854
 20
55.61527589308616
 30
3.089427544217726
 11
267.5764709850723
 21
54.77353094773589
 31
3.089427544217722
  0
LINE
  5
107
330
CC
100
AcDbEntity
  8
Sketch77
100
AcDbLine
 10
274.9982447091445
 20
49.57247340858973
 30
3.089427544217726
 11
275.7123531002539
 21
50.07208373178475
 31
3.089427544217726
  0
LINE
  5
108
330
CC
100
AcDbEntity
  8
Sketch77
100
AcDbLine
 10
268.6686661170715
 20
50.69106747464029
 30
3.089427544217726
 11
269.2846907854745
 21
50.07456420491144
 31
3.089427544217726
  0
LINE
  5
109
330
CC
100
AcDbEntity
  8
Sketch77
100
AcDbLine
 10
268.6711465218607
 20
57.11872701158907
 30
3.089427544217735
 11
268.170990852525
 21
56.40500593554381
 31
3.089427544217726
  0
LINE
  5
10A
330
CC
100
AcDbEntity
  8
Sketch77
100
AcDbLine
 10
267.5001688360197
 20
53.90534806020732
 30
3.089427544217726
 11
267.5758008583577
 21
53.03710654155712
 31
3.089427544217726
  0
LINE
  5
10B
330
CC
100
AcDbEntity
  8
Sketch77
100
AcDbLine
 10
267.5758008583577
 20
53.03710654155712
 30
3.089427544217726
 11
267.8010315137707
 21
52.19518747616437
 31
3.089427544217726
  0
LINE
  5
10C
330
CC
100
AcDbEntity
  8
Sketch77
100
AcDbLine
 10
276.3288536671653
 20
50.68811164422566
 30
3.089427544217722
 11
276.8290092742303
 21
51.40183271973718
 31
3.089427544217731
  0
LINE
  5
10D
330
CC
100
AcDbEntity
  8
Sketch77
100
AcDbLine
 10
277.4241991383144
 20
54.76973043480133
 30
3.089427544217726
 11
277.1989686112511
 21
55.61164899894976
 31
3.089427544217726
  0
LINE
  5
10E
330
CC
100
AcDbEntity
  8
Sketch77
100
AcDbLine
 10
381.8597035438648
 20
46.1600478003387
 30
3.089427544217726
 11
381.7681378569749
 21
45.60914936449832
 31
3.089427544217726
  0
LINE
  5
10F
330
CC
100
AcDbEntity
  8
Sketch77
100
AcDbLine
 10
247.8014174207827
 20
30.92277518644218
 30
3.089427544217722
 11
247.1440423830731
 21
31.20265920981223
 31
3.089427544217722
  0
LINE
  5
110
330
CC
100
AcDbEntity
  8
Sketch77
100
AcDbLine
 10
374.2324356871762
 20
31.99807816033495
 30
3.089427544217722
 11
373.7352428538214
 21
31.67346852750906
 31
3.089427544217719
  0
LINE
  5
111
330
CC
100
AcDbEntity
  8
Sketch77
100
AcDbLine
 10
247.0042516309495
 20
31.27553209386072
 30
3.089427544217722
 11
246.4142080161692
 21
31.58569375916201
 31
3.089427544217726
  0
LINE
  5
112
330
CC
100
AcDbEntity
  8
Sketch77
100
AcDbLine
 10
249.4006937167505
 20
30.45940118017729
 30
3.089427544217724
 11
248.6668102902337
 21
30.62962734980394
 31
3.089427544217719
  0
LINE
  5
113
330
CC
100
AcDbEntity
  8
Sketch77
100
AcDbLine
 10
246.4142080161692
 20
31.58569375916201
 30
3.089427544217726
 11
246.2313750626882
 21
31.69965582145793
 31
3.089427544217726
  0
LINE
  5
114
330
CC
100
AcDbEntity
  8
Sketch77
100
AcDbLine
 10
246.2313750626882
 20
31.69965582145793
 30
3.089427544217726
 11
245.6935253582139
 21
32.03780247035562
 31
3.089427544217724
  0
LINE
  5
115
330
CC
100
AcDbEntity
  8
Sketch77
100
AcDbLine
 10
245.6935253582139
 20
32.03780247035562
 30
3.089427544217724
 11
245.4689599597182
 21
32.20191949171213
 31
3.089427544217722
  0
LINE
  5
116
330
CC
100
AcDbEntity
  8
Sketch77
100
AcDbLine
 10
244.9919262399135
 20
32.55361159320975
 30
3.089427544217724
 11
244.6828897885218
 21
32.81773421166275
 31
3.089427544217722
  0
LINE
  5
117
330
CC
100
AcDbEntity
  8
Sketch77
100
AcDbLine
 10
244.6828897885218
 20
32.81773421166275
 30
3.089427544217722
 11
244.1981808735558
 21
33.23573213427308
 31
3.089427544217724
  0
LINE
  5
118
330
CC
100
AcDbEntity
  8
Sketch77
100
AcDbLine
 10
243.8423738883408
 20
33.59140771703126
 30
3.089427544217724
 11
243.437407188211
 21
33.99999395974385
 31
3.089427544217724
  0
LINE
  5
119
330
CC
100
AcDbEntity
  8
Sketch77
100
AcDbLine
 10
250.2341298727568
 20
30.3437274914996
 30
3.089427544217724
 11
250.2181871105733
 21
30.34306635179794
 31
3.089427544217722
  0
LINE
  5
11A
330
CC
100
AcDbEntity
  8
Sketch77
100
AcDbLine
 10
243.437407188211
 20
33.99999395974385
 30
3.089427544217724
 11
243.0443106642034
 21
34.45593466553272
 31
3.089427544217719
  0
LINE
  5
11B
330
CC
100
AcDbEntity
  8
Sketch77
100
AcDbLine
 10
377.4300932916546
 20
35.03939664867594
 30
3.089427544217722
 11
377.2057205723072
 21
34.74311233217554
 31
3.089427544217724
  0
LINE
  5
11C
330
CC
100
AcDbEntity
  8
Sketch77
100
AcDbLine
 10
361.7184395155942
 20
30.39178592173508
 30
3.089427544217724
 11
359.2912517860528
 21
30.39178592173508
 31
3.089427544217724
  0
LINE
  5
11D
330
CC
100
AcDbEntity
  8
Sketch77
100
AcDbLine
 10
376.8346326597895
 20
34.31637938781215
 30
3.089427544217724
 11
376.5637711334037
 21
34.00140064786512
 31
3.089427544217726
  0
LINE
  5
11E
330
CC
100
AcDbEntity
  8
Sketch77
100
AcDbLine
 10
376.2153300906441
 20
33.65000324630633
 30
3.089427544217722
 11
375.8932373938813
 21
33.32170344620877
 31
3.089427544217722
  0
LINE
  5
11F
330
CC
100
AcDbEntity
  8
Sketch77
100
AcDbLine
 10
265.5631427465164
 20
30.39178592173508
 30
3.089427544217724
 11
263.135955016975
 21
30.39178592173508
 31
3.089427544217724
  0
LINE
  5
120
330
CC
100
AcDbEntity
  8
Sketch77
100
AcDbLine
 10
349.5824883133165
 20
30.39178592173508
 30
3.089427544217724
 11
270.4175244828846
 21
30.39178592173508
 31
3.089427544217724
  0
LINE
  5
121
330
CC
100
AcDbEntity
  8
Sketch77
100
AcDbLine
 10
247.9033281304465
 20
30.87974041261934
 30
3.089427544217724
 11
247.8014174207827
 21
30.92277518644218
 31
3.089427544217722
  0
LINE
  5
122
330
CC
100
AcDbEntity
  8
Sketch77
100
AcDbLine
 10
377.2057205723072
 20
34.74311233217554
 30
3.089427544217724
 11
376.8346326597895
 21
34.31637938781215
 31
3.089427544217724
  0
LINE
  5
123
330
CC
100
AcDbEntity
  8
Sketch77
100
AcDbLine
 10
244.1981808735558
 20
33.23573213427308
 30
3.089427544217724
 11
243.8423738883408
 21
33.59140771703126
 31
3.089427544217724
  0
LINE
  5
124
330
CC
100
AcDbEntity
  8
Sketch77
100
AcDbLine
 10
250.2181871105733
 20
30.34306635179794
 30
3.089427544217722
 11
250.1967848209023
 21
30.34599500895679
 31
3.089427544217724
  0
LINE
  5
125
330
CC
100
AcDbEntity
  8
Sketch77
100
AcDbLine
 10
372.8181381075646
 20
31.19195091697929
 30
3.089427544217724
 11
372.2003198926497
 21
30.91966241924369
 31
3.089427544217724
  0
LINE
  5
126
330
CC
100
AcDbEntity
  8
Sketch77
100
AcDbLine
 10
372.0846680438846
 20
30.88072637693449
 30
3.089427544217722
 11
371.4120343702588
 21
30.65231259066273
 31
3.089427544217722
  0
LINE
  5
127
330
CC
100
AcDbEntity
  8
Sketch77
100
AcDbLine
 10
245.4689599597182
 20
32.20191949171213
 30
3.089427544217722
 11
244.9919262399135
 21
32.55361159320975
 31
3.089427544217724
  0
LINE
  5
128
330
CC
100
AcDbEntity
  8
Sketch77
100
AcDbLine
 10
263.135955016975
 20
30.39178592173508
 30
3.089427544217724
 11
260.7087610101483
 21
30.39178592173508
 31
3.089427544217724
  0
LINE
  5
129
330
CC
100
AcDbEntity
  8
Sketch77
100
AcDbLine
 10
375.1966123704438
 20
32.70589255445654
 30
3.089427544217724
 11
374.9127084167612
 21
32.49037430473138
 31
3.089427544217722
  0
LINE
  5
12A
330
CC
100
AcDbEntity
  8
Sketch77
100
AcDbLine
 10
251.0000038146973
 20
30.39178592173508
 30
3.089427544217724
 11
250.2341298727568
 21
30.3437274914996
 31
3.089427544217724
  0
LINE
  5
12B
330
CC
100
AcDbEntity
  8
Sketch77
100
AcDbLine
 10
242.7133032021476
 20
34.84360949287182
 30
3.089427544217722
 11
242.2936038856475
 21
35.40492190248926
 31
3.089427544217722
  0
LINE
  5
12C
330
CC
100
AcDbEntity
  8
Sketch77
100
AcDbLine
 10
359.2912517860528
 20
30.39178592173508
 30
3.089427544217724
 11
356.8640640565115
 21
30.39178592173508
 31
3.089427544217724
  0
LINE
  5
12D
330
CC
100
AcDbEntity
  8
Sketch77
100
AcDbLine
 10
247.1440423830731
 20
31.20265920981223
 30
3.089427544217722
 11
247.0042516309495
 21
31.27553209386072
 31
3.089427544217722
  0
LINE
  5
12E
330
CC
100
AcDbEntity
  8
Sketch77
100
AcDbLine
 10
243.0443106642034
 20
34.45593466553272
 30
3.089427544217719
 11
242.7133032021476
 21
34.84360949287182
 31
3.089427544217722
  0
LINE
  5
12F
330
CC
100
AcDbEntity
  8
Sketch77
100
AcDbLine
 10
242.2936038856475
 20
35.40492190248926
 30
3.089427544217722
 11
242.0291550543123
 21
35.76226627814538
 31
3.089427544217722
  0
LINE
  5
130
330
CC
100
AcDbEntity
  8
Sketch77
100
AcDbLine
 10
366.5728149746769
 20
30.39178592173508
 30
3.089427544217724
 11
364.1456272451356
 21
30.39178592173508
 31
3.089427544217724
  0
LINE
  5
131
330
CC
100
AcDbEntity
  8
Sketch77
100
AcDbLine
 10
258.2815732806069
 20
30.39178592173508
 30
3.089427544217724
 11
255.8543855510655
 21
30.39178592173508
 31
3.089427544217724
  0
LINE
  5
132
330
CC
100
AcDbEntity
  8
Sketch77
100
AcDbLine
 10
255.8543855510655
 20
30.39178592173508
 30
3.089427544217724
 11
253.4271915442387
 21
30.39178592173508
 31
3.089427544217724
  0
LINE
  5
133
330
CC
100
AcDbEntity
  8
Sketch77
100
AcDbLine
 10
370.6136970287826
 20
30.46071966436681
 30
3.089427544217724
 11
370.564155366172
 21
30.4537056283142
 31
3.089427544217722
  0
LINE
  5
134
330
CC
100
AcDbEntity
  8
Sketch77
100
AcDbLine
 10
356.8640640565115
 20
30.39178592173508
 30
3.089427544217724
 11
354.4368637723993
 21
30.39178592173508
 31
3.089427544217724
  0
LINE
  5
135
330
CC
100
AcDbEntity
  8
Sketch77
100
AcDbLine
 10
253.4271915442387
 20
30.39178592173508
 30
3.089427544217724
 11
251.0000038146973
 21
30.39178592173508
 31
3.089427544217724
  0
LINE
  5
136
330
CC
100
AcDbEntity
  8
Sketch77
100
AcDbLine
 10
372.2003198926497
 20
30.91966241924369
 30
3.089427544217724
 11
372.0846680438846
 21
30.88072637693449
 31
3.089427544217722
  0
LINE
  5
137
330
CC
100
AcDbEntity
  8
Sketch77
100
AcDbLine
 10
249.4394166575262
 20
30.45049227326121
 30
3.089427544217724
 11
249.4006937167505
 21
30.45940118017729
 31
3.089427544217724
  0
LINE
  5
138
330
CC
100
AcDbEntity
  8
Sketch77
100
AcDbLine
 10
375.8932373938813
 20
33.32170344620877
 30
3.089427544217722
 11
375.5740965511544
 21
33.04116088211354
 31
3.089427544217724
  0
LINE
  5
139
330
CC
100
AcDbEntity
  8
Sketch77
100
AcDbLine
 10
374.9127084167612
 20
32.49037430473138
 30
3.089427544217722
 11
374.4764146177061
 21
32.15585263048531
 31
3.089427544217724
  0
LINE
  5
13A
330
CC
100
AcDbEntity
  8
Sketch77
100
AcDbLine
 10
248.6668102902337
 20
30.62962734980394
 30
3.089427544217719
 11
248.6007538492625
 21
30.65110624550469
 31
3.089427544217722
  0
LINE
  5
13B
330
CC
100
AcDbEntity
  8
Sketch77
100
AcDbLine
 10
373.7352428538214
 20
31.67346852750906
 30
3.089427544217719
 11
373.5341845905984
 21
31.56495921348694
 31
3.089427544217719
  0
LINE
  5
13C
330
CC
100
AcDbEntity
  8
Sketch77
100
AcDbLine
 10
373.5341845905984
 20
31.56495921348694
 30
3.089427544217719
 11
372.9756377002439
 21
31.26073614612739
 31
3.089427544217722
  0
LINE
  5
13D
330
CC
100
AcDbEntity
  8
Sketch77
100
AcDbLine
 10
371.4120343702588
 20
30.65231259066273
 30
3.089427544217722
 11
371.3332963975748
 21
30.63356506204127
 31
3.089427544217719
  0
LINE
  5
13E
330
CC
100
AcDbEntity
  8
Sketch77
100
AcDbLine
 10
374.4764146177061
 20
32.15585263048531
 30
3.089427544217724
 11
374.2324356871762
 21
31.99807816033495
 31
3.089427544217722
  0
LINE
  5
13F
330
CC
100
AcDbEntity
  8
Sketch77
100
AcDbLine
 10
372.9756377002439
 20
31.26073614612739
 30
3.089427544217722
 11
372.8181381075646
 21
31.19195091697929
 31
3.089427544217724
  0
LINE
  5
140
330
CC
100
AcDbEntity
  8
Sketch77
100
AcDbLine
 10
370.564155366172
 20
30.4537056283142
 30
3.089427544217722
 11
369.8085142556911
 21
30.34581703129185
 31
3.089427544217722
  0
LINE
  5
141
330
CC
100
AcDbEntity
  8
Sketch77
100
AcDbLine
 10
369.7853944303417
 20
30.3466818499648
 30
3.089427544217722
 11
369.0000152587891
 21
30.39178592173508
 31
3.089427544217724
  0
LINE
  5
142
330
CC
100
AcDbEntity
  8
Sketch77
100
AcDbLine
 10
371.3332963975748
 20
30.63356506204127
 30
3.089427544217719
 11
370.6136970287826
 21
30.46071966436681
 31
3.089427544217724
  0
LINE
  5
143
330
CC
100
AcDbEntity
  8
Sketch77
100
AcDbLine
 10
375.5740965511544
 20
33.04116088211354
 30
3.089427544217724
 11
375.1966123704438
 21
32.70589255445654
 31
3.089427544217724
  0
LINE
  5
144
330
CC
100
AcDbEntity
  8
Sketch77
100
AcDbLine
 10
369.8085142556911
 20
30.34581703129185
 30
3.089427544217722
 11
369.7853944303417
 21
30.3466818499648
 31
3.089427544217722
  0
LINE
  5
145
330
CC
100
AcDbEntity
  8
Sketch77
100
AcDbLine
 10
352.0096760428578
 20
30.39178592173508
 30
3.089427544217724
 11
349.5824883133165
 21
30.39178592173508
 31
3.089427544217724
  0
LINE
  5
146
330
CC
100
AcDbEntity
  8
Sketch77
100
AcDbLine
 10
270.4175244828846
 20
30.39178592173508
 30
3.089427544217724
 11
267.9903367533432
 21
30.39178592173508
 31
3.089427544217724
  0
LINE
  5
147
330
CC
100
AcDbEntity
  8
Sketch77
100
AcDbLine
 10
250.1967848209023
 20
30.34599500895679
 30
3.089427544217724
 11
249.4394166575262
 21
30.45049227326121
 31
3.089427544217724
  0
LINE
  5
148
330
CC
100
AcDbEntity
  8
Sketch77
100
AcDbLine
 10
364.1456272451356
 20
30.39178592173508
 30
3.089427544217724
 11
361.7184395155942
 21
30.39178592173508
 31
3.089427544217724
  0
LINE
  5
149
330
CC
100
AcDbEntity
  8
Sketch77
100
AcDbLine
 10
248.6007538492625
 20
30.65110624550469
 30
3.089427544217722
 11
247.9033281304465
 21
30.87974041261934
 31
3.089427544217724
  0
LINE
  5
14A
330
CC
100
AcDbEntity
  8
Sketch77
100
AcDbLine
 10
376.5637711334037
 20
34.00140064786512
 30
3.089427544217726
 11
376.2153300906441
 21
33.65000324630633
 31
3.089427544217722
  0
LINE
  5
14B
330
CC
100
AcDbEntity
  8
Sketch77
100
AcDbLine
 10
260.7087610101483
 20
30.39178592173508
 30
3.089427544217724
 11
258.2815732806069
 21
30.39178592173508
 31
3.089427544217724
  0
LINE
  5
14C
330
CC
100
AcDbEntity
  8
Sketch77
100
AcDbLine
 10
267.9903367533432
 20
30.39178592173508
 30
3.089427544217724
 11
265.5631427465164
 21
30.39178592173508
 31
3.089427544217724
  0
LINE
  5
14D
330
CC
100
AcDbEntity
  8
Sketch77
100
AcDbLine
 10
354.4368637723993
 20
30.39178592173508
 30
3.089427544217724
 11
352.0096760428578
 21
30.39178592173508
 31
3.089427544217724
  0
LINE
  5
14E
330
CC
100
AcDbEntity
  8
Sketch77
100
AcDbLine
 10
369.0000152587891
 20
30.39178592173508
 30
3.089427544217724
 11
366.5728149746769
 21
30.39178592173508
 31
3.089427544217724
  0
LINE
  5
14F
330
CC
100
AcDbEntity
  8
Sketch77
100
AcDbLine
 10
240.7860607495208
 20
37.81332505324645
 30
3.089427544217726
 11
240.3547355733027
 21
38.68587127931566
 31
3.089427544217724
  0
LINE
  5
150
330
CC
100
AcDbEntity
  8
Sketch77
100
AcDbLine
 10
242.0291550543123
 20
35.76226627814538
 30
3.089427544217722
 11
241.5936894408268
 21
36.43080614584741
 31
3.089427544217724
  0
LINE
  5
151
330
CC
100
AcDbEntity
  8
Sketch77
100
AcDbLine
 10
239.8221362068436
 20
39.89719365876025
 30
3.089427544217724
 11
239.7425773304542
 21
40.08562363683693
 31
3.089427544217722
  0
LINE
  5
152
330
CC
100
AcDbEntity
  8
Sketch77
100
AcDbLine
 10
238.298095684777
 20
45.18489658216754
 30
3.089427544217726
 11
238.2948900993221
 21
45.20079391111164
 31
3.089427544217726
  0
LINE
  5
153
330
CC
100
AcDbEntity
  8
Sketch77
100
AcDbLine
 10
243.0054664611817
 20
73.50544002718109
 30
3.089427544217735
 11
243.0054664611817
 21
73.56302235863807
 31
3.089427544217731
  0
LINE
  5
154
330
CC
100
AcDbEntity
  8
Sketch77
100
AcDbLine
 10
295.1165771484376
 20
73.63660522823389
 30
3.089427544217726
 11
295.4106281944707
 21
73.63660522823389
 31
3.089427544217726
  0
LINE
  5
155
330
CC
100
AcDbEntity
  8
Sketch77
100
AcDbLine
 10
240.3547355733027
 20
38.68587127931566
 30
3.089427544217724
 11
240.2416756520274
 21
38.91755901713181
 31
3.089427544217719
  0
LINE
  5
156
330
CC
100
AcDbEntity
  8
Sketch77
100
AcDbLine
 10
310.0054740905762
 20
73.63660522823389
 30
3.089427544217726
 11
310.2995251366094
 21
73.63660522823389
 31
3.089427544217726
  0
LINE
  5
157
330
CC
100
AcDbEntity
  8
Sketch77
100
AcDbLine
 10
310.2995251366094
 20
73.63660522823389
 30
3.089427544217726
 11
317.4499130249024
 21
73.63660522823389
 31
3.089427544217726
  0
LINE
  5
158
330
CC
100
AcDbEntity
  8
Sketch77
100
AcDbLine
 10
317.7439648243272
 20
73.63660522823389
 30
3.089427544217726
 11
324.8943710327149
 21
73.63660522823389
 31
3.089427544217726
  0
LINE
  5
159
330
CC
100
AcDbEntity
  8
Sketch77
100
AcDbLine
 10
324.8943710327149
 20
73.63660522823389
 30
3.089427544217726
 11
325.1884213253563
 21
73.63660522823389
 31
3.089427544217726
  0
LINE
  5
15A
330
CC
100
AcDbEntity
  8
Sketch77
100
AcDbLine
 10
332.6328426929796
 20
73.63660522823389
 30
3.089427544217726
 11
339.7832489013672
 21
73.63660522823389
 31
3.089427544217726
  0
LINE
  5
15B
330
CC
100
AcDbEntity
  8
Sketch77
100
AcDbLine
 10
237.8091941884238
 20
54.12957077747534
 30
3.089427544217726
 11
237.8802064236659
 21
54.12957077747534
 31
3.089427544217726
  0
LINE
  5
15C
330
CC
100
AcDbEntity
  8
Sketch77
100
AcDbLine
 10
295.4106281944707
 20
73.63660522823389
 30
3.089427544217726
 11
302.5610160827637
 21
73.63660522823389
 31
3.089427544217726
  0
LINE
  5
15D
330
CC
100
AcDbEntity
  8
Sketch77
100
AcDbLine
 10
237.8554294914204
 20
49.23102109586108
 30
3.089427544217731
 11
237.8447051245359
 21
49.5706831650265
 31
3.089427544217726
  0
LINE
  5
15E
330
CC
100
AcDbEntity
  8
Sketch77
100
AcDbLine
 10
237.9203672808689
 20
54.12957077747534
 30
3.089427544217726
 11
237.9951812191679
 21
54.12957077747534
 31
3.089427544217726
  0
LINE
  5
15F
330
CC
100
AcDbEntity
  8
Sketch77
100
AcDbLine
 10
240.9433736123071
 20
37.53298436153571
 30
3.089427544217726
 11
240.7860607495208
 21
37.81332505324645
 31
3.089427544217726
  0
LINE
  5
160
330
CC
100
AcDbEntity
  8
Sketch77
100
AcDbLine
 10
238.9350501539326
 20
42.4669757783117
 30
3.089427544217724
 11
238.9048723776694
 21
42.56601555560898
 31
3.089427544217726
  0
LINE
  5
161
330
CC
100
AcDbEntity
  8
Sketch77
100
AcDbLine
 10
238.9048723776694
 20
42.56601555560898
 30
3.089427544217726
 11
238.584976389058
 21
43.81093742675372
 31
3.089427544217726
  0
LINE
  5
162
330
CC
100
AcDbEntity
  8
Sketch77
100
AcDbLine
 10
237.8802064236659
 20
54.12957077747534
 30
3.089427544217726
 11
237.9203672808689
 21
54.12957077747534
 31
3.089427544217726
  0
LINE
  5
163
330
CC
100
AcDbEntity
  8
Sketch77
100
AcDbLine
 10
239.7425773304542
 20
40.08562363683693
 30
3.089427544217722
 11
239.3478817992677
 21
41.16026750473249
 31
3.089427544217726
  0
LINE
  5
164
330
CC
100
AcDbEntity
  8
Sketch77
100
AcDbLine
 10
238.0486904568829
 20
54.12957077747534
 30
3.089427544217726
 11
243.0054664611817
 21
54.12957077747534
 31
3.089427544217726
  0
LINE
  5
165
330
CC
100
AcDbEntity
  8
Sketch77
100
AcDbLine
 10
250.7439571949327
 20
73.63660522823389
 30
3.089427544217726
 11
257.8943634033204
 21
73.63660522823389
 31
3.089427544217726
  0
LINE
  5
166
330
CC
100
AcDbEntity
  8
Sketch77
100
AcDbLine
 10
241.3874924163506
 20
36.7508402040988
 30
3.089427544217722
 11
240.9433736123071
 21
37.53298436153571
 31
3.089427544217726
  0
LINE
  5
167
330
CC
100
AcDbEntity
  8
Sketch77
100
AcDbLine
 10
258.1884144493535
 20
73.63660522823389
 30
3.089427544217726
 11
265.3388023376465
 21
73.63660522823389
 31
3.089427544217726
  0
LINE
  5
168
330
CC
100
AcDbEntity
  8
Sketch77
100
AcDbLine
 10
317.4499130249024
 20
73.63660522823389
 30
3.089427544217726
 11
317.7439648243272
 21
73.63660522823389
 31
3.089427544217726
  0
LINE
  5
169
330
CC
100
AcDbEntity
  8
Sketch77
100
AcDbLine
 10
237.9505233184463
 20
47.81108617365436
 30
3.089427544217726
 11
237.9298431687618
 21
48.0279382719186
 31
3.089427544217726
  0
LINE
  5
16A
330
CC
100
AcDbEntity
  8
Sketch77
100
AcDbLine
 10
243.0054664611817
 20
54.42228149561137
 30
3.089427544217731
 11
243.0054664611817
 21
73.47017453348536
 31
3.089427544217731
  0
LINE
  5
16B
330
CC
100
AcDbEntity
  8
Sketch77
100
AcDbLine
 10
325.1884213253563
 20
73.63660522823389
 30
3.089427544217726
 11
332.3387908935548
 21
73.63660522823389
 31
3.089427544217726
  0
LINE
  5
16C
330
CC
100
AcDbEntity
  8
Sketch77
100
AcDbLine
 10
238.5708037953472
 20
43.86728356029336
 30
3.089427544217722
 11
238.298095684777
 21
45.18489658216754
 31
3.089427544217726
  0
LINE
  5
16D
330
CC
100
AcDbEntity
  8
Sketch77
100
AcDbLine
 10
302.5610160827637
 20
73.63660522823389
 30
3.089427544217726
 11
302.8550678821886
 21
73.63660522823389
 31
3.089427544217726
  0
LINE
  5
16E
330
CC
100
AcDbEntity
  8
Sketch77
100
AcDbLine
 10
332.3387908935548
 20
73.63660522823389
 30
3.089427544217726
 11
332.6328426929796
 21
73.63660522823389
 31
3.089427544217726
  0
LINE
  5
16F
330
CC
100
AcDbEntity
  8
Sketch77
100
AcDbLine
 10
340.0773007007921
 20
73.63660522823389
 30
3.089427544217726
 11
347.2277069091798
 21
73.63660522823389
 31
3.089427544217726
  0
LINE
  5
170
330
CC
100
AcDbEntity
  8
Sketch77
100
AcDbLine
 10
238.584976389058
 20
43.81093742675372
 30
3.089427544217726
 11
238.5708037953472
 21
43.86728356029336
 31
3.089427544217722
  0
LINE
  5
171
330
CC
100
AcDbEntity
  8
Sketch77
100
AcDbLine
 10
287.9661892601445
 20
73.63660522823389
 30
3.089427544217726
 11
295.1165771484376
 21
73.63660522823389
 31
3.089427544217726
  0
LINE
  5
172
330
CC
100
AcDbEntity
  8
Sketch77
100
AcDbLine
 10
339.7832489013672
 20
73.63660522823389
 30
3.089427544217726
 11
340.0773007007921
 21
73.63660522823389
 31
3.089427544217726
  0
LINE
  5
173
330
CC
100
AcDbEntity
  8
Sketch77
100
AcDbLine
 10
272.7832412719727
 20
73.63660522823389
 30
3.089427544217726
 11
273.0772930713976
 21
73.63660522823389
 31
3.089427544217726
  0
LINE
  5
174
330
CC
100
AcDbEntity
  8
Sketch77
100
AcDbLine
 10
238.2948900993221
 20
45.20079391111164
 30
3.089427544217726
 11
238.2068384486956
 21
45.75295911096699
 31
3.089427544217726
  0
LINE
  5
175
330
CC
100
AcDbEntity
  8
Sketch77
100
AcDbLine
 10
238.2068384486956
 20
45.75295911096699
 30
3.089427544217726
 11
238.0826247323678
 21
46.56951594572444
 31
3.089427544217726
  0
LINE
  5
176
330
CC
100
AcDbEntity
  8
Sketch77
100
AcDbLine
 10
237.8099568791299
 20
53.68531421805894
 30
3.089427544217722
 11
237.8091941884238
 21
54.12957077747534
 31
3.089427544217726
  0
LINE
  5
177
330
CC
100
AcDbEntity
  8
Sketch77
100
AcDbLine
 10
257.8943634033204
 20
73.63660522823389
 30
3.089427544217726
 11
258.1884144493535
 21
73.63660522823389
 31
3.089427544217726
  0
LINE
  5
178
330
CC
100
AcDbEntity
  8
Sketch77
100
AcDbLine
 10
243.0054664611817
 20
54.12957077747534
 30
3.089427544217726
 11
243.0054664611817
 21
54.21139390973151
 31
3.089427544217726
  0
LINE
  5
179
330
CC
100
AcDbEntity
  8
Sketch77
100
AcDbLine
 10
243.0054664611817
 20
73.47017453348536
 30
3.089427544217731
 11
243.0054664611817
 21
73.48604850010132
 31
3.089427544217735
  0
LINE
  5
17A
330
CC
100
AcDbEntity
  8
Sketch77
100
AcDbLine
 10
302.8550678821886
 20
73.63660522823389
 30
3.089427544217726
 11
310.0054740905762
 21
73.63660522823389
 31
3.089427544217726
  0
LINE
  5
17B
330
CC
100
AcDbEntity
  8
Sketch77
100
AcDbLine
 10
243.0054664611817
 20
73.56302235863807
 30
3.089427544217731
 11
249.6683333802957
 21
73.64120533319823
 31
3.089427544217735
  0
LINE
  5
17C
330
CC
100
AcDbEntity
  8
Sketch77
100
AcDbLine
 10
249.6683333802957
 20
73.64120533319823
 30
3.089427544217735
 11
250.4499053955079
 21
73.63660522823389
 31
3.089427544217726
  0
LINE
  5
17D
330
CC
100
AcDbEntity
  8
Sketch77
100
AcDbLine
 10
265.3388023376465
 20
73.63660522823389
 30
3.089427544217726
 11
265.6328533836797
 21
73.63660522823389
 31
3.089427544217726
  0
LINE
  5
17E
330
CC
100
AcDbEntity
  8
Sketch77
100
AcDbLine
 10
237.8856926321303
 20
50.7304944707175
 30
3.089427544217726
 11
237.8099568791299
 21
53.68531421805894
 31
3.089427544217722
  0
LINE
  5
17F
330
CC
100
AcDbEntity
  8
Sketch77
100
AcDbLine
 10
239.2961209504552
 20
41.30346203652043
 30
3.089427544217722
 11
238.9350501539326
 21
42.4669757783117
 31
3.089427544217724
  0
LINE
  5
180
330
CC
100
AcDbEntity
  8
Sketch77
100
AcDbLine
 10
240.2416756520274
 20
38.91755901713181
 30
3.089427544217719
 11
239.8221362068436
 21
39.89719365876025
 31
3.089427544217724
  0
LINE
  5
181
330
CC
100
AcDbEntity
  8
Sketch77
100
AcDbLine
 10
239.3478817992677
 20
41.16026750473249
 30
3.089427544217726
 11
239.2961209504552
 21
41.30346203652043
 31
3.089427544217722
  0
LINE
  5
182
330
CC
100
AcDbEntity
  8
Sketch77
100
AcDbLine
 10
243.0054664611817
 20
73.48604850010132
 30
3.089427544217735
 11
243.0054664611817
 21
73.50544002718109
 31
3.089427544217735
  0
LINE
  5
183
330
CC
100
AcDbEntity
  8
Sketch77
100
AcDbLine
 10
243.0054664611817
 20
54.21139390973151
 30
3.089427544217726
 11
243.0054664611817
 21
54.42228149561137
 31
3.089427544217731
  0
LINE
  5
184
330
CC
100
AcDbEntity
  8
Sketch77
100
AcDbLine
 10
241.5936894408268
 20
36.43080614584741
 30
3.089427544217724
 11
241.3874924163506
 21
36.7508402040988
 31
3.089427544217722
  0
LINE
  5
185
330
CC
100
AcDbEntity
  8
Sketch77
100
AcDbLine
 10
250.4499053955079
 20
73.63660522823389
 30
3.089427544217726
 11
250.7439571949327
 21
73.63660522823389
 31
3.089427544217726
  0
LINE
  5
186
330
CC
100
AcDbEntity
  8
Sketch77
100
AcDbLine
 10
265.6328533836797
 20
73.63660522823389
 30
3.089427544217726
 11
272.7832412719727
 21
73.63660522823389
 31
3.089427544217726
  0
LINE
  5
187
330
CC
100
AcDbEntity
  8
Sketch77
100
AcDbLine
 10
238.0826247323678
 20
46.56951594572444
 30
3.089427544217726
 11
237.9505233184463
 21
47.81108617365436
 31
3.089427544217726
  0
LINE
  5
188
330
CC
100
AcDbEntity
  8
Sketch77
100
AcDbLine
 10
273.0772930713976
 20
73.63660522823389
 30
3.089427544217726
 11
280.2276992797852
 21
73.63660522823389
 31
3.089427544217726
  0
LINE
  5
189
330
CC
100
AcDbEntity
  8
Sketch77
100
AcDbLine
 10
237.8447051245359
 20
49.5706831650265
 30
3.089427544217726
 11
237.8856926321303
 21
50.7304944707175
 31
3.089427544217726
  0
LINE
  5
18A
330
CC
100
AcDbEntity
  8
Sketch77
100
AcDbLine
 10
237.9951812191679
 20
54.12957077747534
 30
3.089427544217726
 11
238.0486904568829
 21
54.12957077747534
 31
3.089427544217726
  0
LINE
  5
18B
330
CC
100
AcDbEntity
  8
Sketch77
100
AcDbLine
 10
280.2276992797852
 20
73.63660522823389
 30
3.089427544217726
 11
280.5217503258183
 21
73.63660522823389
 31
3.089427544217726
  0
LINE
  5
18C
330
CC
100
AcDbEntity
  8
Sketch77
100
AcDbLine
 10
237.9298431687618
 20
48.0279382719186
 30
3.089427544217726
 11
237.8554294914204
 21
49.23102109586108
 31
3.089427544217731
  0
LINE
  5
18D
330
CC
100
AcDbEntity
  8
Sketch77
100
AcDbLine
 10
280.5217503258183
 20
73.63660522823389
 30
3.089427544217726
 11
287.6721382141114
 21
73.63660522823389
 31
3.089427544217726
  0
LINE
  5
18E
330
CC
100
AcDbEntity
  8
Sketch77
100
AcDbLine
 10
287.6721382141114
 20
73.63660522823389
 30
3.089427544217726
 11
287.9661892601445
 21
73.63660522823389
 31
3.089427544217726
  0
LINE
  5
18F
330
CC
100
AcDbEntity
  8
Sketch77
100
AcDbLine
 10
253.170990852525
 20
56.40500593554381
 30
3.089427544217726
 11
252.8023514666853
 21
55.61527589308616
 31
3.089427544217726
  0
LINE
  5
190
330
CC
100
AcDbEntity
  8
Sketch77
100
AcDbLine
 10
258.370114762613
 20
58.82695426258039
 30
3.089427544217726
 11
257.5019294654624
 21
58.90325136489501
 31
3.089427544217731
  0
LINE
  5
191
330
CC
100
AcDbEntity
  8
Sketch77
100
AcDbLine
 10
252.5764709850723
 20
54.77353094773589
 30
3.089427544217722
 11
252.5001688360197
 21
53.90534806020732
 31
3.089427544217726
  0
LINE
  5
192
330
CC
100
AcDbEntity
  8
Sketch77
100
AcDbLine
 10
369.5610046386719
 20
73.63660522823389
 30
3.089427544217726
 11
370.3425786563591
 21
73.64120533319823
 31
3.089427544217735
  0
LINE
  5
193
330
CC
100
AcDbEntity
  8
Sketch77
100
AcDbLine
 10
261.8309386778959
 20
56.40166389966342
 30
3.089427544217731
 11
261.3313340361491
 21
57.11577077738209
 31
3.089427544217731
  0
LINE
  5
194
330
CC
100
AcDbEntity
  8
Sketch77
100
AcDbLine
 10
256.6298847616901
 20
48.97988098427534
 30
3.089427544217731
 11
257.4980706239698
 21
48.90358709812787
 31
3.089427544217731
  0
LINE
  5
195
330
CC
100
AcDbEntity
  8
Sketch77
100
AcDbLine
 10
257.4980706239698
 20
48.90358709812787
 30
3.089427544217731
 11
258.3663144769398
 21
48.97921080816892
 31
3.089427544217726
  0
LINE
  5
196
330
CC
100
AcDbEntity
  8
Sketch77
100
AcDbLine
 10
259.9982447091445
 20
49.57247340858973
 30
3.089427544217726
 11
260.7123531002539
 21
50.07208373178475
 31
3.089427544217726
  0
LINE
  5
197
330
CC
100
AcDbEntity
  8
Sketch77
100
AcDbLine
 10
261.3288536671653
 20
50.68811164422566
 30
3.089427544217722
 11
261.8290092742303
 21
51.40183271973718
 31
3.089427544217731
  0
LINE
  5
198
330
CC
100
AcDbEntity
  8
Sketch77
100
AcDbLine
 10
262.1989686112511
 20
55.61164899894976
 30
3.089427544217726
 11
261.8309386778959
 21
56.40166389966342
 31
3.089427544217731
  0
LINE
  5
199
330
CC
100
AcDbEntity
  8
Sketch77
100
AcDbLine
 10
354.6721267700196
 20
73.63660522823389
 30
3.089427544217726
 11
354.9661785694444
 21
73.63660522823389
 31
3.089427544217726
  0
LINE
  5
19A
330
CC
100
AcDbEntity
  8
Sketch77
100
AcDbLine
 10
261.3313340361491
 20
57.11577077738209
 30
3.089427544217731
 11
260.7153093901406
 21
57.73227256460697
 31
3.089427544217735
  0
LINE
  5
19B
330
CC
100
AcDbEntity
  8
Sketch77
100
AcDbLine
 10
382.0011271889658
 20
54.12957077372688
 30
3.089427544217726
 11
382.0778516232084
 21
54.12957077747534
 31
3.089427544217726
  0
LINE
  5
19C
330
CC
100
AcDbEntity
  8
Sketch77
100
AcDbLine
 10
377.0054626464844
 20
73.50544002718109
 30
3.089427544217735
 11
377.0054626464844
 21
73.48604850010132
 31
3.089427544217735
  0
LINE
  5
19D
330
CC
100
AcDbEntity
  8
Sketch77
100
AcDbLine
 10
382.191207758467
 20
53.72561434202935
 30
3.089427544217726
 11
382.1143073678698
 21
50.7304944707175
 31
3.089427544217726
  0
LINE
  5
19E
330
CC
100
AcDbEntity
  8
Sketch77
100
AcDbLine
 10
382.1396690581631
 20
49.129594470994
 30
3.089427544217726
 11
382.0502464491611
 21
47.80952696596044
 31
3.089427544217726
  0
LINE
  5
19F
330
CC
100
AcDbEntity
  8
Sketch77
100
AcDbLine
 10
260.7153093901406
 20
57.73227256460697
 30
3.089427544217735
 11
260.0015865338457
 21
58.23243564548619
 31
3.089427544217726
  0
LINE
  5
1A0
330
CC
100
AcDbEntity
  8
Sketch77
100
AcDbLine
 10
255.0017553131016
 20
58.23436507263117
 30
3.089427544217726
 11
254.2876471027475
 21
57.73475335549152
 31
3.089427544217726
  0
LINE
  5
1A1
330
CC
100
AcDbEntity
  8
Sketch77
100
AcDbLine
 10
252.8023514666853
 20
55.61527589308616
 30
3.089427544217726
 11
252.5764709850723
 21
54.77353094773589
 31
3.089427544217722
  0
LINE
  5
1A2
330
CC
100
AcDbEntity
  8
Sketch77
100
AcDbLine
 10
252.5758008583576
 20
53.03710654155712
 30
3.089427544217726
 11
252.8010315137707
 21
52.19518747616437
 31
3.089427544217726
  0
LINE
  5
1A3
330
CC
100
AcDbEntity
  8
Sketch77
100
AcDbLine
 10
258.3663144769398
 20
48.97921080816892
 30
3.089427544217726
 11
259.2082388949637
 21
49.20445519230937
 31
3.089427544217722
  0
LINE
  5
1A4
330
CC
100
AcDbEntity
  8
Sketch77
100
AcDbLine
 10
354.9661785694444
 20
73.63660522823389
 30
3.089427544217726
 11
362.1165847778321
 21
73.63660522823389
 31
3.089427544217726
  0
LINE
  5
1A5
330
CC
100
AcDbEntity
  8
Sketch77
100
AcDbLine
 10
259.2082388949637
 20
49.20445519230937
 30
3.089427544217722
 11
259.9982447091445
 21
49.57247340858973
 31
3.089427544217726
  0
LINE
  5
1A6
330
CC
100
AcDbEntity
  8
Sketch77
100
AcDbLine
 10
261.8290092742303
 20
51.40183271973718
 30
3.089427544217731
 11
262.1976487373885
 21
52.19156148626545
 31
3.089427544217731
  0
LINE
  5
1A7
330
CC
100
AcDbEntity
  8
Sketch77
100
AcDbLine
 10
262.1976487373885
 20
52.19156148626545
 30
3.089427544217731
 11
262.4235290051535
 21
53.03330595685877
 31
3.089427544217726
  0
LINE
  5
1A8
330
CC
100
AcDbEntity
  8
Sketch77
100
AcDbLine
 10
269.9235290452661
 20
45.53330508552696
 30
3.089427544217726
 11
269.9998311775515
 21
46.40148801557862
 31
3.089427544217726
  0
LINE
  5
1A9
330
CC
100
AcDbEntity
  8
Sketch77
100
AcDbLine
 10
382.030285622231
 20
47.60019646082067
 30
3.089427544217726
 11
381.8696358183607
 21
46.22173457316186
 31
3.089427544217722
  0
LINE
  5
1AA
330
CC
100
AcDbEntity
  8
Sketch77
100
AcDbLine
 10
347.5217572018212
 20
73.63660522823389
 30
3.089427544217726
 11
354.6721267700196
 21
73.63660522823389
 31
3.089427544217726
  0
LINE
  5
1AB
330
CC
100
AcDbEntity
  8
Sketch77
100
AcDbLine
 10
253.1690614157597
 20
51.40517436969203
 30
3.089427544217726
 11
253.6686661170715
 21
50.69106747464029
 31
3.089427544217726
  0
LINE
  5
1AC
330
CC
100
AcDbEntity
  8
Sketch77
100
AcDbLine
 10
377.0054626464844
 20
73.47017453348536
 30
3.089427544217731
 11
377.0054626464844
 21
54.42228149561137
 31
3.089427544217731
  0
LINE
  5
1AD
330
CC
100
AcDbEntity
  8
Sketch77
100
AcDbLine
 10
260.7123531002539
 20
50.07208373178475
 30
3.089427544217726
 11
261.3288536671653
 21
50.68811164422566
 31
3.089427544217722
  0
LINE
  5
1AE
330
CC
100
AcDbEntity
  8
Sketch77
100
AcDbLine
 10
262.4235290051535
 20
53.03330595685877
 30
3.089427544217726
 11
262.4998311640416
 21
53.90148888221894
 31
3.089427544217731
  0
LINE
  5
1AF
330
CC
100
AcDbEntity
  8
Sketch77
100
AcDbLine
 10
260.0015865338457
 20
58.23243564548619
 30
3.089427544217726
 11
259.2118647304342
 21
58.60106179318329
 31
3.089427544217726
  0
LINE
  5
1B0
330
CC
100
AcDbEntity
  8
Sketch77
100
AcDbLine
 10
381.9889447754249
 20
54.12957077372688
 30
3.089427544217726
 11
382.0011271889658
 21
54.12957077372688
 31
3.089427544217726
  0
LINE
  5
1B1
330
CC
100
AcDbEntity
  8
Sketch77
100
AcDbLine
 10
347.2277069091798
 20
73.63660522823389
 30
3.089427544217726
 11
347.5217572018212
 21
73.63660522823389
 31
3.089427544217726
  0
LINE
  5
1B2
330
CC
100
AcDbEntity
  8
Sketch77
100
AcDbLine
 10
362.4106350704735
 20
73.63660522823389
 30
3.089427544217726
 11
369.5610046386719
 21
73.63660522823389
 31
3.089427544217726
  0
LINE
  5
1B3
330
CC
100
AcDbEntity
  8
Sketch77
100
AcDbLine
 10
255.7917607912902
 20
58.60238137213656
 30
3.089427544217726
 11
255.0017553131016
 21
58.23436507263117
 31
3.089427544217726
  0
LINE
  5
1B4
330
CC
100
AcDbEntity
  8
Sketch77
100
AcDbLine
 10
382.0502464491611
 20
47.80952696596044
 30
3.089427544217726
 11
382.030285622231
 21
47.60019646082067
 31
3.089427544217726
  0
LINE
  5
1B5
330
CC
100
AcDbEntity
  8
Sketch77
100
AcDbLine
 10
262.4998311640416
 20
53.90148888221894
 30
3.089427544217731
 11
262.4241991383144
 21
54.76973043480133
 31
3.089427544217726
  0
LINE
  5
1B6
330
CC
100
AcDbEntity
  8
Sketch77
100
AcDbLine
 10
377.0054626464844
 20
54.42228149561137
 30
3.089427544217731
 11
377.0054626464844
 21
54.21139390973151
 31
3.089427544217726
  0
LINE
  5
1B7
330
CC
100
AcDbEntity
  8
Sketch77
100
AcDbLine
 10
370.3425786563591
 20
73.64120533319823
 30
3.089427544217735
 11
377.0054626464844
 21
73.56302235863807
 31
3.089427544217731
  0
LINE
  5
1B8
330
CC
100
AcDbEntity
  8
Sketch77
100
AcDbLine
 10
381.8696358183607
 20
46.22173457316186
 30
3.089427544217722
 11
381.8597035438648
 21
46.1600478003387
 31
3.089427544217726
  0
LINE
  5
1B9
330
CC
100
AcDbEntity
  8
Sketch77
100
AcDbLine
 10
252.8010315137707
 20
52.19518747616437
 30
3.089427544217726
 11
253.1690614157597
 21
51.40517436969203
 31
3.089427544217726
  0
LINE
  5
1BA
330
CC
100
AcDbEntity
  8
Sketch77
100
AcDbLine
 10
253.6686661170715
 20
50.69106747464029
 30
3.089427544217726
 11
254.2846907854745
 21
50.07456420491144
 31
3.089427544217726
  0
LINE
  5
1BB
330
CC
100
AcDbEntity
  8
Sketch77
100
AcDbLine
 10
254.2846907854745
 20
50.07456420491144
 30
3.089427544217726
 11
254.9984134868714
 21
49.57440280679637
 31
3.089427544217726
  0
LINE
  5
1BC
330
CC
100
AcDbEntity
  8
Sketch77
100
AcDbLine
 10
259.2118647304342
 20
58.60106179318329
 30
3.089427544217726
 11
258.370114762613
 21
58.82695426258039
 31
3.089427544217726
  0
LINE
  5
1BD
330
CC
100
AcDbEntity
  8
Sketch77
100
AcDbLine
 10
254.9984134868714
 20
49.57440280679637
 30
3.089427544217726
 11
255.7881349742109
 21
49.20577499646263
 31
3.089427544217722
  0
LINE
  5
1BE
330
CC
100
AcDbEntity
  8
Sketch77
100
AcDbLine
 10
382.0778516232084
 20
54.12957077747534
 30
3.089427544217726
 11
382.1171300858511
 21
54.12957077747534
 31
3.089427544217726
  0
LINE
  5
1BF
330
CC
100
AcDbEntity
  8
Sketch77
100
AcDbLine
 10
254.2876471027475
 20
57.73475335549152
 30
3.089427544217726
 11
253.6711465218607
 21
57.11872701158907
 31
3.089427544217735
  0
LINE
  5
1C0
330
CC
100
AcDbEntity
  8
Sketch77
100
AcDbLine
 10
377.0054626464844
 20
54.12957077372688
 30
3.089427544217726
 11
381.9889447754249
 21
54.12957077372688
 31
3.089427544217726
  0
LINE
  5
1C1
330
CC
100
AcDbEntity
  8
Sketch77
100
AcDbLine
 10
382.1504950459052
 20
49.47247461301359
 30
3.089427544217726
 11
382.1396690581631
 21
49.129594470994
 31
3.089427544217726
  0
LINE
  5
1C2
330
CC
100
AcDbEntity
  8
Sketch77
100
AcDbLine
 10
362.1165847778321
 20
73.63660522823389
 30
3.089427544217726
 11
362.4106350704735
 21
73.63660522823389
 31
3.089427544217726
  0
LINE
  5
1C3
330
CC
100
AcDbEntity
  8
Sketch77
100
AcDbLine
 10
377.0054626464844
 20
73.56302235863807
 30
3.089427544217731
 11
377.0054626464844
 21
73.50544002718109
 31
3.089427544217735
  0
LINE
  5
1C4
330
CC
100
AcDbEntity
  8
Sketch77
100
AcDbLine
 10
256.6336850320638
 20
58.82762426420966
 30
3.089427544217726
 11
255.7917607912902
 21
58.60238137213656
 31
3.089427544217726
  0
LINE
  5
1C5
330
CC
100
AcDbEntity
  8
Sketch77
100
AcDbLine
 10
262.4241991383144
 20
54.76973043480133
 30
3.089427544217726
 11
262.1989686112511
 21
55.61164899894976
 31
3.089427544217726
  0
LINE
  5
1C6
330
CC
100
AcDbEntity
  8
Sketch77
100
AcDbLine
 10
252.5001688360197
 20
53.90534806020732
 30
3.089427544217726
 11
252.5758008583576
 21
53.03710654155712
 31
3.089427544217726
  0
LINE
  5
1C7
330
CC
100
AcDbEntity
  8
Sketch77
100
AcDbLine
 10
257.5019294654624
 20
58.90325136489501
 30
3.089427544217731
 11
256.6336850320638
 21
58.82762426420966
 31
3.089427544217726
  0
LINE
  5
1C8
330
CC
100
AcDbEntity
  8
Sketch77
100
AcDbLine
 10
255.7881349742109
 20
49.20577499646263
 30
3.089427544217722
 11
256.6298847616901
 21
48.97988098427534
 31
3.089427544217731
  0
LINE
  5
1C9
330
CC
100
AcDbEntity
  8
Sketch77
100
AcDbLine
 10
377.0054626464844
 20
54.21139390973151
 30
3.089427544217726
 11
377.0054626464844
 21
54.12957077372688
 31
3.089427544217726
  0
LINE
  5
1CA
330
CC
100
AcDbEntity
  8
Sketch77
100
AcDbLine
 10
382.1171300858511
 20
54.12957077747534
 30
3.089427544217726
 11
382.1915570443983
 21
54.12957077747534
 31
3.089427544217726
  0
LINE
  5
1CB
330
CC
100
AcDbEntity
  8
Sketch77
100
AcDbLine
 10
382.1143073678698
 20
50.7304944707175
 30
3.089427544217726
 11
382.1504950459052
 21
49.47247461301359
 31
3.089427544217726
  0
LINE
  5
1CC
330
CC
100
AcDbEntity
  8
Sketch77
100
AcDbLine
 10
377.0054626464844
 20
73.48604850010132
 30
3.089427544217735
 11
377.0054626464844
 21
73.47017453348536
 31
3.089427544217731
  0
LINE
  5
1CD
330
CC
100
AcDbEntity
  8
Sketch77
100
AcDbLine
 10
382.1915570443983
 20
54.12957077747534
 30
3.089427544217726
 11
382.191207758467
 21
53.72561434202935
 31
3.089427544217726
  0
LINE
  5
1CE
330
CC
100
AcDbEntity
  8
Sketch77
100
AcDbLine
 10
253.6711465218607
 20
57.11872701158907
 30
3.089427544217735
 11
253.170990852525
 21
56.40500593554381
 31
3.089427544217726
  0
LINE
  5
1CF
330
CC
100
AcDbEntity
  8
Sketch77
100
AcDbLine
 10
349.2499923706055
 20
55.99452921406966
 30
3.089427544217722
 11
349.2956194896306
 21
55.95661542686748
 31
3.089427544217726
  0
LINE
  5
1D0
330
CC
100
AcDbEntity
  8
Sketch77
100
AcDbLine
 10
260.3023514009022
 20
48.11527472691752
 30
3.089427544217726
 11
260.0764709449598
 21
47.27352977698334
 31
3.089427544217726
  0
LINE
  5
1D1
330
CC
100
AcDbEntity
  8
Sketch77
100
AcDbLine
 10
309.2499923706055
 20
54.80388707298509
 30
3.089427544217726
 11
309.2499923706055
 21
55.63466716634113
 31
3.089427544217722
  0
LINE
  5
1D2
330
CC
100
AcDbEntity
  8
Sketch77
100
AcDbLine
 10
291.0000038146973
 20
42.40341901376247
 30
3.089427544217724
 11
291.0000038146973
 21
42.6534195230683
 31
3.089427544217724
  0
LINE
  5
1D3
330
CC
100
AcDbEntity
  8
Sketch77
100
AcDbLine
 10
291.0000038146973
 20
42.6534195230683
 30
3.089427544217724
 11
291.0456300181743
 21
42.68676177040362
 31
3.089427544217724
  0
LINE
  5
1D4
330
CC
100
AcDbEntity
  8
Sketch77
100
AcDbLine
 10
309.2499923706055
 20
55.98995830841023
 30
3.089427544217722
 11
309.2499923706055
 21
57.81688025131082
 31
3.089427544217726
  0
LINE
  5
1D5
330
CC
100
AcDbEntity
  8
Sketch77
100
AcDbLine
 10
309.2499923706055
 20
57.81688025131082
 30
3.089427544217726
 11
291.0456623657773
 21
71.12004980015516
 31
3.089427544217731
  0
LINE
  5
1D6
330
CC
100
AcDbEntity
  8
Sketch77
100
AcDbLine
 10
291.0000038146973
 20
71.15341568459001
 30
3.089427544217735
 11
291.0000038146973
 21
71.40341772642068
 31
3.089427544217731
  0
LINE
  5
1D7
330
CC
100
AcDbEntity
  8
Sketch77
100
AcDbLine
 10
291.0000038146973
 20
71.40341772642068
 30
3.089427544217731
 11
291.0493379988498
 21
71.36765042014693
 31
3.089427544217735
  0
LINE
  5
1D8
330
CC
100
AcDbEntity
  8
Sketch77
100
AcDbLine
 10
291.0493379988498
 20
71.36765042014693
 30
3.089427544217735
 11
309.2499923706055
 21
58.17216986912526
 31
3.089427544217731
  0
LINE
  5
1D9
330
CC
100
AcDbEntity
  8
Sketch77
100
AcDbLine
 10
348.9144139332877
 20
54.78982265258907
 30
3.089427544217726
 11
309.2499923706055
 21
54.78982265258907
 31
3.089427544217726
  0
LINE
  5
1DA
330
CC
100
AcDbEntity
  8
Sketch77
100
AcDbLine
 10
309.2499923706055
 20
58.17216986912526
 30
3.089427544217731
 11
309.2499923706055
 21
58.90629707105969
 31
3.089427544217726
  0
LINE
  5
1DB
330
CC
100
AcDbEntity
  8
Sketch77
100
AcDbLine
 10
267.5015864062397
 20
50.73243471719985
 30
3.089427544217722
 11
266.7118648584884
 21
51.10106252729837
 31
3.089427544217726
  0
LINE
  5
1DC
330
CC
100
AcDbEntity
  8
Sketch77
100
AcDbLine
 10
268.8288535673451
 20
43.18811234569651
 30
3.089427544217724
 11
269.3290093631286
 21
43.90183182565642
 31
3.089427544217726
  0
LINE
  5
1DD
330
CC
100
AcDbEntity
  8
Sketch77
100
AcDbLine
 10
269.6989685707643
 20
48.11164812836216
 30
3.089427544217726
 11
269.3309386123916
 21
48.90166301909143
 31
3.089427544217731
  0
LINE
  5
1DE
330
CC
100
AcDbEntity
  8
Sketch77
100
AcDbLine
 10
265.870114898334
 20
51.32695502344751
 30
3.089427544217722
 11
265.0019293096198
 21
51.40325035683442
 31
3.089427544217726
  0
LINE
  5
1DF
330
CC
100
AcDbEntity
  8
Sketch77
100
AcDbLine
 10
264.1336851726944
 20
51.32762507780477
 30
3.089427544217726
 11
263.291760926252
 21
51.10238220893783
 31
3.089427544217726
  0
LINE
  5
1E0
330
CC
100
AcDbEntity
  8
Sketch77
100
AcDbLine
 10
367.4543414012013
 20
71.12004980015516
 30
3.089427544217731
 11
349.2499923706055
 21
57.81688025131082
 31
3.089427544217726
  0
LINE
  5
1E1
330
CC
100
AcDbEntity
  8
Sketch77
100
AcDbLine
 10
349.2956194896306
 20
55.95661542686748
 30
3.089427544217726
 11
367.5000000000001
 21
42.6534195230683
 31
3.089427544217724
  0
LINE
  5
1E2
330
CC
100
AcDbEntity
  8
Sketch77
100
AcDbLine
 10
266.7118648584884
 20
51.10106252729837
 30
3.089427544217726
 11
265.870114898334
 21
51.32695502344751
 31
3.089427544217722
  0
LINE
  5
1E3
330
CC
100
AcDbEntity
  8
Sketch77
100
AcDbLine
 10
291.0470697945997
 20
42.43754187336453
 30
3.089427544217724
 11
291.0000038146973
 21
42.40341901376247
 31
3.089427544217724
  0
LINE
  5
1E4
330
CC
100
AcDbEntity
  8
Sketch77
100
AcDbLine
 10
309.2499923706055
 20
54.78982265258907
 30
3.089427544217726
 11
309.2499923706055
 21
54.80388707298509
 31
3.089427544217726
  0
LINE
  5
1E5
330
CC
100
AcDbEntity
  8
Sketch77
100
AcDbLine
 10
260.3010314772359
 20
44.69518841381312
 30
3.089427544217722
 11
260.6690614812641
 21
43.90517320817918
 31
3.089427544217722
  0
LINE
  5
1E6
330
CC
100
AcDbEntity
  8
Sketch77
100
AcDbLine
 10
261.1686660361026
 20
43.19106839156911
 30
3.089427544217726
 11
261.7846909352263
 21
42.57456638557027
 31
3.089427544217728
  0
LINE
  5
1E7
330
CC
100
AcDbEntity
  8
Sketch77
100
AcDbLine
 10
291.0456300181743
 20
42.68676177040362
 30
3.089427544217724
 11
309.2499923706055
 21
55.98995830841023
 31
3.089427544217722
  0
LINE
  5
1E8
330
CC
100
AcDbEntity
  8
Sketch77
100
AcDbLine
 10
367.5000000000001
 20
42.6534195230683
 30
3.089427544217724
 11
367.5000000000001
 21
42.40341901376247
 31
3.089427544217724
  0
LINE
  5
1E9
330
CC
100
AcDbEntity
  8
Sketch77
100
AcDbLine
 10
269.9998311775515
 20
46.40148801557862
 30
3.089427544217726
 11
269.9241991246785
 21
47.26972956894846
 31
3.089427544217726
  0
LINE
  5
1EA
330
CC
100
AcDbEntity
  8
Sketch77
100
AcDbLine
 10
261.7876469758892
 20
50.23475223815783
 30
3.089427544217726
 11
261.1711464117093
 21
49.61872588380117
 31
3.089427544217726
  0
LINE
  5
1EB
330
CC
100
AcDbEntity
  8
Sketch77
100
AcDbLine
 10
349.2499923706055
 20
54.78982265258907
 30
3.089427544217726
 11
348.9144139332877
 21
54.78982265258907
 31
3.089427544217726
  0
LINE
  5
1EC
330
CC
100
AcDbEntity
  8
Sketch77
100
AcDbLine
 10
269.3290093631286
 20
43.90183182565642
 30
3.089427544217726
 11
269.6976486777268
 21
44.69156215961603
 31
3.089427544217726
  0
LINE
  5
1ED
330
CC
100
AcDbEntity
  8
Sketch77
100
AcDbLine
 10
291.0456623657773
 20
71.12004980015516
 30
3.089427544217731
 11
291.0000038146973
 21
71.15341568459001
 31
3.089427544217735
  0
LINE
  5
1EE
330
CC
100
AcDbEntity
  8
Sketch77
100
AcDbLine
 10
309.2499923706055
 20
58.90629707105969
 30
3.089427544217726
 11
309.2499923706055
 21
58.91667900765618
 31
3.089427544217726
  0
LINE
  5
1EF
330
CC
100
AcDbEntity
  8
Sketch77
100
AcDbLine
 10
309.2499923706055
 20
58.91667900765618
 30
3.089427544217726
 11
349.0287528655189
 21
58.91667900765618
 31
3.089427544217726
  0
LINE
  5
1F0
330
CC
100
AcDbEntity
  8
Sketch77
100
AcDbLine
 10
267.4982448502109
 20
42.07247244927
 30
3.089427544217724
 11
268.2123532742756
 21
42.57208617998842
 31
3.089427544217724
  0
LINE
  5
1F1
330
CC
100
AcDbEntity
  8
Sketch77
100
AcDbLine
 10
367.452933970908
 20
42.43754187336453
 30
3.089427544217724
 11
349.2499923706055
 21
55.63466716634113
 31
3.089427544217722
  0
LINE
  5
1F2
330
CC
100
AcDbEntity
  8
Sketch77
100
AcDbLine
 10
349.2499923706055
 20
55.63466716634113
 30
3.089427544217722
 11
349.2499923706055
 21
54.80388707298509
 31
3.089427544217726
  0
LINE
  5
1F3
330
CC
100
AcDbEntity
  8
Sketch77
100
AcDbLine
 10
263.2881351152773
 20
41.70577390558095
 30
3.089427544217728
 11
264.1298849120387
 21
41.47987991888891
 31
3.089427544217726
  0
LINE
  5
1F4
330
CC
100
AcDbEntity
  8
Sketch77
100
AcDbLine
 10
269.6976486777268
 20
44.69156215961603
 30
3.089427544217726
 11
269.9235290452661
 21
45.53330508552696
 31
3.089427544217726
  0
LINE
  5
1F5
330
CC
100
AcDbEntity
  8
Sketch77
100
AcDbLine
 10
349.2499923706055
 20
54.80388707298509
 30
3.089427544217726
 11
349.2499923706055
 21
54.78982265258907
 31
3.089427544217726
  0
LINE
  5
1F6
330
CC
100
AcDbEntity
  8
Sketch77
100
AcDbLine
 10
268.2153092806345
 20
50.23227164560644
 30
3.089427544217726
 11
267.5015864062397
 21
50.73243471719985
 31
3.089427544217722
  0
LINE
  5
1F7
330
CC
100
AcDbEntity
  8
Sketch77
100
AcDbLine
 10
260.6690614812641
 20
43.90517320817918
 30
3.089427544217722
 11
261.1686660361026
 21
43.19106839156911
 31
3.089427544217726
  0
LINE
  5
1F8
330
CC
100
AcDbEntity
  8
Sketch77
100
AcDbLine
 10
263.291760926252
 20
51.10238220893783
 30
3.089427544217726
 11
262.5017551720353
 21
50.73436398174949
 31
3.089427544217726
  0
LINE
  5
1F9
330
CC
100
AcDbEntity
  8
Sketch77
100
AcDbLine
 10
261.1711464117093
 20
49.61872588380117
 30
3.089427544217726
 11
260.6709907636993
 21
48.90500478017916
 31
3.089427544217726
  0
LINE
  5
1FA
330
CC
100
AcDbEntity
  8
Sketch77
100
AcDbLine
 10
309.2499923706055
 20
55.63466716634113
 30
3.089427544217722
 11
291.0470697945997
 21
42.43754187336453
 31
3.089427544217724
  0
LINE
  5
1FB
330
CC
100
AcDbEntity
  8
Sketch77
100
AcDbLine
 10
260.0764709449598
 20
47.27352977698334
 30
3.089427544217726
 11
260.0001688223837
 21
46.40534688267002
 31
3.089427544217731
  0
LINE
  5
1FC
330
CC
100
AcDbEntity
  8
Sketch77
100
AcDbLine
 10
260.0001688223837
 20
46.40534688267002
 30
3.089427544217731
 11
260.0758008719935
 21
45.53710536401982
 31
3.089427544217726
  0
LINE
  5
1FD
330
CC
100
AcDbEntity
  8
Sketch77
100
AcDbLine
 10
261.7846909352263
 20
42.57456638557027
 30
3.089427544217728
 11
262.4984136138335
 21
42.07440169685442
 31
3.089427544217728
  0
LINE
  5
1FE
330
CC
100
AcDbEntity
  8
Sketch77
100
AcDbLine
 10
268.8313339468726
 20
49.61576987978348
 30
3.089427544217726
 11
268.2153092806345
 21
50.23227164560644
 31
3.089427544217726
  0
LINE
  5
1FF
330
CC
100
AcDbEntity
  8
Sketch77
100
AcDbLine
 10
260.6709907636993
 20
48.90500478017916
 30
3.089427544217726
 11
260.3023514009022
 21
48.11527472691752
 31
3.089427544217726
  0
LINE
  5
200
330
CC
100
AcDbEntity
  8
Sketch77
100
AcDbLine
 10
260.0758008719935
 20
45.53710536401982
 30
3.089427544217726
 11
260.3010314772359
 21
44.69518841381312
 31
3.089427544217722
  0
LINE
  5
201
330
CC
100
AcDbEntity
  8
Sketch77
100
AcDbLine
 10
264.1298849120387
 20
41.47987991888891
 30
3.089427544217726
 11
264.9980704839963
 21
41.40358790760667
 31
3.089427544217722
  0
LINE
  5
202
330
CC
100
AcDbEntity
  8
Sketch77
100
AcDbLine
 10
262.4984136138335
 20
42.07440169685442
 30
3.089427544217728
 11
263.2881351152773
 21
41.70577390558095
 31
3.089427544217728
  0
LINE
  5
203
330
CC
100
AcDbEntity
  8
Sketch77
100
AcDbLine
 10
262.5017551720353
 20
50.73436398174949
 30
3.089427544217726
 11
261.7876469758892
 21
50.23475223815783
 31
3.089427544217726
  0
LINE
  5
204
330
CC
100
AcDbEntity
  8
Sketch77
100
AcDbLine
 10
264.9980704839963
 20
41.40358790760667
 30
3.089427544217722
 11
265.8663146313422
 21
41.47920980063553
 31
3.089427544217724
  0
LINE
  5
205
330
CC
100
AcDbEntity
  8
Sketch77
100
AcDbLine
 10
265.8663146313422
 20
41.47920980063553
 30
3.089427544217724
 11
266.7082390453124
 21
41.70445420749411
 31
3.089427544217728
  0
LINE
  5
206
330
CC
100
AcDbEntity
  8
Sketch77
100
AcDbLine
 10
367.5000000000001
 20
71.15341568459001
 30
3.089427544217735
 11
367.4543414012013
 21
71.12004980015516
 31
3.089427544217731
  0
LINE
  5
207
330
CC
100
AcDbEntity
  8
Sketch77
100
AcDbLine
 10
349.2499923706055
 20
57.81688025131082
 30
3.089427544217726
 11
349.2499923706055
 21
55.99452921406966
 31
3.089427544217722
  0
LINE
  5
208
330
CC
100
AcDbEntity
  8
Sketch77
100
AcDbLine
 10
268.2123532742756
 20
42.57208617998842
 30
3.089427544217724
 11
268.8288535673451
 21
43.18811234569651
 31
3.089427544217724
  0
LINE
  5
209
330
CC
100
AcDbEntity
  8
Sketch77
100
AcDbLine
 10
269.3309386123916
 20
48.90166301909143
 30
3.089427544217731
 11
268.8313339468726
 21
49.61576987978348
 31
3.089427544217726
  0
LINE
  5
20A
330
CC
100
AcDbEntity
  8
Sketch77
100
AcDbLine
 10
265.0019293096198
 20
51.40325035683442
 30
3.089427544217726
 11
264.1336851726944
 21
51.32762507780477
 31
3.089427544217726
  0
LINE
  5
20B
330
CC
100
AcDbEntity
  8
Sketch77
100
AcDbLine
 10
367.5000000000001
 20
42.40341901376247
 30
3.089427544217724
 11
367.452933970908
 21
42.43754187336453
 31
3.089427544217724
  0
LINE
  5
20C
330
CC
100
AcDbEntity
  8
Sketch77
100
AcDbLine
 10
269.9241991246785
 20
47.26972956894846
 30
3.089427544217726
 11
269.6989685707643
 21
48.11164812836216
 31
3.089427544217726
  0
LINE
  5
20D
330
CC
100
AcDbEntity
  8
Sketch77
100
AcDbLine
 10
367.5000000000001
 20
71.40341772642068
 30
3.089427544217731
 11
367.5000000000001
 21
71.15341568459001
 31
3.089427544217735
  0
LINE
  5
20E
330
CC
100
AcDbEntity
  8
Sketch77
100
AcDbLine
 10
266.7082390453124
 20
41.70445420749411
 30
3.089427544217728
 11
267.4982448502109
 21
42.07247244927
 31
3.089427544217724
  0
LINE
  5
20F
330
CC
100
AcDbEntity
  8
Sketch77
100
AcDbLine
 10
260.6709911443137
 20
63.90500584078409
 30
3.089427544217726
 11
260.3023512815255
 21
63.11527287580247
 31
3.089427544217731
  0
LINE
  5
210
330
CC
100
AcDbEntity
  8
Sketch77
100
AcDbLine
 10
263.2917612818041
 20
66.10238100295655
 30
3.089427544217731
 11
262.5017554534556
 21
65.73436616658651
 31
3.089427544217735
  0
LINE
  5
211
330
CC
100
AcDbEntity
  8
Sketch77
100
AcDbLine
 10
265.0019293812795
 20
66.40324722697961
 30
3.089427544217735
 11
264.1336848347334
 21
66.32762680457128
 31
3.089427544217731
  0
LINE
  5
212
330
CC
100
AcDbEntity
  8
Sketch77
100
AcDbLine
 10
260.0001688186962
 20
61.40535041578804
 30
3.089427544217731
 11
260.0758008756811
 21
60.53710889713778
 31
3.089427544217726
  0
LINE
  5
213
330
CC
100
AcDbEntity
  8
Sketch77
100
AcDbLine
 10
266.7082390313218
 20
56.70445442755478
 30
3.089427544217726
 11
267.4982445686759
 21
57.07247436412931
 31
3.089427544217726
  0
LINE
  5
214
330
CC
100
AcDbEntity
  8
Sketch77
100
AcDbLine
 10
308.7099585242689
 20
35.50106735262052
 30
3.089427544217719
 11
308.8500022888184
 21
35.59912792268772
 31
3.089427544217722
  0
LINE
  5
215
330
CC
100
AcDbEntity
  8
Sketch77
100
AcDbLine
 10
266.7118651914916
 20
66.10106106670489
 30
3.089427544217726
 11
265.8701145712778
 21
66.32695687147374
 31
3.089427544217731
  0
LINE
  5
216
330
CC
100
AcDbEntity
  8
Sketch77
100
AcDbLine
 10
260.3023512815255
 20
63.11527287580247
 30
3.089427544217731
 11
260.0764709342143
 21
62.27353330873572
 31
3.089427544217726
  0
LINE
  5
217
330
CC
100
AcDbEntity
  8
Sketch77
100
AcDbLine
 10
269.3290091857829
 20
58.90183361786698
 30
3.089427544217722
 11
269.6976486718842
 21
59.69156236683748
 31
3.089427544217722
  0
LINE
  5
218
330
CC
100
AcDbEntity
  8
Sketch77
100
AcDbLine
 10
307.977352142334
 20
33.72771576280918
 30
3.089427544217726
 11
307.9649041197018
 21
33.86996890563309
 31
3.089427544217724
  0
LINE
  5
219
330
CC
100
AcDbEntity
  8
Sketch77
100
AcDbLine
 10
309.1343688964844
 20
35.73172913744313
 30
3.089427544217726
 11
309.2722954696496
 21
35.76868782481761
 31
3.089427544217726
  0
LINE
  5
21A
330
CC
100
AcDbEntity
  8
Sketch77
100
AcDbLine
 10
309.2722954696496
 20
35.76868782481761
 30
3.089427544217726
 11
309.437427520752
 21
35.81293646894867
 31
3.089427544217724
  0
LINE
  5
21B
330
CC
100
AcDbEntity
  8
Sketch77
100
AcDbLine
 10
309.437427520752
 20
35.81293646894867
 30
3.089427544217724
 11
309.5796857341024
 21
35.82538287507144
 31
3.089427544217724
  0
LINE
  5
21C
330
CC
100
AcDbEntity
  8
Sketch77
100
AcDbLine
 10
309.8922533356787
 20
35.8278360500204
 30
3.089427544217724
 11
310.0625610351563
 21
35.81293646894867
 31
3.089427544217724
  0
LINE
  5
21D
330
CC
100
AcDbEntity
  8
Sketch77
100
AcDbLine
 10
261.7846906764349
 20
57.57456533839917
 30
3.089427544217731
 11
262.4984133593691
 21
57.07440392117489
 31
3.089427544217726
  0
LINE
  5
21E
330
CC
100
AcDbEntity
  8
Sketch77
100
AcDbLine
 10
268.2153088318882
 20
65.23227202494942
 30
3.089427544217726
 11
267.5015866607041
 21
65.73243658516553
 31
3.089427544217731
  0
LINE
  5
21F
330
CC
100
AcDbEntity
  8
Sketch77
100
AcDbLine
 10
261.1711462125352
 20
64.61872408610145
 30
3.089427544217735
 11
260.6709911443137
 21
63.90500584078409
 31
3.089427544217726
  0
LINE
  5
220
330
CC
100
AcDbEntity
  8
Sketch77
100
AcDbLine
 10
308.0143055821339
 20
34.49078124142799
 30
3.089427544217724
 11
308.0585479736329
 21
34.6559193746551
 31
3.089427544217722
  0
LINE
  5
221
330
CC
100
AcDbEntity
  8
Sketch77
100
AcDbLine
 10
349.2499923706055
 20
58.17216986912526
 30
3.089427544217731
 11
367.4506657642873
 21
71.36765042014693
 31
3.089427544217726
  0
LINE
  5
222
330
CC
100
AcDbEntity
  8
Sketch77
100
AcDbLine
 10
269.6976486718842
 20
59.69156236683748
 30
3.089427544217722
 11
269.9235290561822
 21
60.53330869406703
 31
3.089427544217726
  0
LINE
  5
223
330
CC
100
AcDbEntity
  8
Sketch77
100
AcDbLine
 10
260.0758008756811
 20
60.53710889713778
 30
3.089427544217726
 11
260.3010314736581
 21
59.69518864691707
 31
3.089427544217722
  0
LINE
  5
224
330
CC
100
AcDbEntity
  8
Sketch77
100
AcDbLine
 10
268.8288535571034
 20
58.18811255926414
 30
3.089427544217731
 11
269.3290091857829
 21
58.90183361786698
 31
3.089427544217722
  0
LINE
  5
225
330
CC
100
AcDbEntity
  8
Sketch77
100
AcDbLine
 10
307.9500007629395
 20
34.04028187785347
 30
3.089427544217724
 11
307.9624487907706
 21
34.18253660878213
 31
3.089427544217724
  0
LINE
  5
226
330
CC
100
AcDbEntity
  8
Sketch77
100
AcDbLine
 10
261.7876464560346
 20
65.2347518047486
 30
3.089427544217731
 11
261.1711462125352
 21
64.61872408610145
 31
3.089427544217735
  0
LINE
  5
227
330
CC
100
AcDbEntity
  8
Sketch77
100
AcDbLine
 10
269.9235290561822
 20
60.53330869406703
 30
3.089427544217726
 11
269.9998311812966
 21
61.40149162958421
 31
3.089427544217735
  0
LINE
  5
228
330
CC
100
AcDbEntity
  8
Sketch77
100
AcDbLine
 10
269.6989684978656
 20
63.11164680191473
 30
3.089427544217731
 11
269.3309388931781
 21
63.90166293057832
 31
3.089427544217726
  0
LINE
  5
229
330
CC
100
AcDbEntity
  8
Sketch77
100
AcDbLine
 10
308.4720973528082
 20
35.29827354979692
 30
3.089427544217724
 11
308.5929870605469
 21
35.41916302239876
 31
3.089427544217719
  0
LINE
  5
22A
330
CC
100
AcDbEntity
  8
Sketch77
100
AcDbLine
 10
308.8500022888184
 20
35.59912792268772
 30
3.089427544217722
 11
308.9794218228155
 21
35.65947673636154
 31
3.089427544217728
  0
LINE
  5
22B
330
CC
100
AcDbEntity
  8
Sketch77
100
AcDbLine
 10
262.4984133593691
 20
57.07440392117489
 30
3.089427544217726
 11
263.2881351028629
 21
56.70577413858473
 31
3.089427544217726
  0
LINE
  5
22C
330
CC
100
AcDbEntity
  8
Sketch77
100
AcDbLine
 10
349.0287528655189
 20
58.91667900765618
 30
3.089427544217726
 11
349.2499923706055
 21
58.91667900765618
 31
3.089427544217726
  0
LINE
  5
22D
330
CC
100
AcDbEntity
  8
Sketch77
100
AcDbLine
 10
263.2881351028629
 20
56.70577413858473
 30
3.089427544217726
 11
264.1298848980482
 21
56.47988014644706
 31
3.089427544217726
  0
LINE
  5
22E
330
CC
100
AcDbEntity
  8
Sketch77
100
AcDbLine
 10
265.8701145712778
 20
66.32695687147374
 30
3.089427544217731
 11
265.0019293812795
 21
66.40324722697961
 31
3.089427544217735
  0
LINE
  5
22F
330
CC
100
AcDbEntity
  8
Sketch77
100
AcDbLine
 10
308.191146850586
 20
34.94028223335649
 30
3.089427544217724
 11
308.2730572740647
 21
35.05725440660729
 31
3.089427544217724
  0
LINE
  5
230
330
CC
100
AcDbEntity
  8
Sketch77
100
AcDbLine
 10
264.1336848347334
 20
66.32762680457128
 30
3.089427544217731
 11
263.2917612818041
 21
66.10238100295655
 31
3.089427544217731
  0
LINE
  5
231
330
CC
100
AcDbEntity
  8
Sketch77
100
AcDbLine
 10
308.9794218228155
 20
35.65947673636154
 30
3.089427544217728
 11
309.1343688964844
 21
35.73172913744313
 31
3.089427544217726
  0
LINE
  5
232
330
CC
100
AcDbEntity
  8
Sketch77
100
AcDbLine
 10
308.0215945326644
 20
33.56257763394435
 30
3.089427544217726
 11
307.977352142334
 21
33.72771576280918
 31
3.089427544217726
  0
LINE
  5
233
330
CC
100
AcDbEntity
  8
Sketch77
100
AcDbLine
 10
309.5796857341024
 20
35.82538287507144
 30
3.089427544217724
 11
309.7500038146973
 21
35.8402824551162
 31
3.089427544217722
  0
LINE
  5
234
330
CC
100
AcDbEntity
  8
Sketch77
100
AcDbLine
 10
260.3010314736581
 20
59.69518864691707
 30
3.089427544217722
 11
260.6690613499233
 21
58.90517552851092
 31
3.089427544217722
  0
LINE
  5
235
330
CC
100
AcDbEntity
  8
Sketch77
100
AcDbLine
 10
260.6690613499233
 20
58.90517552851092
 30
3.089427544217722
 11
261.1686660281733
 21
58.19106862264414
 31
3.089427544217726
  0
LINE
  5
236
330
CC
100
AcDbEntity
  8
Sketch77
100
AcDbLine
 10
269.9241991209909
 20
62.26973318635568
 30
3.089427544217731
 11
269.6989684978656
 21
63.11164680191473
 31
3.089427544217731
  0
LINE
  5
237
330
CC
100
AcDbEntity
  8
Sketch77
100
AcDbLine
 10
267.5015866607041
 20
65.73243658516553
 30
3.089427544217731
 11
266.7118651914916
 21
66.10106106670489
 31
3.089427544217726
  0
LINE
  5
238
330
CC
100
AcDbEntity
  8
Sketch77
100
AcDbLine
 10
264.9980704695673
 20
56.40358813267844
 30
3.089427544217722
 11
265.8663146169133
 21
56.47921002318257
 31
3.089427544217731
  0
LINE
  5
239
330
CC
100
AcDbEntity
  8
Sketch77
100
AcDbLine
 10
265.8663146169133
 20
56.47921002318257
 30
3.089427544217731
 11
266.7082390313218
 21
56.70445442755478
 31
3.089427544217726
  0
LINE
  5
23A
330
CC
100
AcDbEntity
  8
Sketch77
100
AcDbLine
 10
268.8313337848621
 20
64.61576851604248
 30
3.089427544217731
 11
268.2153088318882
 21
65.23227202494942
 31
3.089427544217726
  0
LINE
  5
23B
330
CC
100
AcDbEntity
  8
Sketch77
100
AcDbLine
 10
307.9624487907706
 20
34.18253660878213
 30
3.089427544217724
 11
307.977352142334
 21
34.35284968171564
 31
3.089427544217726
  0
LINE
  5
23C
330
CC
100
AcDbEntity
  8
Sketch77
100
AcDbLine
 10
264.1298848980482
 20
56.47988014644706
 30
3.089427544217726
 11
264.9980704695673
 21
56.40358813267844
 31
3.089427544217722
  0
LINE
  5
23D
330
CC
100
AcDbEntity
  8
Sketch77
100
AcDbLine
 10
308.1188956874241
 20
34.78533719829861
 30
3.089427544217722
 11
308.191146850586
 21
34.94028223335649
 31
3.089427544217724
  0
LINE
  5
23E
330
CC
100
AcDbEntity
  8
Sketch77
100
AcDbLine
 10
349.2499923706055
 20
58.91667900765618
 30
3.089427544217726
 11
349.2499923706055
 21
58.90629707105969
 31
3.089427544217726
  0
LINE
  5
23F
330
CC
100
AcDbEntity
  8
Sketch77
100
AcDbLine
 10
308.2730572740647
 20
35.05725440660729
 30
3.089427544217724
 11
308.3711242675782
 21
35.19729996348994
 31
3.089427544217724
  0
LINE
  5
240
330
CC
100
AcDbEntity
  8
Sketch77
100
AcDbLine
 10
260.0764709342143
 20
62.27353330873572
 30
3.089427544217726
 11
260.0001688186962
 21
61.40535041578804
 31
3.089427544217731
  0
LINE
  5
241
330
CC
100
AcDbEntity
  8
Sketch77
100
AcDbLine
 10
309.7500038146973
 20
35.8402824551162
 30
3.089427544217722
 11
309.8922533356787
 21
35.8278360500204
 31
3.089427544217724
  0
LINE
  5
242
330
CC
100
AcDbEntity
  8
Sketch77
100
AcDbLine
 10
367.4506657642873
 20
71.36765042014693
 30
3.089427544217726
 11
367.5000000000001
 21
71.40341772642068
 31
3.089427544217731
  0
LINE
  5
243
330
CC
100
AcDbEntity
  8
Sketch77
100
AcDbLine
 10
269.9998311812966
 20
61.40149162958421
 30
3.089427544217735
 11
269.9241991209909
 21
62.26973318635568
 31
3.089427544217731
  0
LINE
  5
244
330
CC
100
AcDbEntity
  8
Sketch77
100
AcDbLine
 10
262.5017554534556
 20
65.73436616658651
 30
3.089427544217735
 11
261.7876464560346
 21
65.2347518047486
 31
3.089427544217731
  0
LINE
  5
245
330
CC
100
AcDbEntity
  8
Sketch77
100
AcDbLine
 10
261.1686660281733
 20
58.19106862264414
 30
3.089427544217726
 11
261.7846906764349
 21
57.57456533839917
 31
3.089427544217731
  0
LINE
  5
246
330
CC
100
AcDbEntity
  8
Sketch77
100
AcDbLine
 10
267.4982445686759
 20
57.07247436412931
 30
3.089427544217726
 11
268.2123529739358
 21
57.57208466778408
 31
3.089427544217726
  0
LINE
  5
247
330
CC
100
AcDbEntity
  8
Sketch77
100
AcDbLine
 10
307.9649041197018
 20
33.86996890563309
 30
3.089427544217724
 11
307.9500007629395
 21
34.04028187785347
 31
3.089427544217724
  0
LINE
  5
248
330
CC
100
AcDbEntity
  8
Sketch77
100
AcDbLine
 10
268.2123529739358
 20
57.57208466778408
 30
3.089427544217726
 11
268.8288535571034
 21
58.18811255926414
 31
3.089427544217731
  0
LINE
  5
249
330
CC
100
AcDbEntity
  8
Sketch77
100
AcDbLine
 10
349.2499923706055
 20
58.90629707105969
 30
3.089427544217726
 11
349.2499923706055
 21
58.17216986912526
 31
3.089427544217731
  0
LINE
  5
24A
330
CC
100
AcDbEntity
  8
Sketch77
100
AcDbLine
 10
307.977352142334
 20
34.35284968171564
 30
3.089427544217726
 11
308.0143055821339
 21
34.49078124142799
 31
3.089427544217724
  0
LINE
  5
24B
330
CC
100
AcDbEntity
  8
Sketch77
100
AcDbLine
 10
269.3309388931781
 20
63.90166293057832
 30
3.089427544217726
 11
268.8313337848621
 21
64.61576851604248
 31
3.089427544217731
  0
LINE
  5
24C
330
CC
100
AcDbEntity
  8
Sketch77
100
AcDbLine
 10
308.0585479736329
 20
34.6559193746551
 30
3.089427544217722
 11
308.1188956874241
 21
34.78533719829861
 31
3.089427544217722
  0
LINE
  5
24D
330
CC
100
AcDbEntity
  8
Sketch77
100
AcDbLine
 10
308.5929870605469
 20
35.41916302239876
 30
3.089427544217719
 11
308.7099585242689
 21
35.50106735262052
 31
3.089427544217719
  0
LINE
  5
24E
330
CC
100
AcDbEntity
  8
Sketch77
100
AcDbLine
 10
308.3711242675782
 20
35.19729996348994
 30
3.089427544217724
 11
308.4720973528082
 21
35.29827354979692
 31
3.089427544217724
  0
LINE
  5
24F
330
CC
100
AcDbEntity
  8
Sketch77
100
AcDbLine
 10
311.5351035095045
 20
34.21059501235184
 30
3.089427544217722
 11
311.5500068664551
 21
34.04028187785347
 31
3.089427544217724
  0
LINE
  5
250
330
CC
100
AcDbEntity
  8
Sketch77
100
AcDbLine
 10
311.369189463233
 20
34.81086431509721
 30
3.089427544217724
 11
311.4414405822754
 21
34.6559193746551
 31
3.089427544217722
  0
LINE
  5
251
330
CC
100
AcDbEntity
  8
Sketch77
100
AcDbLine
 10
311.2107850755101
 20
35.08032783187865
 30
3.089427544217722
 11
311.3088417053223
 21
34.94028223335649
 31
3.089427544217724
  0
LINE
  5
252
330
CC
100
AcDbEntity
  8
Sketch77
100
AcDbLine
 10
311.5226554870606
 20
33.72771576280918
 30
3.089427544217726
 11
311.4856933654751
 21
33.5897841987821
 31
3.089427544217719
  0
LINE
  5
253
330
CC
100
AcDbEntity
  8
Sketch77
100
AcDbLine
 10
310.5205858031488
 20
32.4210878489647
 30
3.089427544217722
 11
310.3656387329102
 21
32.34883544948262
 31
3.089427544217724
  0
LINE
  5
254
330
CC
100
AcDbEntity
  8
Sketch77
100
AcDbLine
 10
311.5500068664551
 20
34.04028187785347
 30
3.089427544217724
 11
311.5375588384667
 21
33.89802867382016
 31
3.089427544217726
  0
LINE
  5
255
330
CC
100
AcDbEntity
  8
Sketch77
100
AcDbLine
 10
309.92031149764
 20
32.25518240890988
 30
3.089427544217722
 11
309.7500038146973
 21
32.24028199423511
 31
3.089427544217724
  0
LINE
  5
256
330
CC
100
AcDbEntity
  8
Sketch77
100
AcDbLine
 10
309.437427520752
 20
32.26762811797694
 30
3.089427544217724
 11
309.2995009867745
 21
32.30458679485082
 31
3.089427544217724
  0
LINE
  5
257
330
CC
100
AcDbEntity
  8
Sketch77
100
AcDbLine
 10
311.226939930907
 20
33.02331013523502
 30
3.089427544217722
 11
311.1288833618165
 21
32.88326478355985
 31
3.089427544217724
  0
LINE
  5
258
330
CC
100
AcDbEntity
  8
Sketch77
100
AcDbLine
 10
311.5226554870606
 20
34.35284968171564
 30
3.089427544217726
 11
311.5351035095045
 21
34.21059501235184
 31
3.089427544217722
  0
LINE
  5
259
330
CC
100
AcDbEntity
  8
Sketch77
100
AcDbLine
 10
308.7330307386421
 20
32.56334175247153
 30
3.089427544217724
 11
308.5929870605469
 21
32.66140242212605
 31
3.089427544217722
  0
LINE
  5
25A
330
CC
100
AcDbEntity
  8
Sketch77
100
AcDbLine
 10
309.7500038146973
 20
32.24028199423511
 30
3.089427544217724
 11
309.6077456989883
 21
32.25272769434004
 31
3.089427544217722
  0
LINE
  5
25B
330
CC
100
AcDbEntity
  8
Sketch77
100
AcDbLine
 10
310.7669768532791
 20
35.51722355816914
 30
3.089427544217722
 11
310.9070205688477
 21
35.41916302239876
 31
3.089427544217719
  0
LINE
  5
25C
330
CC
100
AcDbEntity
  8
Sketch77
100
AcDbLine
 10
311.4856933654751
 20
33.5897841987821
 30
3.089427544217719
 11
311.4414405822754
 21
33.42464606986972
 31
3.089427544217722
  0
LINE
  5
25D
330
CC
100
AcDbEntity
  8
Sketch77
100
AcDbLine
 10
310.0625610351563
 20
32.26762811797694
 30
3.089427544217724
 11
309.92031149764
 21
32.25518240890988
 31
3.089427544217722
  0
LINE
  5
25E
330
CC
100
AcDbEntity
  8
Sketch77
100
AcDbLine
 10
309.1343688964844
 20
32.34883544948262
 30
3.089427544217724
 11
309.004949360551
 21
32.40918426405943
 31
3.089427544217722
  0
LINE
  5
25F
330
CC
100
AcDbEntity
  8
Sketch77
100
AcDbLine
 10
311.478402702692
 20
34.5179878149903
 30
3.089427544217722
 11
311.5226554870606
 21
34.35284968171564
 31
3.089427544217726
  0
LINE
  5
260
330
CC
100
AcDbEntity
  8
Sketch77
100
AcDbLine
 10
308.1307990854439
 20
33.26970098481202
 30
3.089427544217726
 11
308.0585479736329
 21
33.42464606986972
 31
3.089427544217722
  0
LINE
  5
261
330
CC
100
AcDbEntity
  8
Sketch77
100
AcDbLine
 10
310.9070205688477
 20
35.41916302239876
 30
3.089427544217719
 11
311.0079936156142
 21
35.31818947455529
 31
3.089427544217724
  0
LINE
  5
262
330
CC
100
AcDbEntity
  8
Sketch77
100
AcDbLine
 10
311.1288833618165
 20
32.88326478355985
 30
3.089427544217724
 11
311.0279102790998
 21
32.78229189724115
 31
3.089427544217724
  0
LINE
  5
263
330
CC
100
AcDbEntity
  8
Sketch77
100
AcDbLine
 10
311.0279102790998
 20
32.78229189724115
 30
3.089427544217724
 11
310.9070205688477
 21
32.66140242212605
 31
3.089427544217722
  0
LINE
  5
264
330
CC
100
AcDbEntity
  8
Sketch77
100
AcDbLine
 10
310.6500053405762
 20
35.59912792268772
 30
3.089427544217722
 11
310.7669768532791
 21
35.51722355816914
 31
3.089427544217722
  0
LINE
  5
265
330
CC
100
AcDbEntity
  8
Sketch77
100
AcDbLine
 10
311.1288833618165
 20
35.19729996348994
 30
3.089427544217724
 11
311.2107850755101
 21
35.08032783187865
 31
3.089427544217722
  0
LINE
  5
266
330
CC
100
AcDbEntity
  8
Sketch77
100
AcDbLine
 10
310.3656387329102
 20
35.73172913744313
 30
3.089427544217726
 11
310.4950582684013
 21
35.67138032307267
 31
3.089427544217722
  0
LINE
  5
267
330
CC
100
AcDbEntity
  8
Sketch77
100
AcDbLine
 10
311.3088417053223
 20
34.94028223335649
 30
3.089427544217724
 11
311.369189463233
 21
34.81086431509721
 31
3.089427544217724
  0
LINE
  5
268
330
CC
100
AcDbEntity
  8
Sketch77
100
AcDbLine
 10
309.6077456989883
 20
32.25272769434004
 30
3.089427544217722
 11
309.437427520752
 21
32.26762811797694
 31
3.089427544217724
  0
LINE
  5
269
330
CC
100
AcDbEntity
  8
Sketch77
100
AcDbLine
 10
308.3711242675782
 20
32.88326478355985
 30
3.089427544217724
 11
308.2892138492512
 21
33.00023694945382
 31
3.089427544217724
  0
LINE
  5
26A
330
CC
100
AcDbEntity
  8
Sketch77
100
AcDbLine
 10
310.2004962910653
 20
35.77597778100853
 30
3.089427544217726
 11
310.3656387329102
 21
35.73172913744313
 31
3.089427544217726
  0
LINE
  5
26B
330
CC
100
AcDbEntity
  8
Sketch77
100
AcDbLine
 10
311.0079936156142
 20
35.31818947455529
 30
3.089427544217724
 11
311.1288833618165
 21
35.19729996348994
 31
3.089427544217724
  0
LINE
  5
26C
330
CC
100
AcDbEntity
  8
Sketch77
100
AcDbLine
 10
311.4414405822754
 20
33.42464606986972
 30
3.089427544217722
 11
311.3810928435947
 21
33.29522749537443
 31
3.089427544217722
  0
LINE
  5
26D
330
CC
100
AcDbEntity
  8
Sketch77
100
AcDbLine
 10
311.3810928435947
 20
33.29522749537443
 30
3.089427544217722
 11
311.3088417053223
 21
33.1402823535691
 31
3.089427544217724
  0
LINE
  5
26E
330
CC
100
AcDbEntity
  8
Sketch77
100
AcDbLine
 10
310.7900491064969
 20
32.57949739538926
 30
3.089427544217724
 11
310.6500053405762
 21
32.48143666423814
 31
3.089427544217722
  0
LINE
  5
26F
330
CC
100
AcDbEntity
  8
Sketch77
100
AcDbLine
 10
310.6500053405762
 20
32.48143666423814
 30
3.089427544217722
 11
310.5205858031488
 21
32.4210878489647
 31
3.089427544217722
  0
LINE
  5
270
330
CC
100
AcDbEntity
  8
Sketch77
100
AcDbLine
 10
310.4950582684013
 20
35.67138032307267
 30
3.089427544217722
 11
310.6500053405762
 21
35.59912792268772
 31
3.089427544217722
  0
LINE
  5
271
330
CC
100
AcDbEntity
  8
Sketch77
100
AcDbLine
 10
309.004949360551
 20
32.40918426405943
 30
3.089427544217722
 11
308.8500022888184
 21
32.48143666423814
 31
3.089427544217722
  0
LINE
  5
272
330
CC
100
AcDbEntity
  8
Sketch77
100
AcDbLine
 10
310.9070205688477
 20
32.66140242212605
 30
3.089427544217722
 11
310.7900491064969
 21
32.57949739538926
 31
3.089427544217724
  0
LINE
  5
273
330
CC
100
AcDbEntity
  8
Sketch77
100
AcDbLine
 10
308.49201397625
 20
32.76237531002497
 30
3.089427544217722
 11
308.3711242675782
 21
32.88326478355985
 31
3.089427544217724
  0
LINE
  5
274
330
CC
100
AcDbEntity
  8
Sketch77
100
AcDbLine
 10
310.0625610351563
 20
35.81293646894867
 30
3.089427544217724
 11
310.2004962910653
 21
35.77597778100853
 31
3.089427544217726
  0
LINE
  5
275
330
CC
100
AcDbEntity
  8
Sketch77
100
AcDbLine
 10
308.2892138492512
 20
33.00023694945382
 30
3.089427544217724
 11
308.191146850586
 21
33.1402823535691
 31
3.089427544217724
  0
LINE
  5
276
330
CC
100
AcDbEntity
  8
Sketch77
100
AcDbLine
 10
311.5375588384667
 20
33.89802867382016
 30
3.089427544217726
 11
311.5226554870606
 21
33.72771576280918
 31
3.089427544217726
  0
LINE
  5
277
330
CC
100
AcDbEntity
  8
Sketch77
100
AcDbLine
 10
311.3088417053223
 20
33.1402823535691
 30
3.089427544217724
 11
311.226939930907
 21
33.02331013523502
 31
3.089427544217722
  0
LINE
  5
278
330
CC
100
AcDbEntity
  8
Sketch77
100
AcDbLine
 10
308.8500022888184
 20
32.48143666423814
 30
3.089427544217722
 11
308.7330307386421
 21
32.56334175247153
 31
3.089427544217724
  0
LINE
  5
279
330
CC
100
AcDbEntity
  8
Sketch77
100
AcDbLine
 10
311.4414405822754
 20
34.6559193746551
 30
3.089427544217722
 11
311.478402702692
 21
34.5179878149903
 31
3.089427544217722
  0
LINE
  5
27A
330
CC
100
AcDbEntity
  8
Sketch77
100
AcDbLine
 10
310.3656387329102
 20
32.34883544948262
 30
3.089427544217724
 11
310.2277035161912
 21
32.31187677204308
 31
3.089427544217724
  0
LINE
  5
27B
330
CC
100
AcDbEntity
  8
Sketch77
100
AcDbLine
 10
309.2995009867745
 20
32.30458679485082
 30
3.089427544217724
 11
309.1343688964844
 21
32.34883544948262
 31
3.089427544217724
  0
LINE
  5
27C
330
CC
100
AcDbEntity
  8
Sketch77
100
AcDbLine
 10
310.2277035161912
 20
32.31187677204308
 30
3.089427544217724
 11
310.0625610351563
 21
32.26762811797694
 31
3.089427544217724
  0
LINE
  5
27D
330
CC
100
AcDbEntity
  8
Sketch77
100
AcDbLine
 10
308.0585479736329
 20
33.42464606986972
 30
3.089427544217722
 11
308.0215945326644
 21
33.56257763394435
 31
3.089427544217726
  0
LINE
  5
27E
330
CC
100
AcDbEntity
  8
Sketch77
100
AcDbLine
 10
308.5929870605469
 20
32.66140242212605
 30
3.089427544217722
 11
308.49201397625
 21
32.76237531002497
 31
3.089427544217722
  0
LINE
  5
27F
330
CC
100
AcDbEntity
  8
Sketch77
100
AcDbLine
 10
308.191146850586
 20
33.1402823535691
 30
3.089427544217724
 11
308.1307990854439
 21
33.26970098481202
 31
3.089427544217726
  0
ENDSEC
  0
SECTION
  2
OBJECTS
  0
DICTIONARY
  5
C
330
0
100
AcDbDictionary
281
     1
  3
ACAD_BACKGROUND
350
5B
  3
ACAD_COLOR
350
BE
  3
ACAD_DETAILVIEWSTYLE
350
C6
  3
ACAD_GROUP
350
D
  3
ACAD_LAYOUT
350
BD
  3
ACAD_MATERIAL
350
10
  3
ACAD_MLEADERSTYLE
350
C1
  3
ACAD_MLINESTYLE
350
BA
  3
ACAD_PLOTSETTINGS
350
BC
  3
ACAD_PLOTSTYLENAME
350
E
  3
ACAD_SCALELIST
350
9D
  3
ACAD_SCENESTYLE
350
52
  3
ACAD_SECTIONVIEWSTYLE
350
C3
  3
ACAD_TABLESTYLE
350
BF
  3
ACAD_VISUALSTYLE
350
29
  3
ACDB_RECOMPOSE_DATA
350
28A
  3
AcDbVariableDictionary
350
280
  0
DICTIONARY
  5
286
330
B2
100
AcDbDictionary
280
     1
281
     1
  3
ACAD_XREC_ROUNDTRIP
360
287
  0
DICTIONARY
  5
5B
102
{ACAD_REACTORS
330
C
102
}
330
C
100
AcDbDictionary
281
     1
  3
5C
350
5C
  3
64
350
64
  3
69
350
69
  3
71
350
71
  3
76
350
76
  3
7B
350
7B
  3
80
350
80
  3
85
350
85
  3
8A
350
8A
  3
8F
350
8F
  3
94
350
94
  3
99
350
99
  0
DICTIONARY
  5
BE
102
{ACAD_REACTORS
330
C
102
}
330
C
100
AcDbDictionary
281
     1
  0
DICTIONARY
  5
C6
102
{ACAD_REACTORS
330
C
102
}
330
C
100
AcDbDictionary
281
     1
  3
Imperial24
350
C7
  0
DICTIONARY
  5
D
102
{ACAD_REACTORS
330
C
102
}
330
C
100
AcDbDictionary
281
     1
  0
DICTIONARY
  5
BD
102
{ACAD_REACTORS
330
C
102
}
330
C
100
AcDbDictionary
281
     1
  3
Layout1
350
CB
  3
Layout2
350
D3
  3
Model
350
CF
  0
DICTIONARY
  5
10
102
{ACAD_REACTORS
330
C
102
}
330
C
100
AcDbDictionary
281
     1
  3
ByBlock
350
19
  3
ByLayer
350
11
  3
Global
350
21
  0
DICTIONARY
  5
C1
102
{ACAD_REACTORS
330
C
102
}
330
C
100
AcDbDictionary
281
     1
  3
Standard
350
C2
  0
DICTIONARY
  5
BA
102
{ACAD_REACTORS
330
C
102
}
330
C
100
AcDbDictionary
281
     1
  3
Standard
350
BB
  0
DICTIONARY
  5
BC
102
{ACAD_REACTORS
330
C
102
}
330
C
100
AcDbDictionary
281
     1
  0
ACDBDICTIONARYWDFLT
  5
E
102
{ACAD_REACTORS
330
C
102
}
330
C
100
AcDbDictionary
281
     1
  3
Normal
350
F
100
AcDbDictionaryWithDefault
340
F
  0
DICTIONARY
  5
9D
102
{ACAD_REACTORS
330
C
102
}
330
C
100
AcDbDictionary
281
     1
  3
A0
350
9E
  3
A1
350
9F
  3
A2
350
A0
  3
A3
350
A1
  3
A4
350
A2
  3
A5
350
A3
  3
A6
350
A4
  3
A7
350
A5
  3
A8
350
A6
  3
A9
350
A7
  3
B0
350
A8
  3
B1
350
A9
  3
B2
350
AA
  3
B3
350
AB
  3
B4
350
AC
  3
B5
350
AD
  3
B6
350
AE
  0
DICTIONARY
  5
52
102
{ACAD_REACTORS
330
C
102
}
330
C
100
AcDbDictionary
281
     1
  3
Architectural Design
350
6D
  3
Blueprint
350
7A
  3
Comic Book
350
93
  3
Crayon
350
8E
  3
Drafting
350
53
  3
Evening
350
60
  3
Graphic Novel
350
89
  3
Grayscale
350
75
  3
IBL
350
68
  3
Mechanical Design
350
7F
  3
Mechanical Presentation
350
84
  3
Modeling
350
55
  3
Pop Art
350
98
  3
Sunny Day
350
57
  0
DICTIONARY
  5
C3
102
{ACAD_REACTORS
330
C
102
}
330
C
100
AcDbDictionary
281
     1
  3
Imperial24
350
C5
  0
DICTIONARY
  5
BF
102
{ACAD_REACTORS
330
C
102
}
330
C
100
AcDbDictionary
281
     1
  3
Standard
350
C0
  0
DICTIONARY
  5
29
102
{ACAD_REACTORS
330
C
102
}
330
C
100
AcDbDictionary
281
     1
  3
2dWireframe
350
32
  3
Basic
350
31
  3
Black and White
350
50
  3
Bloom
350
46
  3
Blue Tint
350
48
  3
Blurred
350
45
  3
Brighten
350
38
  3
ByBlock
350
2C
  3
ByLayer
350
2B
  3
ByViewport
350
2A
  3
ColorChange
350
3C
  3
Conceptual
350
35
  3
Crayon Edges
350
4F
  3
Cross Hatch
350
4A
  3
Desaturate
350
51
  3
Dim
350
37
  3
EdgeColorOff
350
44
  3
Facepattern
350
3B
  3
Flat
350
2D
  3
FlatWithEdges
350
2E
  3
Gouraud
350
2F
  3
GouraudWithEdges
350
30
  3
Half Tone
350
4B
  3
Hidden
350
34
  3
High Contrast
350
47
  3
JitterOff
350
42
  3
Linepattern
350
3A
  3
Marker Edges
350
4E
  3
OverhangOff
350
43
  3
Pastel
350
49
  3
Pencil Edges
350
4D
  3
Posterize
350
4C
  3
Realistic
350
36
  3
Shaded
350
41
  3
Shaded with edges
350
40
  3
Shades of Gray
350
3D
  3
Sketchy
350
3E
  3
Thicken
350
39
  3
Wireframe
350
33
  3
X-Ray
350
3F
  0
XRECORD
  5
28A
102
{ACAD_REACTORS
330
C
102
}
330
C
100
AcDbXrecord
280
     1
 90
        1
330
29
330
B2
330
C0
  0
DICTIONARY
  5
280
102
{ACAD_REACTORS
330
C
102
}
330
C
100
AcDbDictionary
281
     1
  3
CANNOSCALE
350
285
  3
CMLEADERSTYLE
350
282
  3
CTABLESTYLE
350
281
  3
CVIEWDETAILSTYLE
350
283
  3
CVIEWSECTIONSTYLE
350
284
  0
XRECORD
  5
287
102
{ACAD_REACTORS
330
286
102
}
330
286
100
AcDbXrecord
280
     1
102
SCENESTYLE
340
53
  0
SKYLIGHT_BACKGROUND
  5
5C
102
{ACAD_REACTORS
330
5B
102
}
330
5B
100
AcDbSkyBackground
340
58
  0
SKYLIGHT_BACKGROUND
  5
64
102
{ACAD_REACTORS
330
5B
102
}
330
5B
100
AcDbSkyBackground
340
61
  0
IBL_BACKGROUND
  5
69
102
{ACAD_REACTORS
330
5B
102
}
330
5B
100
AcDbImageBasedLightingBackground
300
Country Road
170
   100
171
     0
290
     1
  0
SKYLIGHT_BACKGROUND
  5
71
102
{ACAD_REACTORS
330
5B
102
}
330
5B
100
AcDbSkyBackground
340
6E
  0
SOLID_BACKGROUND
  5
76
102
{ACAD_REACTORS
330
5B
102
}
330
5B
100
AcDbSolidBackground
 90
-1023410177
  0
SOLID_BACKGROUND
  5
7B
102
{ACAD_REACTORS
330
5B
102
}
330
5B
100
AcDbSolidBackground
 90
-1040180888
  0
GRADIENT_BACKGROUND
  5
80
102
{ACAD_REACTORS
330
5B
102
}
330
5B
100
AcDbGradientBackground
 90
-1026765620
 91
-1031765888
 92
-1036831949
140
0.5
141
33.33
142
0.0
  0
GRADIENT_BACKGROUND
  5
85
102
{ACAD_REACTORS
330
5B
102
}
330
5B
100
AcDbGradientBackground
 90
-1026765620
 91
-1031765888
 92
-1036831949
140
0.5
141
33.33
142
0.0
  0
SOLID_BACKGROUND
  5
8A
102
{ACAD_REACTORS
330
5B
102
}
330
5B
100
AcDbSolidBackground
 90
-1023410177
  0
SOLID_BACKGROUND
  5
8F
102
{ACAD_REACTORS
330
5B
102
}
330
5B
100
AcDbSolidBackground
 90
-1023410177
  0
SOLID_BACKGROUND
  5
94
102
{ACAD_REACTORS
330
5B
102
}
330
5B
100
AcDbSolidBackground
 90
-1024397072
  0
SOLID_BACKGROUND
  5
99
102
{ACAD_REACTORS
330
5B
102
}
330
5B
100
AcDbSolidBackground
 90
-1024397072
  0
ACDBDETAILVIEWSTYLE
  5
C7
102
{ACAD_REACTORS
330
C6
102
}
330
C6
100
AcDbModelDocViewStyle
 70
     0
  3
Imperial24
290
     1
100
AcDbDetailViewStyle
 70
     0
 71
     0
 90
        3
 71
     1
340
B0
 62
   256
 40
0.24
340
0
 62
   256
 40
0.24
300

 40
0.36
280
     3
 71
     2
340
B8
 90
       25
 62
   256
 71
     3
340
B0
 62
   256
 40
0.24
 90
        1
 40
0.75
 90
        1
300
%<\AcVar ViewType \f "%tc1">% %<\AcVar ViewDetailId>%\PSCALE %<\AcVar ViewScale \f "%sn">%
 71
     4
340
B8
 90
       25
 62
   256
340
B8
 90
       25
 62
   256
280
     0
  0
LAYOUT
  5
CB
102
{ACAD_REACTORS
330
BD
102
}
330
BD
100
AcDbPlotSettings
  1

  2

  4

  6

 40
0.0
 41
0.0
 42
0.0
 43
0.0
 44
0.0
 45
0.0
 46
0.0
 47
0.0
 48
0.0
 49
0.0
140
0.0
141
0.0
142
1.0
143
1.0
 70
   688
 72
     0
 73
     0
 74
     5
  7

 75
    16
147
1.0
 76
     0
 77
     2
 78
   300
148
0.0
149
0.0
100
AcDbLayout
  1
Layout1
 70
     1
 71
     1
 10
0.0
 20
0.0
 11
12.0
 21
9.0
 12
0.0
 22
0.0
 32
0.0
 14
0.0
 24
0.0
 34
0.0
 15
0.0
 25
0.0
 35
0.0
146
0.0
 13
0.0
 23
0.0
 33
0.0
 16
1.0
 26
0.0
 36
0.0
 17
0.0
 27
1.0
 37
0.0
 76
     0
330
C8
  0
LAYOUT
  5
D3
102
{ACAD_REACTORS
330
BD
102
}
330
BD
100
AcDbPlotSettings
  1

  2

  4

  6

 40
0.0
 41
0.0
 42
0.0
 43
0.0
 44
0.0
 45
0.0
 46
0.0
 47
0.0
 48
0.0
 49
0.0
140
0.0
141
0.0
142
1.0
143
1.0
 70
   688
 72
     0
 73
     0
 74
     5
  7

 75
    16
147
1.0
 76
     0
 77
     2
 78
   300
148
0.0
149
0.0
100
AcDbLayout
  1
Layout2
 70
     1
 71
     2
 10
0.0
 20
0.0
 11
12.0
 21
9.0
 12
0.0
 22
0.0
 32
0.0
 14
0.0
 24
0.0
 34
0.0
 15
0.0
 25
0.0
 35
0.0
146
0.0
 13
0.0
 23
0.0
 33
0.0
 16
1.0
 26
0.0
 36
0.0
 17
0.0
 27
1.0
 37
0.0
 76
     0
330
D0
  0
LAYOUT
  5
CF
102
{ACAD_REACTORS
330
BD
102
}
330
BD
100
AcDbPlotSettings
  1

  2

  4

  6

 40
0.0
 41
0.0
 42
0.0
 43
0.0
 44
0.0
 45
0.0
 46
0.0
 47
0.0
 48
0.0
 49
0.0
140
0.0
141
0.0
142
1.0
143
1.0
 70
  1712
 72
     0
 73
     0
 74
     0
  7

 75
     0
147
1.0
 76
     0
 77
     2
 78
   300
148
0.0
149
0.0
100
AcDbLayout
  1
Model
 70
     1
 71
     0
 10
0.0
 20
0.0
 11
12.0
 21
9.0
 12
0.0
 22
0.0
 32
0.0
 14
0.0
 24
0.0
 34
0.0
 15
0.0
 25
0.0
 35
0.0
146
0.0
 13
0.0
 23
0.0
 33
0.0
 16
1.0
 26
0.0
 36
0.0
 17
0.0
 27
1.0
 37
0.0
 76
     0
330
CC
  0
MATERIAL
  5
19
102
{ACAD_XDICTIONARY
360
1A
102
}
102
{ACAD_REACTORS
330
10
102
}
330
10
100
AcDbMaterial
  1
ByBlock
 72
     0
 43
0.0208333333333333
 43
0.0
 43
0.0
 43
0.0
 43
0.0
 43
0.0208333333333333
 43
0.0
 43
0.0
 43
0.0
 43
0.0
 43
1.0
 43
0.0
 43
0.0
 43
0.0
 43
0.0
 43
1.0
 77
     0
 47
0.0208333333333333
 47
0.0
 47
0.0
 47
0.0
 47
0.0
 47
0.0208333333333333
 47
0.0
 47
0.0
 47
0.0
 47
0.0
 47
1.0
 47
0.0
 47
0.0
 47
0.0
 47
0.0
 47
1.0
171
     0
 49
0.0208333333333333
 49
0.0
 49
0.0
 49
0.0
 49
0.0
 49
0.0208333333333333
 49
0.0
 49
0.0
 49
0.0
 49
0.0
 49
1.0
 49
0.0
 49
0.0
 49
0.0
 49
0.0
 49
1.0
175
     0
142
0.0208333333333333
142
0.0
142
0.0
142
0.0
142
0.0
142
0.0208333333333333
142
0.0
142
0.0
142
0.0
142
0.0
142
1.0
142
0.0
142
0.0
142
0.0
142
0.0
142
1.0
179
     0
144
0.0208333333333333
144
0.0
144
0.0
144
0.0
144
0.0
144
0.0208333333333333
144
0.0
144
0.0
144
0.0
144
0.0
144
1.0
144
0.0
144
0.0
144
0.0
144
0.0
144
1.0
147
0.0208333333333333
147
0.0
147
0.0
147
0.0
147
0.0
147
0.0208333333333333
147
0.0
147
0.0
147
0.0
147
0.0
147
1.0
147
0.0
147
0.0
147
0.0
147
0.0
147
1.0
  0
MATERIAL
  5
11
102
{ACAD_XDICTIONARY
360
12
102
}
102
{ACAD_REACTORS
330
10
102
}
330
10
100
AcDbMaterial
  1
ByLayer
 72
     0
 43
0.0208333333333333
 43
0.0
 43
0.0
 43
0.0
 43
0.0
 43
0.0208333333333333
 43
0.0
 43
0.0
 43
0.0
 43
0.0
 43
1.0
 43
0.0
 43
0.0
 43
0.0
 43
0.0
 43
1.0
 77
     0
 47
0.0208333333333333
 47
0.0
 47
0.0
 47
0.0
 47
0.0
 47
0.0208333333333333
 47
0.0
 47
0.0
 47
0.0
 47
0.0
 47
1.0
 47
0.0
 47
0.0
 47
0.0
 47
0.0
 47
1.0
171
     0
 49
0.0208333333333333
 49
0.0
 49
0.0
 49
0.0
 49
0.0
 49
0.0208333333333333
 49
0.0
 49
0.0
 49
0.0
 49
0.0
 49
1.0
 49
0.0
 49
0.0
 49
0.0
 49
0.0
 49
1.0
175
     0
142
0.0208333333333333
142
0.0
142
0.0
142
0.0
142
0.0
142
0.0208333333333333
142
0.0
142
0.0
142
0.0
142
0.0
142
1.0
142
0.0
142
0.0
142
0.0
142
0.0
142
1.0
179
     0
144
0.0208333333333333
144
0.0
144
0.0
144
0.0
144
0.0
144
0.0208333333333333
144
0.0
144
0.0
144
0.0
144
0.0
144
1.0
144
0.0
144
0.0
144
0.0
144
0.0
144
1.0
147
0.0208333333333333
147
0.0
147
0.0
147
0.0
147
0.0
147
0.0208333333333333
147
0.0
147
0.0
147
0.0
147
0.0
147
1.0
147
0.0
147
0.0
147
0.0
147
0.0
147
1.0
  0
MATERIAL
  5
21
102
{ACAD_XDICTIONARY
360
22
102
}
102
{ACAD_REACTORS
330
10
102
}
330
10
100
AcDbMaterial
  1
Global
 72
     0
 43
0.0208333333333333
 43
0.0
 43
0.0
 43
0.0
 43
0.0
 43
0.0208333333333333
 43
0.0
 43
0.0
 43
0.0
 43
0.0
 43
1.0
 43
0.0
 43
0.0
 43
0.0
 43
0.0
 43
1.0
 77
     0
 47
0.0208333333333333
 47
0.0
 47
0.0
 47
0.0
 47
0.0
 47
0.0208333333333333
 47
0.0
 47
0.0
 47
0.0
 47
0.0
 47
1.0
 47
0.0
 47
0.0
 47
0.0
 47
0.0
 47
1.0
171
     0
 49
0.0208333333333333
 49
0.0
 49
0.0
 49
0.0
 49
0.0
 49
0.0208333333333333
 49
0.0
 49
0.0
 49
0.0
 49
0.0
 49
1.0
 49
0.0
 49
0.0
 49
0.0
 49
0.0
 49
1.0
175
     0
142
0.0208333333333333
142
0.0
142
0.0
142
0.0
142
0.0
142
0.0208333333333333
142
0.0
142
0.0
142
0.0
142
0.0
142
1.0
142
0.0
142
0.0
142
0.0
142
0.0
142
1.0
179
     0
144
0.0208333333333333
144
0.0
144
0.0
144
0.0
144
0.0
144
0.0208333333333333
144
0.0
144
0.0
144
0.0
144
0.0
144
1.0
144
0.0
144
0.0
144
0.0
144
0.0
144
1.0
147
0.0208333333333333
147
0.0
147
0.0
147
0.0
147
0.0
147
0.0208333333333333
147
0.0
147
0.0
147
0.0
147
0.0
147
1.0
147
0.0
147
0.0
147
0.0
147
0.0
147
1.0
  0
MLEADERSTYLE
  5
C2
102
{ACAD_REACTORS
330
C1
102
}
330
C1
100
AcDbMLeaderStyle
179
     2
170
     2
171
     1
172
     0
 90
        2
 40
0.0
 41
0.0
173
     1
 91
-1056964608
340
B6
 92
       -2
290
     1
 42
0.09
291
     1
 43
0.36
  3
Standard
 44
0.18
300

342
B0
174
     1
178
     6
175
     1
176
     0
 93
-1056964608
 45
0.18
292
     0
297
     0
 46
0.18
 94
-1056964608
 47
1.0
 49
1.0
140
1.0
293
     1
141
0.0
294
     1
177
     0
142
1.0
295
     1
296
     0
143
0.125
271
     0
272
     9
273
     9
298
     1
  0
MLINESTYLE
  5
BB
102
{ACAD_REACTORS
330
BA
102
}
330
BA
100
AcDbMlineStyle
  2
STANDARD
 70
     0
  3

 62
   256
 51
90.0
 52
90.0
 71
     2
 49
0.5
 62
   256
  6
BYLAYER
 49
-0.5
 62
   256
  6
BYLAYER
  0
ACDBPLACEHOLDER
  5
F
102
{ACAD_REACTORS
330
E
102
}
330
E
  0
SCALE
  5
9E
102
{ACAD_REACTORS
330
9D
102
}
330
9D
100
AcDbScale
 70
     0
300
1:1
140
1.0
141
1.0
290
     1
  0
SCALE
  5
9F
102
{ACAD_REACTORS
330
9D
102
}
330
9D
100
AcDbScale
 70
     0
300
1/128" = 1'-0"
140
0.0078125
141
12.0
290
     0
  0
SCALE
  5
A0
102
{ACAD_REACTORS
330
9D
102
}
330
9D
100
AcDbScale
 70
     0
300
1/64" = 1'-0"
140
0.015625
141
12.0
290
     0
  0
SCALE
  5
A1
102
{ACAD_REACTORS
330
9D
102
}
330
9D
100
AcDbScale
 70
     0
300
1/32" = 1'-0"
140
0.03125
141
12.0
290
     0
  0
SCALE
  5
A2
102
{ACAD_REACTORS
330
9D
102
}
330
9D
100
AcDbScale
 70
     0
300
1/16" = 1'-0"
140
0.0625
141
12.0
290
     0
  0
SCALE
  5
A3
102
{ACAD_REACTORS
330
9D
102
}
330
9D
100
AcDbScale
 70
     0
300
3/32" = 1'-0"
140
0.09375
141
12.0
290
     0
  0
SCALE
  5
A4
102
{ACAD_REACTORS
330
9D
102
}
330
9D
100
AcDbScale
 70
     0
300
1/8" = 1'-0"
140
0.125
141
12.0
290
     0
  0
SCALE
  5
A5
102
{ACAD_REACTORS
330
9D
102
}
330
9D
100
AcDbScale
 70
     0
300
3/16" = 1'-0"
140
0.1875
141
12.0
290
     0
  0
SCALE
  5
A6
102
{ACAD_REACTORS
330
9D
102
}
330
9D
100
AcDbScale
 70
     0
300
1/4" = 1'-0"
140
0.25
141
12.0
290
     0
  0
SCALE
  5
A7
102
{ACAD_REACTORS
330
9D
102
}
330
9D
100
AcDbScale
 70
     0
300
3/8" = 1'-0"
140
0.375
141
12.0
290
     0
  0
SCALE
  5
A8
102
{ACAD_REACTORS
330
9D
102
}
330
9D
100
AcDbScale
 70
     0
300
1/2" = 1'-0"
140
0.5
141
12.0
290
     0
  0
SCALE
  5
A9
102
{ACAD_REACTORS
330
9D
102
}
330
9D
100
AcDbScale
 70
     0
300
3/4" = 1'-0"
140
0.75
141
12.0
290
     0
  0
SCALE
  5
AA
102
{ACAD_REACTORS
330
9D
102
}
330
9D
100
AcDbScale
 70
     0
300
1" = 1'-0"
140
1.0
141
12.0
290
     0
  0
SCALE
  5
AB
102
{ACAD_REACTORS
330
9D
102
}
330
9D
100
AcDbScale
 70
     0
300
1-1/2" = 1'-0"
140
1.5
141
12.0
290
     0
  0
SCALE
  5
AC
102
{ACAD_REACTORS
330
9D
102
}
330
9D
100
AcDbScale
 70
     0
300
3" = 1'-0"
140
3.0
141
12.0
290
     0
  0
SCALE
  5
AD
102
{ACAD_REACTORS
330
9D
102
}
330
9D
100
AcDbScale
 70
     0
300
6" = 1'-0"
140
6.0
141
12.0
290
     0
  0
SCALE
  5
AE
102
{ACAD_REACTORS
330
9D
102
}
330
9D
100
AcDbScale
 70
     0
300
1'-0" = 1'-0"
140
12.0
141
12.0
290
     0
  0
SCENESTYLE
  5
6D
102
{ACAD_XDICTIONARY
360
72
102
}
102
{ACAD_REACTORS
330
52
102
}
330
52
100
AcDbSceneStyle
280
     0
  3
Architectural Design
 70
    11
340
71
 71
     0
290
     0
360
6E
361
74
343
3E
 72
     2
291
     0
 73
     2
292
     1
 40
9.0
 41
0.05
 42
0.8
 43
0.2
 44
7000.0
 45
1.0
170
     0
 62
   256
 62
   256
 62
   256
293
     1
 90
 33554521
 91
 33554521
 92
 33554636
  0
SCENESTYLE
  5
7A
102
{ACAD_XDICTIONARY
360
7C
102
}
102
{ACAD_REACTORS
330
52
102
}
330
52
100
AcDbSceneStyle
280
     0
  3
Blueprint
 70
     5
340
7B
 71
     0
290
     0
360
0
361
7E
343
48
 72
     0
291
     0
 73
     0
292
     1
 40
4.0
 41
0.25
 42
1.0
 43
0.2
 44
6500.0
 45
1.0
170
     0
 62
   256
 62
   256
 62
   256
293
     1
 90
 33554521
 91
 33554521
 92
 33554636
  0
SCENESTYLE
  5
93
102
{ACAD_XDICTIONARY
360
95
102
}
102
{ACAD_REACTORS
330
52
102
}
330
52
100
AcDbSceneStyle
280
     0
  3
Comic Book
 70
     5
340
94
 71
     0
290
     0
360
0
361
97
343
4C
 72
     0
291
     0
 73
     2
292
     1
 40
4.0
 41
0.25
 42
1.0
 43
0.2
 44
6500.0
 45
1.0
170
     0
 62
   256
 62
   256
 62
   256
293
     1
 90
 33554521
 91
 33554521
 92
 33554636
  0
SCENESTYLE
  5
8E
102
{ACAD_XDICTIONARY
360
90
102
}
102
{ACAD_REACTORS
330
52
102
}
330
52
100
AcDbSceneStyle
280
     0
  3
Crayon
 70
     5
340
8F
 71
     0
290
     0
360
0
361
92
343
4F
 72
     0
291
     0
 73
     2
292
     1
 40
4.0
 41
0.25
 42
1.0
 43
0.2
 44
6500.0
 45
1.0
170
     0
 62
   256
 62
   256
 62
   256
293
     1
 90
 33554521
 91
 33554521
 92
 33554636
  0
SCENESTYLE
  5
53
102
{ACAD_REACTORS
330
52
102
}
330
52
100
AcDbSceneStyle
280
     0
  3
Drafting
 70
     0
340
0
 71
     0
290
     0
360
0
361
54
343
32
 72
     0
291
     0
 73
     2
292
     1
 40
4.0
 41
0.25
 42
1.0
 43
0.2
 44
6500.0
 45
1.0
170
     0
 62
   256
 62
   256
 62
   256
293
     1
 90
 33554521
 91
 33554521
 92
 33554636
  0
SCENESTYLE
  5
60
102
{ACAD_XDICTIONARY
360
65
102
}
102
{ACAD_REACTORS
330
52
102
}
330
52
100
AcDbSceneStyle
280
     0
  3
Evening
 70
    11
340
64
 71
     0
290
     0
360
61
361
67
343
36
 72
     2
291
     1
 73
     4
292
     1
 40
9.0
 41
0.05
 42
0.8
 43
0.2
 44
7000.0
 45
1.0
170
     0
 62
   256
 62
   256
 62
   256
293
     1
 90
 33554521
 91
 33554521
 92
 33554636
  0
SCENESTYLE
  5
89
102
{ACAD_XDICTIONARY
360
8B
102
}
102
{ACAD_REACTORS
330
52
102
}
330
52
100
AcDbSceneStyle
280
     0
  3
Graphic Novel
 70
     5
340
8A
 71
     0
290
     0
360
0
361
8D
343
50
 72
     0
291
     0
 73
     2
292
     1
 40
4.0
 41
0.25
 42
1.0
 43
0.2
 44
6500.0
 45
1.0
170
     0
 62
   256
 62
   256
 62
   256
293
     1
 90
 33554521
 91
 33554521
 92
 33554636
  0
SCENESTYLE
  5
75
102
{ACAD_XDICTIONARY
360
77
102
}
102
{ACAD_REACTORS
330
52
102
}
330
52
100
AcDbSceneStyle
280
     0
  3
Grayscale
 70
     5
340
76
 71
     0
290
     0
360
0
361
79
343
3D
 72
     0
291
     0
 73
     0
292
     1
 40
4.0
 41
0.25
 42
1.0
 43
0.2
 44
6500.0
 45
1.0
170
     0
 62
   256
 62
   256
 62
   256
293
     1
 90
 33554521
 91
 33554521
 92
 33554636
  0
SCENESTYLE
  5
68
102
{ACAD_XDICTIONARY
360
6A
102
}
102
{ACAD_REACTORS
330
52
102
}
330
52
100
AcDbSceneStyle
280
     0
  3
IBL
 70
    12
340
69
 71
     0
290
     0
360
0
361
6C
343
36
 72
     2
291
     1
 73
     2
292
     1
 40
4.0
 41
0.25
 42
1.0
 43
0.2
 44
6500.0
 45
1.0
170
     0
 62
   256
 62
   256
 62
   256
293
     1
 90
 33554521
 91
 33554521
 92
 33554636
  0
SCENESTYLE
  5
7F
102
{ACAD_XDICTIONARY
360
81
102
}
102
{ACAD_REACTORS
330
52
102
}
330
52
100
AcDbSceneStyle
280
     0
  3
Mechanical Design
 70
     6
340
80
 71
     0
290
     0
360
0
361
83
343
40
 72
     1
291
     1
 73
     2
292
     1
 40
4.0
 41
0.25
 42
1.0
 43
0.2
 44
6500.0
 45
1.0
170
     0
 62
   256
 62
   256
 62
   256
293
     1
 90
 33554521
 91
 33554521
 92
 33554636
  0
SCENESTYLE
  5
84
102
{ACAD_XDICTIONARY
360
86
102
}
102
{ACAD_REACTORS
330
52
102
}
330
52
100
AcDbSceneStyle
280
     0
  3
Mechanical Presentation
 70
     6
340
85
 71
     0
290
     0
360
0
361
88
343
36
 72
     0
291
     1
 73
     2
292
     1
 40
4.0
 41
0.25
 42
1.0
 43
0.2
 44
6500.0
 45
1.0
170
     0
 62
   256
 62
   256
 62
   256
293
     1
 90
 33554521
 91
 33554521
 92
 33554636
  0
SCENESTYLE
  5
55
102
{ACAD_REACTORS
330
52
102
}
330
52
100
AcDbSceneStyle
280
     0
  3
Modeling
 70
     0
340
0
 71
     0
290
     0
360
0
361
56
343
36
 72
     0
291
     0
 73
     2
292
     1
 40
4.0
 41
0.25
 42
1.0
 43
0.2
 44
6500.0
 45
1.0
170
     0
 62
   256
 62
   256
 62
   256
293
     1
 90
 33554521
 91
 33554521
 92
 33554636
  0
SCENESTYLE
  5
98
102
{ACAD_XDICTIONARY
360
9A
102
}
102
{ACAD_REACTORS
330
52
102
}
330
52
100
AcDbSceneStyle
280
     0
  3
Pop Art
 70
     5
340
99
 71
     0
290
     0
360
0
361
9C
343
4B
 72
     0
291
     0
 73
     2
292
     1
 40
4.0
 41
0.25
 42
1.0
 43
0.2
 44
6500.0
 45
1.0
170
     0
 62
   256
 62
   256
 62
   256
293
     1
 90
 33554521
 91
 33554521
 92
 33554636
  0
SCENESTYLE
  5
57
102
{ACAD_XDICTIONARY
360
5D
102
}
102
{ACAD_REACTORS
330
52
102
}
330
52
100
AcDbSceneStyle
280
     0
  3
Sunny Day
 70
    11
340
5C
 71
     0
290
     0
360
58
361
5F
343
36
 72
     2
291
     1
 73
     2
292
     1
 40
9.0
 41
0.05
 42
0.8
 43
0.2
 44
7000.0
 45
1.0
170
     0
 62
   256
 62
   256
 62
   256
293
     1
 90
 33554521
 91
 33554521
 92
 33554636
  0
ACDBSECTIONVIEWSTYLE
  5
C5
102
{ACAD_REACTORS
330
C3
102
}
330
C3
100
AcDbModelDocViewStyle
 70
     0
  3
Imperial24
290
     1
100
AcDbSectionViewStyle
 70
     0
 71
     0
 90
       78
 71
     1
340
B0
 62
   256
 40
0.24
340
0
340
0
 62
   256
 40
0.24
300
I, O, Q, S, X, Z
 40
0.48
 90
        3
 40
0.18
 90
        1
 71
     2
340
C4
 90
       25
 62
   256
340
B8
 90
       50
 62
   256
 40
0.24
 40
0.0
 40
0.24
 71
     3
340
B0
 62
   256
 40
0.24
 90
        1
 40
0.75
 90
        1
300
%<\AcVar ViewType \f "%tc1">% %<\AcVar ViewSectionStartId>%-%<\AcVar ViewSectionEndId>%\PSCALE %<\AcVar ViewScale \f "%sn">%
 71
     4
 62
   256
 62
   257
300
ANSI31
 40
1.0
 90
        0
290
     0
290
     0
 90
        6
 40
0.0
 40
1.570796326794896
 40
0.2617993877991494
 40
1.308996938995747
 40
-0.2617993877991494
 40
1.832595714594046
  0
TABLESTYLE
  5
C0
102
{ACAD_XDICTIONARY
360
288
102
}
102
{ACAD_REACTORS
330
BF
102
}
330
BF
100
AcDbTableStyle
280
     0
  3
Standard
 70
     0
 71
     0
 40
0.06
 41
0.06
280
     0
281
     0
  7
Standard
140
0.18
170
     2
 62
     0
 63
     7
283
     0
 90
      512
 91
        0
  1

274
    -2
284
     1
 64
     0
275
    -2
285
     1
 65
     0
276
    -2
286
     1
 66
     0
277
    -2
287
     1
 67
     0
278
    -2
288
     1
 68
     0
279
    -2
289
     1
 69
     0
  7
Standard
140
0.25
170
     5
 62
     0
 63
     7
283
     0
 90
      512
 91
        0
  1

274
    -2
284
     1
 64
     0
275
    -2
285
     1
 65
     0
276
    -2
286
     1
 66
     0
277
    -2
287
     1
 67
     0
278
    -2
288
     1
 68
     0
279
    -2
289
     1
 69
     0
  7
Standard
140
0.18
170
     5
 62
     0
 63
     7
283
     0
 90
      512
 91
        0
  1

274
    -2
284
     1
 64
     0
275
    -2
285
     1
 65
     0
276
    -2
286
     1
 66
     0
277
    -2
287
     1
 67
     0
278
    -2
288
     1
 68
     0
279
    -2
289
     1
 69
     0
  0
VISUALSTYLE
  5
32
102
{ACAD_REACTORS
330
29
102
}
330
29
100
AcDbVisualStyle
  2
2dWireframe
 70
     4
177
     3
291
     0
 70
    58
 90
        0
176
     1
 90
        3
176
     1
 90
        0
176
     1
 90
        2
176
     1
 40
0.6
176
     1
 40
30.0
176
     1
 62
     7
420
 16777215
176
     1
 90
        2
176
     1
 90
        4
176
     1
 62
     7
176
     1
 62
   257
176
     1
 90
        1
176
     1
 90
        1
176
     1
 40
1.0
176
     1
 90
        0
176
     1
 62
   257
176
     1
 40
0.3
176
     1
 90
        1
176
     1
 90
        6
176
     1
 90
        2
176
     1
 62
     7
176
     1
 90
        2
176
     1
 90
        0
176
     1
 90
        0
176
     1
290
     0
176
     1
 90
        1
176
     1
 40
0.0
176
     1
 90
        0
176
     1
290
     1
176
     1
290
     1
176
     1
290
     0
176
     1
290
     0
176
     1
290
     0
176
     1
290
     0
176
     1
290
     0
176
     1
290
     0
176
     1
290
     0
176
     1
 90
       50
176
     1
 40
0.0
176
     1
 40
1.0
176
     1
 90
        0
176
     1
 62
    18
420
        0
176
     1
 90
       50
176
     1
 90
        3
176
     1
 62
     5
420
      255
176
     1
290
     0
176
     1
 90
       50
176
     1
 90
       50
176
     1
 90
       50
176
     1
290
     0
176
     1
 90
       50
176
     1
 62
   256
176
     0
 40
1.0
176
     0
 90
        2
176
     1
  1
pencil.tif
176
     1
290
     0
176
     1
 40
1.0
176
     1
 40
1.0
176
     1
  0
VISUALSTYLE
  5
31
102
{ACAD_REACTORS
330
29
102
}
330
29
100
AcDbVisualStyle
  2
Basic
 70
     7
177
     3
291
     1
 70
    58
 90
        1
176
     1
 90
        0
176
     1
 90
        1
176
     1
 90
        0
176
     1
 40
0.6
176
     1
 40
30.0
176
     1
 62
     7
420
 16777215
176
     1
 90
        0
176
     1
 90
        4
176
     1
 62
     7
176
     1
 62
   257
176
     1
 90
        1
176
     1
 90
        1
176
     1
 40
1.0
176
     1
 90
        8
176
     1
 62
   257
176
     1
 40
0.3
176
     1
 90
        1
176
     1
 90
        6
176
     1
 90
        2
176
     1
 62
     7
176
     1
 90
        5
176
     1
 90
        0
176
     1
 90
        0
176
     1
290
     0
176
     1
 90
        1
176
     1
 40
0.0
176
     1
 90
        0
176
     1
290
     0
176
     1
290
     1
176
     1
290
     1
176
     1
290
     0
176
     1
290
     0
176
     1
290
     0
176
     1
290
     0
176
     1
290
     0
176
     1
290
     0
176
     1
 90
       50
176
     1
 40
0.0
176
     1
 40
1.0
176
     1
 90
        0
176
     1
 62
    18
420
        0
176
     1
 90
       50
176
     1
 90
        3
176
     1
 62
     5
420
      255
176
     1
290
     0
176
     1
 90
       50
176
     1
 90
       50
176
     1
 90
       50
176
     1
290
     0
176
     1
 90
       50
176
     1
 62
   256
176
     0
 40
1.0
176
     0
 90
        2
176
     1
  1
pencil.tif
176
     1
290
     0
176
     1
 40
1.0
176
     1
 40
1.0
176
     1
  0
VISUALSTYLE
  5
50
102
{ACAD_REACTORS
330
29
102
}
330
29
100
AcDbVisualStyle
  2
Black and White
 70
    43
177
     3
291
     0
 70
    58
 90
        2
176
     1
 90
        3
176
     1
 90
        3
176
     1
 90
        2
176
     1
 40
0.6
176
     1
 40
30.0
176
     1
 62
     7
420
 16777215
176
     1
 90
        2
176
     1
 90
        2
176
     1
 62
     7
176
     1
 62
     7
176
     1
 90
        1
176
     1
 90
        1
176
     1
 40
40.0
176
     1
 90
        8
176
     1
 62
    18
420
        0
176
     1
 40
0.3
176
     1
 90
        1
176
     1
 90
        6
176
     1
 90
        2
176
     1
 62
     7
176
     1
 90
        2
176
     1
 90
        0
176
     1
 90
        0
176
     1
290
     0
176
     1
 90
        1
176
     1
 40
0.0
176
     1
 90
        0
176
     1
290
     0
176
     1
290
     1
176
     1
290
     1
176
     1
290
     1
176
     1
290
     1
176
     1
290
     0
176
     1
290
     0
176
     1
290
     0
176
     1
290
     0
176
     1
 90
       50
176
     1
 40
0.0
176
     1
 40
1.0
176
     1
 90
        0
176
     1
 62
    18
420
        0
176
     1
 90
       50
176
     1
 90
        3
176
     1
 62
     5
420
      255
176
     1
290
     1
176
     1
 90
       97
176
     1
 90
       50
176
     1
 90
       10
176
     1
290
     0
176
     1
 90
       50
176
     1
 62
   256
176
     0
 40
1.0
176
     0
 90
        2
176
     1
  1
pencil.tif
176
     1
290
     0
176
     1
 40
1.0
176
     1
 40
1.0
176
     1
  0
VISUALSTYLE
  5
46
102
{ACAD_REACTORS
330
29
102
}
330
29
100
AcDbVisualStyle
  2
Bloom
 70
    34
177
     3
291
     0
 70
    58
 90
        2
176
     1
 90
        3
176
     1
 90
        0
176
     1
 90
        2
176
     1
 40
0.6
176
     1
 40
30.0
176
     1
 62
     7
420
 16777215
176
     1
 90
        2
176
     1
 90
        2
176
     1
 62
     7
176
     1
 62
   257
176
     1
 90
        1
176
     1
 90
        1
176
     1
 40
40.0
176
     1
 90
      136
176
     1
 62
   257
176
     1
 40
0.3
176
     1
 90
        1
176
     1
 90
        6
176
     1
 90
        2
176
     1
 62
     7
176
     1
 90
        2
176
     1
 90
        0
176
     1
 90
        0
176
     1
290
     0
176
     1
 90
       13
176
     1
 40
0.0
176
     1
 90
        0
176
     1
290
     0
176
     1
290
     1
176
     1
290
     1
176
     1
290
     0
176
     1
290
     0
176
     1
290
     0
176
     1
290
     0
176
     1
290
     1
176
     1
290
     0
176
     1
 90
       50
176
     1
 40
0.0
176
     1
 40
1.0
176
     1
 90
        0
176
     1
 62
    18
420
        0
176
     1
 90
       50
176
     1
 90
        3
176
     1
 62
     5
420
      255
176
     1
290
     0
176
     1
 90
       50
176
     1
 90
       50
176
     1
 90
       50
176
     1
290
     0
176
     1
 90
       50
176
     1
 62
   256
176
     0
 40
1.0
176
     0
 90
        2
176
     1
  1
pencil.tif
176
     1
290
     0
176
     1
 40
1.0
176
     1
 40
1.0
176
     1
  0
VISUALSTYLE
  5
48
102
{ACAD_REACTORS
330
29
102
}
330
29
100
AcDbVisualStyle
  2
Blue Tint
 70
    35
177
     3
291
     0
 70
    58
 90
        1
176
     1
 90
        3
176
     1
 90
        2
176
     1
 90
        0
176
     1
 40
0.6
176
     1
 40
30.0
176
     1
 62
     7
420
 16777215
176
     1
 90
        2
176
     1
 90
        2
176
     1
 62
     7
176
     1
 62
     7
176
     1
 90
        1
176
     1
 90
        1
176
     1
 40
40.0
176
     1
 90
        9
176
     1
 62
     7
176
     1
 40
0.3
176
     1
 90
        1
176
     1
 90
        2
176
     1
 90
        2
176
     1
 62
     7
176
     1
 90
        3
176
     1
 90
        0
176
     1
 90
        0
176
     1
290
     0
176
     1
 90
        1
176
     1
 40
0.0
176
     1
 90
        0
176
     1
290
     0
176
     1
290
     1
176
     1
290
     1
176
     1
290
     0
176
     1
290
     0
176
     1
290
     0
176
     1
290
     1
176
     1
290
     0
176
     1
290
     0
176
     1
 90
       50
176
     1
 40
0.0
176
     1
 40
1.0
176
     1
 90
        0
176
     1
 62
     7
420
 15132415
176
     1
 90
       50
176
     1
 90
        3
176
     1
 62
     7
420
 15132415
176
     1
290
     0
176
     1
 90
       50
176
     1
 90
       50
176
     1
 90
       50
176
     1
290
     1
176
     1
 90
       50
176
     1
 62
   256
176
     0
 40
1.0
176
     0
 90
        2
176
     1
  1
pencil.tif
176
     1
290
     0
176
     1
 40
1.0
176
     1
 40
1.0
176
     1
  0
VISUALSTYLE
  5
45
102
{ACAD_REACTORS
330
29
102
}
330
29
100
AcDbVisualStyle
  2
Blurred
 70
    32
177
     3
291
     0
 70
    58
 90
        2
176
     1
 90
        3
176
     1
 90
        0
176
     1
 90
        2
176
     1
 40
0.6
176
     1
 40
30.0
176
     1
 62
     7
420
 16777215
176
     1
 90
        2
176
     1
 90
        2
176
     1
 62
     7
176
     1
 62
   257
176
     1
 90
        1
176
     1
 90
        1
176
     1
 40
40.0
176
     1
 90
        8
176
     1
 62
   257
176
     1
 40
0.3
176
     1
 90
        1
176
     1
 90
        6
176
     1
 90
        2
176
     1
 62
     7
176
     1
 90
        2
176
     1
 90
        0
176
     1
 90
        0
176
     1
290
     0
176
     1
 90
       13
176
     1
 40
0.0
176
     1
 90
        0
176
     1
290
     0
176
     1
290
     1
176
     1
290
     1
176
     1
290
     0
176
     1
290
     0
176
     1
290
     1
176
     1
290
     0
176
     1
290
     0
176
     1
290
     0
176
     1
 90
       50
176
     1
 40
0.0
176
     1
 40
1.0
176
     1
 90
        0
176
     1
 62
    18
420
        0
176
     1
 90
       50
176
     1
 90
        3
176
     1
 62
     5
420
      255
176
     1
290
     0
176
     1
 90
       50
176
     1
 90
       50
176
     1
 90
       50
176
     1
290
     0
176
     1
 90
       50
176
     1
 62
   256
176
     0
 40
1.0
176
     0
 90
        2
176
     1
  1
pencil.tif
176
     1
290
     0
176
     1
 40
1.0
176
     1
 40
1.0
176
     1
  0
VISUALSTYLE
  5
38
102
{ACAD_REACTORS
330
29
102
}
330
29
100
AcDbVisualStyle
  2
Brighten
 70
    12
177
     3
291
     1
 70
    58
 90
        2
176
     1
 90
        3
176
     1
 90
        0
176
     1
 90
        0
176
     1
 40
0.6
176
     1
 40
30.0
176
     1
 62
     7
420
 16777215
176
     1
 90
        0
176
     1
 90
        4
176
     1
 62
     7
176
     1
 62
   257
176
     1
 90
        1
176
     1
 90
        1
176
     1
 40
1.0
176
     1
 90
        8
176
     1
 62
   257
176
     1
 40
0.3
176
     1
 90
        1
176
     1
 90
        6
176
     1
 90
        2
176
     1
 62
     7
176
     1
 90
        5
176
     1
 90
        0
176
     1
 90
        0
176
     1
290
     0
176
     1
 90
        1
176
     1
 40
50.0
176
     1
 90
        0
176
     1
290
     0
176
     1
290
     1
176
     1
290
     1
176
     1
290
     0
176
     1
290
     0
176
     1
290
     0
176
     1
290
     0
176
     1
290
     0
176
     1
290
     0
176
     1
 90
       50
176
     1
 40
0.0
176
     1
 40
1.0
176
     1
 90
        0
176
     1
 62
    18
420
        0
176
     1
 90
       50
176
     1
 90
        3
176
     1
 62
     5
420
      255
176
     1
290
     0
176
     1
 90
       50
176
     1
 90
       50
176
     1
 90
       50
176
     1
290
     0
176
     1
 90
       50
176
     1
 62
   256
176
     0
 40
1.0
176
     0
 90
        2
176
     1
  1
pencil.tif
176
     1
290
     0
176
     1
 40
1.0
176
     1
 40
1.0
176
     1
  0
VISUALSTYLE
  5
2C
102
{ACAD_REACTORS
330
29
102
}
330
29
100
AcDbVisualStyle
  2
ByBlock
 70
    30
177
     3
291
     0
 70
    58
 90
        2
176
     1
 90
        3
176
     1
 90
        0
176
     1
 90
        2
176
     1
 40
0.6
176
     1
 40
30.0
176
     1
 62
     7
420
 16777215
176
     1
 90
        0
176
     1
 90
        0
176
     1
 62
     7
176
     1
 62
   257
176
     1
 90
        1
176
     1
 90
        1
176
     1
 40
40.0
176
     1
 90
        8
176
     1
 62
   257
176
     1
 40
0.3
176
     1
 90
        1
176
     1
 90
        6
176
     1
 90
        2
176
     1
 62
     7
176
     1
 90
        2
176
     1
 90
        0
176
     1
 90
        0
176
     1
290
     0
176
     1
 90
       13
176
     1
 40
0.0
176
     1
 90
        0
176
     1
290
     0
176
     1
290
     1
176
     1
290
     1
176
     1
290
     0
176
     1
290
     0
176
     1
290
     0
176
     1
290
     0
176
     1
290
     0
176
     1
290
     0
176
     1
 90
       50
176
     1
 40
0.0
176
     1
 40
1.0
176
     1
 90
        0
176
     1
 62
    18
420
        0
176
     1
 90
       50
176
     1
 90
        3
176
     1
 62
     5
420
      255
176
     1
290
     0
176
     1
 90
       50
176
     1
 90
       50
176
     1
 90
       50
176
     1
290
     0
176
     1
 90
       50
176
     1
 62
   256
176
     0
 40
1.0
176
     0
 90
        2
176
     1
  1
pencil.tif
176
     1
290
     0
176
     1
 40
1.0
176
     1
 40
1.0
176
     1
  0
VISUALSTYLE
  5
2B
102
{ACAD_REACTORS
330
29
102
}
330
29
100
AcDbVisualStyle
  2
ByLayer
 70
    29
177
     3
291
     0
 70
    58
 90
        2
176
     1
 90
        3
176
     1
 90
        0
176
     1
 90
        2
176
     1
 40
0.6
176
     1
 40
30.0
176
     1
 62
     7
420
 16777215
176
     1
 90
        0
176
     1
 90
        0
176
     1
 62
     7
176
     1
 62
   257
176
     1
 90
        1
176
     1
 90
        1
176
     1
 40
40.0
176
     1
 90
        8
176
     1
 62
   257
176
     1
 40
0.3
176
     1
 90
        1
176
     1
 90
        6
176
     1
 90
        2
176
     1
 62
     7
176
     1
 90
        2
176
     1
 90
        0
176
     1
 90
        0
176
     1
290
     0
176
     1
 90
       13
176
     1
 40
0.0
176
     1
 90
        0
176
     1
290
     0
176
     1
290
     1
176
     1
290
     1
176
     1
290
     0
176
     1
290
     0
176
     1
290
     0
176
     1
290
     0
176
     1
290
     0
176
     1
290
     0
176
     1
 90
       50
176
     1
 40
0.0
176
     1
 40
1.0
176
     1
 90
        0
176
     1
 62
    18
420
        0
176
     1
 90
       50
176
     1
 90
        3
176
     1
 62
     5
420
      255
176
     1
290
     0
176
     1
 90
       50
176
     1
 90
       50
176
     1
 90
       50
176
     1
290
     0
176
     1
 90
       50
176
     1
 62
   256
176
     0
 40
1.0
176
     0
 90
        2
176
     1
  1
pencil.tif
176
     1
290
     0
176
     1
 40
1.0
176
     1
 40
1.0
176
     1
  0
VISUALSTYLE
  5
2A
102
{ACAD_REACTORS
330
29
102
}
330
29
100
AcDbVisualStyle
  2
ByViewport
 70
    28
177
     3
291
     0
 70
    58
 90
        2
176
     1
 90
        3
176
     1
 90
        0
176
     1
 90
        2
176
     1
 40
0.6
176
     1
 40
30.0
176
     1
 62
     7
420
 16777215
176
     1
 90
        0
176
     1
 90
        0
176
     1
 62
     7
176
     1
 62
   257
176
     1
 90
        1
176
     1
 90
        1
176
     1
 40
40.0
176
     1
 90
        8
176
     1
 62
   257
176
     1
 40
0.3
176
     1
 90
        1
176
     1
 90
        6
176
     1
 90
        2
176
     1
 62
     7
176
     1
 90
        2
176
     1
 90
        0
176
     1
 90
        0
176
     1
290
     0
176
     1
 90
       13
176
     1
 40
0.0
176
     1
 90
        0
176
     1
290
     0
176
     1
290
     1
176
     1
290
     1
176
     1
290
     0
176
     1
290
     0
176
     1
290
     0
176
     1
290
     0
176
     1
290
     0
176
     1
290
     0
176
     1
 90
       50
176
     1
 40
0.0
176
     1
 40
1.0
176
     1
 90
        0
176
     1
 62
    18
420
        0
176
     1
 90
       50
176
     1
 90
        3
176
     1
 62
     5
420
      255
176
     1
290
     0
176
     1
 90
       50
176
     1
 90
       50
176
     1
 90
       50
176
     1
290
     0
176
     1
 90
       50
176
     1
 62
   256
176
     0
 40
1.0
176
     0
 90
        2
176
     1
  1
pencil.tif
176
     1
290
     0
176
     1
 40
1.0
176
     1
 40
1.0
176
     1
  0
VISUALSTYLE
  5
3C
102
{ACAD_REACTORS
330
29
102
}
330
29
100
AcDbVisualStyle
  2
ColorChange
 70
    16
177
     3
291
     1
 70
    58
 90
        2
176
     1
 90
        3
176
     1
 90
        3
176
     1
 90
        0
176
     1
 40
0.6
176
     1
 40
30.0
176
     1
 62
     8
420
  8421504
176
     1
 90
        0
176
     1
 90
        4
176
     1
 62
     7
176
     1
 62
   257
176
     1
 90
        1
176
     1
 90
        1
176
     1
 40
1.0
176
     1
 90
        8
176
     1
 62
     8
420
  8421504
176
     1
 40
0.3
176
     1
 90
        1
176
     1
 90
        6
176
     1
 90
        2
176
     1
 62
     7
176
     1
 90
        5
176
     1
 90
        0
176
     1
 90
        0
176
     1
290
     0
176
     1
 90
        1
176
     1
 40
0.0
176
     1
 90
        0
176
     1
290
     0
176
     1
290
     1
176
     1
290
     1
176
     1
290
     0
176
     1
290
     0
176
     1
290
     0
176
     1
290
     0
176
     1
290
     0
176
     1
290
     0
176
     1
 90
       50
176
     1
 40
0.0
176
     1
 40
1.0
176
     1
 90
        0
176
     1
 62
    18
420
        0
176
     1
 90
       50
176
     1
 90
        3
176
     1
 62
     5
420
      255
176
     1
290
     0
176
     1
 90
       50
176
     1
 90
       50
176
     1
 90
       50
176
     1
290
     0
176
     1
 90
       50
176
     1
 62
   256
176
     0
 40
1.0
176
     0
 90
        2
176
     1
  1
pencil.tif
176
     1
290
     0
176
     1
 40
1.0
176
     1
 40
1.0
176
     1
  0
VISUALSTYLE
  5
35
102
{ACAD_REACTORS
330
29
102
}
330
29
100
AcDbVisualStyle
  2
Conceptual
 70
     9
177
     3
291
     0
 70
    58
 90
        3
176
     1
 90
        3
176
     1
 90
        0
176
     1
 90
        0
176
     1
 40
0.6
176
     1
 40
30.0
176
     1
 62
     7
420
 16777215
176
     1
 90
        2
176
     1
 90
        2
176
     1
 62
     7
176
     1
 62
   257
176
     1
 90
        1
176
     1
 90
        1
176
     1
 40
40.0
176
     1
 90
        8
176
     1
 62
    18
420
        0
176
     1
 40
0.3
176
     1
 90
        1
176
     1
 90
        6
176
     1
 90
        2
176
     1
 62
     7
176
     1
 90
        2
176
     1
 90
        0
176
     1
 90
        0
176
     1
290
     0
176
     1
 90
        1
176
     1
 40
0.0
176
     1
 90
        0
176
     1
290
     0
176
     1
290
     1
176
     1
290
     1
176
     1
290
     0
176
     1
290
     0
176
     1
290
     0
176
     1
290
     0
176
     1
290
     0
176
     1
290
     0
176
     1
 90
       50
176
     1
 40
0.0
176
     1
 40
1.0
176
     1
 90
        0
176
     1
 62
    18
420
        0
176
     1
 90
       50
176
     1
 90
        3
176
     1
 62
     5
420
      255
176
     1
290
     0
176
     1
 90
       50
176
     1
 90
       50
176
     1
 90
       50
176
     1
290
     0
176
     1
 90
       50
176
     1
 62
   256
176
     0
 40
1.0
176
     0
 90
        2
176
     1
  1
pencil.tif
176
     1
290
     0
176
     1
 40
1.0
176
     1
 40
1.0
176
     1
  0
VISUALSTYLE
  5
4F
102
{ACAD_REACTORS
330
29
102
}
330
29
100
AcDbVisualStyle
  2
Crayon Edges
 70
    42
177
     3
291
     0
 70
    58
 90
        1
176
     1
 90
        3
176
     1
 90
        2
176
     1
 90
        0
176
     1
 40
0.6
176
     1
 40
30.0
176
     1
 62
     7
420
 16777215
176
     1
 90
        2
176
     1
 90
        2
176
     1
 62
     7
176
     1
 62
   257
176
     1
 90
        1
176
     1
 90
        1
176
     1
 40
40.0
176
     1
 90
      520
176
     1
 62
    18
420
        0
176
     1
 40
0.3
176
     1
 90
        1
176
     1
 90
        6
176
     1
 90
        2
176
     1
 62
     7
176
     1
 90
        2
176
     1
 90
        0
176
     1
 90
        0
176
     1
290
     0
176
     1
 90
        1
176
     1
 40
0.0
176
     1
 90
        0
176
     1
290
     0
176
     1
290
     1
176
     1
290
     1
176
     1
290
     0
176
     1
290
     0
176
     1
290
     0
176
     1
290
     0
176
     1
290
     0
176
     1
290
     1
176
     1
 90
       50
176
     1
 40
0.0
176
     1
 40
1.0
176
     1
 90
        0
176
     1
 62
    18
420
        0
176
     1
 90
       50
176
     1
 90
        3
176
     1
 62
     5
420
      255
176
     1
290
     0
176
     1
 90
       50
176
     1
 90
       50
176
     1
 90
       50
176
     1
290
     0
176
     1
 90
       50
176
     1
 62
   256
176
     0
 40
1.0
176
     0
 90
        2
176
     1
  1
crayon.tif
176
     1
290
     0
176
     1
 40
1.0
176
     1
 40
1.0
176
     1
  0
VISUALSTYLE
  5
4A
102
{ACAD_REACTORS
330
29
102
}
330
29
100
AcDbVisualStyle
  2
Cross Hatch
 70
    37
177
     3
291
     0
 70
    58
 90
        2
176
     1
 90
        3
176
     1
 90
        1
176
     1
 90
        2
176
     1
 40
0.6
176
     1
 40
30.0
176
     1
 62
     7
420
 16777215
176
     1
 90
        2
176
     1
 90
        2
176
     1
 62
     7
176
     1
 62
   257
176
     1
 90
        1
176
     1
 90
        1
176
     1
 40
40.0
176
     1
 90
        8
176
     1
 62
   257
176
     1
 40
0.3
176
     1
 90
        1
176
     1
 90
        6
176
     1
 90
        2
176
     1
 62
     8
420
  7895160
176
     1
 90
        2
176
     1
 90
        0
176
     1
 90
        0
176
     1
290
     0
176
     1
 90
        5
176
     1
 40
0.0
176
     1
 90
        0
176
     1
290
     0
176
     1
290
     1
176
     1
290
     1
176
     1
290
     0
176
     1
290
     0
176
     1
290
     0
176
     1
290
     1
176
     1
290
     0
176
     1
290
     0
176
     1
 90
       50
176
     1
 40
0.0
176
     1
 40
1.0
176
     1
 90
        1
176
     1
 62
    18
420
        0
176
     1
 90
       50
176
     1
 90
        3
176
     1
 62
     5
420
      255
176
     1
290
     0
176
     1
 90
       50
176
     1
 90
       50
176
     1
 90
       50
176
     1
290
     0
176
     1
 90
       50
176
     1
 62
   256
176
     0
 40
1.0
176
     0
 90
        2
176
     1
  1
pencil.tif
176
     1
290
     0
176
     1
 40
1.0
176
     1
 40
1.0
176
     1
  0
VISUALSTYLE
  5
51
102
{ACAD_REACTORS
330
29
102
}
330
29
100
AcDbVisualStyle
  2
Desaturate
 70
    44
177
     3
291
     0
 70
    58
 90
        2
176
     1
 90
        3
176
     1
 90
        5
176
     1
 90
        2
176
     1
 40
0.6
176
     1
 40
30.0
176
     1
 62
     7
420
 16777215
176
     1
 90
        0
176
     1
 90
        0
176
     1
 62
     7
176
     1
 62
   257
176
     1
 90
        1
176
     1
 90
        1
176
     1
 40
40.0
176
     1
 90
        8
176
     1
 62
   257
176
     1
 40
0.3
176
     1
 90
        1
176
     1
 90
        6
176
     1
 90
        2
176
     1
 62
     7
176
     1
 90
        5
176
     1
 90
        0
176
     1
 90
        0
176
     1
290
     0
176
     1
 90
       13
176
     1
 40
0.0
176
     1
 90
        0
176
     1
290
     0
176
     1
290
     1
176
     1
290
     1
176
     1
290
     0
176
     1
290
     0
176
     1
290
     0
176
     1
290
     0
176
     1
290
     0
176
     1
290
     0
176
     1
 90
       50
176
     1
 40
0.0
176
     1
 40
1.0
176
     1
 90
        0
176
     1
 62
    18
420
        0
176
     1
 90
       50
176
     1
 90
        3
176
     1
 62
     5
420
      255
176
     1
290
     0
176
     1
 90
       50
176
     1
 90
       50
176
     1
 90
       50
176
     1
290
     0
176
     1
 90
       50
176
     1
 62
   256
176
     0
 40
1.0
176
     0
 90
        2
176
     1
  1
pencil.tif
176
     1
290
     0
176
     1
 40
1.0
176
     1
 40
1.0
176
     1
  0
VISUALSTYLE
  5
37
102
{ACAD_REACTORS
330
29
102
}
330
29
100
AcDbVisualStyle
  2
Dim
 70
    11
177
     3
291
     1
 70
    58
 90
        2
176
     1
 90
        3
176
     1
 90
        0
176
     1
 90
        0
176
     1
 40
0.6
176
     1
 40
30.0
176
     1
 62
     7
420
 16777215
176
     1
 90
        0
176
     1
 90
        4
176
     1
 62
     7
176
     1
 62
   257
176
     1
 90
        1
176
     1
 90
        1
176
     1
 40
1.0
176
     1
 90
        8
176
     1
 62
   257
176
     1
 40
0.3
176
     1
 90
        1
176
     1
 90
        6
176
     1
 90
        2
176
     1
 62
     7
176
     1
 90
        5
176
     1
 90
        0
176
     1
 90
        0
176
     1
290
     0
176
     1
 90
        1
176
     1
 40
-50.0
176
     1
 90
        0
176
     1
290
     0
176
     1
290
     1
176
     1
290
     1
176
     1
290
     0
176
     1
290
     0
176
     1
290
     0
176
     1
290
     0
176
     1
290
     0
176
     1
290
     0
176
     1
 90
       50
176
     1
 40
0.0
176
     1
 40
1.0
176
     1
 90
        0
176
     1
 62
    18
420
        0
176
     1
 90
       50
176
     1
 90
        3
176
     1
 62
     5
420
      255
176
     1
290
     0
176
     1
 90
       50
176
     1
 90
       50
176
     1
 90
       50
176
     1
290
     0
176
     1
 90
       50
176
     1
 62
   256
176
     0
 40
1.0
176
     0
 90
        2
176
     1
  1
pencil.tif
176
     1
290
     0
176
     1
 40
1.0
176
     1
 40
1.0
176
     1
  0
VISUALSTYLE
  5
44
102
{ACAD_REACTORS
330
29
102
}
330
29
100
AcDbVisualStyle
  2
EdgeColorOff
 70
    22
177
     3
291
     1
 70
    58
 90
        2
176
     0
 90
        3
176
     0
 90
        0
176
     0
 90
        0
176
     0
 40
0.6
176
     0
 40
30.0
176
     0
 62
     7
420
 16777215
176
     0
 90
        0
176
     0
 90
        4
176
     0
 62
     7
176
     0
 62
   257
176
     0
 90
        1
176
     0
 90
        1
176
     0
 40
1.0
176
     0
 90
        8
176
     2
 62
   257
176
     0
 40
0.3
176
     0
 90
        1
176
     0
 90
        6
176
     0
 90
        2
176
     0
 62
     7
176
     0
 90
        5
176
     0
 90
        0
176
     0
 90
        0
176
     0
290
     0
176
     0
 90
        1
176
     0
 40
0.0
176
     0
 90
        0
176
     0
290
     0
176
     0
290
     1
176
     0
290
     1
176
     0
290
     0
176
     0
290
     0
176
     0
290
     0
176
     0
290
     0
176
     0
290
     0
176
     0
290
     0
176
     0
 90
       50
176
     0
 40
0.0
176
     0
 40
1.0
176
     0
 90
        0
176
     0
 62
    18
420
        0
176
     0
 90
       50
176
     0
 90
        3
176
     0
 62
     5
420
      255
176
     0
290
     0
176
     0
 90
       50
176
     0
 90
       50
176
     0
 90
       50
176
     0
290
     0
176
     0
 90
       50
176
     0
 62
   256
176
     0
 40
1.0
176
     0
 90
        2
176
     0
  1
pencil.tif
176
     0
290
     0
176
     0
 40
1.0
176
     0
 40
1.0
176
     0
  0
VISUALSTYLE
  5
3B
102
{ACAD_REACTORS
330
29
102
}
330
29
100
AcDbVisualStyle
  2
Facepattern
 70
    15
177
     3
291
     1
 70
    58
 90
        2
176
     1
 90
        3
176
     1
 90
        0
176
     1
 90
        0
176
     1
 40
0.6
176
     1
 40
30.0
176
     1
 62
     7
420
 16777215
176
     1
 90
        0
176
     1
 90
        4
176
     1
 62
     7
176
     1
 62
   257
176
     1
 90
        1
176
     1
 90
        1
176
     1
 40
1.0
176
     1
 90
        8
176
     1
 62
   257
176
     1
 40
0.3
176
     1
 90
        1
176
     1
 90
        6
176
     1
 90
        2
176
     1
 62
     7
176
     1
 90
        5
176
     1
 90
        0
176
     1
 90
        0
176
     1
290
     0
176
     1
 90
        1
176
     1
 40
0.0
176
     1
 90
        0
176
     1
290
     0
176
     1
290
     1
176
     1
290
     1
176
     1
290
     0
176
     1
290
     0
176
     1
290
     0
176
     1
290
     0
176
     1
290
     0
176
     1
290
     0
176
     1
 90
       50
176
     1
 40
0.0
176
     1
 40
1.0
176
     1
 90
        0
176
     1
 62
    18
420
        0
176
     1
 90
       50
176
     1
 90
        3
176
     1
 62
     5
420
      255
176
     1
290
     0
176
     1
 90
       50
176
     1
 90
       50
176
     1
 90
       50
176
     1
290
     0
176
     1
 90
       50
176
     1
 62
   256
176
     0
 40
1.0
176
     0
 90
        2
176
     1
  1
pencil.tif
176
     1
290
     0
176
     1
 40
1.0
176
     1
 40
1.0
176
     1
  0
VISUALSTYLE
  5
2D
102
{ACAD_REACTORS
330
29
102
}
330
29
100
AcDbVisualStyle
  2
Flat
 70
     0
177
     3
291
     1
 70
    58
 90
        2
176
     1
 90
        1
176
     1
 90
        1
176
     1
 90
        2
176
     1
 40
0.6
176
     1
 40
30.0
176
     1
 62
     7
420
 16777215
176
     1
 90
        0
176
     1
 90
        0
176
     1
 62
     7
176
     1
 62
   257
176
     1
 90
        1
176
     1
 90
        1
176
     1
 40
1.0
176
     1
 90
        8
176
     1
 62
   257
176
     1
 40
0.3
176
     1
 90
        1
176
     1
 90
        6
176
     1
 90
        2
176
     1
 62
     7
176
     1
 90
        5
176
     1
 90
        0
176
     1
 90
        0
176
     1
290
     0
176
     1
 90
       13
176
     1
 40
0.0
176
     1
 90
        0
176
     1
290
     0
176
     1
290
     1
176
     1
290
     1
176
     1
290
     0
176
     1
290
     0
176
     1
290
     0
176
     1
290
     0
176
     1
290
     0
176
     1
290
     0
176
     1
 90
       50
176
     1
 40
0.0
176
     1
 40
1.0
176
     1
 90
        0
176
     1
 62
    18
420
        0
176
     1
 90
       50
176
     1
 90
        3
176
     1
 62
     5
420
      255
176
     1
290
     0
176
     1
 90
       50
176
     1
 90
       50
176
     1
 90
       50
176
     1
290
     0
176
     1
 90
       50
176
     1
 62
   256
176
     0
 40
1.0
176
     0
 90
        2
176
     1
  1
pencil.tif
176
     1
290
     0
176
     1
 40
1.0
176
     1
 40
1.0
176
     1
  0
VISUALSTYLE
  5
2E
102
{ACAD_REACTORS
330
29
102
}
330
29
100
AcDbVisualStyle
  2
FlatWithEdges
 70
     1
177
     3
291
     1
 70
    58
 90
        2
176
     1
 90
        1
176
     1
 90
        1
176
     1
 90
        2
176
     1
 40
0.6
176
     1
 40
30.0
176
     1
 62
     7
420
 16777215
176
     1
 90
        1
176
     1
 90
        0
176
     1
 62
     7
176
     1
 62
   257
176
     1
 90
        1
176
     1
 90
        1
176
     1
 40
1.0
176
     1
 90
        0
176
     1
 62
   257
176
     1
 40
0.3
176
     1
 90
        1
176
     1
 90
        6
176
     1
 90
        2
176
     1
 62
     7
176
     1
 90
        5
176
     1
 90
        0
176
     1
 90
        0
176
     1
290
     0
176
     1
 90
       13
176
     1
 40
0.0
176
     1
 90
        0
176
     1
290
     0
176
     1
290
     1
176
     1
290
     1
176
     1
290
     0
176
     1
290
     0
176
     1
290
     0
176
     1
290
     0
176
     1
290
     0
176
     1
290
     0
176
     1
 90
       50
176
     1
 40
0.0
176
     1
 40
1.0
176
     1
 90
        0
176
     1
 62
    18
420
        0
176
     1
 90
       50
176
     1
 90
        3
176
     1
 62
     5
420
      255
176
     1
290
     0
176
     1
 90
       50
176
     1
 90
       50
176
     1
 90
       50
176
     1
290
     0
176
     1
 90
       50
176
     1
 62
   256
176
     0
 40
1.0
176
     0
 90
        2
176
     1
  1
pencil.tif
176
     1
290
     0
176
     1
 40
1.0
176
     1
 40
1.0
176
     1
  0
VISUALSTYLE
  5
2F
102
{ACAD_REACTORS
330
29
102
}
330
29
100
AcDbVisualStyle
  2
Gouraud
 70
     2
177
     3
291
     1
 70
    58
 90
        2
176
     1
 90
        2
176
     1
 90
        1
176
     1
 90
        2
176
     1
 40
0.6
176
     1
 40
30.0
176
     1
 62
     7
420
 16777215
176
     1
 90
        0
176
     1
 90
        0
176
     1
 62
     7
176
     1
 62
   257
176
     1
 90
        1
176
     1
 90
        1
176
     1
 40
1.0
176
     1
 90
        0
176
     1
 62
   257
176
     1
 40
0.3
176
     1
 90
        1
176
     1
 90
        6
176
     1
 90
        2
176
     1
 62
     7
176
     1
 90
        5
176
     1
 90
        0
176
     1
 90
        0
176
     1
290
     0
176
     1
 90
       13
176
     1
 40
0.0
176
     1
 90
        0
176
     1
290
     0
176
     1
290
     1
176
     1
290
     1
176
     1
290
     0
176
     1
290
     0
176
     1
290
     0
176
     1
290
     0
176
     1
290
     0
176
     1
290
     0
176
     1
 90
       50
176
     1
 40
0.0
176
     1
 40
1.0
176
     1
 90
        0
176
     1
 62
    18
420
        0
176
     1
 90
       50
176
     1
 90
        3
176
     1
 62
     5
420
      255
176
     1
290
     0
176
     1
 90
       50
176
     1
 90
       50
176
     1
 90
       50
176
     1
290
     0
176
     1
 90
       50
176
     1
 62
   256
176
     0
 40
1.0
176
     0
 90
        2
176
     1
  1
pencil.tif
176
     1
290
     0
176
     1
 40
1.0
176
     1
 40
1.0
176
     1
  0
VISUALSTYLE
  5
30
102
{ACAD_REACTORS
330
29
102
}
330
29
100
AcDbVisualStyle
  2
GouraudWithEdges
 70
     3
177
     3
291
     1
 70
    58
 90
        2
176
     1
 90
        2
176
     1
 90
        1
176
     1
 90
        2
176
     1
 40
0.6
176
     1
 40
30.0
176
     1
 62
     7
420
 16777215
176
     1
 90
        1
176
     1
 90
        0
176
     1
 62
     7
176
     1
 62
   257
176
     1
 90
        1
176
     1
 90
        1
176
     1
 40
1.0
176
     1
 90
        0
176
     1
 62
   257
176
     1
 40
0.3
176
     1
 90
        1
176
     1
 90
        6
176
     1
 90
        2
176
     1
 62
     7
176
     1
 90
        5
176
     1
 90
        0
176
     1
 90
        0
176
     1
290
     0
176
     1
 90
       13
176
     1
 40
0.0
176
     1
 90
        0
176
     1
290
     0
176
     1
290
     1
176
     1
290
     1
176
     1
290
     0
176
     1
290
     0
176
     1
290
     0
176
     1
290
     0
176
     1
290
     0
176
     1
290
     0
176
     1
 90
       50
176
     1
 40
0.0
176
     1
 40
1.0
176
     1
 90
        0
176
     1
 62
    18
420
        0
176
     1
 90
       50
176
     1
 90
        3
176
     1
 62
     5
420
      255
176
     1
290
     0
176
     1
 90
       50
176
     1
 90
       50
176
     1
 90
       50
176
     1
290
     0
176
     1
 90
       50
176
     1
 62
   256
176
     0
 40
1.0
176
     0
 90
        2
176
     1
  1
pencil.tif
176
     1
290
     0
176
     1
 40
1.0
176
     1
 40
1.0
176
     1
  0
VISUALSTYLE
  5
4B
102
{ACAD_REACTORS
330
29
102
}
330
29
100
AcDbVisualStyle
  2
Half Tone
 70
    38
177
     3
291
     0
 70
    58
 90
        2
176
     1
 90
        3
176
     1
 90
        1
176
     1
 90
        0
176
     1
 40
0.6
176
     1
 40
30.0
176
     1
 62
     7
420
 16777215
176
     1
 90
        2
176
     1
 90
        2
176
     1
 62
     7
176
     1
 62
   257
176
     1
 90
        1
176
     1
 90
        1
176
     1
 40
40.0
176
     1
 90
        8
176
     1
 62
    18
420
        0
176
     1
 40
0.3
176
     1
 90
        1
176
     1
 90
        6
176
     1
 90
        2
176
     1
 62
     8
420
  7895160
176
     1
 90
        2
176
     1
 90
        0
176
     1
 90
        0
176
     1
290
     0
176
     1
 90
        5
176
     1
 40
0.0
176
     1
 90
        0
176
     1
290
     0
176
     1
290
     1
176
     1
290
     1
176
     1
290
     0
176
     1
290
     0
176
     1
290
     0
176
     1
290
     1
176
     1
290
     0
176
     1
290
     0
176
     1
 90
       50
176
     1
 40
0.0
176
     1
 40
1.0
176
     1
 90
        2
176
     1
 62
    18
420
        0
176
     1
 90
       50
176
     1
 90
        3
176
     1
 62
     5
420
      255
176
     1
290
     0
176
     1
 90
       50
176
     1
 90
       50
176
     1
 90
       50
176
     1
290
     0
176
     1
 90
       50
176
     1
 62
   256
176
     0
 40
1.0
176
     0
 90
        2
176
     1
  1
pencil.tif
176
     1
290
     0
176
     1
 40
1.0
176
     1
 40
1.0
176
     1
  0
VISUALSTYLE
  5
34
102
{ACAD_REACTORS
330
29
102
}
330
29
100
AcDbVisualStyle
  2
Hidden
 70
     6
177
     3
291
     0
 70
    58
 90
        1
176
     1
 90
        3
176
     1
 90
        2
176
     1
 90
        0
176
     1
 40
0.6
176
     1
 40
30.0
176
     1
 62
     7
420
 16777215
176
     1
 90
        2
176
     1
 90
        2
176
     1
 62
     7
176
     1
 62
   257
176
     1
 90
        2
176
     1
 90
        1
176
     1
 40
40.0
176
     1
 90
        0
176
     1
 62
   257
176
     1
 40
0.3
176
     1
 90
        1
176
     1
 90
        6
176
     1
 90
        2
176
     1
 62
     7
176
     1
 90
        2
176
     1
 90
        0
176
     1
 90
        0
176
     1
290
     0
176
     1
 90
        1
176
     1
 40
0.0
176
     1
 90
        0
176
     1
290
     0
176
     1
290
     1
176
     1
290
     1
176
     1
290
     0
176
     1
290
     0
176
     1
290
     0
176
     1
290
     0
176
     1
290
     0
176
     1
290
     0
176
     1
 90
       50
176
     1
 40
0.0
176
     1
 40
1.0
176
     1
 90
        0
176
     1
 62
    18
420
        0
176
     1
 90
       50
176
     1
 90
        3
176
     1
 62
     5
420
      255
176
     1
290
     0
176
     1
 90
       50
176
     1
 90
       50
176
     1
 90
       50
176
     1
290
     0
176
     1
 90
       50
176
     1
 62
   256
176
     0
 40
1.0
176
     0
 90
        2
176
     1
  1
pencil.tif
176
     1
290
     0
176
     1
 40
1.0
176
     1
 40
1.0
176
     1
  0
VISUALSTYLE
  5
47
102
{ACAD_REACTORS
330
29
102
}
330
29
100
AcDbVisualStyle
  2
High Contrast
 70
    33
177
     3
291
     0
 70
    58
 90
        2
176
     1
 90
        3
176
     1
 90
        0
176
     1
 90
        2
176
     1
 40
0.6
176
     1
 40
30.0
176
     1
 62
     7
420
 16777215
176
     1
 90
        2
176
     1
 90
        2
176
     1
 62
     7
176
     1
 62
   257
176
     1
 90
        1
176
     1
 90
        1
176
     1
 40
40.0
176
     1
 90
        8
176
     1
 62
   257
176
     1
 40
0.3
176
     1
 90
        1
176
     1
 90
        6
176
     1
 90
        2
176
     1
 62
     7
176
     1
 90
        2
176
     1
 90
        0
176
     1
 90
        0
176
     1
290
     0
176
     1
 90
       13
176
     1
 40
0.0
176
     1
 90
        0
176
     1
290
     0
176
     1
290
     1
176
     1
290
     1
176
     1
290
     0
176
     1
290
     0
176
     1
290
     0
176
     1
290
     0
176
     1
290
     0
176
     1
290
     0
176
     1
 90
       50
176
     1
 40
0.0
176
     1
 40
1.0
176
     1
 90
        0
176
     1
 62
    18
420
        0
176
     1
 90
       50
176
     1
 90
        3
176
     1
 62
     5
420
      255
176
     1
290
     1
176
     1
 90
       50
176
     1
 90
       50
176
     1
 90
       50
176
     1
290
     0
176
     1
 90
       50
176
     1
 62
   256
176
     0
 40
1.0
176
     0
 90
        2
176
     1
  1
pencil.tif
176
     1
290
     0
176
     1
 40
1.0
176
     1
 40
1.0
176
     1
  0
VISUALSTYLE
  5
42
102
{ACAD_REACTORS
330
29
102
}
330
29
100
AcDbVisualStyle
  2
JitterOff
 70
    20
177
     3
291
     1
 70
    58
 90
        2
176
     0
 90
        3
176
     0
 90
        0
176
     0
 90
        0
176
     0
 40
0.6
176
     0
 40
30.0
176
     0
 62
     7
420
 16777215
176
     0
 90
        0
176
     0
 90
        4
176
     0
 62
     7
176
     0
 62
   257
176
     0
 90
        1
176
     0
 90
        1
176
     0
 40
1.0
176
     0
 90
       10
176
     2
 62
   257
176
     0
 40
0.3
176
     0
 90
        1
176
     0
 90
        6
176
     0
 90
        2
176
     0
 62
     7
176
     0
 90
        5
176
     0
 90
        0
176
     0
 90
        0
176
     0
290
     0
176
     0
 90
        1
176
     0
 40
0.0
176
     0
 90
        0
176
     0
290
     0
176
     0
290
     1
176
     0
290
     1
176
     0
290
     0
176
     0
290
     0
176
     0
290
     0
176
     0
290
     0
176
     0
290
     0
176
     0
290
     0
176
     0
 90
       50
176
     0
 40
0.0
176
     0
 40
1.0
176
     0
 90
        0
176
     0
 62
    18
420
        0
176
     0
 90
       50
176
     0
 90
        3
176
     0
 62
     5
420
      255
176
     0
290
     0
176
     0
 90
       50
176
     0
 90
       50
176
     0
 90
       50
176
     0
290
     0
176
     0
 90
       50
176
     0
 62
   256
176
     0
 40
1.0
176
     0
 90
        2
176
     0
  1
pencil.tif
176
     0
290
     0
176
     0
 40
1.0
176
     0
 40
1.0
176
     0
  0
VISUALSTYLE
  5
3A
102
{ACAD_REACTORS
330
29
102
}
330
29
100
AcDbVisualStyle
  2
Linepattern
 70
    14
177
     3
291
     1
 70
    58
 90
        2
176
     1
 90
        3
176
     1
 90
        0
176
     1
 90
        0
176
     1
 40
0.6
176
     1
 40
30.0
176
     1
 62
     7
420
 16777215
176
     1
 90
        0
176
     1
 90
        4
176
     1
 62
     7
176
     1
 62
   257
176
     1
 90
        7
176
     1
 90
        7
176
     1
 40
1.0
176
     1
 90
        8
176
     1
 62
   257
176
     1
 40
0.3
176
     1
 90
        1
176
     1
 90
        6
176
     1
 90
        2
176
     1
 62
     7
176
     1
 90
        5
176
     1
 90
        0
176
     1
 90
        0
176
     1
290
     0
176
     1
 90
        1
176
     1
 40
0.0
176
     1
 90
        0
176
     1
290
     0
176
     1
290
     1
176
     1
290
     1
176
     1
290
     0
176
     1
290
     0
176
     1
290
     0
176
     1
290
     0
176
     1
290
     0
176
     1
290
     0
176
     1
 90
       50
176
     1
 40
0.0
176
     1
 40
1.0
176
     1
 90
        0
176
     1
 62
    18
420
        0
176
     1
 90
       50
176
     1
 90
        3
176
     1
 62
     5
420
      255
176
     1
290
     0
176
     1
 90
       50
176
     1
 90
       50
176
     1
 90
       50
176
     1
290
     0
176
     1
 90
       50
176
     1
 62
   256
176
     0
 40
1.0
176
     0
 90
        2
176
     1
  1
pencil.tif
176
     1
290
     0
176
     1
 40
1.0
176
     1
 40
1.0
176
     1
  0
VISUALSTYLE
  5
4E
102
{ACAD_REACTORS
330
29
102
}
330
29
100
AcDbVisualStyle
  2
Marker Edges
 70
    41
177
     3
291
     0
 70
    58
 90
        1
176
     1
 90
        3
176
     1
 90
        2
176
     1
 90
        0
176
     1
 40
0.6
176
     1
 40
30.0
176
     1
 62
     7
420
 16777215
176
     1
 90
        2
176
     1
 90
        2
176
     1
 62
     7
176
     1
 62
   257
176
     1
 90
        1
176
     1
 90
        1
176
     1
 40
40.0
176
     1
 90
      520
176
     1
 62
    18
420
        0
176
     1
 40
0.3
176
     1
 90
        1
176
     1
 90
        6
176
     1
 90
        2
176
     1
 62
     7
176
     1
 90
        2
176
     1
 90
        0
176
     1
 90
        0
176
     1
290
     0
176
     1
 90
        1
176
     1
 40
0.0
176
     1
 90
        0
176
     1
290
     0
176
     1
290
     1
176
     1
290
     1
176
     1
290
     0
176
     1
290
     0
176
     1
290
     0
176
     1
290
     0
176
     1
290
     0
176
     1
290
     0
176
     1
 90
       50
176
     1
 40
0.0
176
     1
 40
1.0
176
     1
 90
        0
176
     1
 62
    18
420
        0
176
     1
 90
       50
176
     1
 90
        3
176
     1
 62
     5
420
      255
176
     1
290
     0
176
     1
 90
       50
176
     1
 90
       50
176
     1
 90
       50
176
     1
290
     0
176
     1
 90
       50
176
     1
 62
   256
176
     0
 40
1.0
176
     0
 90
        2
176
     1
  1
marker.tif
176
     1
290
     0
176
     1
 40
1.0
176
     1
 40
1.0
176
     1
  0
VISUALSTYLE
  5
43
102
{ACAD_REACTORS
330
29
102
}
330
29
100
AcDbVisualStyle
  2
OverhangOff
 70
    21
177
     3
291
     1
 70
    58
 90
        2
176
     0
 90
        3
176
     0
 90
        0
176
     0
 90
        0
176
     0
 40
0.6
176
     0
 40
30.0
176
     0
 62
     7
420
 16777215
176
     0
 90
        0
176
     0
 90
        4
176
     0
 62
     7
176
     0
 62
   257
176
     0
 90
        1
176
     0
 90
        1
176
     0
 40
1.0
176
     0
 90
        9
176
     2
 62
   257
176
     0
 40
0.3
176
     0
 90
        1
176
     0
 90
        6
176
     0
 90
        2
176
     0
 62
     7
176
     0
 90
        5
176
     0
 90
        0
176
     0
 90
        0
176
     0
290
     0
176
     0
 90
        1
176
     0
 40
0.0
176
     0
 90
        0
176
     0
290
     0
176
     0
290
     1
176
     0
290
     1
176
     0
290
     0
176
     0
290
     0
176
     0
290
     0
176
     0
290
     0
176
     0
290
     0
176
     0
290
     0
176
     0
 90
       50
176
     0
 40
0.0
176
     0
 40
1.0
176
     0
 90
        0
176
     0
 62
    18
420
        0
176
     0
 90
       50
176
     0
 90
        3
176
     0
 62
     5
420
      255
176
     0
290
     0
176
     0
 90
       50
176
     0
 90
       50
176
     0
 90
       50
176
     0
290
     0
176
     0
 90
       50
176
     0
 62
   256
176
     0
 40
1.0
176
     0
 90
        2
176
     0
  1
pencil.tif
176
     0
290
     0
176
     0
 40
1.0
176
     0
 40
1.0
176
     0
  0
VISUALSTYLE
  5
49
102
{ACAD_REACTORS
330
29
102
}
330
29
100
AcDbVisualStyle
  2
Pastel
 70
    36
177
     3
291
     0
 70
    58
 90
        2
176
     1
 90
        3
176
     1
 90
        1
176
     1
 90
        0
176
     1
 40
0.6
176
     1
 40
30.0
176
     1
 62
     7
420
 16777215
176
     1
 90
        2
176
     1
 90
        2
176
     1
 62
     7
176
     1
 62
   257
176
     1
 90
        1
176
     1
 90
        1
176
     1
 40
40.0
176
     1
 90
        8
176
     1
 62
    18
420
        0
176
     1
 40
0.3
176
     1
 90
        1
176
     1
 90
        6
176
     1
 90
        2
176
     1
 62
     8
420
  7895160
176
     1
 90
        2
176
     1
 90
        0
176
     1
 90
        0
176
     1
290
     0
176
     1
 90
        5
176
     1
 40
0.0
176
     1
 90
        0
176
     1
290
     0
176
     1
290
     1
176
     1
290
     1
176
     1
290
     0
176
     1
290
     0
176
     1
290
     0
176
     1
290
     0
176
     1
290
     0
176
     1
290
     1
176
     1
 90
       50
176
     1
 40
0.0
176
     1
 40
1.0
176
     1
 90
        0
176
     1
 62
    18
420
        0
176
     1
 90
       50
176
     1
 90
        3
176
     1
 62
     5
420
      255
176
     1
290
     0
176
     1
 90
       50
176
     1
 90
       50
176
     1
 90
       50
176
     1
290
     0
176
     1
 90
       50
176
     1
 62
   256
176
     0
 40
1.0
176
     0
 90
        2
176
     1
  1
pencil.tif
176
     1
290
     0
176
     1
 40
1.0
176
     1
 40
1.0
176
     1
  0
VISUALSTYLE
  5
4D
102
{ACAD_REACTORS
330
29
102
}
330
29
100
AcDbVisualStyle
  2
Pencil Edges
 70
    40
177
     3
291
     0
 70
    58
 90
        1
176
     1
 90
        3
176
     1
 90
        2
176
     1
 90
        0
176
     1
 40
0.6
176
     1
 40
30.0
176
     1
 62
     7
420
 16777215
176
     1
 90
        2
176
     1
 90
        2
176
     1
 62
     7
176
     1
 62
   257
176
     1
 90
        1
176
     1
 90
        1
176
     1
 40
40.0
176
     1
 90
      520
176
     1
 62
    18
420
        0
176
     1
 40
0.3
176
     1
 90
        1
176
     1
 90
        6
176
     1
 90
        2
176
     1
 62
     7
176
     1
 90
        2
176
     1
 90
        0
176
     1
 90
        0
176
     1
290
     0
176
     1
 90
        1
176
     1
 40
0.0
176
     1
 90
        0
176
     1
290
     0
176
     1
290
     1
176
     1
290
     1
176
     1
290
     0
176
     1
290
     0
176
     1
290
     0
176
     1
290
     0
176
     1
290
     0
176
     1
290
     0
176
     1
 90
       50
176
     1
 40
0.0
176
     1
 40
1.0
176
     1
 90
        0
176
     1
 62
    18
420
        0
176
     1
 90
       50
176
     1
 90
        3
176
     1
 62
     5
420
      255
176
     1
290
     0
176
     1
 90
       50
176
     1
 90
       50
176
     1
 90
       50
176
     1
290
     0
176
     1
 90
       50
176
     1
 62
   256
176
     0
 40
1.0
176
     0
 90
        2
176
     1
  1
pencil.tif
176
     1
290
     0
176
     1
 40
1.0
176
     1
 40
1.0
176
     1
  0
VISUALSTYLE
  5
4C
102
{ACAD_REACTORS
330
29
102
}
330
29
100
AcDbVisualStyle
  2
Posterize
 70
    39
177
     3
291
     0
 70
    58
 90
        2
176
     1
 90
        3
176
     1
 90
        0
176
     1
 90
        2
176
     1
 40
0.6
176
     1
 40
30.0
176
     1
 62
     7
420
 16777215
176
     1
 90
        2
176
     1
 90
        2
176
     1
 62
     7
176
     1
 62
   257
176
     1
 90
        1
176
     1
 90
        1
176
     1
 40
40.0
176
     1
 90
        8
176
     1
 62
    18
420
        0
176
     1
 40
0.3
176
     1
 90
        1
176
     1
 90
        6
176
     1
 90
        2
176
     1
 62
     7
176
     1
 90
        6
176
     1
 90
        0
176
     1
 90
        0
176
     1
290
     0
176
     1
 90
        1
176
     1
 40
0.0
176
     1
 90
        0
176
     1
290
     0
176
     1
290
     1
176
     1
290
     1
176
     1
290
     1
176
     1
290
     0
176
     1
290
     0
176
     1
290
     0
176
     1
290
     0
176
     1
290
     0
176
     1
 90
       50
176
     1
 40
0.0
176
     1
 40
1.0
176
     1
 90
        0
176
     1
 62
    18
420
        0
176
     1
 90
       50
176
     1
 90
        3
176
     1
 62
     5
420
      255
176
     1
290
     0
176
     1
 90
       50
176
     1
 90
       50
176
     1
 90
       50
176
     1
290
     0
176
     1
 90
       50
176
     1
 62
   256
176
     0
 40
1.0
176
     0
 90
        2
176
     1
  1
pencil.tif
176
     1
290
     0
176
     1
 40
1.0
176
     1
 40
1.0
176
     1
  0
VISUALSTYLE
  5
36
102
{ACAD_REACTORS
330
29
102
}
330
29
100
AcDbVisualStyle
  2
Realistic
 70
     8
177
     3
291
     0
 70
    58
 90
        2
176
     1
 90
        3
176
     1
 90
        0
176
     1
 90
        2
176
     1
 40
0.6
176
     1
 40
30.0
176
     1
 62
     7
420
 16777215
176
     1
 90
        0
176
     1
 90
        0
176
     1
 62
     7
176
     1
 62
   257
176
     1
 90
        1
176
     1
 90
        1
176
     1
 40
40.0
176
     1
 90
        8
176
     1
 62
   257
176
     1
 40
0.3
176
     1
 90
        1
176
     1
 90
        6
176
     1
 90
        2
176
     1
 62
     7
176
     1
 90
        2
176
     1
 90
        0
176
     1
 90
        0
176
     1
290
     0
176
     1
 90
       13
176
     1
 40
0.0
176
     1
 90
        0
176
     1
290
     0
176
     1
290
     1
176
     1
290
     1
176
     1
290
     0
176
     1
290
     0
176
     1
290
     0
176
     1
290
     0
176
     1
290
     0
176
     1
290
     0
176
     1
 90
       50
176
     1
 40
0.0
176
     1
 40
1.0
176
     1
 90
        0
176
     1
 62
    18
420
        0
176
     1
 90
       50
176
     1
 90
        3
176
     1
 62
     5
420
      255
176
     1
290
     0
176
     1
 90
       50
176
     1
 90
       50
176
     1
 90
       50
176
     1
290
     0
176
     1
 90
       50
176
     1
 62
   256
176
     0
 40
1.0
176
     0
 90
        2
176
     1
  1
pencil.tif
176
     1
290
     0
176
     1
 40
1.0
176
     1
 40
1.0
176
     1
  0
VISUALSTYLE
  5
41
102
{ACAD_REACTORS
330
29
102
}
330
29
100
AcDbVisualStyle
  2
Shaded
 70
    27
177
     3
291
     0
 70
    58
 90
        2
176
     1
 90
        3
176
     1
 90
        1
176
     1
 90
        2
176
     1
 40
0.6
176
     1
 40
30.0
176
     1
 62
     7
420
 16777215
176
     1
 90
        0
176
     1
 90
        0
176
     1
 62
     7
176
     1
 62
   257
176
     1
 90
        1
176
     1
 90
        1
176
     1
 40
40.0
176
     1
 90
        8
176
     1
 62
   257
176
     1
 40
0.3
176
     1
 90
        1
176
     1
 90
        6
176
     1
 90
        2
176
     1
 62
     8
420
  7895160
176
     1
 90
        2
176
     1
 90
        0
176
     1
 90
        0
176
     1
290
     0
176
     1
 90
        5
176
     1
 40
0.0
176
     1
 90
        0
176
     1
290
     0
176
     1
290
     1
176
     1
290
     1
176
     1
290
     0
176
     1
290
     0
176
     1
290
     0
176
     1
290
     0
176
     1
290
     0
176
     1
290
     0
176
     1
 90
       50
176
     1
 40
0.0
176
     1
 40
1.0
176
     1
 90
        0
176
     1
 62
    18
420
        0
176
     1
 90
       50
176
     1
 90
        3
176
     1
 62
     5
420
      255
176
     1
290
     0
176
     1
 90
       50
176
     1
 90
       50
176
     1
 90
       50
176
     1
290
     0
176
     1
 90
       50
176
     1
 62
   256
176
     0
 40
1.0
176
     0
 90
        2
176
     1
  1
pencil.tif
176
     1
290
     0
176
     1
 40
1.0
176
     1
 40
1.0
176
     1
  0
VISUALSTYLE
  5
40
102
{ACAD_REACTORS
330
29
102
}
330
29
100
AcDbVisualStyle
  2
Shaded with edges
 70
    26
177
     3
291
     0
 70
    58
 90
        2
176
     1
 90
        3
176
     1
 90
        1
176
     1
 90
        2
176
     1
 40
0.6
176
     1
 40
30.0
176
     1
 62
     7
420
 16777215
176
     1
 90
        2
176
     1
 90
        2
176
     1
 62
     7
176
     1
 62
   257
176
     1
 90
        2
176
     1
 90
        1
176
     1
 40
40.0
176
     1
 90
        8
176
     1
 62
   257
176
     1
 40
0.3
176
     1
 90
        1
176
     1
 90
        6
176
     1
 90
        2
176
     1
 62
     7
176
     1
 90
        2
176
     1
 90
        0
176
     1
 90
        0
176
     1
290
     0
176
     1
 90
        5
176
     1
 40
0.0
176
     1
 90
        0
176
     1
290
     0
176
     1
290
     1
176
     1
290
     1
176
     1
290
     0
176
     1
290
     0
176
     1
290
     0
176
     1
290
     0
176
     1
290
     0
176
     1
290
     0
176
     1
 90
       50
176
     1
 40
0.0
176
     1
 40
1.0
176
     1
 90
        0
176
     1
 62
    18
420
        0
176
     1
 90
       50
176
     1
 90
        3
176
     1
 62
     5
420
      255
176
     1
290
     0
176
     1
 90
       50
176
     1
 90
       50
176
     1
 90
       50
176
     1
290
     0
176
     1
 90
       50
176
     1
 62
   256
176
     0
 40
1.0
176
     0
 90
        2
176
     1
  1
pencil.tif
176
     1
290
     0
176
     1
 40
1.0
176
     1
 40
1.0
176
     1
  0
VISUALSTYLE
  5
3D
102
{ACAD_REACTORS
330
29
102
}
330
29
100
AcDbVisualStyle
  2
Shades of Gray
 70
    23
177
     3
291
     0
 70
    58
 90
        2
176
     1
 90
        3
176
     1
 90
        3
176
     1
 90
        0
176
     1
 40
0.6
176
     1
 40
30.0
176
     1
 62
     7
420
 16777215
176
     1
 90
        2
176
     1
 90
        2
176
     1
 62
     7
176
     1
 62
     7
176
     1
 90
        1
176
     1
 90
        1
176
     1
 40
40.0
176
     1
 90
        8
176
     1
 62
    18
420
        0
176
     1
 40
0.3
176
     1
 90
        1
176
     1
 90
        6
176
     1
 90
        2
176
     1
 62
     7
176
     1
 90
        2
176
     1
 90
        0
176
     1
 90
        0
176
     1
290
     0
176
     1
 90
        1
176
     1
 40
0.0
176
     1
 90
        0
176
     1
290
     0
176
     1
290
     1
176
     1
290
     1
176
     1
290
     0
176
     1
290
     1
176
     1
290
     0
176
     1
290
     0
176
     1
290
     0
176
     1
290
     0
176
     1
 90
       50
176
     1
 40
0.0
176
     1
 40
1.0
176
     1
 90
        0
176
     1
 62
    18
420
        0
176
     1
 90
       50
176
     1
 90
        3
176
     1
 62
     5
420
      255
176
     1
290
     0
176
     1
 90
       50
176
     1
 90
       50
176
     1
 90
       50
176
     1
290
     0
176
     1
 90
       50
176
     1
 62
   256
176
     0
 40
1.0
176
     0
 90
        2
176
     1
  1
pencil.tif
176
     1
290
     0
176
     1
 40
1.0
176
     1
 40
1.0
176
     1
  0
VISUALSTYLE
  5
3E
102
{ACAD_REACTORS
330
29
102
}
330
29
100
AcDbVisualStyle
  2
Sketchy
 70
    24
177
     3
291
     0
 70
    58
 90
        1
176
     1
 90
        3
176
     1
 90
        2
176
     1
 90
        0
176
     1
 40
0.6
176
     1
 40
30.0
176
     1
 62
     7
420
 16777215
176
     1
 90
        2
176
     1
 90
        2
176
     1
 62
     7
176
     1
 62
     7
176
     1
 90
        1
176
     1
 90
        1
176
     1
 40
40.0
176
     1
 90
      267
176
     1
 62
    18
420
        0
176
     1
 40
0.3
176
     1
 90
        1
176
     1
 90
        6
176
     1
 90
        2
176
     1
 62
     7
176
     1
 90
        6
176
     1
 90
        0
176
     1
 90
        0
176
     1
290
     0
176
     1
 90
        1
176
     1
 40
0.0
176
     1
 90
        0
176
     1
290
     0
176
     1
290
     1
176
     1
290
     1
176
     1
290
     0
176
     1
290
     0
176
     1
290
     0
176
     1
290
     0
176
     1
290
     0
176
     1
290
     0
176
     1
 90
       50
176
     1
 40
0.0
176
     1
 40
1.0
176
     1
 90
        0
176
     1
 62
    18
420
        0
176
     1
 90
       50
176
     1
 90
        3
176
     1
 62
     5
420
      255
176
     1
290
     0
176
     1
 90
       50
176
     1
 90
       50
176
     1
 90
       50
176
     1
290
     0
176
     1
 90
       50
176
     1
 62
   256
176
     0
 40
1.0
176
     0
 90
        2
176
     1
  1
pencil.tif
176
     1
290
     0
176
     1
 40
1.0
176
     1
 40
1.0
176
     1
  0
VISUALSTYLE
  5
39
102
{ACAD_REACTORS
330
29
102
}
330
29
100
AcDbVisualStyle
  2
Thicken
 70
    13
177
     3
291
     1
 70
    58
 90
        2
176
     1
 90
        3
176
     1
 90
        0
176
     1
 90
        0
176
     1
 40
0.6
176
     1
 40
30.0
176
     1
 62
     7
420
 16777215
176
     1
 90
        0
176
     1
 90
        4
176
     1
 62
     7
176
     1
 62
   257
176
     1
 90
        1
176
     1
 90
        1
176
     1
 40
1.0
176
     1
 90
       12
176
     1
 62
   257
176
     1
 40
0.3
176
     1
 90
        1
176
     1
 90
        6
176
     1
 90
        2
176
     1
 62
     7
176
     1
 90
        5
176
     1
 90
        0
176
     1
 90
        0
176
     1
290
     0
176
     1
 90
        1
176
     1
 40
0.0
176
     1
 90
        0
176
     1
290
     0
176
     1
290
     1
176
     1
290
     1
176
     1
290
     0
176
     1
290
     0
176
     1
290
     0
176
     1
290
     0
176
     1
290
     0
176
     1
290
     0
176
     1
 90
       50
176
     1
 40
0.0
176
     1
 40
1.0
176
     1
 90
        0
176
     1
 62
    18
420
        0
176
     1
 90
       50
176
     1
 90
        3
176
     1
 62
     5
420
      255
176
     1
290
     0
176
     1
 90
       50
176
     1
 90
       50
176
     1
 90
       50
176
     1
290
     0
176
     1
 90
       50
176
     1
 62
   256
176
     0
 40
1.0
176
     0
 90
        2
176
     1
  1
pencil.tif
176
     1
290
     0
176
     1
 40
1.0
176
     1
 40
1.0
176
     1
  0
VISUALSTYLE
  5
33
102
{ACAD_REACTORS
330
29
102
}
330
29
100
AcDbVisualStyle
  2
Wireframe
 70
     5
177
     3
291
     0
 70
    58
 90
        0
176
     1
 90
        3
176
     1
 90
        0
176
     1
 90
        2
176
     1
 40
0.6
176
     1
 40
0.0
176
     1
 62
     7
420
 16777215
176
     1
 90
        2
176
     1
 90
        6
176
     1
 62
     7
176
     1
 62
   257
176
     1
 90
        1
176
     1
 90
        1
176
     1
 40
40.0
176
     1
 90
        0
176
     1
 62
   257
176
     1
 40
0.3
176
     1
 90
        1
176
     1
 90
        6
176
     1
 90
        2
176
     1
 62
     7
176
     1
 90
        2
176
     1
 90
        0
176
     1
 90
        0
176
     1
290
     0
176
     1
 90
        1
176
     1
 40
0.0
176
     1
 90
        0
176
     1
290
     0
176
     1
290
     1
176
     1
290
     1
176
     1
290
     0
176
     1
290
     0
176
     1
290
     0
176
     1
290
     0
176
     1
290
     0
176
     1
290
     0
176
     1
 90
       50
176
     1
 40
0.0
176
     1
 40
1.0
176
     1
 90
        0
176
     1
 62
    18
420
        0
176
     1
 90
       50
176
     1
 90
        3
176
     1
 62
     5
420
      255
176
     1
290
     0
176
     1
 90
       50
176
     1
 90
       50
176
     1
 90
       50
176
     1
290
     0
176
     1
 90
       50
176
     1
 62
   256
176
     0
 40
1.0
176
     0
 90
        2
176
     1
  1
pencil.tif
176
     1
290
     0
176
     1
 40
1.0
176
     1
 40
1.0
176
     1
  0
VISUALSTYLE
  5
3F
102
{ACAD_REACTORS
330
29
102
}
330
29
100
AcDbVisualStyle
  2
X-Ray
 70
    25
177
     3
291
     0
 70
    58
 90
        2
176
     1
 90
        3
176
     1
 90
        1
176
     1
 90
        1
176
     1
 40
0.5
176
     1
 40
30.0
176
     1
 62
     7
420
 16777215
176
     1
 90
        2
176
     1
 90
        0
176
     1
 62
     7
176
     1
 62
   257
176
     1
 90
        1
176
     1
 90
        1
176
     1
 40
40.0
176
     1
 90
      136
176
     1
 62
    18
420
        0
176
     1
 40
0.3
176
     1
 90
        1
176
     1
 90
        6
176
     1
 90
        2
176
     1
 62
     7
176
     1
 90
        2
176
     1
 90
        0
176
     1
 90
        0
176
     1
290
     0
176
     1
 90
       13
176
     1
 40
0.0
176
     1
 90
        0
176
     1
290
     0
176
     1
290
     1
176
     1
290
     1
176
     1
290
     0
176
     1
290
     0
176
     1
290
     0
176
     1
290
     0
176
     1
290
     0
176
     1
290
     0
176
     1
 90
       50
176
     1
 40
0.0
176
     1
 40
1.0
176
     1
 90
        0
176
     1
 62
    18
420
        0
176
     1
 90
       50
176
     1
 90
        3
176
     1
 62
     5
420
      255
176
     1
290
     0
176
     1
 90
       50
176
     1
 90
       50
176
     1
 90
       50
176
     1
290
     0
176
     1
 90
       50
176
     1
 62
   256
176
     0
 40
1.0
176
     0
 90
        2
176
     1
  1
pencil.tif
176
     1
290
     0
176
     1
 40
1.0
176
     1
 40
1.0
176
     1
  0
DICTIONARYVAR
  5
285
102
{ACAD_REACTORS
330
280
102
}
330
280
100
DictionaryVariables
280
     0
  1
1:1
  0
DICTIONARYVAR
  5
282
102
{ACAD_REACTORS
330
280
102
}
330
280
100
DictionaryVariables
280
     0
  1
STANDARD
  0
DICTIONARYVAR
  5
281
102
{ACAD_REACTORS
330
280
102
}
330
280
100
DictionaryVariables
280
     0
  1
STANDARD
  0
DICTIONARYVAR
  5
283
102
{ACAD_REACTORS
330
280
102
}
330
280
100
DictionaryVariables
280
     0
  1
Imperial24
  0
DICTIONARYVAR
  5
284
102
{ACAD_REACTORS
330
280
102
}
330
280
100
DictionaryVariables
280
     0
  1
Imperial24
  0
DICTIONARY
  5
1A
330
19
100
AcDbDictionary
280
     1
281
     1
  3
BUMPTILE
360
1C
  3
DIFFUSETILE
360
1B
  3
OPACITYTILE
360
1F
  3
REFLECTIONTILE
360
1E
  3
REFRACTIONTILE
360
20
  3
SPECULARTILE
360
1D
  0
DICTIONARY
  5
12
330
11
100
AcDbDictionary
280
     1
281
     1
  3
BUMPTILE
360
14
  3
DIFFUSETILE
360
13
  3
OPACITYTILE
360
17
  3
REFLECTIONTILE
360
16
  3
REFRACTIONTILE
360
18
  3
SPECULARTILE
360
15
  0
DICTIONARY
  5
22
330
21
100
AcDbDictionary
280
     1
281
     1
  3
BUMPTILE
360
24
  3
DIFFUSETILE
360
23
  3
OPACITYTILE
360
27
  3
REFLECTIONTILE
360
26
  3
REFRACTIONTILE
360
28
  3
SPECULARTILE
360
25
  0
DICTIONARY
  5
72
330
6D
100
AcDbDictionary
280
     1
281
     1
  3
ADSK_XREC_BACKGROUND_INFO
360
73
  0
SUN
  5
6E
102
{ACAD_XDICTIONARY
360
6F
102
}
330
6D
100
AcDbSun
 90
        1
290
     1
 63
    43
421
 11905157
 40
1.0
291
     1
 91
  2459479
 92
 54000000
292
     0
 70
     0
 71
   256
280
     1
  0
GROUNDPLANE
  5
74
330
6D
100
AcDbGroundPlane
290
     0
 70
    50
 71
    40
 72
    15
 62
     7
420
 16777215
 40
0.0
  0
DICTIONARY
  5
7C
330
7A
100
AcDbDictionary
280
     1
281
     1
  3
ADSK_XREC_BACKGROUND_INFO
360
7D
  0
GROUNDPLANE
  5
7E
330
7A
100
AcDbGroundPlane
290
     0
 70
    50
 71
    40
 72
    15
 62
     7
420
 16777215
 40
0.0
  0
DICTIONARY
  5
95
330
93
100
AcDbDictionary
280
     1
281
     1
  3
ADSK_XREC_BACKGROUND_INFO
360
96
  0
GROUNDPLANE
  5
97
330
93
100
AcDbGroundPlane
290
     0
 70
    50
 71
    40
 72
    15
 62
     7
420
 16777215
 40
0.0
  0
DICTIONARY
  5
90
330
8E
100
AcDbDictionary
280
     1
281
     1
  3
ADSK_XREC_BACKGROUND_INFO
360
91
  0
GROUNDPLANE
  5
92
330
8E
100
AcDbGroundPlane
290
     0
 70
    50
 71
    40
 72
    15
 62
     7
420
 16777215
 40
0.0
  0
GROUNDPLANE
  5
54
330
53
100
AcDbGroundPlane
290
     0
 70
    80
 71
    20
 72
    50
 62
     7
420
 16777215
 40
0.0
  0
DICTIONARY
  5
65
330
60
100
AcDbDictionary
280
     1
281
     1
  3
ADSK_XREC_BACKGROUND_INFO
360
66
  0
SUN
  5
61
102
{ACAD_XDICTIONARY
360
62
102
}
330
60
100
AcDbSun
 90
        1
290
     1
 63
    43
421
 11905157
 40
1.0
291
     1
 91
  2459479
 92
 61200000
292
     0
 70
     0
 71
   256
280
     1
  0
GROUNDPLANE
  5
67
330
60
100
AcDbGroundPlane
290
     0
 70
    50
 71
    40
 72
    15
 62
     7
420
 16777215
 40
0.0
  0
DICTIONARY
  5
8B
330
89
100
AcDbDictionary
280
     1
281
     1
  3
ADSK_XREC_BACKGROUND_INFO
360
8C
  0
GROUNDPLANE
  5
8D
330
89
100
AcDbGroundPlane
290
     0
 70
    50
 71
    40
 72
    15
 62
     7
420
 16777215
 40
0.0
  0
DICTIONARY
  5
77
330
75
100
AcDbDictionary
280
     1
281
     1
  3
ADSK_XREC_BACKGROUND_INFO
360
78
  0
GROUNDPLANE
  5
79
330
75
100
AcDbGroundPlane
290
     0
 70
    50
 71
    40
 72
    15
 62
     7
420
 16777215
 40
0.0
  0
DICTIONARY
  5
6A
330
68
100
AcDbDictionary
280
     1
281
     1
  3
ADSK_XREC_BACKGROUND_INFO
360
6B
  0
GROUNDPLANE
  5
6C
330
68
100
AcDbGroundPlane
290
     0
 70
    50
 71
    40
 72
    15
 62
     7
420
 16777215
 40
0.0
  0
DICTIONARY
  5
81
330
7F
100
AcDbDictionary
280
     1
281
     1
  3
ADSK_XREC_BACKGROUND_INFO
360
82
  0
GROUNDPLANE
  5
83
330
7F
100
AcDbGroundPlane
290
     0
 70
    50
 71
    40
 72
    15
 62
     7
420
 16777215
 40
0.0
  0
DICTIONARY
  5
86
330
84
100
AcDbDictionary
280
     1
281
     1
  3
ADSK_XREC_BACKGROUND_INFO
360
87
  0
GROUNDPLANE
  5
88
330
84
100
AcDbGroundPlane
290
     1
 70
    50
 71
    40
 72
    15
 62
     7
420
 16777215
 40
0.0
  0
GROUNDPLANE
  5
56
330
55
100
AcDbGroundPlane
290
     0
 70
    80
 71
    20
 72
    50
 62
     7
420
 16777215
 40
0.0
  0
DICTIONARY
  5
9A
330
98
100
AcDbDictionary
280
     1
281
     1
  3
ADSK_XREC_BACKGROUND_INFO
360
9B
  0
GROUNDPLANE
  5
9C
330
98
100
AcDbGroundPlane
290
     0
 70
    50
 71
    40
 72
    15
 62
     7
420
 16777215
 40
0.0
  0
DICTIONARY
  5
5D
330
57
100
AcDbDictionary
280
     1
281
     1
  3
ADSK_XREC_BACKGROUND_INFO
360
5E
  0
SUN
  5
58
102
{ACAD_XDICTIONARY
360
59
102
}
330
57
100
AcDbSun
 90
        1
290
     1
 63
    43
421
 11905157
 40
1.0
291
     1
 91
  2456094
 92
 50400000
292
     0
 70
     0
 71
   256
280
     1
  0
GROUNDPLANE
  5
5F
330
57
100
AcDbGroundPlane
290
     0
 70
    80
 71
    20
 72
    50
 62
     7
420
 16777215
 40
0.0
  0
DICTIONARY
  5
288
330
C0
100
AcDbDictionary
280
     1
281
     1
  3
ACAD_ROUNDTRIP_2008_TABLESTYLE_CELLSTYLEMAP
360
289
  0
XRECORD
  5
1C
102
{ACAD_REACTORS
330
1A
102
}
330
1A
100
AcDbXrecord
280
     1
270
     1
271
     1
  0
XRECORD
  5
1B
102
{ACAD_REACTORS
330
1A
102
}
330
1A
100
AcDbXrecord
280
     1
270
     1
271
     1
  0
XRECORD
  5
1F
102
{ACAD_REACTORS
330
1A
102
}
330
1A
100
AcDbXrecord
280
     1
270
     1
271
     1
  0
XRECORD
  5
1E
102
{ACAD_REACTORS
330
1A
102
}
330
1A
100
AcDbXrecord
280
     1
270
     1
271
     1
  0
XRECORD
  5
20
102
{ACAD_REACTORS
330
1A
102
}
330
1A
100
AcDbXrecord
280
     1
270
     1
271
     1
  0
XRECORD
  5
1D
102
{ACAD_REACTORS
330
1A
102
}
330
1A
100
AcDbXrecord
280
     1
270
     1
271
     1
  0
XRECORD
  5
14
102
{ACAD_REACTORS
330
12
102
}
330
12
100
AcDbXrecord
280
     1
270
     1
271
     1
  0
XRECORD
  5
13
102
{ACAD_REACTORS
330
12
102
}
330
12
100
AcDbXrecord
280
     1
270
     1
271
     1
  0
XRECORD
  5
17
102
{ACAD_REACTORS
330
12
102
}
330
12
100
AcDbXrecord
280
     1
270
     1
271
     1
  0
XRECORD
  5
16
102
{ACAD_REACTORS
330
12
102
}
330
12
100
AcDbXrecord
280
     1
270
     1
271
     1
  0
XRECORD
  5
18
102
{ACAD_REACTORS
330
12
102
}
330
12
100
AcDbXrecord
280
     1
270
     1
271
     1
  0
XRECORD
  5
15
102
{ACAD_REACTORS
330
12
102
}
330
12
100
AcDbXrecord
280
     1
270
     1
271
     1
  0
XRECORD
  5
24
102
{ACAD_REACTORS
330
22
102
}
330
22
100
AcDbXrecord
280
     1
270
     1
271
     1
  0
XRECORD
  5
23
102
{ACAD_REACTORS
330
22
102
}
330
22
100
AcDbXrecord
280
     1
270
     1
271
     1
  0
XRECORD
  5
27
102
{ACAD_REACTORS
330
22
102
}
330
22
100
AcDbXrecord
280
     1
270
     1
271
     1
  0
XRECORD
  5
26
102
{ACAD_REACTORS
330
22
102
}
330
22
100
AcDbXrecord
280
     1
270
     1
271
     1
  0
XRECORD
  5
28
102
{ACAD_REACTORS
330
22
102
}
330
22
100
AcDbXrecord
280
     1
270
     1
271
     1
  0
XRECORD
  5
25
102
{ACAD_REACTORS
330
22
102
}
330
22
100
AcDbXrecord
280
     1
270
     1
271
     1
  0
XRECORD
  5
73
102
{ACAD_REACTORS
330
72
102
}
330
72
100
AcDbXrecord
280
     1
290
     0
291
     0
292
     0
293
     0
294
     0
 70
     0
 71
     0
  0
DICTIONARY
  5
6F
330
6E
100
AcDbDictionary
280
     1
281
     1
  3
ADSK_XREC_SKYINFO
360
70
  0
XRECORD
  5
7D
102
{ACAD_REACTORS
330
7C
102
}
330
7C
100
AcDbXrecord
280
     1
290
     0
291
     0
292
     0
293
     0
294
     0
 70
     0
 71
     0
  0
XRECORD
  5
96
102
{ACAD_REACTORS
330
95
102
}
330
95
100
AcDbXrecord
280
     1
290
     0
291
     0
292
     0
293
     0
294
     0
 70
     0
 71
     0
  0
XRECORD
  5
91
102
{ACAD_REACTORS
330
90
102
}
330
90
100
AcDbXrecord
280
     1
290
     0
291
     0
292
     0
293
     0
294
     0
 70
     0
 71
     0
  0
XRECORD
  5
66
102
{ACAD_REACTORS
330
65
102
}
330
65
100
AcDbXrecord
280
     1
290
     0
291
     0
292
     0
293
     0
294
     0
 70
     0
 71
     0
  0
DICTIONARY
  5
62
330
61
100
AcDbDictionary
280
     1
281
     1
  3
ADSK_XREC_SKYINFO
360
63
  0
XRECORD
  5
8C
102
{ACAD_REACTORS
330
8B
102
}
330
8B
100
AcDbXrecord
280
     1
290
     0
291
     0
292
     0
293
     0
294
     0
 70
     0
 71
     0
  0
XRECORD
  5
78
102
{ACAD_REACTORS
330
77
102
}
330
77
100
AcDbXrecord
280
     1
290
     0
291
     0
292
     0
293
     0
294
     0
 70
     0
 71
     0
  0
XRECORD
  5
6B
102
{ACAD_REACTORS
330
6A
102
}
330
6A
100
AcDbXrecord
280
     1
290
     0
291
     0
292
     0
293
     0
294
     0
 70
     0
 71
     0
  0
XRECORD
  5
82
102
{ACAD_REACTORS
330
81
102
}
330
81
100
AcDbXrecord
280
     1
290
     0
291
     0
292
     0
293
     0
294
     0
 70
     0
 71
     0
  0
XRECORD
  5
87
102
{ACAD_REACTORS
330
86
102
}
330
86
100
AcDbXrecord
280
     1
290
     0
291
     0
292
     0
293
     0
294
     0
 70
     0
 71
     0
  0
XRECORD
  5
9B
102
{ACAD_REACTORS
330
9A
102
}
330
9A
100
AcDbXrecord
280
     1
290
     0
291
     0
292
     0
293
     0
294
     0
 70
     0
 71
     0
  0
XRECORD
  5
5E
102
{ACAD_REACTORS
330
5D
102
}
330
5D
100
AcDbXrecord
280
     1
290
     0
291
     0
292
     0
293
     0
294
     0
 70
     0
 71
     0
  0
DICTIONARY
  5
59
330
58
100
AcDbDictionary
280
     1
281
     1
  3
ADSK_XREC_SKYINFO
360
5A
  0
CELLSTYLEMAP
  5
289
102
{ACAD_REACTORS
330
288
102
}
330
288
100
AcDbCellStyleMap
 90
        3
300
CELLSTYLE
  1
TABLEFORMAT_BEGIN
 90
        5
170
     1
 91
        0
 92
    32768
 62
   257
 93
        1
300
CONTENTFORMAT
  1
CONTENTFORMAT_BEGIN
 90
        0
 91
        0
 92
      512
 93
        0
300

 40
0.0
140
1.0
 94
        5
 62
     0
340
B0
144
0.25
309
CONTENTFORMAT_END
171
     0
 94
        0
309
TABLEFORMAT_END
  1
CELLSTYLE_BEGIN
 90
        1
 91
        1
300
_TITLE
309
CELLSTYLE_END
300
CELLSTYLE
  1
TABLEFORMAT_BEGIN
 90
        5
170
     1
 91
        0
 92
        0
 62
   257
 93
        1
300
CONTENTFORMAT
  1
CONTENTFORMAT_BEGIN
 90
        0
 91
        0
 92
      512
 93
        0
300

 40
0.0
140
1.0
 94
        5
 62
     0
340
B0
144
0.18
309
CONTENTFORMAT_END
171
     0
 94
        0
309
TABLEFORMAT_END
  1
CELLSTYLE_BEGIN
 90
        2
 91
        1
300
_HEADER
309
CELLSTYLE_END
300
CELLSTYLE
  1
TABLEFORMAT_BEGIN
 90
        5
170
     1
 91
        0
 92
        0
 62
   257
 93
        1
300
CONTENTFORMAT
  1
CONTENTFORMAT_BEGIN
 90
        0
 91
        0
 92
      512
 93
        0
300

 40
0.0
140
1.0
 94
        2
 62
     0
340
B0
144
0.18
309
CONTENTFORMAT_END
171
     0
 94
        0
309
TABLEFORMAT_END
  1
CELLSTYLE_BEGIN
 90
        3
 91
        2
300
_DATA
309
CELLSTYLE_END
  0
XRECORD
  5
70
102
{ACAD_REACTORS
330
6F
102
}
330
6F
100
AcDbXrecord
280
     1
 70
     1
 40
1.0
 41
0.0
 42
0.0
 43
0.0
 62
    82
420
  3655735
291
     0
 63
   178
421
    66053
293
     0
 71
     0
 44
10000.0
 45
4.0
 46
1.0
 47
1.0
 72
     8
  0
XRECORD
  5
63
102
{ACAD_REACTORS
330
62
102
}
330
62
100
AcDbXrecord
280
     1
 70
     1
 40
1.0
 41
0.0
 42
0.0
 43
0.1
 62
     8
420
  8421504
291
     0
 63
   178
421
    66053
293
     0
 71
     0
 44
10000.0
 45
4.0
 46
1.0
 47
1.0
 72
     8
  0
XRECORD
  5
5A
102
{ACAD_REACTORS
330
59
102
}
330
59
100
AcDbXrecord
280
     1
 70
     1
 40
1.0
 41
0.0
 42
0.0
 43
0.1
 62
     8
420
  8421504
291
     0
 63
   178
421
    66053
293
     0
 71
     0
 44
10000.0
 45
4.0
 46
1.0
 47
1.0
 72
     8
  0
ENDSEC
  0
EOF
