<?xml version='1.0' encoding='UTF-8' standalone='no'?>
<!-- Created with Fritzing (http://www.fritzing.org/) -->
<svg xmlns="http://www.w3.org/2000/svg" baseProfile="tiny" y="0in" viewBox="0 0 378.417 134.466" height="1.86758in"  x="0in" width="5.25579in" version="1.2" xmlns:svg="http://www.w3.org/2000/svg">
 <g transform="matrix(-1, 0, 0, 1, 378.417, 0)">
  <g partID="1583831">
   <g id="silkscreen0">
    <rect y="0.288" stroke="black" height="133.89" stroke-width="0.576" width="377.841" x="0.288" fill="none"/>
   </g>
  </g>
  <g partID="1583830">
   <g id="board">
    <rect y="0.288" stroke="black" height="133.89" stroke-width="0.5" id="boardoutline" width="377.841" x="0.288" fill="none" fill-opacity="0.5"/>
   </g>
  </g>
  <g partID="1583831">
   <g id="silkscreen0">
    <rect y="0.288" stroke="black" height="133.89" stroke-width="0.576" width="377.841" x="0.288" fill="none"/>
   </g>
  </g>
  <g partID="56970">
   <g transform="translate(137.518,12.3207)">
    <g id="copper0">
     <rect y="5.184" height="3.96" stroke="white" stroke-width="2.16" width="3.96" x="20.664" fill="white"/>
     <circle cx="22.68" cy="7.2" stroke="white" stroke-width="2.16" r="1.98" id="connector0pin" fill="white"/>
     <circle cx="29.88" cy="7.2" stroke="white" stroke-width="2.16" r="1.98" id="connector1pin" fill="white"/>
     <circle cx="37.08" cy="7.2" stroke="white" stroke-width="2.16" r="1.98" id="connector2pin" fill="white"/>
     <circle cx="44.28" cy="7.2" stroke="white" stroke-width="2.16" r="1.98" id="connector3pin" fill="white"/>
     <circle cx="51.48" cy="7.2" stroke="white" stroke-width="2.16" r="1.98" id="connector4pin" fill="white"/>
     <circle cx="58.68" cy="7.2" stroke="white" stroke-width="2.16" r="1.98" id="connector5pin" fill="white"/>
     <circle cx="65.88" cy="7.2" stroke="white" stroke-width="2.16" r="1.98" id="connector6pin" fill="white"/>
     <circle cx="73.08" cy="7.2" stroke="white" stroke-width="2.16" r="1.98" id="connector7pin" fill="white"/>
     <circle cx="80.28" cy="7.2" stroke="white" stroke-width="2.16" r="1.98" id="connector8pin" fill="white"/>
     <circle cx="87.48" cy="7.2" stroke="white" stroke-width="2.16" r="1.98" id="connector9pin" fill="white"/>
     <circle cx="94.68" cy="7.2" stroke="white" stroke-width="2.16" r="1.98" id="connector10pin" fill="white"/>
     <circle cx="101.88" cy="7.2" stroke="white" stroke-width="2.16" r="1.98" id="connector11pin" fill="white"/>
     <circle cx="109.08" cy="7.2" stroke="white" stroke-width="2.16" r="1.98" id="connector12pin" fill="white"/>
     <circle cx="116.28" cy="7.2" stroke="white" stroke-width="2.16" r="1.98" id="connector13pin" fill="white"/>
     <circle cx="123.48" cy="7.2" stroke="white" stroke-width="2.16" r="1.98" id="connector14pin" fill="white"/>
     <circle cx="130.68" cy="7.2" stroke="white" stroke-width="2.16" r="1.98" id="connector15pin" fill="white"/>
    </g>
   </g>
  </g>
  <g partID="1333640">
   <g transform="translate(5.23332,58.2339)">
    <g id="copper0">
     <circle cx="4.71811" cy="4.71811" stroke="white" stroke-width="0.72" r="3.11811" id="nonconn0" fill="white"/>
    </g>
   </g>
  </g>
  <g partID="1333620">
   <g transform="translate(5.29675,22.7587)">
    <g id="copper0">
     <circle cx="4.71811" cy="4.71811" stroke="white" stroke-width="0.72" r="3.11811" id="nonconn0" fill="white"/>
    </g>
   </g>
  </g>
  <g partID="1333400">
   <g transform="translate(363.773,22.5527)">
    <g id="copper0">
     <circle cx="4.71811" cy="4.71811" stroke="white" stroke-width="0.72" r="3.11811" id="nonconn0" fill="white"/>
    </g>
   </g>
  </g>
  <g partID="1333330">
   <g transform="translate(363.758,58.3185)">
    <g id="copper0">
     <circle cx="4.71811" cy="4.71811" stroke="white" stroke-width="0.72" r="3.11811" id="nonconn0" fill="white"/>
    </g>
   </g>
  </g>
  <g partID="1356650">
   <g transform="translate(23.009,22.4661)">
    <g id="copper0">
     <circle cx="5.04" cy="5.04" stroke="white" stroke-width="2.16" r="2.84599" id="connector0pin" fill="white"/>
    </g>
   </g>
  </g>
  <g partID="381250">
   <g transform="translate(253.521,56.6682)">
    <g transform="matrix(0,1,-1,0,0,0)">
     <g id="copper0">
      <circle cx="3.6" cy="10.8" stroke="white" stroke-width="1.944" r="1.908" id="connector16pad" fill="white"/>
      <rect y="8.892" stroke="white" height="3.816" stroke-width="1.944" x="1.692" width="3.814" fill="white"/>
      <circle cx="3.6" cy="18" stroke="white" stroke-width="1.944" r="1.908" id="connector17pad" fill="white"/>
      <circle cx="3.6" cy="25.2" stroke="white" stroke-width="1.944" r="1.908" id="connector18pad" fill="white"/>
      <circle cx="3.6" cy="32.4" stroke="white" stroke-width="1.944" r="1.908" id="connector19pad" fill="white"/>
      <circle cx="3.6" cy="39.6" stroke="white" stroke-width="1.944" r="1.908" id="connector20pad" fill="white"/>
      <circle cx="3.6" cy="46.8" stroke="white" stroke-width="1.944" r="1.908" id="connector21pad" fill="white"/>
      <circle cx="3.6" cy="54" stroke="white" stroke-width="1.944" r="1.908" id="connector22pad" fill="white"/>
      <circle cx="3.6" cy="61.2" stroke="white" stroke-width="1.944" r="1.908" id="connector23pad" fill="white"/>
      <circle cx="3.6" cy="68.4" stroke="white" stroke-width="1.944" r="1.908" id="connector24pad" fill="white"/>
      <circle cx="3.6" cy="75.6" stroke="white" stroke-width="1.944" r="1.908" id="connector25pad" fill="white"/>
      <circle cx="3.6" cy="82.8" stroke="white" stroke-width="1.944" r="1.908" id="connector26pad" fill="white"/>
      <circle cx="3.6" cy="90" stroke="white" stroke-width="1.944" r="1.908" id="connector27pad" fill="white"/>
      <circle cx="3.6" cy="97.2" stroke="white" stroke-width="1.944" r="1.908" id="connector28pad" fill="white"/>
      <circle cx="3.6" cy="104.4" stroke="white" stroke-width="1.944" r="1.908" id="connector29pad" fill="white"/>
      <circle cx="3.6" cy="111.6" stroke="white" stroke-width="1.944" r="1.908" id="connector30pad" fill="white"/>
      <circle cx="46.8" cy="10.8" stroke="white" stroke-width="1.944" r="1.908" id="connector31pad" fill="white"/>
      <circle cx="46.8" cy="18" stroke="white" stroke-width="1.944" r="1.908" id="connector32pad" fill="white"/>
      <circle cx="46.8" cy="25.2" stroke="white" stroke-width="1.944" r="1.908" id="connector33pad" fill="white"/>
      <circle cx="46.8" cy="32.4" stroke="white" stroke-width="1.944" r="1.908" id="connector34pad" fill="white"/>
      <circle cx="46.8" cy="39.6" stroke="white" stroke-width="1.944" r="1.908" id="connector35pad" fill="white"/>
      <circle cx="46.8" cy="46.8" stroke="white" stroke-width="1.944" r="1.908" id="connector36pad" fill="white"/>
      <circle cx="46.8" cy="54" stroke="white" stroke-width="1.944" r="1.908" id="connector37pad" fill="white"/>
      <circle cx="46.8" cy="61.2" stroke="white" stroke-width="1.944" r="1.908" id="connector38pad" fill="white"/>
      <circle cx="46.8" cy="68.4" stroke="white" stroke-width="1.944" r="1.908" id="connector39pad" fill="white"/>
      <circle cx="46.8" cy="75.6" stroke="white" stroke-width="1.944" r="1.908" id="connector40pad" fill="white"/>
      <circle cx="46.8" cy="82.8" stroke="white" stroke-width="1.944" r="1.908" id="connector41pad" fill="white"/>
      <circle cx="46.8" cy="90" stroke="white" stroke-width="1.944" r="1.908" id="connector42pad" fill="white"/>
      <circle cx="46.8" cy="97.2" stroke="white" stroke-width="1.944" r="1.908" id="connector43pad" fill="white"/>
      <circle cx="46.8" cy="104.4" stroke="white" stroke-width="1.944" r="1.908" id="connector44pad" fill="white"/>
      <circle cx="46.8" cy="111.6" stroke="white" stroke-width="1.944" r="1.908" id="connector45pad" fill="white"/>
     </g>
    </g>
   </g>
  </g>
  <g partID="1353930">
   <g transform="translate(346.142,34.4492)">
    <g id="copper0">
     <circle cx="5.04" cy="5.04" stroke="white" stroke-width="2.16" r="2.84599" id="connector0pin" fill="white"/>
    </g>
   </g>
  </g>
  <g partID="1353330">
   <g transform="translate(346.171,46.325)">
    <g id="copper0">
     <circle cx="5.04" cy="5.04" stroke="white" stroke-width="2.16" r="2.84599" id="connector0pin" fill="white"/>
    </g>
   </g>
  </g>
  <g partID="322660">
   <g transform="translate(90.0664,43.2989)">
    <g transform="matrix(0,-1,1,0,0,0)">
     <g id="copper0">
      <circle cx="3.6" cy="8.208" stroke="white" stroke-width="2.16" r="1.98" id="connector0pin" fill="white"/>
      <circle cx="10.8" cy="8.208" stroke="white" stroke-width="2.16" r="1.98" id="connector1pin" fill="white"/>
      <circle cx="18" cy="8.208" stroke="white" stroke-width="2.16" r="1.98" id="connector2pin" fill="white"/>
     </g>
    </g>
   </g>
  </g>
  <g partID="323480">
   <g transform="translate(106.811,47.625)">
    <g transform="matrix(0,1,-1,0,0,0)">
     <g id="copper0">
      <circle cx="3.6" cy="8.208" stroke="white" stroke-width="2.16" r="1.98" id="connector0pin" fill="white"/>
      <circle cx="10.8" cy="8.208" stroke="white" stroke-width="2.16" r="1.98" id="connector1pin" fill="white"/>
      <circle cx="18" cy="8.208" stroke="white" stroke-width="2.16" r="1.98" id="connector2pin" fill="white"/>
     </g>
    </g>
   </g>
  </g>
  <g partID="325440">
   <g transform="translate(291.416,47.6647)">
    <g transform="matrix(0,1,-1,0,0,0)">
     <g id="copper0">
      <circle cx="3.6" cy="8.208" stroke="white" stroke-width="2.16" r="1.98" id="connector0pin" fill="white"/>
      <circle cx="10.8" cy="8.208" stroke="white" stroke-width="2.16" r="1.98" id="connector1pin" fill="white"/>
      <circle cx="18" cy="8.208" stroke="white" stroke-width="2.16" r="1.98" id="connector2pin" fill="white"/>
     </g>
    </g>
   </g>
  </g>
  <g partID="324620">
   <g transform="translate(275.033,43.3066)">
    <g transform="matrix(0,-1,1,0,0,0)">
     <g id="copper0">
      <circle cx="3.6" cy="8.208" stroke="white" stroke-width="2.16" r="1.98" id="connector0pin" fill="white"/>
      <circle cx="10.8" cy="8.208" stroke="white" stroke-width="2.16" r="1.98" id="connector1pin" fill="white"/>
      <circle cx="18" cy="8.208" stroke="white" stroke-width="2.16" r="1.98" id="connector2pin" fill="white"/>
     </g>
    </g>
   </g>
  </g>
  <g partID="327420">
   <g transform="translate(217.283,44.6329)">
    <g transform="matrix(-1,0,0,-1,0,0)">
     <g id="copper0">
      <g id="copper1">
       <!-- <rect width="55" x="10" y="15.5" fill="none" height="55" stroke="rgb(255, 191, 0)" stroke-width="20" />  -->
       <circle cx="2.7" cy="3.096" stroke="white" stroke-width="2.16" r="1.98" id="connector0pin" fill="white"/>
       <circle cx="31.5" cy="3.096" stroke="white" stroke-width="2.16" r="1.98" id="connector1pin" fill="white"/>
      </g>
     </g>
    </g>
   </g>
  </g>
  <g partID="327320">
   <g transform="translate(217.624,51.5317)">
    <g transform="matrix(-1,0,0,-1,0,0)">
     <g id="copper0">
      <g id="copper1">
       <!-- <rect width="55" x="10" y="15.5" fill="none" height="55" stroke="rgb(255, 191, 0)" stroke-width="20" />  -->
       <circle cx="2.7" cy="3.096" stroke="white" stroke-width="2.16" r="1.98" id="connector0pin" fill="white"/>
       <circle cx="31.5" cy="3.096" stroke="white" stroke-width="2.16" r="1.98" id="connector1pin" fill="white"/>
      </g>
     </g>
    </g>
   </g>
  </g>
  <g partID="327220">
   <g transform="translate(111.948,66.4122)">
    <g id="copper0">
     <g id="copper1">
      <!-- <rect width="55" x="10" y="15.5" fill="none" height="55" stroke="rgb(255, 191, 0)" stroke-width="20" />  -->
      <circle cx="2.7" cy="3.096" stroke="white" stroke-width="2.16" r="1.98" id="connector0pin" fill="white"/>
      <circle cx="31.5" cy="3.096" stroke="white" stroke-width="2.16" r="1.98" id="connector1pin" fill="white"/>
     </g>
    </g>
   </g>
  </g>
  <g partID="326260">
   <g transform="translate(131.923,47.0367)">
    <g id="copper0">
     <g id="copper1">
      <!-- <rect width="55" x="10" y="15.5" fill="none" height="55" stroke="rgb(255, 191, 0)" stroke-width="20" />  -->
      <circle cx="2.7" cy="3.096" stroke="white" stroke-width="2.16" r="1.98" id="connector0pin" fill="white"/>
      <circle cx="31.5" cy="3.096" stroke="white" stroke-width="2.16" r="1.98" id="connector1pin" fill="white"/>
     </g>
    </g>
   </g>
  </g>
  <g partID="1354510">
   <g transform="translate(346.278,22.5426)">
    <g id="copper0">
     <circle cx="5.04" cy="5.04" stroke="white" stroke-width="2.16" r="2.84599" id="connector0pin" fill="white"/>
    </g>
   </g>
  </g>
  <g partID="1356050">
   <g transform="translate(38.5817,22.5785)">
    <g id="copper0">
     <circle cx="5.04" cy="5.04" stroke="white" stroke-width="2.16" r="2.84599" id="connector0pin" fill="white"/>
    </g>
   </g>
  </g>
  <g partID="1354750">
   <g transform="translate(330.494,22.6242)">
    <g id="copper0">
     <circle cx="5.04" cy="5.04" stroke="white" stroke-width="2.16" r="2.84599" id="connector0pin" fill="white"/>
    </g>
   </g>
  </g>
  <g partID="1357510">
   <g transform="translate(22.7891,46.3863)">
    <g id="copper0">
     <circle cx="5.04" cy="5.04" stroke="white" stroke-width="2.16" r="2.84599" id="connector0pin" fill="white"/>
    </g>
   </g>
  </g>
  <g partID="1355470">
   <g transform="translate(330.63,58.236)">
    <g id="copper0">
     <circle cx="5.04" cy="5.04" stroke="white" stroke-width="2.16" r="2.84599" id="connector0pin" fill="white"/>
    </g>
   </g>
  </g>
  <g partID="1358150">
   <g transform="translate(38.4758,58.3286)">
    <g id="copper0">
     <circle cx="5.04" cy="5.04" stroke="white" stroke-width="2.16" r="2.84599" id="connector0pin" fill="white"/>
    </g>
   </g>
  </g>
  <g partID="1356930">
   <g transform="translate(22.8219,34.588)">
    <g id="copper0">
     <circle cx="5.04" cy="5.04" stroke="white" stroke-width="2.16" r="2.84599" id="connector0pin" fill="white"/>
    </g>
   </g>
  </g>
  <g partID="1355350">
   <g transform="translate(330.489,34.4915)">
    <g id="copper0">
     <circle cx="5.04" cy="5.04" stroke="white" stroke-width="2.16" r="2.84599" id="connector0pin" fill="white"/>
    </g>
   </g>
  </g>
  <g partID="1355410">
   <g transform="translate(330.762,46.3826)">
    <g id="copper0">
     <circle cx="5.04" cy="5.04" stroke="white" stroke-width="2.16" r="2.84599" id="connector0pin" fill="white"/>
    </g>
   </g>
  </g>
  <g partID="1358090">
   <g transform="translate(38.5004,46.3297)">
    <g id="copper0">
     <circle cx="5.04" cy="5.04" stroke="white" stroke-width="2.16" r="2.84599" id="connector0pin" fill="white"/>
    </g>
   </g>
  </g>
  <g partID="1356870">
   <g transform="translate(38.3794,34.4539)">
    <g id="copper0">
     <circle cx="5.04" cy="5.04" stroke="white" stroke-width="2.16" r="2.84599" id="connector0pin" fill="white"/>
    </g>
   </g>
  </g>
  <g partID="1358730">
   <g transform="translate(23.0386,58.3247)">
    <g id="copper0">
     <circle cx="5.04" cy="5.04" stroke="white" stroke-width="2.16" r="2.84599" id="connector0pin" fill="white"/>
    </g>
   </g>
  </g>
  <g partID="1353110">
   <g transform="translate(346.14,58.4469)">
    <g id="copper0">
     <circle cx="5.04" cy="5.04" stroke="white" stroke-width="2.16" r="2.84599" id="connector0pin" fill="white"/>
    </g>
   </g>
  </g>
  <g partID="330260">
   <g transform="translate(131.018,38.1463)">
    <g transform="matrix(-1,0,0,-1,0,0)">
     <g id="copper0">
      <rect y="4.60063" height="4.32" stroke="white" stroke-width="2.16" id="square" width="4.32" x="5.616" fill="white"/>
      <circle cx="7.776" cy="6.76063" stroke="white" stroke-width="2.16" r="2.16" id="connector0pin" fill="white"/>
      <circle cx="7.776" cy="16.6819" stroke="white" stroke-width="2.16" r="2.16" id="connector1pin" fill="white"/>
     </g>
    </g>
   </g>
  </g>
  <g partID="72100">
   <g transform="translate(40.7105,87.3619)">
    <g id="copper0">
     <rect y="2.34" height="3.96" stroke="white" stroke-width="2.16" id="square" width="3.96" x="2.34" fill="white"/>
     <circle cx="4.32" cy="4.32" stroke="white" stroke-width="2.16" r="1.98" id="connector0pin" fill="white"/>
     <circle cx="25.92" cy="4.32" stroke="white" stroke-width="2.16" r="1.98" id="connector7pin" fill="white"/>
     <circle cx="4.32" cy="11.52" stroke="white" stroke-width="2.16" r="1.98" id="connector1pin" fill="white"/>
     <circle cx="25.92" cy="11.52" stroke="white" stroke-width="2.16" r="1.98" id="connector6pin" fill="white"/>
     <circle cx="4.32" cy="18.72" stroke="white" stroke-width="2.16" r="1.98" id="connector2pin" fill="white"/>
     <circle cx="25.92" cy="18.72" stroke="white" stroke-width="2.16" r="1.98" id="connector5pin" fill="white"/>
     <circle cx="4.32" cy="25.92" stroke="white" stroke-width="2.16" r="1.98" id="connector3pin" fill="white"/>
     <circle cx="25.92" cy="25.92" stroke="white" stroke-width="2.16" r="1.98" id="connector4pin" fill="white"/>
    </g>
   </g>
  </g>
  <g partID="57120">
   <g transform="translate(264.26,26.3316)">
    <g transform="matrix(0,1,-1,0,0,0)">
     <g id="copper0">
      <g id="copper1">
       <!-- <rect width="55" x="10" y="15.5" fill="none" height="55" stroke="rgb(255, 191, 0)" stroke-width="20" />  -->
       <circle cx="2.7" cy="3.096" stroke="white" stroke-width="2.16" r="1.98" id="connector0pin" fill="white"/>
       <circle cx="31.5" cy="3.096" stroke="white" stroke-width="2.16" r="1.98" id="connector1pin" fill="white"/>
      </g>
     </g>
    </g>
   </g>
  </g>
  <g partID="73310">
   <g transform="translate(96.7827,81.129)">
    <g transform="matrix(0.707107,0.707107,-0.707107,0.707107,0,0)">
     <g id="copper0">
      <g id="copper1">
       <!-- <rect width="55" x="10" y="15.5" fill="none" height="55" stroke="rgb(255, 191, 0)" stroke-width="20" />  -->
       <circle cx="2.7" cy="3.096" stroke="white" stroke-width="2.16" r="1.98" id="connector0pin" fill="white"/>
       <circle cx="31.5" cy="3.096" stroke="white" stroke-width="2.16" r="1.98" id="connector1pin" fill="white"/>
      </g>
     </g>
    </g>
   </g>
  </g>
  <g partID="383810">
   <g transform="translate(296.611,107.733)">
    <g transform="matrix(-1,0,0,-1,0,0)">
     <g id="copper0">
      <g id="copper1">
       <!-- <rect width="55" x="10" y="15.5" fill="none" height="55" stroke="rgb(255, 191, 0)" stroke-width="20" />  -->
       <circle cx="2.7" cy="3.096" stroke="white" stroke-width="2.16" r="1.98" id="connector0pin" fill="white"/>
       <circle cx="31.5" cy="3.096" stroke="white" stroke-width="2.16" r="1.98" id="connector1pin" fill="white"/>
      </g>
     </g>
    </g>
   </g>
  </g>
  <g partID="73250">
   <g transform="translate(84.9364,80.8724)">
    <g transform="matrix(0.707107,0.707107,-0.707107,0.707107,0,0)">
     <g id="copper0">
      <g id="copper1">
       <!-- <rect width="55" x="10" y="15.5" fill="none" height="55" stroke="rgb(255, 191, 0)" stroke-width="20" />  -->
       <circle cx="2.7" cy="3.096" stroke="white" stroke-width="2.16" r="1.98" id="connector0pin" fill="white"/>
       <circle cx="31.5" cy="3.096" stroke="white" stroke-width="2.16" r="1.98" id="connector1pin" fill="white"/>
      </g>
     </g>
    </g>
   </g>
  </g>
  <g partID="137660">
   <g transform="translate(327.526,42.892)">
    <g transform="matrix(-1,0,0,-1,0,0)">
     <g id="copper0">
      <g id="copper1">
       <!-- <rect width="55" x="10" y="15.5" fill="none" height="55" stroke="rgb(255, 191, 0)" stroke-width="20" />  -->
       <circle cx="2.7" cy="3.096" stroke="white" stroke-width="2.16" r="1.98" id="connector0pin" fill="white"/>
       <circle cx="31.5" cy="3.096" stroke="white" stroke-width="2.16" r="1.98" id="connector1pin" fill="white"/>
      </g>
     </g>
    </g>
   </g>
  </g>
  <g partID="1421460">
   <g transform="translate(302.203,88.9835)">
    <g id="copper0">
     <g id="copper1">
      <!-- <rect width="55" x="10" y="15.5" fill="none" height="55" stroke="rgb(255, 191, 0)" stroke-width="20" />  -->
      <circle cx="2.7" cy="3.096" stroke="white" stroke-width="2.16" r="1.98" id="connector0pin" fill="white"/>
      <circle cx="31.5" cy="3.096" stroke="white" stroke-width="2.16" r="1.98" id="connector1pin" fill="white"/>
     </g>
    </g>
   </g>
  </g>
  <g partID="137600">
   <g transform="translate(327.483,54.2708)">
    <g transform="matrix(-1,0,0,-1,0,0)">
     <g id="copper0">
      <g id="copper1">
       <!-- <rect width="55" x="10" y="15.5" fill="none" height="55" stroke="rgb(255, 191, 0)" stroke-width="20" />  -->
       <circle cx="2.7" cy="3.096" stroke="white" stroke-width="2.16" r="1.98" id="connector0pin" fill="white"/>
       <circle cx="31.5" cy="3.096" stroke="white" stroke-width="2.16" r="1.98" id="connector1pin" fill="white"/>
      </g>
     </g>
    </g>
   </g>
  </g>
  <g partID="137480">
   <g transform="translate(51.3617,36.5208)">
    <g id="copper0">
     <g id="copper1">
      <!-- <rect width="55" x="10" y="15.5" fill="none" height="55" stroke="rgb(255, 191, 0)" stroke-width="20" />  -->
      <circle cx="2.7" cy="3.096" stroke="white" stroke-width="2.16" r="1.98" id="connector0pin" fill="white"/>
      <circle cx="31.5" cy="3.096" stroke="white" stroke-width="2.16" r="1.98" id="connector1pin" fill="white"/>
     </g>
    </g>
   </g>
  </g>
  <g partID="137540">
   <g transform="translate(51.5814,47.9131)">
    <g id="copper0">
     <g id="copper1">
      <!-- <rect width="55" x="10" y="15.5" fill="none" height="55" stroke="rgb(255, 191, 0)" stroke-width="20" />  -->
      <circle cx="2.7" cy="3.096" stroke="white" stroke-width="2.16" r="1.98" id="connector0pin" fill="white"/>
      <circle cx="31.5" cy="3.096" stroke="white" stroke-width="2.16" r="1.98" id="connector1pin" fill="white"/>
     </g>
    </g>
   </g>
  </g>
  <g partID="1418040">
   <g transform="translate(270.601,97.0459)">
    <g transform="matrix(0,-1,1,0,0,0)">
     <g id="copper0">
      <circle cx="5.04" cy="5.04" stroke="white" stroke-width="2.16" r="2.088" id="connector0pin" fill="white"/>
      <circle cx="5.04" cy="12.24" stroke="white" stroke-width="2.16" r="2.088" id="connector1pin" fill="white"/>
     </g>
    </g>
   </g>
  </g>
  <g partID="1433600">
   <g transform="translate(270.306,110.966)">
    <g transform="matrix(0,1,-1,0,0,0)">
     <g id="copper0">
      <circle cx="5.04" cy="5.04" stroke="white" stroke-width="2.16" r="2.088" id="connector0pin" fill="white"/>
      <circle cx="5.04" cy="12.24" stroke="white" stroke-width="2.16" r="2.088" id="connector1pin" fill="white"/>
     </g>
    </g>
   </g>
  </g>
  <g partID="1445050">
   <g transform="translate(260.868,119.986)">
    <g id="copper0">
     <circle cx="4.752" cy="4.752" stroke="white" stroke-width="2.16" r="1.98" id="connector0pad" fill="white"/>
     <circle cx="4.752" cy="26.0111" stroke="white" stroke-width="2.16" r="1.98" id="connector1pad" fill="white"/>
    </g>
   </g>
  </g>
  <g partID="1445990">
   <g transform="translate(253.197,119.816)">
    <g id="copper0">
     <circle cx="4.752" cy="4.752" stroke="white" stroke-width="2.16" r="1.98" id="connector0pad" fill="white"/>
     <circle cx="4.752" cy="26.352" stroke="white" stroke-width="2.16" r="1.98" id="connector1pad" fill="white"/>
    </g>
   </g>
  </g>
  <g partID="1588310">
   <g transform="translate(32.8419,97.4991)">
    <g transform="matrix(0,1,-1,0,0,0)">
     <g id="copper0">
      <circle cx="13.0439" cy="6.12" stroke="white" stroke-width="2.592" connectorname="PWR" r="5.184" id="connector2pad" fill="white"/>
      <circle cx="13.0439" cy="23.1279" stroke="white" stroke-width="2.592" connectorname="GND" r="5.184" id="connector0pad" fill="white"/>
      <circle cx="26.3668" cy="14.6239" stroke="white" stroke-width="2.592" connectorname="GNDBREAK" r="5.184" id="connector1pad" fill="white"/>
     </g>
    </g>
   </g>
  </g>
 </g>
</svg>
