; NON-PLATED HOLES START AT T1
; THROUGH (PLATED) HOLES START AT T100
M48
INCH
T1C0.086614
T100C0.036000
T101C0.040000
T102C0.035000
T103C0.059055
T104C0.118000
T105C0.038000
%
T1
X001390Y014859
X051179Y014888
X001382Y009932
X051177Y009920
T100
X033711Y010305
X032711Y004305
X032711Y010305
X030711Y004305
X033711Y004305
X021711Y010305
X022711Y004305
X019711Y010305
X019711Y004305
X020711Y010305
X021711Y004305
X023711Y010305
X026711Y004305
X028711Y010305
X027711Y010305
X026711Y010305
X023711Y004305
X025711Y004305
X022711Y010305
X028711Y004305
X029711Y010305
X027711Y004305
X024711Y004305
X029711Y004305
X031711Y010305
X030711Y010305
X031711Y004305
X020711Y004305
X024711Y010305
X025711Y010305
T101
X017117Y015694
X017117Y014316
T102
X018697Y011712
X015923Y009021
X025850Y011948
X036820Y004142
X006254Y004942
X039339Y015160
X022697Y011712
X041108Y011568
X013694Y011561
X036272Y014643
X023249Y015964
X041114Y013148
X011757Y006874
X036272Y010643
X011508Y013173
X007539Y011591
X033249Y015964
X026249Y015964
X013649Y013162
X035249Y015964
X011539Y011591
X013694Y009561
X006254Y005942
X032249Y015964
X045114Y013148
X039339Y014160
X030249Y015964
X022249Y015964
X007508Y013173
X006254Y002942
X014586Y004045
X029850Y011948
X013403Y006838
X037249Y015964
X024249Y015964
X009254Y004942
X039334Y010555
X009254Y002942
X042347Y005886
X031249Y015964
X039339Y013160
X027249Y015964
X025249Y015964
X035826Y001374
X009254Y005942
X040820Y004142
X046347Y005886
X016231Y004010
X039334Y011555
X028249Y015964
X045108Y011568
X034249Y015964
X006254Y003942
X013649Y014162
X029803Y012906
X025803Y012906
X036249Y015964
X019923Y009021
X009254Y003942
X013694Y010561
X029249Y015964
X039334Y009555
X013649Y015162
X036891Y001350
T103
X006047Y011541
X046601Y013185
X003869Y013171
X003865Y011533
X046601Y014833
X048794Y014844
X003895Y014855
X003899Y009875
X046639Y011533
X046620Y009887
X048775Y013191
X006043Y009874
X006058Y014839
X048775Y009858
X048779Y011541
X006030Y013190
T104
X002530Y001472
X003711Y003322
X001349Y003322
T105
X035842Y002563
X036842Y002563
X039283Y005897
X038283Y005897
T00
M30
