<?xml version='1.0' encoding='UTF-8' standalone='no'?>
<!-- Created with Fritzing (http://www.fritzing.org/) -->
<svg xmlns="http://www.w3.org/2000/svg" baseProfile="tiny" y="0in" viewBox="0 0 378.417 134.466" height="1.86758in"  x="0in" width="5.25579in" version="1.2" xmlns:svg="http://www.w3.org/2000/svg">
 <g partID="1583830">
  <g  id="board">
   <rect y="0.288" stroke="black" height="133.89" stroke-width="0.5"  id="boardoutline" width="377.841" x="0.288" fill="none" fill-opacity="0.5"/>
  </g>
 </g>
 <g partID="56971">
  <g transform="translate(137.518,12.3207)">
   <g  id="copper1">
    <g  id="copper0">
     <rect y="5.184" height="3.96" stroke="black" stroke-width="1.44"  width="3.96" x="20.664" fill="none"/>
     <circle cx="22.68" cy="7.2" stroke="black" stroke-width="1.44" r="1.98"  id="connector0pin" fill="none"/>
     <circle cx="29.88" cy="7.2" stroke="black" stroke-width="1.44" r="1.98"  id="connector1pin" fill="none"/>
     <circle cx="37.08" cy="7.2" stroke="black" stroke-width="1.44" r="1.98"  id="connector2pin" fill="none"/>
     <circle cx="44.28" cy="7.2" stroke="black" stroke-width="1.44" r="1.98"  id="connector3pin" fill="none"/>
     <circle cx="51.48" cy="7.2" stroke="black" stroke-width="1.44" r="1.98"  id="connector4pin" fill="none"/>
     <circle cx="58.68" cy="7.2" stroke="black" stroke-width="1.44" r="1.98"  id="connector5pin" fill="none"/>
     <circle cx="65.88" cy="7.2" stroke="black" stroke-width="1.44" r="1.98"  id="connector6pin" fill="none"/>
     <circle cx="73.08" cy="7.2" stroke="black" stroke-width="1.44" r="1.98"  id="connector7pin" fill="none"/>
     <circle cx="80.28" cy="7.2" stroke="black" stroke-width="1.44" r="1.98"  id="connector8pin" fill="none"/>
     <circle cx="87.48" cy="7.2" stroke="black" stroke-width="1.44" r="1.98"  id="connector9pin" fill="none"/>
     <circle cx="94.68" cy="7.2" stroke="black" stroke-width="1.44" r="1.98"  id="connector10pin" fill="none"/>
     <circle cx="101.88" cy="7.2" stroke="black" stroke-width="1.44" r="1.98"  id="connector11pin" fill="none"/>
     <circle cx="109.08" cy="7.2" stroke="black" stroke-width="1.44" r="1.98"  id="connector12pin" fill="none"/>
     <circle cx="116.28" cy="7.2" stroke="black" stroke-width="1.44" r="1.98"  id="connector13pin" fill="none"/>
     <circle cx="123.48" cy="7.2" stroke="black" stroke-width="1.44" r="1.98"  id="connector14pin" fill="none"/>
     <circle cx="130.68" cy="7.2" stroke="black" stroke-width="1.44" r="1.98"  id="connector15pin" fill="none"/>
    </g>
   </g>
  </g>
 </g>
 <g partID="1333641">
  <g transform="translate(5.23332,58.2339)">
   <g  id="copper1">
    <circle cx="4.71811" cy="4.71811" stroke="black" stroke-width="0" r="3.11811"  id="nonconn0" fill="black"/>
   </g>
  </g>
 </g>
 <g partID="1333621">
  <g transform="translate(5.29675,22.7587)">
   <g  id="copper1">
    <circle cx="4.71811" cy="4.71811" stroke="black" stroke-width="0" r="3.11811"  id="nonconn0" fill="black"/>
   </g>
  </g>
 </g>
 <g partID="1333401">
  <g transform="translate(363.773,22.5527)">
   <g  id="copper1">
    <circle cx="4.71811" cy="4.71811" stroke="black" stroke-width="0" r="3.11811"  id="nonconn0" fill="black"/>
   </g>
  </g>
 </g>
 <g partID="1333331">
  <g transform="translate(363.758,58.3185)">
   <g  id="copper1">
    <circle cx="4.71811" cy="4.71811" stroke="black" stroke-width="0" r="3.11811"  id="nonconn0" fill="black"/>
   </g>
  </g>
 </g>
 <g partID="1356651">
  <g transform="translate(23.009,22.4661)">
   <g  id="copper1">
    <g  id="copper0">
     <circle cx="5.04" cy="5.04" stroke="black" stroke-width="1.44" r="2.84599"  id="connector0pin" fill="none"/>
    </g>
   </g>
  </g>
 </g>
 <g partID="381251">
  <g transform="translate(253.521,56.6682)">
   <g transform="matrix(0,1,-1,0,0,0)">
    <g  id="copper1">
     <g  id="copper0">
      <circle cx="3.6" cy="10.8" stroke="black" stroke-width="1.224" r="1.908"  id="connector16pad" fill="none"/>
      <rect y="8.892" stroke="black" height="3.816" stroke-width="1.224"  x="1.692" width="3.814" fill="none"/>
      <circle cx="3.6" cy="18" stroke="black" stroke-width="1.224" r="1.908"  id="connector17pad" fill="none"/>
      <circle cx="3.6" cy="25.2" stroke="black" stroke-width="1.224" r="1.908"  id="connector18pad" fill="none"/>
      <circle cx="3.6" cy="32.4" stroke="black" stroke-width="1.224" r="1.908"  id="connector19pad" fill="none"/>
      <circle cx="3.6" cy="39.6" stroke="black" stroke-width="1.224" r="1.908"  id="connector20pad" fill="none"/>
      <circle cx="3.6" cy="46.8" stroke="black" stroke-width="1.224" r="1.908"  id="connector21pad" fill="none"/>
      <circle cx="3.6" cy="54" stroke="black" stroke-width="1.224" r="1.908"  id="connector22pad" fill="none"/>
      <circle cx="3.6" cy="61.2" stroke="black" stroke-width="1.224" r="1.908"  id="connector23pad" fill="none"/>
      <circle cx="3.6" cy="68.4" stroke="black" stroke-width="1.224" r="1.908"  id="connector24pad" fill="none"/>
      <circle cx="3.6" cy="75.6" stroke="black" stroke-width="1.224" r="1.908"  id="connector25pad" fill="none"/>
      <circle cx="3.6" cy="82.8" stroke="black" stroke-width="1.224" r="1.908"  id="connector26pad" fill="none"/>
      <circle cx="3.6" cy="90" stroke="black" stroke-width="1.224" r="1.908"  id="connector27pad" fill="none"/>
      <circle cx="3.6" cy="97.2" stroke="black" stroke-width="1.224" r="1.908"  id="connector28pad" fill="none"/>
      <circle cx="3.6" cy="104.4" stroke="black" stroke-width="1.224" r="1.908"  id="connector29pad" fill="none"/>
      <circle cx="3.6" cy="111.6" stroke="black" stroke-width="1.224" r="1.908"  id="connector30pad" fill="none"/>
      <circle cx="46.8" cy="10.8" stroke="black" stroke-width="1.224" r="1.908"  id="connector31pad" fill="none"/>
      <circle cx="46.8" cy="18" stroke="black" stroke-width="1.224" r="1.908"  id="connector32pad" fill="none"/>
      <circle cx="46.8" cy="25.2" stroke="black" stroke-width="1.224" r="1.908"  id="connector33pad" fill="none"/>
      <circle cx="46.8" cy="32.4" stroke="black" stroke-width="1.224" r="1.908"  id="connector34pad" fill="none"/>
      <circle cx="46.8" cy="39.6" stroke="black" stroke-width="1.224" r="1.908"  id="connector35pad" fill="none"/>
      <circle cx="46.8" cy="46.8" stroke="black" stroke-width="1.224" r="1.908"  id="connector36pad" fill="none"/>
      <circle cx="46.8" cy="54" stroke="black" stroke-width="1.224" r="1.908"  id="connector37pad" fill="none"/>
      <circle cx="46.8" cy="61.2" stroke="black" stroke-width="1.224" r="1.908"  id="connector38pad" fill="none"/>
      <circle cx="46.8" cy="68.4" stroke="black" stroke-width="1.224" r="1.908"  id="connector39pad" fill="none"/>
      <circle cx="46.8" cy="75.6" stroke="black" stroke-width="1.224" r="1.908"  id="connector40pad" fill="none"/>
      <circle cx="46.8" cy="82.8" stroke="black" stroke-width="1.224" r="1.908"  id="connector41pad" fill="none"/>
      <circle cx="46.8" cy="90" stroke="black" stroke-width="1.224" r="1.908"  id="connector42pad" fill="none"/>
      <circle cx="46.8" cy="97.2" stroke="black" stroke-width="1.224" r="1.908"  id="connector43pad" fill="none"/>
      <circle cx="46.8" cy="104.4" stroke="black" stroke-width="1.224" r="1.908"  id="connector44pad" fill="none"/>
      <circle cx="46.8" cy="111.6" stroke="black" stroke-width="1.224" r="1.908"  id="connector45pad" fill="none"/>
     </g>
    </g>
   </g>
  </g>
 </g>
 <g partID="1353931">
  <g transform="translate(346.142,34.4492)">
   <g  id="copper1">
    <g  id="copper0">
     <circle cx="5.04" cy="5.04" stroke="black" stroke-width="1.44" r="2.84599"  id="connector0pin" fill="none"/>
    </g>
   </g>
  </g>
 </g>
 <g partID="1353331">
  <g transform="translate(346.171,46.325)">
   <g  id="copper1">
    <g  id="copper0">
     <circle cx="5.04" cy="5.04" stroke="black" stroke-width="1.44" r="2.84599"  id="connector0pin" fill="none"/>
    </g>
   </g>
  </g>
 </g>
 <g partID="322661">
  <g transform="translate(90.0664,43.2989)">
   <g transform="matrix(0,-1,1,0,0,0)">
    <g  id="copper1">
     <g  id="copper0">
      <circle cx="3.6" cy="8.208" stroke="black" stroke-width="1.44" r="1.98"  id="connector0pin" fill="none"/>
      <circle cx="10.8" cy="8.208" stroke="black" stroke-width="1.44" r="1.98"  id="connector1pin" fill="none"/>
      <circle cx="18" cy="8.208" stroke="black" stroke-width="1.44" r="1.98"  id="connector2pin" fill="none"/>
     </g>
    </g>
   </g>
  </g>
 </g>
 <g partID="323481">
  <g transform="translate(106.811,47.625)">
   <g transform="matrix(0,1,-1,0,0,0)">
    <g  id="copper1">
     <g  id="copper0">
      <circle cx="3.6" cy="8.208" stroke="black" stroke-width="1.44" r="1.98"  id="connector0pin" fill="none"/>
      <circle cx="10.8" cy="8.208" stroke="black" stroke-width="1.44" r="1.98"  id="connector1pin" fill="none"/>
      <circle cx="18" cy="8.208" stroke="black" stroke-width="1.44" r="1.98"  id="connector2pin" fill="none"/>
     </g>
    </g>
   </g>
  </g>
 </g>
 <g partID="325441">
  <g transform="translate(291.416,47.6647)">
   <g transform="matrix(0,1,-1,0,0,0)">
    <g  id="copper1">
     <g  id="copper0">
      <circle cx="3.6" cy="8.208" stroke="black" stroke-width="1.44" r="1.98"  id="connector0pin" fill="none"/>
      <circle cx="10.8" cy="8.208" stroke="black" stroke-width="1.44" r="1.98"  id="connector1pin" fill="none"/>
      <circle cx="18" cy="8.208" stroke="black" stroke-width="1.44" r="1.98"  id="connector2pin" fill="none"/>
     </g>
    </g>
   </g>
  </g>
 </g>
 <g partID="324621">
  <g transform="translate(275.033,43.3066)">
   <g transform="matrix(0,-1,1,0,0,0)">
    <g  id="copper1">
     <g  id="copper0">
      <circle cx="3.6" cy="8.208" stroke="black" stroke-width="1.44" r="1.98"  id="connector0pin" fill="none"/>
      <circle cx="10.8" cy="8.208" stroke="black" stroke-width="1.44" r="1.98"  id="connector1pin" fill="none"/>
      <circle cx="18" cy="8.208" stroke="black" stroke-width="1.44" r="1.98"  id="connector2pin" fill="none"/>
     </g>
    </g>
   </g>
  </g>
 </g>
 <g partID="327421">
  <g transform="translate(217.283,44.6329)">
   <g transform="matrix(-1,0,0,-1,0,0)">
    <g  id="copper1">
     <!-- <rect width="55" x="10" y="15.5" fill="none" height="55" stroke="rgb(255, 191, 0)" stroke-width="20" />  -->
     <circle cx="2.7" cy="3.096" stroke="black" stroke-width="1.44" r="1.98"  id="connector0pin" fill="none"/>
     <circle cx="31.5" cy="3.096" stroke="black" stroke-width="1.44" r="1.98"  id="connector1pin" fill="none"/>
    </g>
   </g>
  </g>
 </g>
 <g partID="327321">
  <g transform="translate(217.624,51.5317)">
   <g transform="matrix(-1,0,0,-1,0,0)">
    <g  id="copper1">
     <!-- <rect width="55" x="10" y="15.5" fill="none" height="55" stroke="rgb(255, 191, 0)" stroke-width="20" />  -->
     <circle cx="2.7" cy="3.096" stroke="black" stroke-width="1.44" r="1.98"  id="connector0pin" fill="none"/>
     <circle cx="31.5" cy="3.096" stroke="black" stroke-width="1.44" r="1.98"  id="connector1pin" fill="none"/>
    </g>
   </g>
  </g>
 </g>
 <g partID="327221">
  <g transform="translate(111.948,66.4122)">
   <g  id="copper1">
    <!-- <rect width="55" x="10" y="15.5" fill="none" height="55" stroke="rgb(255, 191, 0)" stroke-width="20" />  -->
    <circle cx="2.7" cy="3.096" stroke="black" stroke-width="1.44" r="1.98"  id="connector0pin" fill="none"/>
    <circle cx="31.5" cy="3.096" stroke="black" stroke-width="1.44" r="1.98"  id="connector1pin" fill="none"/>
   </g>
  </g>
 </g>
 <g partID="326261">
  <g transform="translate(131.923,47.0367)">
   <g  id="copper1">
    <!-- <rect width="55" x="10" y="15.5" fill="none" height="55" stroke="rgb(255, 191, 0)" stroke-width="20" />  -->
    <circle cx="2.7" cy="3.096" stroke="black" stroke-width="1.44" r="1.98"  id="connector0pin" fill="none"/>
    <circle cx="31.5" cy="3.096" stroke="black" stroke-width="1.44" r="1.98"  id="connector1pin" fill="none"/>
   </g>
  </g>
 </g>
 <g partID="1354511">
  <g transform="translate(346.278,22.5426)">
   <g  id="copper1">
    <g  id="copper0">
     <circle cx="5.04" cy="5.04" stroke="black" stroke-width="1.44" r="2.84599"  id="connector0pin" fill="none"/>
    </g>
   </g>
  </g>
 </g>
 <g partID="1356051">
  <g transform="translate(38.5817,22.5785)">
   <g  id="copper1">
    <g  id="copper0">
     <circle cx="5.04" cy="5.04" stroke="black" stroke-width="1.44" r="2.84599"  id="connector0pin" fill="none"/>
    </g>
   </g>
  </g>
 </g>
 <g partID="1354751">
  <g transform="translate(330.494,22.6242)">
   <g  id="copper1">
    <g  id="copper0">
     <circle cx="5.04" cy="5.04" stroke="black" stroke-width="1.44" r="2.84599"  id="connector0pin" fill="none"/>
    </g>
   </g>
  </g>
 </g>
 <g partID="1357511">
  <g transform="translate(22.7891,46.3863)">
   <g  id="copper1">
    <g  id="copper0">
     <circle cx="5.04" cy="5.04" stroke="black" stroke-width="1.44" r="2.84599"  id="connector0pin" fill="none"/>
    </g>
   </g>
  </g>
 </g>
 <g partID="1355471">
  <g transform="translate(330.63,58.236)">
   <g  id="copper1">
    <g  id="copper0">
     <circle cx="5.04" cy="5.04" stroke="black" stroke-width="1.44" r="2.84599"  id="connector0pin" fill="none"/>
    </g>
   </g>
  </g>
 </g>
 <g partID="1358151">
  <g transform="translate(38.4758,58.3286)">
   <g  id="copper1">
    <g  id="copper0">
     <circle cx="5.04" cy="5.04" stroke="black" stroke-width="1.44" r="2.84599"  id="connector0pin" fill="none"/>
    </g>
   </g>
  </g>
 </g>
 <g partID="1356931">
  <g transform="translate(22.8219,34.588)">
   <g  id="copper1">
    <g  id="copper0">
     <circle cx="5.04" cy="5.04" stroke="black" stroke-width="1.44" r="2.84599"  id="connector0pin" fill="none"/>
    </g>
   </g>
  </g>
 </g>
 <g partID="1355351">
  <g transform="translate(330.489,34.4915)">
   <g  id="copper1">
    <g  id="copper0">
     <circle cx="5.04" cy="5.04" stroke="black" stroke-width="1.44" r="2.84599"  id="connector0pin" fill="none"/>
    </g>
   </g>
  </g>
 </g>
 <g partID="1355411">
  <g transform="translate(330.762,46.3826)">
   <g  id="copper1">
    <g  id="copper0">
     <circle cx="5.04" cy="5.04" stroke="black" stroke-width="1.44" r="2.84599"  id="connector0pin" fill="none"/>
    </g>
   </g>
  </g>
 </g>
 <g partID="1358091">
  <g transform="translate(38.5004,46.3297)">
   <g  id="copper1">
    <g  id="copper0">
     <circle cx="5.04" cy="5.04" stroke="black" stroke-width="1.44" r="2.84599"  id="connector0pin" fill="none"/>
    </g>
   </g>
  </g>
 </g>
 <g partID="1356871">
  <g transform="translate(38.3794,34.4539)">
   <g  id="copper1">
    <g  id="copper0">
     <circle cx="5.04" cy="5.04" stroke="black" stroke-width="1.44" r="2.84599"  id="connector0pin" fill="none"/>
    </g>
   </g>
  </g>
 </g>
 <g partID="1358731">
  <g transform="translate(23.0386,58.3247)">
   <g  id="copper1">
    <g  id="copper0">
     <circle cx="5.04" cy="5.04" stroke="black" stroke-width="1.44" r="2.84599"  id="connector0pin" fill="none"/>
    </g>
   </g>
  </g>
 </g>
 <g partID="1353111">
  <g transform="translate(346.14,58.4469)">
   <g  id="copper1">
    <g  id="copper0">
     <circle cx="5.04" cy="5.04" stroke="black" stroke-width="1.44" r="2.84599"  id="connector0pin" fill="none"/>
    </g>
   </g>
  </g>
 </g>
 <g partID="330261">
  <g transform="translate(131.018,38.1463)">
   <g transform="matrix(-1,0,0,-1,0,0)">
    <g id="copper1">
     <g id="copper0">
      <rect y="4.60063" height="4.32" stroke="black" stroke-width="1.44" id="square" width="4.32" x="5.616" fill="none"/>
      <circle cx="7.776" cy="6.76063" stroke="black" stroke-width="1.44" r="2.16" id="connector0pin" fill="none"/>
      <circle cx="7.776" cy="16.6819" stroke="black" stroke-width="1.44" r="2.16" id="connector1pin" fill="none"/>
     </g>
    </g>
   </g>
  </g>
 </g>
 <g partID="72101">
  <g transform="translate(40.7105,87.3619)">
   <g  id="copper1">
    <g  id="copper0">
     <rect y="2.34" height="3.96" stroke="black" stroke-width="1.44"  id="square" width="3.96" x="2.34" fill="none"/>
     <circle cx="4.32" cy="4.32" stroke="black" stroke-width="1.44" r="1.98"  id="connector0pin" fill="none"/>
     <circle cx="25.92" cy="4.32" stroke="black" stroke-width="1.44" r="1.98"  id="connector7pin" fill="none"/>
     <circle cx="4.32" cy="11.52" stroke="black" stroke-width="1.44" r="1.98"  id="connector1pin" fill="none"/>
     <circle cx="25.92" cy="11.52" stroke="black" stroke-width="1.44" r="1.98"  id="connector6pin" fill="none"/>
     <circle cx="4.32" cy="18.72" stroke="black" stroke-width="1.44" r="1.98"  id="connector2pin" fill="none"/>
     <circle cx="25.92" cy="18.72" stroke="black" stroke-width="1.44" r="1.98"  id="connector5pin" fill="none"/>
     <circle cx="4.32" cy="25.92" stroke="black" stroke-width="1.44" r="1.98"  id="connector3pin" fill="none"/>
     <circle cx="25.92" cy="25.92" stroke="black" stroke-width="1.44" r="1.98"  id="connector4pin" fill="none"/>
    </g>
   </g>
  </g>
 </g>
 <g partID="57121">
  <g transform="translate(264.26,26.3316)">
   <g transform="matrix(0,1,-1,0,0,0)">
    <g  id="copper1">
     <!-- <rect width="55" x="10" y="15.5" fill="none" height="55" stroke="rgb(255, 191, 0)" stroke-width="20" />  -->
     <circle cx="2.7" cy="3.096" stroke="black" stroke-width="1.44" r="1.98"  id="connector0pin" fill="none"/>
     <circle cx="31.5" cy="3.096" stroke="black" stroke-width="1.44" r="1.98"  id="connector1pin" fill="none"/>
    </g>
   </g>
  </g>
 </g>
 <g partID="73311">
  <g transform="translate(96.7827,81.129)">
   <g transform="matrix(0.707107,0.707107,-0.707107,0.707107,0,0)">
    <g  id="copper1">
     <!-- <rect width="55" x="10" y="15.5" fill="none" height="55" stroke="rgb(255, 191, 0)" stroke-width="20" />  -->
     <circle cx="2.7" cy="3.096" stroke="black" stroke-width="1.44" r="1.98"  id="connector0pin" fill="none"/>
     <circle cx="31.5" cy="3.096" stroke="black" stroke-width="1.44" r="1.98"  id="connector1pin" fill="none"/>
    </g>
   </g>
  </g>
 </g>
 <g partID="383811">
  <g transform="translate(296.611,107.733)">
   <g transform="matrix(-1,0,0,-1,0,0)">
    <g  id="copper1">
     <!-- <rect width="55" x="10" y="15.5" fill="none" height="55" stroke="rgb(255, 191, 0)" stroke-width="20" />  -->
     <circle cx="2.7" cy="3.096" stroke="black" stroke-width="1.44" r="1.98"  id="connector0pin" fill="none"/>
     <circle cx="31.5" cy="3.096" stroke="black" stroke-width="1.44" r="1.98"  id="connector1pin" fill="none"/>
    </g>
   </g>
  </g>
 </g>
 <g partID="73251">
  <g transform="translate(84.9364,80.8724)">
   <g transform="matrix(0.707107,0.707107,-0.707107,0.707107,0,0)">
    <g  id="copper1">
     <!-- <rect width="55" x="10" y="15.5" fill="none" height="55" stroke="rgb(255, 191, 0)" stroke-width="20" />  -->
     <circle cx="2.7" cy="3.096" stroke="black" stroke-width="1.44" r="1.98"  id="connector0pin" fill="none"/>
     <circle cx="31.5" cy="3.096" stroke="black" stroke-width="1.44" r="1.98"  id="connector1pin" fill="none"/>
    </g>
   </g>
  </g>
 </g>
 <g partID="137661">
  <g transform="translate(327.526,42.892)">
   <g transform="matrix(-1,0,0,-1,0,0)">
    <g  id="copper1">
     <!-- <rect width="55" x="10" y="15.5" fill="none" height="55" stroke="rgb(255, 191, 0)" stroke-width="20" />  -->
     <circle cx="2.7" cy="3.096" stroke="black" stroke-width="1.44" r="1.98"  id="connector0pin" fill="none"/>
     <circle cx="31.5" cy="3.096" stroke="black" stroke-width="1.44" r="1.98"  id="connector1pin" fill="none"/>
    </g>
   </g>
  </g>
 </g>
 <g partID="137601">
  <g transform="translate(327.483,54.2708)">
   <g transform="matrix(-1,0,0,-1,0,0)">
    <g  id="copper1">
     <!-- <rect width="55" x="10" y="15.5" fill="none" height="55" stroke="rgb(255, 191, 0)" stroke-width="20" />  -->
     <circle cx="2.7" cy="3.096" stroke="black" stroke-width="1.44" r="1.98"  id="connector0pin" fill="none"/>
     <circle cx="31.5" cy="3.096" stroke="black" stroke-width="1.44" r="1.98"  id="connector1pin" fill="none"/>
    </g>
   </g>
  </g>
 </g>
 <g partID="137481">
  <g transform="translate(51.3617,36.5208)">
   <g  id="copper1">
    <!-- <rect width="55" x="10" y="15.5" fill="none" height="55" stroke="rgb(255, 191, 0)" stroke-width="20" />  -->
    <circle cx="2.7" cy="3.096" stroke="black" stroke-width="1.44" r="1.98"  id="connector0pin" fill="none"/>
    <circle cx="31.5" cy="3.096" stroke="black" stroke-width="1.44" r="1.98"  id="connector1pin" fill="none"/>
   </g>
  </g>
 </g>
 <g partID="137541">
  <g transform="translate(51.5814,47.9131)">
   <g  id="copper1">
    <!-- <rect width="55" x="10" y="15.5" fill="none" height="55" stroke="rgb(255, 191, 0)" stroke-width="20" />  -->
    <circle cx="2.7" cy="3.096" stroke="black" stroke-width="1.44" r="1.98"  id="connector0pin" fill="none"/>
    <circle cx="31.5" cy="3.096" stroke="black" stroke-width="1.44" r="1.98"  id="connector1pin" fill="none"/>
   </g>
  </g>
 </g>
 <g partID="1418041">
  <g transform="translate(270.601,97.0459)">
   <g transform="matrix(0,-1,1,0,0,0)">
    <g  id="copper1">
     <g  id="copper0">
      <circle cx="5.04" cy="5.04" stroke="black" stroke-width="1.44" r="2.088"  id="connector0pin" fill="none"/>
      <circle cx="5.04" cy="12.24" stroke="black" stroke-width="1.44" r="2.088"  id="connector1pin" fill="none"/>
     </g>
    </g>
   </g>
  </g>
 </g>
 <g partID="1421390">
  <g transform="translate(332.249,119.659)">
   <g transform="matrix(0,-1,1,0,0,0)">
    <g  id="copper1">
     <rect y="0.566929" height="3.11811" stroke="none"  id="connector0pad" width="3.40157" x="0.566929" fill="black" fill-opacity="1"/>
     <rect y="0.566929" height="3.11811" stroke="none"  id="connector1pad" width="3.40157" x="5.38583" fill="black" fill-opacity="1"/>
    </g>
   </g>
  </g>
 </g>
 <g partID="1421461">
  <g transform="translate(302.203,88.9835)">
   <g  id="copper1">
    <!-- <rect width="55" x="10" y="15.5" fill="none" height="55" stroke="rgb(255, 191, 0)" stroke-width="20" />  -->
    <circle cx="2.7" cy="3.096" stroke="black" stroke-width="1.44" r="1.98"  id="connector0pin" fill="none"/>
    <circle cx="31.5" cy="3.096" stroke="black" stroke-width="1.44" r="1.98"  id="connector1pin" fill="none"/>
   </g>
  </g>
 </g>
 <g partID="1445051">
  <g transform="translate(260.868,119.986)">
   <g  id="copper1">
    <circle cx="4.752" cy="4.752" stroke="black" stroke-width="1.44" r="1.98"  id="connector0pad" fill="none"/>
    <circle cx="4.752" cy="26.0111" stroke="black" stroke-width="1.44" r="1.98"  id="connector1pad" fill="none"/>
   </g>
  </g>
 </g>
 <g partID="1445991">
  <g transform="translate(253.197,119.816)">
   <g  id="copper1">
    <circle cx="4.752" cy="4.752" stroke="black" stroke-width="1.44" r="1.98"  id="connector0pad" fill="none"/>
    <circle cx="4.752" cy="26.352" stroke="black" stroke-width="1.44" r="1.98"  id="connector1pad" fill="none"/>
   </g>
  </g>
 </g>
 <g partID="1433601">
  <g transform="translate(270.306,110.966)">
   <g transform="matrix(0,1,-1,0,0,0)">
    <g  id="copper1">
     <g  id="copper0">
      <circle cx="5.04" cy="5.04" stroke="black" stroke-width="1.44" r="2.088"  id="connector0pin" fill="none"/>
      <circle cx="5.04" cy="12.24" stroke="black" stroke-width="1.44" r="2.088"  id="connector1pin" fill="none"/>
     </g>
    </g>
   </g>
  </g>
 </g>
 <g partID="1449960">
  <line stroke-linecap="round" stroke="black" y1="123.18" stroke-width="1.728" x2="259.485" x1="264.272" y2="117.645"/>
 </g>
 <g partID="1480770">
  <line stroke-linecap="round" stroke="black" y1="39.7778" stroke-width="3.456" x2="17.6755" x1="17.7903" y2="10.9748"/>
 </g>
 <g partID="1480230">
  <line stroke-linecap="round" stroke="black" y1="10.9748" stroke-width="3.456" x2="108.562" x1="17.6755" y2="11.3462"/>
 </g>
 <g partID="1479600">
  <line stroke-linecap="round" stroke="black" y1="11.3462" stroke-width="3.456" x2="121.398" x1="108.562" y2="20.1931"/>
 </g>
 <g partID="1479160">
  <line stroke-linecap="round" stroke="black" y1="39.6834" stroke-width="3.456" x2="17.7903" x1="24.1364" y2="39.7778"/>
 </g>
 <g partID="1480020">
  <line stroke-linecap="round" stroke="black" y1="4.66339" stroke-width="3.456" x2="117.497" x1="3.79044" y2="5.18404"/>
 </g>
 <g partID="1479810">
  <line stroke-linecap="round" stroke="black" y1="5.18404" stroke-width="3.456" x2="122.497" x1="117.497" y2="19.352"/>
 </g>
 <g partID="1479390">
  <line stroke-linecap="round" stroke="black" y1="51.435" stroke-width="3.456" x2="3.79044" x1="24.1031" y2="51.4826"/>
 </g>
 <g partID="1480440">
  <line stroke-linecap="round" stroke="black" y1="51.4826" stroke-width="3.456" x2="3.79044" x1="3.79044" y2="4.66339"/>
 </g>
 <g partID="1487210">
  <line stroke-linecap="round" stroke="black" y1="69.4594" stroke-width="1.728" x2="156.369" x1="145.507" y2="69.2022"/>
 </g>
 <g partID="1487280">
  <line stroke-linecap="round" stroke="black" y1="67.4492" stroke-width="1.728" x2="114.301" x1="114.583" y2="58.5282"/>
 </g>
 <g partID="1487470">
  <line stroke-linecap="round" stroke="black" y1="65.5407" stroke-width="3.456" x2="46.4393" x1="96.5443" y2="63.4883"/>
 </g>
 <g partID="1487670">
  <line stroke-linecap="round" stroke="black" y1="39.593" stroke-width="1.728" x2="46.3452" x1="52.0018" y2="39.5277"/>
 </g>
 <g partID="1487760">
  <line stroke-linecap="round" stroke="black" y1="51.0782" stroke-width="1.728" x2="46.4647" x1="52.2226" y2="51.2715"/>
 </g>
 <g partID="1488210">
  <line stroke-linecap="round" stroke="black" y1="25.3862" stroke-width="3.456" x2="46.545" x1="96.2162" y2="27.4944"/>
 </g>
 <g partID="1488310">
  <line stroke-linecap="round" stroke="black" y1="50.1498" stroke-width="1.728" x2="110.993" x1="132.563" y2="50.3298"/>
 </g>
 <g partID="1489120">
  <line stroke-linecap="round" stroke="black" y1="50.3298" stroke-width="1.728" x2="110.534" x1="110.993" y2="32.4711"/>
 </g>
 <g partID="1490270">
  <line stroke-linecap="round" stroke="black" y1="52.1926" stroke-width="1.728" x2="163.501" x1="163.443" y2="58.1723"/>
 </g>
 <g partID="1490380">
  <line stroke-linecap="round" stroke="black" y1="39.6879" stroke-width="3.456" x2="84.9216" x1="96.2144" y2="39.6277"/>
 </g>
 <g partID="1491090">
  <line stroke-linecap="round" stroke="black" y1="51.1964" stroke-width="3.456" x2="85.1412" x1="96.5427" y2="51.0377"/>
 </g>
 <g partID="1491780">
  <line stroke-linecap="round" stroke="black" y1="48.9495" stroke-width="3.456" x2="82.9014" x1="83.0417" y2="41.6764"/>
 </g>
 <g partID="1505480">
  <line stroke-linecap="round" stroke="black" y1="39.3188" stroke-width="3.456" x2="360.098" x1="360.442" y2="10.6305"/>
 </g>
 <g partID="1505310">
  <line stroke-linecap="round" stroke="black" y1="10.6305" stroke-width="3.456" x2="135.059" x1="360.098" y2="10.73"/>
 </g>
 <g partID="1504270">
  <line stroke-linecap="round" stroke="black" y1="39.4206" stroke-width="3.456" x2="360.442" x1="354.907" y2="39.3188"/>
 </g>
 <g partID="1504630">
  <line stroke-linecap="round" stroke="black" y1="10.73" stroke-width="3.456" x2="124.9" x1="135.059" y2="19.9582"/>
 </g>
 <g partID="1505140">
  <line stroke-linecap="round" stroke="black" y1="50.9088" stroke-width="3.456" x2="373.983" x1="374.213" y2="5.46666"/>
 </g>
 <g partID="1504970">
  <line stroke-linecap="round" stroke="black" y1="5.46666" stroke-width="3.456" x2="129.856" x1="373.983" y2="5.0596"/>
 </g>
 <g partID="1504460">
  <line stroke-linecap="round" stroke="black" y1="51.2911" stroke-width="3.456" x2="374.213" x1="354.936" y2="50.9088"/>
 </g>
 <g partID="1504800">
  <line stroke-linecap="round" stroke="black" y1="5.0596" stroke-width="3.456" x2="124.379" x1="129.856" y2="18.6449"/>
 </g>
 <g partID="1505650">
  <line stroke-linecap="round" stroke="black" y1="25.3994" stroke-width="3.456" x2="332.611" x1="285.299" y2="27.5325"/>
 </g>
 <g partID="1505700">
  <line stroke-linecap="round" stroke="black" y1="65.571" stroke-width="3.456" x2="332.747" x1="285.266" y2="63.4091"/>
 </g>
 <g partID="1505750">
  <line stroke-linecap="round" stroke="black" y1="39.721" stroke-width="3.456" x2="293.966" x1="285.301" y2="39.7816"/>
 </g>
 <g partID="1506420">
  <line stroke-linecap="round" stroke="black" y1="51.2502" stroke-width="3.456" x2="293.923" x1="285.268" y2="51.1893"/>
 </g>
 <g partID="1507810">
  <line stroke-linecap="round" stroke="black" y1="41.5325" stroke-width="1.728" x2="270.643" x1="216.643" y2="41.4184"/>
 </g>
 <g partID="1509140">
  <line stroke-linecap="round" stroke="black" y1="41.5279" stroke-width="1.728" x2="170.672" x1="183.723" y2="41.4714"/>
 </g>
 <g partID="1509190">
  <line stroke-linecap="round" stroke="black" y1="48.4086" stroke-width="1.728" x2="177.717" x1="184.064" y2="48.3251"/>
 </g>
 <g partID="1509530">
  <line stroke-linecap="round" stroke="black" y1="48.3251" stroke-width="1.728" x2="216.984" x1="272.056" y2="48.4317"/>
 </g>
 <g partID="1509580">
  <line stroke-linecap="round" stroke="black" y1="58.6628" stroke-width="1.728" x2="272.056" x1="272.121" y2="48.3251"/>
 </g>
 <g partID="1509240">
  <line stroke-linecap="round" stroke="black" y1="58.5015" stroke-width="1.728" x2="272.121" x1="281.148" y2="58.6628"/>
 </g>
 <g partID="1521130">
  <line stroke-linecap="round" stroke="black" y1="21.5804" stroke-width="1.728" x2="261.128" x1="261.034" y2="26.9719"/>
 </g>
 <g partID="1539520">
  <line stroke-linecap="round" stroke="black" y1="48.3251" stroke-width="1.728" x2="177.885" x1="177.717" y2="58.1725"/>
 </g>
 <g partID="1540270">
  <line stroke-linecap="round" stroke="black" y1="41.4714" stroke-width="1.728" x2="170.716" x1="170.672" y2="58.1722"/>
 </g>
 <g partID="1551630">
  <line stroke-linecap="round" stroke="black" y1="32.4711" stroke-width="1.728" x2="100.334" x1="110.534" y2="32.4942"/>
 </g>
 <g partID="1551820">
  <line stroke-linecap="round" stroke="black" y1="34.8257" stroke-width="1.728" x2="196.083" x1="148.991" y2="34.8257"/>
 </g>
 <g partID="1551870">
  <line stroke-linecap="round" stroke="black" y1="34.8257" stroke-width="1.728" x2="196.183" x1="196.083" y2="21.5806"/>
 </g>
 <g partID="1516630">
  <line stroke-linecap="round" stroke="black" y1="58.1722" stroke-width="1.728" x2="148.991" x1="149.11" y2="34.8257"/>
 </g>
 <g partID="1570910">
  <line stroke-linecap="round" stroke="black" y1="85.908" stroke-width="1.728" x2="221.388" x1="221.021" y2="85.5141"/>
 </g>
 <g partID="1553970">
  <line stroke-linecap="round" stroke="black" y1="85.5141" stroke-width="1.728" x2="98.5627" x1="221.388" y2="85.2321"/>
 </g>
 <g partID="1553660">
  <line stroke-linecap="round" stroke="black" y1="101.372" stroke-width="1.728" x2="221.021" x1="221.109" y2="85.908"/>
 </g>
 <g partID="1554440">
  <line stroke-linecap="round" stroke="black" y1="41.4184" stroke-width="1.728" x2="270.513" x1="270.643" y2="32.7832"/>
 </g>
 <g partID="1554490">
  <line stroke-linecap="round" stroke="black" y1="32.7832" stroke-width="1.728" x2="281.182" x1="270.513" y2="32.5514"/>
 </g>
 <g partID="1551760">
  <line stroke-linecap="round" stroke="black" y1="29.9596" stroke-width="1.728" x2="181.794" x1="141.771" y2="29.9046"/>
 </g>
 <g partID="1553130">
  <line stroke-linecap="round" stroke="black" y1="29.9046" stroke-width="1.728" x2="181.798" x1="181.794" y2="21.5807"/>
 </g>
 <g partID="1551770">
  <line stroke-linecap="round" stroke="black" y1="58.1722" stroke-width="1.728" x2="141.771" x1="141.911" y2="29.9596"/>
 </g>
 <g partID="1559100">
  <line stroke-linecap="round" stroke="black" y1="41.856" stroke-width="3.456" x2="295.99" x1="296.018" y2="49.1148"/>
 </g>
 <g partID="1560960">
  <line stroke-linecap="round" stroke="black" y1="84.9377" stroke-width="1.728" x2="82.5964" x1="66.3177" y2="84.9671"/>
 </g>
 <g partID="1560970">
  <line stroke-linecap="round" stroke="black" y1="89.6241" stroke-width="1.728" x2="66.3177" x1="66.535" y2="84.9377"/>
 </g>
 <g partID="1561460">
  <line stroke-linecap="round" stroke="black" y1="85.0154" stroke-width="1.728" x2="94.4432" x1="86.7159" y2="85.1828"/>
 </g>
 <g partID="1562450">
  <line stroke-linecap="round" stroke="black" y1="106.042" stroke-width="1.728" x2="102.961" x1="68.6901" y2="105.376"/>
 </g>
 <g partID="1562710">
  <line stroke-linecap="round" stroke="black" y1="113.319" stroke-width="1.728" x2="105.053" x1="199.589" y2="113.319"/>
 </g>
 <g partID="1562630">
  <line stroke-linecap="round" stroke="black" y1="113.319" stroke-width="1.728" x2="105.029" x1="105.053" y2="107.395"/>
 </g>
 <g partID="1562640">
  <line stroke-linecap="round" stroke="black" y1="105.564" stroke-width="1.728" x2="199.589" x1="199.536" y2="113.319"/>
 </g>
 <g partID="1562880">
  <line stroke-linecap="round" stroke="black" y1="69.2022" stroke-width="1.728" x2="156.332" x1="156.369" y2="62.3641"/>
 </g>
 <g partID="1563250">
  <line stroke-linecap="round" stroke="black" y1="85.3701" stroke-width="1.728" x2="66.3177" x1="28.2812" y2="85.0466"/>
 </g>
 <g partID="1563540">
  <line stroke-linecap="round" stroke="black" y1="85.0466" stroke-width="1.728" x2="66.5335" x1="66.3177" y2="89.6241"/>
 </g>
 <g partID="1562950">
  <line stroke-linecap="round" stroke="black" y1="66.2905" stroke-width="1.728" x2="28.2812" x1="28.1055" y2="85.3701"/>
 </g>
 <g partID="1566030">
  <line stroke-linecap="round" stroke="black" y1="97.8225" stroke-width="1.728" x2="221.05" x1="220.93" y2="101.373"/>
 </g>
 <g partID="1572190">
  <line stroke-linecap="round" stroke="black" y1="98.0305" stroke-width="1.728" x2="220.93" x1="293.724" y2="97.8225"/>
 </g>
 <g partID="1564720">
  <line stroke-linecap="round" stroke="black" y1="102.578" stroke-width="1.728" x2="293.724" x1="293.852" y2="98.0305"/>
 </g>
 <g partID="1570100">
  <line stroke-linecap="round" stroke="black" y1="112.827" stroke-width="1.728" x2="55.2881" x1="55.445" y2="99.0141"/>
 </g>
 <g partID="1569600">
  <line stroke-linecap="round" stroke="black" y1="99.0141" stroke-width="1.728" x2="64.5706" x1="55.2881" y2="98.9059"/>
 </g>
 <g partID="1569610">
  <line stroke-linecap="round" stroke="black" y1="113.192" stroke-width="1.728" x2="55.445" x1="47.0885" y2="112.827"/>
 </g>
 <g partID="1574550">
  <line stroke-linecap="round" stroke="black" y1="112.84" stroke-width="1.728" x2="46.941" x1="46.8037" y2="121.648"/>
 </g>
 <g partID="1574080">
  <line stroke-linecap="round" stroke="black" y1="121.648" stroke-width="1.728" x2="235.512" x1="46.941" y2="121.699"/>
 </g>
 <g partID="1573610">
  <line stroke-linecap="round" stroke="black" y1="121.699" stroke-width="1.728" x2="235.52" x1="235.512" y2="105.564"/>
 </g>
 <g partID="1573140">
  <line stroke-linecap="round" stroke="black" y1="112.784" stroke-width="1.728" x2="46.8037" x1="47.0293" y2="112.84"/>
 </g>
 <g partID="1572610">
  <line stroke-linecap="round" stroke="black" y1="115.964" stroke-width="1.728" x2="235.512" x1="255.899" y2="115.57"/>
 </g>
 <g partID="1572600">
  <line stroke-linecap="round" stroke="black" y1="115.57" stroke-width="1.728" x2="235.52" x1="235.512" y2="105.564"/>
 </g>
 <g partID="1578140">
  <line stroke-linecap="round" stroke="black" y1="58.5282" stroke-width="1.728" x2="100.662" x1="114.301" y2="58.4386"/>
 </g>
 <g partID="1531840">
  <line stroke-linecap="round" stroke="black" y1="85.9676" stroke-width="1.728" x2="261.203" x1="261.695" y2="59.8912"/>
 </g>
 <g partID="1533020">
  <line stroke-linecap="round" stroke="black" y1="85.5999" stroke-width="1.728" x2="261.695" x1="221.021" y2="85.9676"/>
 </g>
 <g partID="1531850">
  <line stroke-linecap="round" stroke="black" y1="101.372" stroke-width="1.728" x2="221.021" x1="221.109" y2="85.5999"/>
 </g>
 <g partID="1534820">
  <line stroke-linecap="round" stroke="black" y1="85.6841" stroke-width="1.728" x2="261.765" x1="360.744" y2="85.5734"/>
 </g>
 <g partID="1534440">
  <line stroke-linecap="round" stroke="black" y1="85.5734" stroke-width="1.728" x2="261.208" x1="261.765" y2="59.8911"/>
 </g>
 <g partID="1535190">
  <line stroke-linecap="round" stroke="black" y1="63.634" stroke-width="1.728" x2="360.744" x1="360.434" y2="85.6841"/>
 </g>
 <g partID="1534450">
  <line stroke-linecap="round" stroke="black" y1="63.5334" stroke-width="1.728" x2="360.434" x1="354.106" y2="63.634"/>
 </g>
 <g partID="1588311">
  <g transform="translate(32.8419,97.4991)">
   <g transform="matrix(0,1,-1,0,0,0)">
    <g  id="copper1">
     <circle cx="13.0439" cy="6.12" stroke="black" stroke-width="1.872" connectorname="PWR" r="5.184"  id="connector2pad" fill="none"/>
     <circle cx="13.0439" cy="23.1279" stroke="black" stroke-width="1.872" connectorname="GND" r="5.184"  id="connector0pad" fill="none"/>
     <circle cx="26.3668" cy="14.6239" stroke="black" stroke-width="1.872" connectorname="GNDBREAK" r="5.184"  id="connector1pad" fill="none"/>
     <g  id="copper0">
      <circle cx="13.0439" cy="6.12" stroke="black" stroke-width="1.872" connectorname="PWR" r="5.184"  id="connector2pad" fill="none"/>
      <circle cx="13.0439" cy="23.1279" stroke="black" stroke-width="1.872" connectorname="GND" r="5.184"  id="connector0pad" fill="none"/>
      <circle cx="26.3668" cy="14.6239" stroke="black" stroke-width="1.872" connectorname="GNDBREAK" r="5.184"  id="connector1pad" fill="none"/>
     </g>
    </g>
   </g>
  </g>
 </g>
 <g partID="1589320">
  <line stroke-linecap="round" stroke="black" y1="111.271" stroke-width="1.728" x2="333.771" x1="334.332" y2="94.1384"/>
 </g>
 <g partID="1589860">
  <line stroke-linecap="round" stroke="black" y1="118.692" stroke-width="1.728" x2="334.434" x1="334.386" y2="124.275"/>
 </g>
 <g partID="1590310">
  <line stroke-linecap="round" stroke="black" y1="124.275" stroke-width="1.728" x2="267.68" x1="334.434" y2="124.724"/>
 </g>
</svg>
