G04 MADE WITH FRITZING*
G04 WWW.FRITZING.ORG*
G04 DOUBLE SIDED*
G04 HOLES PLATED*
G04 CONTOUR ON CENTER OF CONTOUR VECTOR*
%ASAXBY*%
%FSLAX23Y23*%
%MOIN*%
%OFA0B0*%
%SFA1.0B1.0*%
%ADD10R,1.038800X1.161380X1.022800X1.145380*%
%ADD11C,0.008000*%
%ADD12C,0.010000*%
%ADD13R,0.001000X0.001000*%
%LNSILK1*%
G90*
G70*
G54D11*
X4Y1157D02*
X1035Y1157D01*
X1035Y4D01*
X4Y4D01*
X4Y1157D01*
D02*
G54D12*
X550Y112D02*
X471Y112D01*
D02*
X629Y309D02*
X629Y141D01*
D02*
X393Y309D02*
X393Y141D01*
D02*
X550Y348D02*
X471Y348D01*
D02*
X530Y230D02*
X491Y230D01*
D02*
X511Y210D02*
X511Y250D01*
D02*
X172Y649D02*
X250Y649D01*
D02*
X93Y452D02*
X93Y619D01*
D02*
X329Y452D02*
X329Y619D01*
D02*
X172Y413D02*
X250Y413D01*
D02*
X191Y531D02*
X231Y531D01*
D02*
X211Y551D02*
X211Y511D01*
D02*
X467Y952D02*
X546Y952D01*
D02*
X388Y755D02*
X388Y922D01*
D02*
X625Y755D02*
X625Y922D01*
D02*
X467Y715D02*
X546Y715D01*
D02*
X487Y834D02*
X526Y834D01*
D02*
X507Y853D02*
X507Y814D01*
D02*
X768Y652D02*
X847Y652D01*
D02*
X689Y455D02*
X689Y623D01*
D02*
X925Y455D02*
X925Y623D01*
D02*
X768Y416D02*
X847Y416D01*
D02*
X788Y534D02*
X827Y534D01*
D02*
X807Y554D02*
X807Y514D01*
G54D13*
X85Y1161D02*
X105Y1161D01*
X186Y1161D02*
X206Y1161D01*
X285Y1161D02*
X305Y1161D01*
X826Y1161D02*
X846Y1161D01*
X936Y1161D02*
X956Y1161D01*
X85Y1160D02*
X105Y1160D01*
X186Y1160D02*
X206Y1160D01*
X285Y1160D02*
X305Y1160D01*
X826Y1160D02*
X846Y1160D01*
X936Y1160D02*
X956Y1160D01*
X85Y1159D02*
X105Y1159D01*
X186Y1159D02*
X206Y1159D01*
X285Y1159D02*
X305Y1159D01*
X826Y1159D02*
X846Y1159D01*
X936Y1159D02*
X956Y1159D01*
X85Y1158D02*
X105Y1158D01*
X186Y1158D02*
X206Y1158D01*
X285Y1158D02*
X305Y1158D01*
X826Y1158D02*
X846Y1158D01*
X936Y1158D02*
X956Y1158D01*
X85Y1157D02*
X105Y1157D01*
X186Y1157D02*
X206Y1157D01*
X285Y1157D02*
X305Y1157D01*
X826Y1157D02*
X846Y1157D01*
X936Y1157D02*
X956Y1157D01*
X85Y1156D02*
X105Y1156D01*
X186Y1156D02*
X206Y1156D01*
X285Y1156D02*
X305Y1156D01*
X826Y1156D02*
X846Y1156D01*
X936Y1156D02*
X956Y1156D01*
X85Y1155D02*
X105Y1155D01*
X186Y1155D02*
X206Y1155D01*
X285Y1155D02*
X305Y1155D01*
X826Y1155D02*
X846Y1155D01*
X936Y1155D02*
X956Y1155D01*
X85Y1154D02*
X105Y1154D01*
X186Y1154D02*
X206Y1154D01*
X284Y1154D02*
X304Y1154D01*
X826Y1154D02*
X846Y1154D01*
X936Y1154D02*
X956Y1154D01*
X85Y1153D02*
X105Y1153D01*
X186Y1153D02*
X206Y1153D01*
X284Y1153D02*
X304Y1153D01*
X826Y1153D02*
X846Y1153D01*
X936Y1153D02*
X956Y1153D01*
X85Y1152D02*
X105Y1152D01*
X186Y1152D02*
X206Y1152D01*
X284Y1152D02*
X304Y1152D01*
X826Y1152D02*
X846Y1152D01*
X936Y1152D02*
X956Y1152D01*
X85Y1151D02*
X105Y1151D01*
X186Y1151D02*
X206Y1151D01*
X284Y1151D02*
X304Y1151D01*
X826Y1151D02*
X846Y1151D01*
X936Y1151D02*
X956Y1151D01*
X85Y1150D02*
X105Y1150D01*
X186Y1150D02*
X206Y1150D01*
X284Y1150D02*
X304Y1150D01*
X826Y1150D02*
X846Y1150D01*
X936Y1150D02*
X956Y1150D01*
X85Y1149D02*
X105Y1149D01*
X186Y1149D02*
X206Y1149D01*
X284Y1149D02*
X304Y1149D01*
X826Y1149D02*
X846Y1149D01*
X936Y1149D02*
X956Y1149D01*
X85Y1148D02*
X105Y1148D01*
X186Y1148D02*
X206Y1148D01*
X284Y1148D02*
X304Y1148D01*
X826Y1148D02*
X846Y1148D01*
X936Y1148D02*
X956Y1148D01*
X85Y1147D02*
X105Y1147D01*
X186Y1147D02*
X206Y1147D01*
X284Y1147D02*
X304Y1147D01*
X826Y1147D02*
X846Y1147D01*
X936Y1147D02*
X956Y1147D01*
X85Y1146D02*
X105Y1146D01*
X185Y1146D02*
X205Y1146D01*
X284Y1146D02*
X304Y1146D01*
X826Y1146D02*
X846Y1146D01*
X936Y1146D02*
X956Y1146D01*
X85Y1145D02*
X105Y1145D01*
X185Y1145D02*
X205Y1145D01*
X284Y1145D02*
X304Y1145D01*
X826Y1145D02*
X846Y1145D01*
X936Y1145D02*
X956Y1145D01*
X85Y1144D02*
X105Y1144D01*
X185Y1144D02*
X205Y1144D01*
X284Y1144D02*
X304Y1144D01*
X826Y1144D02*
X846Y1144D01*
X936Y1144D02*
X956Y1144D01*
X85Y1143D02*
X105Y1143D01*
X185Y1143D02*
X205Y1143D01*
X284Y1143D02*
X304Y1143D01*
X826Y1143D02*
X846Y1143D01*
X936Y1143D02*
X956Y1143D01*
X85Y1142D02*
X105Y1142D01*
X185Y1142D02*
X205Y1142D01*
X284Y1142D02*
X304Y1142D01*
X826Y1142D02*
X846Y1142D01*
X936Y1142D02*
X956Y1142D01*
X85Y1141D02*
X105Y1141D01*
X185Y1141D02*
X205Y1141D01*
X284Y1141D02*
X304Y1141D01*
X826Y1141D02*
X845Y1141D01*
X936Y1141D02*
X956Y1141D01*
X85Y1140D02*
X105Y1140D01*
X185Y1140D02*
X205Y1140D01*
X284Y1140D02*
X304Y1140D01*
X825Y1140D02*
X845Y1140D01*
X936Y1140D02*
X956Y1140D01*
X85Y1139D02*
X105Y1139D01*
X185Y1139D02*
X205Y1139D01*
X284Y1139D02*
X304Y1139D01*
X825Y1139D02*
X845Y1139D01*
X936Y1139D02*
X956Y1139D01*
X85Y1138D02*
X105Y1138D01*
X185Y1138D02*
X205Y1138D01*
X284Y1138D02*
X304Y1138D01*
X825Y1138D02*
X845Y1138D01*
X936Y1138D02*
X956Y1138D01*
X85Y1137D02*
X105Y1137D01*
X185Y1137D02*
X205Y1137D01*
X284Y1137D02*
X304Y1137D01*
X825Y1137D02*
X845Y1137D01*
X936Y1137D02*
X956Y1137D01*
X85Y1136D02*
X105Y1136D01*
X185Y1136D02*
X205Y1136D01*
X284Y1136D02*
X304Y1136D01*
X825Y1136D02*
X845Y1136D01*
X936Y1136D02*
X956Y1136D01*
X85Y1135D02*
X105Y1135D01*
X185Y1135D02*
X205Y1135D01*
X284Y1135D02*
X304Y1135D01*
X825Y1135D02*
X845Y1135D01*
X936Y1135D02*
X956Y1135D01*
X85Y1134D02*
X105Y1134D01*
X185Y1134D02*
X205Y1134D01*
X284Y1134D02*
X304Y1134D01*
X825Y1134D02*
X845Y1134D01*
X936Y1134D02*
X956Y1134D01*
X85Y1133D02*
X105Y1133D01*
X185Y1133D02*
X205Y1133D01*
X284Y1133D02*
X304Y1133D01*
X825Y1133D02*
X845Y1133D01*
X936Y1133D02*
X956Y1133D01*
X85Y1132D02*
X105Y1132D01*
X185Y1132D02*
X205Y1132D01*
X284Y1132D02*
X304Y1132D01*
X825Y1132D02*
X845Y1132D01*
X936Y1132D02*
X956Y1132D01*
X85Y1131D02*
X105Y1131D01*
X185Y1131D02*
X205Y1131D01*
X284Y1131D02*
X304Y1131D01*
X825Y1131D02*
X845Y1131D01*
X936Y1131D02*
X956Y1131D01*
X85Y1130D02*
X105Y1130D01*
X185Y1130D02*
X205Y1130D01*
X284Y1130D02*
X304Y1130D01*
X825Y1130D02*
X845Y1130D01*
X935Y1130D02*
X955Y1130D01*
X85Y1129D02*
X105Y1129D01*
X185Y1129D02*
X205Y1129D01*
X284Y1129D02*
X304Y1129D01*
X825Y1129D02*
X845Y1129D01*
X935Y1129D02*
X944Y1129D01*
X946Y1129D02*
X955Y1129D01*
X85Y1128D02*
X105Y1128D01*
X185Y1128D02*
X205Y1128D01*
X284Y1128D02*
X291Y1128D01*
X296Y1128D02*
X304Y1128D01*
X825Y1128D02*
X826Y1128D01*
X844Y1128D02*
X845Y1128D01*
X935Y1128D02*
X935Y1128D01*
X954Y1128D02*
X955Y1128D01*
X85Y1127D02*
X105Y1127D01*
X185Y1127D02*
X205Y1127D01*
X284Y1127D02*
X284Y1127D01*
X303Y1127D02*
X304Y1127D01*
X85Y1126D02*
X85Y1126D01*
X104Y1126D02*
X105Y1126D01*
X185Y1126D02*
X188Y1126D01*
X201Y1126D02*
X205Y1126D01*
X458Y1080D02*
X461Y1080D01*
X485Y1080D02*
X488Y1080D01*
X457Y1079D02*
X462Y1079D01*
X484Y1079D02*
X489Y1079D01*
X457Y1078D02*
X462Y1078D01*
X484Y1078D02*
X490Y1078D01*
X456Y1077D02*
X462Y1077D01*
X484Y1077D02*
X490Y1077D01*
X456Y1076D02*
X462Y1076D01*
X484Y1076D02*
X490Y1076D01*
X456Y1075D02*
X462Y1075D01*
X484Y1075D02*
X490Y1075D01*
X456Y1074D02*
X462Y1074D01*
X484Y1074D02*
X490Y1074D01*
X456Y1073D02*
X462Y1073D01*
X484Y1073D02*
X490Y1073D01*
X456Y1072D02*
X462Y1072D01*
X484Y1072D02*
X490Y1072D01*
X456Y1071D02*
X462Y1071D01*
X484Y1071D02*
X490Y1071D01*
X456Y1070D02*
X462Y1070D01*
X484Y1070D02*
X490Y1070D01*
X456Y1069D02*
X462Y1069D01*
X484Y1069D02*
X490Y1069D01*
X456Y1068D02*
X462Y1068D01*
X484Y1068D02*
X490Y1068D01*
X456Y1067D02*
X462Y1067D01*
X484Y1067D02*
X490Y1067D01*
X508Y1067D02*
X510Y1067D01*
X520Y1067D02*
X526Y1067D01*
X456Y1066D02*
X462Y1066D01*
X484Y1066D02*
X490Y1066D01*
X507Y1066D02*
X512Y1066D01*
X518Y1066D02*
X529Y1066D01*
X456Y1065D02*
X462Y1065D01*
X484Y1065D02*
X490Y1065D01*
X507Y1065D02*
X512Y1065D01*
X516Y1065D02*
X530Y1065D01*
X456Y1064D02*
X462Y1064D01*
X484Y1064D02*
X490Y1064D01*
X506Y1064D02*
X512Y1064D01*
X515Y1064D02*
X531Y1064D01*
X456Y1063D02*
X462Y1063D01*
X484Y1063D02*
X490Y1063D01*
X506Y1063D02*
X512Y1063D01*
X514Y1063D02*
X533Y1063D01*
X456Y1062D02*
X462Y1062D01*
X484Y1062D02*
X490Y1062D01*
X506Y1062D02*
X534Y1062D01*
X456Y1061D02*
X462Y1061D01*
X484Y1061D02*
X490Y1061D01*
X506Y1061D02*
X535Y1061D01*
X456Y1060D02*
X462Y1060D01*
X484Y1060D02*
X490Y1060D01*
X506Y1060D02*
X520Y1060D01*
X526Y1060D02*
X536Y1060D01*
X456Y1059D02*
X462Y1059D01*
X484Y1059D02*
X490Y1059D01*
X506Y1059D02*
X519Y1059D01*
X527Y1059D02*
X537Y1059D01*
X456Y1058D02*
X462Y1058D01*
X484Y1058D02*
X490Y1058D01*
X506Y1058D02*
X518Y1058D01*
X529Y1058D02*
X538Y1058D01*
X456Y1057D02*
X462Y1057D01*
X484Y1057D02*
X490Y1057D01*
X506Y1057D02*
X517Y1057D01*
X530Y1057D02*
X538Y1057D01*
X456Y1056D02*
X462Y1056D01*
X484Y1056D02*
X490Y1056D01*
X506Y1056D02*
X516Y1056D01*
X531Y1056D02*
X539Y1056D01*
X456Y1055D02*
X462Y1055D01*
X484Y1055D02*
X490Y1055D01*
X506Y1055D02*
X515Y1055D01*
X532Y1055D02*
X539Y1055D01*
X456Y1054D02*
X462Y1054D01*
X484Y1054D02*
X490Y1054D01*
X506Y1054D02*
X514Y1054D01*
X533Y1054D02*
X540Y1054D01*
X456Y1053D02*
X462Y1053D01*
X484Y1053D02*
X490Y1053D01*
X506Y1053D02*
X513Y1053D01*
X534Y1053D02*
X540Y1053D01*
X456Y1052D02*
X462Y1052D01*
X484Y1052D02*
X490Y1052D01*
X506Y1052D02*
X513Y1052D01*
X534Y1052D02*
X540Y1052D01*
X456Y1051D02*
X462Y1051D01*
X484Y1051D02*
X490Y1051D01*
X506Y1051D02*
X512Y1051D01*
X534Y1051D02*
X540Y1051D01*
X456Y1050D02*
X462Y1050D01*
X484Y1050D02*
X490Y1050D01*
X506Y1050D02*
X512Y1050D01*
X534Y1050D02*
X540Y1050D01*
X456Y1049D02*
X462Y1049D01*
X484Y1049D02*
X490Y1049D01*
X506Y1049D02*
X512Y1049D01*
X534Y1049D02*
X540Y1049D01*
X456Y1048D02*
X462Y1048D01*
X484Y1048D02*
X490Y1048D01*
X506Y1048D02*
X512Y1048D01*
X534Y1048D02*
X540Y1048D01*
X456Y1047D02*
X462Y1047D01*
X484Y1047D02*
X490Y1047D01*
X506Y1047D02*
X512Y1047D01*
X534Y1047D02*
X540Y1047D01*
X59Y1046D02*
X68Y1046D01*
X123Y1046D02*
X125Y1046D01*
X456Y1046D02*
X462Y1046D01*
X484Y1046D02*
X490Y1046D01*
X506Y1046D02*
X512Y1046D01*
X534Y1046D02*
X540Y1046D01*
X58Y1045D02*
X69Y1045D01*
X122Y1045D02*
X125Y1045D01*
X456Y1045D02*
X462Y1045D01*
X484Y1045D02*
X490Y1045D01*
X506Y1045D02*
X512Y1045D01*
X534Y1045D02*
X540Y1045D01*
X57Y1044D02*
X68Y1044D01*
X122Y1044D02*
X125Y1044D01*
X456Y1044D02*
X462Y1044D01*
X484Y1044D02*
X490Y1044D01*
X506Y1044D02*
X512Y1044D01*
X534Y1044D02*
X540Y1044D01*
X56Y1043D02*
X67Y1043D01*
X122Y1043D02*
X125Y1043D01*
X456Y1043D02*
X462Y1043D01*
X484Y1043D02*
X490Y1043D01*
X506Y1043D02*
X512Y1043D01*
X534Y1043D02*
X540Y1043D01*
X55Y1042D02*
X59Y1042D01*
X122Y1042D02*
X125Y1042D01*
X456Y1042D02*
X462Y1042D01*
X484Y1042D02*
X490Y1042D01*
X506Y1042D02*
X512Y1042D01*
X534Y1042D02*
X540Y1042D01*
X54Y1041D02*
X58Y1041D01*
X122Y1041D02*
X125Y1041D01*
X456Y1041D02*
X462Y1041D01*
X484Y1041D02*
X490Y1041D01*
X506Y1041D02*
X513Y1041D01*
X534Y1041D02*
X540Y1041D01*
X54Y1040D02*
X58Y1040D01*
X122Y1040D02*
X125Y1040D01*
X456Y1040D02*
X462Y1040D01*
X484Y1040D02*
X490Y1040D01*
X506Y1040D02*
X513Y1040D01*
X534Y1040D02*
X540Y1040D01*
X53Y1039D02*
X57Y1039D01*
X122Y1039D02*
X125Y1039D01*
X456Y1039D02*
X462Y1039D01*
X484Y1039D02*
X490Y1039D01*
X506Y1039D02*
X514Y1039D01*
X533Y1039D02*
X540Y1039D01*
X52Y1038D02*
X56Y1038D01*
X79Y1038D02*
X81Y1038D01*
X87Y1038D02*
X93Y1038D01*
X112Y1038D02*
X118Y1038D01*
X122Y1038D02*
X125Y1038D01*
X456Y1038D02*
X462Y1038D01*
X484Y1038D02*
X490Y1038D01*
X506Y1038D02*
X515Y1038D01*
X533Y1038D02*
X540Y1038D01*
X51Y1037D02*
X55Y1037D01*
X79Y1037D02*
X81Y1037D01*
X85Y1037D02*
X94Y1037D01*
X110Y1037D02*
X120Y1037D01*
X122Y1037D02*
X125Y1037D01*
X456Y1037D02*
X462Y1037D01*
X484Y1037D02*
X490Y1037D01*
X506Y1037D02*
X516Y1037D01*
X531Y1037D02*
X539Y1037D01*
X51Y1036D02*
X55Y1036D01*
X78Y1036D02*
X81Y1036D01*
X84Y1036D02*
X95Y1036D01*
X109Y1036D02*
X125Y1036D01*
X456Y1036D02*
X463Y1036D01*
X484Y1036D02*
X490Y1036D01*
X506Y1036D02*
X517Y1036D01*
X530Y1036D02*
X539Y1036D01*
X50Y1035D02*
X54Y1035D01*
X78Y1035D02*
X96Y1035D01*
X108Y1035D02*
X125Y1035D01*
X457Y1035D02*
X463Y1035D01*
X483Y1035D02*
X490Y1035D01*
X506Y1035D02*
X518Y1035D01*
X529Y1035D02*
X538Y1035D01*
X50Y1034D02*
X53Y1034D01*
X78Y1034D02*
X87Y1034D01*
X93Y1034D02*
X96Y1034D01*
X107Y1034D02*
X112Y1034D01*
X118Y1034D02*
X125Y1034D01*
X457Y1034D02*
X464Y1034D01*
X482Y1034D02*
X489Y1034D01*
X506Y1034D02*
X519Y1034D01*
X528Y1034D02*
X537Y1034D01*
X50Y1033D02*
X53Y1033D01*
X78Y1033D02*
X85Y1033D01*
X93Y1033D02*
X96Y1033D01*
X107Y1033D02*
X111Y1033D01*
X120Y1033D02*
X125Y1033D01*
X457Y1033D02*
X489Y1033D01*
X506Y1033D02*
X520Y1033D01*
X527Y1033D02*
X536Y1033D01*
X50Y1032D02*
X53Y1032D01*
X78Y1032D02*
X84Y1032D01*
X94Y1032D02*
X97Y1032D01*
X107Y1032D02*
X110Y1032D01*
X121Y1032D02*
X125Y1032D01*
X458Y1032D02*
X489Y1032D01*
X506Y1032D02*
X535Y1032D01*
X50Y1031D02*
X53Y1031D01*
X78Y1031D02*
X82Y1031D01*
X94Y1031D02*
X97Y1031D01*
X107Y1031D02*
X110Y1031D01*
X122Y1031D02*
X125Y1031D01*
X458Y1031D02*
X488Y1031D01*
X506Y1031D02*
X534Y1031D01*
X50Y1030D02*
X53Y1030D01*
X61Y1030D02*
X68Y1030D01*
X78Y1030D02*
X81Y1030D01*
X94Y1030D02*
X97Y1030D01*
X107Y1030D02*
X110Y1030D01*
X122Y1030D02*
X125Y1030D01*
X459Y1030D02*
X487Y1030D01*
X506Y1030D02*
X533Y1030D01*
X50Y1029D02*
X53Y1029D01*
X60Y1029D02*
X69Y1029D01*
X78Y1029D02*
X81Y1029D01*
X94Y1029D02*
X97Y1029D01*
X107Y1029D02*
X110Y1029D01*
X122Y1029D02*
X125Y1029D01*
X460Y1029D02*
X486Y1029D01*
X506Y1029D02*
X512Y1029D01*
X515Y1029D02*
X532Y1029D01*
X50Y1028D02*
X53Y1028D01*
X60Y1028D02*
X69Y1028D01*
X78Y1028D02*
X81Y1028D01*
X94Y1028D02*
X97Y1028D01*
X107Y1028D02*
X110Y1028D01*
X122Y1028D02*
X125Y1028D01*
X462Y1028D02*
X485Y1028D01*
X506Y1028D02*
X512Y1028D01*
X516Y1028D02*
X531Y1028D01*
X50Y1027D02*
X53Y1027D01*
X60Y1027D02*
X69Y1027D01*
X78Y1027D02*
X81Y1027D01*
X94Y1027D02*
X97Y1027D01*
X107Y1027D02*
X110Y1027D01*
X122Y1027D02*
X125Y1027D01*
X464Y1027D02*
X482Y1027D01*
X506Y1027D02*
X512Y1027D01*
X517Y1027D02*
X529Y1027D01*
X50Y1026D02*
X53Y1026D01*
X66Y1026D02*
X69Y1026D01*
X78Y1026D02*
X81Y1026D01*
X94Y1026D02*
X97Y1026D01*
X107Y1026D02*
X110Y1026D01*
X122Y1026D02*
X125Y1026D01*
X506Y1026D02*
X512Y1026D01*
X519Y1026D02*
X528Y1026D01*
X50Y1025D02*
X53Y1025D01*
X66Y1025D02*
X69Y1025D01*
X78Y1025D02*
X81Y1025D01*
X94Y1025D02*
X97Y1025D01*
X107Y1025D02*
X110Y1025D01*
X122Y1025D02*
X125Y1025D01*
X506Y1025D02*
X512Y1025D01*
X50Y1024D02*
X53Y1024D01*
X66Y1024D02*
X69Y1024D01*
X78Y1024D02*
X81Y1024D01*
X94Y1024D02*
X97Y1024D01*
X107Y1024D02*
X110Y1024D01*
X122Y1024D02*
X125Y1024D01*
X506Y1024D02*
X512Y1024D01*
X50Y1023D02*
X53Y1023D01*
X66Y1023D02*
X69Y1023D01*
X78Y1023D02*
X81Y1023D01*
X94Y1023D02*
X97Y1023D01*
X107Y1023D02*
X110Y1023D01*
X121Y1023D02*
X125Y1023D01*
X506Y1023D02*
X512Y1023D01*
X50Y1022D02*
X53Y1022D01*
X66Y1022D02*
X69Y1022D01*
X78Y1022D02*
X81Y1022D01*
X94Y1022D02*
X97Y1022D01*
X107Y1022D02*
X110Y1022D01*
X120Y1022D02*
X125Y1022D01*
X506Y1022D02*
X512Y1022D01*
X50Y1021D02*
X54Y1021D01*
X65Y1021D02*
X69Y1021D01*
X78Y1021D02*
X81Y1021D01*
X94Y1021D02*
X97Y1021D01*
X107Y1021D02*
X111Y1021D01*
X119Y1021D02*
X125Y1021D01*
X506Y1021D02*
X512Y1021D01*
X51Y1020D02*
X68Y1020D01*
X78Y1020D02*
X81Y1020D01*
X94Y1020D02*
X97Y1020D01*
X108Y1020D02*
X125Y1020D01*
X506Y1020D02*
X512Y1020D01*
X51Y1019D02*
X68Y1019D01*
X78Y1019D02*
X81Y1019D01*
X94Y1019D02*
X97Y1019D01*
X109Y1019D02*
X125Y1019D01*
X506Y1019D02*
X512Y1019D01*
X52Y1018D02*
X67Y1018D01*
X78Y1018D02*
X81Y1018D01*
X94Y1018D02*
X97Y1018D01*
X110Y1018D02*
X125Y1018D01*
X506Y1018D02*
X512Y1018D01*
X53Y1017D02*
X66Y1017D01*
X79Y1017D02*
X81Y1017D01*
X94Y1017D02*
X97Y1017D01*
X111Y1017D02*
X119Y1017D01*
X123Y1017D02*
X125Y1017D01*
X506Y1017D02*
X512Y1017D01*
X506Y1016D02*
X512Y1016D01*
X506Y1015D02*
X512Y1015D01*
X507Y1014D02*
X512Y1014D01*
X507Y1013D02*
X511Y1013D01*
X509Y1012D02*
X510Y1012D01*
X153Y344D02*
X176Y344D01*
X255Y344D02*
X257Y344D01*
X153Y343D02*
X179Y343D01*
X254Y343D02*
X258Y343D01*
X742Y343D02*
X744Y343D01*
X770Y343D02*
X772Y343D01*
X846Y343D02*
X858Y343D01*
X153Y342D02*
X181Y342D01*
X253Y342D02*
X259Y342D01*
X741Y342D02*
X746Y342D01*
X769Y342D02*
X773Y342D01*
X844Y342D02*
X859Y342D01*
X153Y341D02*
X182Y341D01*
X253Y341D02*
X259Y341D01*
X741Y341D02*
X746Y341D01*
X768Y341D02*
X774Y341D01*
X844Y341D02*
X860Y341D01*
X153Y340D02*
X183Y340D01*
X253Y340D02*
X259Y340D01*
X740Y340D02*
X746Y340D01*
X768Y340D02*
X774Y340D01*
X844Y340D02*
X860Y340D01*
X153Y339D02*
X184Y339D01*
X253Y339D02*
X259Y339D01*
X740Y339D02*
X746Y339D01*
X768Y339D02*
X774Y339D01*
X844Y339D02*
X860Y339D01*
X153Y338D02*
X184Y338D01*
X253Y338D02*
X259Y338D01*
X740Y338D02*
X746Y338D01*
X768Y338D02*
X774Y338D01*
X844Y338D02*
X860Y338D01*
X153Y337D02*
X159Y337D01*
X176Y337D02*
X185Y337D01*
X253Y337D02*
X259Y337D01*
X740Y337D02*
X746Y337D01*
X768Y337D02*
X774Y337D01*
X845Y337D02*
X860Y337D01*
X153Y336D02*
X159Y336D01*
X178Y336D02*
X186Y336D01*
X253Y336D02*
X259Y336D01*
X740Y336D02*
X746Y336D01*
X768Y336D02*
X774Y336D01*
X854Y336D02*
X860Y336D01*
X153Y335D02*
X159Y335D01*
X179Y335D02*
X186Y335D01*
X253Y335D02*
X259Y335D01*
X740Y335D02*
X746Y335D01*
X768Y335D02*
X774Y335D01*
X854Y335D02*
X860Y335D01*
X153Y334D02*
X159Y334D01*
X180Y334D02*
X186Y334D01*
X253Y334D02*
X259Y334D01*
X740Y334D02*
X746Y334D01*
X768Y334D02*
X774Y334D01*
X854Y334D02*
X860Y334D01*
X153Y333D02*
X159Y333D01*
X180Y333D02*
X186Y333D01*
X253Y333D02*
X259Y333D01*
X740Y333D02*
X746Y333D01*
X768Y333D02*
X774Y333D01*
X854Y333D02*
X860Y333D01*
X153Y332D02*
X159Y332D01*
X180Y332D02*
X187Y332D01*
X253Y332D02*
X259Y332D01*
X740Y332D02*
X746Y332D01*
X768Y332D02*
X774Y332D01*
X854Y332D02*
X860Y332D01*
X153Y331D02*
X159Y331D01*
X181Y331D02*
X187Y331D01*
X253Y331D02*
X259Y331D01*
X740Y331D02*
X746Y331D01*
X768Y331D02*
X774Y331D01*
X854Y331D02*
X860Y331D01*
X153Y330D02*
X159Y330D01*
X181Y330D02*
X187Y330D01*
X253Y330D02*
X259Y330D01*
X740Y330D02*
X746Y330D01*
X768Y330D02*
X774Y330D01*
X854Y330D02*
X860Y330D01*
X153Y329D02*
X159Y329D01*
X181Y329D02*
X187Y329D01*
X216Y329D02*
X235Y329D01*
X253Y329D02*
X259Y329D01*
X278Y329D02*
X282Y329D01*
X740Y329D02*
X746Y329D01*
X768Y329D02*
X774Y329D01*
X854Y329D02*
X860Y329D01*
X153Y328D02*
X159Y328D01*
X181Y328D02*
X187Y328D01*
X214Y328D02*
X236Y328D01*
X253Y328D02*
X259Y328D01*
X277Y328D02*
X283Y328D01*
X740Y328D02*
X747Y328D01*
X768Y328D02*
X774Y328D01*
X799Y328D02*
X816Y328D01*
X854Y328D02*
X860Y328D01*
X153Y327D02*
X159Y327D01*
X181Y327D02*
X187Y327D01*
X212Y327D02*
X237Y327D01*
X253Y327D02*
X259Y327D01*
X276Y327D02*
X283Y327D01*
X741Y327D02*
X747Y327D01*
X767Y327D02*
X774Y327D01*
X798Y327D02*
X818Y327D01*
X854Y327D02*
X860Y327D01*
X153Y326D02*
X159Y326D01*
X180Y326D02*
X186Y326D01*
X211Y326D02*
X237Y326D01*
X253Y326D02*
X259Y326D01*
X275Y326D02*
X283Y326D01*
X741Y326D02*
X747Y326D01*
X767Y326D02*
X773Y326D01*
X797Y326D02*
X820Y326D01*
X854Y326D02*
X860Y326D01*
X153Y325D02*
X159Y325D01*
X180Y325D02*
X186Y325D01*
X210Y325D02*
X236Y325D01*
X253Y325D02*
X259Y325D01*
X274Y325D02*
X283Y325D01*
X741Y325D02*
X748Y325D01*
X766Y325D02*
X773Y325D01*
X797Y325D02*
X821Y325D01*
X854Y325D02*
X860Y325D01*
X153Y324D02*
X159Y324D01*
X179Y324D02*
X186Y324D01*
X209Y324D02*
X236Y324D01*
X253Y324D02*
X259Y324D01*
X273Y324D02*
X282Y324D01*
X742Y324D02*
X748Y324D01*
X766Y324D02*
X773Y324D01*
X797Y324D02*
X821Y324D01*
X854Y324D02*
X860Y324D01*
X153Y323D02*
X159Y323D01*
X178Y323D02*
X186Y323D01*
X208Y323D02*
X234Y323D01*
X253Y323D02*
X259Y323D01*
X271Y323D02*
X281Y323D01*
X742Y323D02*
X749Y323D01*
X766Y323D02*
X772Y323D01*
X798Y323D02*
X822Y323D01*
X854Y323D02*
X860Y323D01*
X153Y322D02*
X159Y322D01*
X177Y322D02*
X185Y322D01*
X207Y322D02*
X216Y322D01*
X253Y322D02*
X259Y322D01*
X270Y322D02*
X280Y322D01*
X742Y322D02*
X749Y322D01*
X765Y322D02*
X772Y322D01*
X799Y322D02*
X822Y322D01*
X854Y322D02*
X860Y322D01*
X153Y321D02*
X160Y321D01*
X174Y321D02*
X185Y321D01*
X206Y321D02*
X215Y321D01*
X253Y321D02*
X259Y321D01*
X269Y321D02*
X279Y321D01*
X743Y321D02*
X749Y321D01*
X765Y321D02*
X771Y321D01*
X816Y321D02*
X823Y321D01*
X854Y321D02*
X860Y321D01*
X153Y320D02*
X184Y320D01*
X205Y320D02*
X214Y320D01*
X253Y320D02*
X259Y320D01*
X268Y320D02*
X278Y320D01*
X743Y320D02*
X750Y320D01*
X764Y320D02*
X771Y320D01*
X816Y320D02*
X823Y320D01*
X854Y320D02*
X860Y320D01*
X153Y319D02*
X183Y319D01*
X204Y319D02*
X213Y319D01*
X253Y319D02*
X259Y319D01*
X267Y319D02*
X276Y319D01*
X744Y319D02*
X750Y319D01*
X764Y319D02*
X771Y319D01*
X817Y319D02*
X823Y319D01*
X854Y319D02*
X860Y319D01*
X153Y318D02*
X182Y318D01*
X204Y318D02*
X212Y318D01*
X253Y318D02*
X259Y318D01*
X266Y318D02*
X275Y318D01*
X744Y318D02*
X751Y318D01*
X764Y318D02*
X770Y318D01*
X817Y318D02*
X823Y318D01*
X854Y318D02*
X860Y318D01*
X153Y317D02*
X182Y317D01*
X203Y317D02*
X210Y317D01*
X253Y317D02*
X259Y317D01*
X264Y317D02*
X274Y317D01*
X744Y317D02*
X751Y317D01*
X763Y317D02*
X770Y317D01*
X817Y317D02*
X823Y317D01*
X854Y317D02*
X860Y317D01*
X153Y316D02*
X183Y316D01*
X203Y316D02*
X210Y316D01*
X253Y316D02*
X259Y316D01*
X263Y316D02*
X273Y316D01*
X745Y316D02*
X751Y316D01*
X763Y316D02*
X769Y316D01*
X817Y316D02*
X823Y316D01*
X854Y316D02*
X860Y316D01*
X153Y315D02*
X184Y315D01*
X203Y315D02*
X209Y315D01*
X253Y315D02*
X259Y315D01*
X262Y315D02*
X272Y315D01*
X745Y315D02*
X752Y315D01*
X763Y315D02*
X769Y315D01*
X817Y315D02*
X823Y315D01*
X854Y315D02*
X860Y315D01*
X153Y314D02*
X185Y314D01*
X203Y314D02*
X209Y314D01*
X253Y314D02*
X259Y314D01*
X261Y314D02*
X271Y314D01*
X746Y314D02*
X752Y314D01*
X762Y314D02*
X769Y314D01*
X800Y314D02*
X814Y314D01*
X817Y314D02*
X823Y314D01*
X854Y314D02*
X860Y314D01*
X153Y313D02*
X159Y313D01*
X177Y313D02*
X185Y313D01*
X203Y313D02*
X209Y313D01*
X253Y313D02*
X270Y313D01*
X746Y313D02*
X753Y313D01*
X762Y313D02*
X768Y313D01*
X796Y313D02*
X823Y313D01*
X854Y313D02*
X860Y313D01*
X153Y312D02*
X159Y312D01*
X178Y312D02*
X186Y312D01*
X203Y312D02*
X209Y312D01*
X253Y312D02*
X268Y312D01*
X746Y312D02*
X753Y312D01*
X761Y312D02*
X768Y312D01*
X795Y312D02*
X823Y312D01*
X854Y312D02*
X860Y312D01*
X153Y311D02*
X159Y311D01*
X179Y311D02*
X186Y311D01*
X203Y311D02*
X209Y311D01*
X253Y311D02*
X268Y311D01*
X747Y311D02*
X753Y311D01*
X761Y311D02*
X768Y311D01*
X793Y311D02*
X823Y311D01*
X854Y311D02*
X860Y311D01*
X153Y310D02*
X159Y310D01*
X180Y310D02*
X186Y310D01*
X203Y310D02*
X209Y310D01*
X253Y310D02*
X270Y310D01*
X747Y310D02*
X754Y310D01*
X761Y310D02*
X767Y310D01*
X793Y310D02*
X823Y310D01*
X854Y310D02*
X860Y310D01*
X153Y309D02*
X159Y309D01*
X180Y309D02*
X186Y309D01*
X203Y309D02*
X209Y309D01*
X253Y309D02*
X271Y309D01*
X748Y309D02*
X754Y309D01*
X760Y309D02*
X767Y309D01*
X792Y309D02*
X823Y309D01*
X854Y309D02*
X860Y309D01*
X153Y308D02*
X159Y308D01*
X181Y308D02*
X187Y308D01*
X203Y308D02*
X209Y308D01*
X253Y308D02*
X272Y308D01*
X748Y308D02*
X755Y308D01*
X760Y308D02*
X766Y308D01*
X791Y308D02*
X823Y308D01*
X854Y308D02*
X860Y308D01*
X153Y307D02*
X159Y307D01*
X181Y307D02*
X187Y307D01*
X203Y307D02*
X209Y307D01*
X253Y307D02*
X273Y307D01*
X748Y307D02*
X755Y307D01*
X759Y307D02*
X766Y307D01*
X791Y307D02*
X800Y307D01*
X814Y307D02*
X823Y307D01*
X854Y307D02*
X860Y307D01*
X153Y306D02*
X159Y306D01*
X181Y306D02*
X187Y306D01*
X203Y306D02*
X209Y306D01*
X253Y306D02*
X261Y306D01*
X265Y306D02*
X274Y306D01*
X749Y306D02*
X755Y306D01*
X759Y306D02*
X766Y306D01*
X791Y306D02*
X797Y306D01*
X816Y306D02*
X823Y306D01*
X854Y306D02*
X860Y306D01*
X153Y305D02*
X159Y305D01*
X181Y305D02*
X187Y305D01*
X203Y305D02*
X209Y305D01*
X253Y305D02*
X260Y305D01*
X266Y305D02*
X275Y305D01*
X749Y305D02*
X756Y305D01*
X759Y305D02*
X765Y305D01*
X790Y305D02*
X797Y305D01*
X817Y305D02*
X823Y305D01*
X854Y305D02*
X860Y305D01*
X153Y304D02*
X159Y304D01*
X181Y304D02*
X187Y304D01*
X203Y304D02*
X210Y304D01*
X253Y304D02*
X259Y304D01*
X267Y304D02*
X277Y304D01*
X749Y304D02*
X756Y304D01*
X758Y304D02*
X765Y304D01*
X790Y304D02*
X796Y304D01*
X817Y304D02*
X824Y304D01*
X854Y304D02*
X860Y304D01*
X153Y303D02*
X159Y303D01*
X181Y303D02*
X187Y303D01*
X204Y303D02*
X211Y303D01*
X253Y303D02*
X259Y303D01*
X268Y303D02*
X278Y303D01*
X750Y303D02*
X764Y303D01*
X790Y303D02*
X796Y303D01*
X817Y303D02*
X824Y303D01*
X854Y303D02*
X860Y303D01*
X153Y302D02*
X159Y302D01*
X180Y302D02*
X186Y302D01*
X204Y302D02*
X212Y302D01*
X253Y302D02*
X259Y302D01*
X269Y302D02*
X279Y302D01*
X750Y302D02*
X764Y302D01*
X790Y302D02*
X796Y302D01*
X817Y302D02*
X824Y302D01*
X854Y302D02*
X860Y302D01*
X153Y301D02*
X159Y301D01*
X180Y301D02*
X186Y301D01*
X204Y301D02*
X213Y301D01*
X253Y301D02*
X259Y301D01*
X270Y301D02*
X280Y301D01*
X751Y301D02*
X764Y301D01*
X790Y301D02*
X796Y301D01*
X817Y301D02*
X824Y301D01*
X854Y301D02*
X860Y301D01*
X153Y300D02*
X159Y300D01*
X179Y300D02*
X186Y300D01*
X205Y300D02*
X214Y300D01*
X253Y300D02*
X259Y300D01*
X272Y300D02*
X281Y300D01*
X751Y300D02*
X763Y300D01*
X790Y300D02*
X796Y300D01*
X816Y300D02*
X824Y300D01*
X854Y300D02*
X860Y300D01*
X153Y299D02*
X159Y299D01*
X178Y299D02*
X186Y299D01*
X206Y299D02*
X215Y299D01*
X253Y299D02*
X259Y299D01*
X273Y299D02*
X282Y299D01*
X751Y299D02*
X763Y299D01*
X790Y299D02*
X796Y299D01*
X815Y299D02*
X824Y299D01*
X854Y299D02*
X860Y299D01*
X153Y298D02*
X159Y298D01*
X176Y298D02*
X185Y298D01*
X207Y298D02*
X217Y298D01*
X253Y298D02*
X259Y298D01*
X274Y298D02*
X284Y298D01*
X752Y298D02*
X762Y298D01*
X790Y298D02*
X797Y298D01*
X813Y298D02*
X824Y298D01*
X854Y298D02*
X860Y298D01*
X153Y297D02*
X184Y297D01*
X208Y297D02*
X235Y297D01*
X253Y297D02*
X259Y297D01*
X275Y297D02*
X285Y297D01*
X752Y297D02*
X762Y297D01*
X791Y297D02*
X798Y297D01*
X811Y297D02*
X824Y297D01*
X854Y297D02*
X860Y297D01*
X153Y296D02*
X184Y296D01*
X209Y296D02*
X236Y296D01*
X253Y296D02*
X259Y296D01*
X276Y296D02*
X286Y296D01*
X753Y296D02*
X762Y296D01*
X791Y296D02*
X824Y296D01*
X846Y296D02*
X868Y296D01*
X153Y295D02*
X183Y295D01*
X210Y295D02*
X236Y295D01*
X253Y295D02*
X259Y295D01*
X277Y295D02*
X286Y295D01*
X753Y295D02*
X761Y295D01*
X791Y295D02*
X824Y295D01*
X845Y295D02*
X870Y295D01*
X153Y294D02*
X182Y294D01*
X211Y294D02*
X237Y294D01*
X253Y294D02*
X259Y294D01*
X279Y294D02*
X287Y294D01*
X753Y294D02*
X761Y294D01*
X792Y294D02*
X824Y294D01*
X844Y294D02*
X870Y294D01*
X153Y293D02*
X181Y293D01*
X213Y293D02*
X236Y293D01*
X253Y293D02*
X259Y293D01*
X280Y293D02*
X286Y293D01*
X754Y293D02*
X760Y293D01*
X793Y293D02*
X824Y293D01*
X844Y293D02*
X870Y293D01*
X153Y292D02*
X179Y292D01*
X214Y292D02*
X236Y292D01*
X254Y292D02*
X258Y292D01*
X281Y292D02*
X286Y292D01*
X754Y292D02*
X760Y292D01*
X794Y292D02*
X816Y292D01*
X818Y292D02*
X824Y292D01*
X844Y292D02*
X870Y292D01*
X153Y291D02*
X177Y291D01*
X216Y291D02*
X235Y291D01*
X255Y291D02*
X257Y291D01*
X282Y291D02*
X285Y291D01*
X755Y291D02*
X760Y291D01*
X795Y291D02*
X814Y291D01*
X818Y291D02*
X823Y291D01*
X844Y291D02*
X870Y291D01*
X756Y290D02*
X759Y290D01*
X797Y290D02*
X812Y290D01*
X819Y290D02*
X822Y290D01*
X845Y290D02*
X869Y290D01*
X665Y152D02*
X679Y152D01*
X663Y151D02*
X682Y151D01*
X663Y150D02*
X684Y150D01*
X662Y149D02*
X685Y149D01*
X662Y148D02*
X686Y148D01*
X663Y147D02*
X687Y147D01*
X664Y146D02*
X687Y146D01*
X669Y145D02*
X675Y145D01*
X679Y145D02*
X688Y145D01*
X669Y144D02*
X675Y144D01*
X681Y144D02*
X688Y144D01*
X669Y143D02*
X675Y143D01*
X682Y143D02*
X689Y143D01*
X669Y142D02*
X675Y142D01*
X682Y142D02*
X689Y142D01*
X669Y141D02*
X675Y141D01*
X683Y141D02*
X690Y141D01*
X669Y140D02*
X675Y140D01*
X683Y140D02*
X690Y140D01*
X669Y139D02*
X675Y139D01*
X684Y139D02*
X691Y139D01*
X669Y138D02*
X675Y138D01*
X684Y138D02*
X691Y138D01*
X669Y137D02*
X675Y137D01*
X685Y137D02*
X692Y137D01*
X713Y137D02*
X716Y137D01*
X742Y137D02*
X744Y137D01*
X764Y137D02*
X766Y137D01*
X779Y137D02*
X787Y137D01*
X669Y136D02*
X675Y136D01*
X685Y136D02*
X692Y136D01*
X712Y136D02*
X717Y136D01*
X741Y136D02*
X746Y136D01*
X763Y136D02*
X767Y136D01*
X776Y136D02*
X790Y136D01*
X669Y135D02*
X675Y135D01*
X686Y135D02*
X693Y135D01*
X712Y135D02*
X717Y135D01*
X741Y135D02*
X746Y135D01*
X762Y135D02*
X768Y135D01*
X775Y135D02*
X791Y135D01*
X669Y134D02*
X675Y134D01*
X686Y134D02*
X693Y134D01*
X711Y134D02*
X717Y134D01*
X740Y134D02*
X746Y134D01*
X762Y134D02*
X768Y134D01*
X773Y134D02*
X792Y134D01*
X669Y133D02*
X675Y133D01*
X687Y133D02*
X694Y133D01*
X711Y133D02*
X717Y133D01*
X740Y133D02*
X746Y133D01*
X762Y133D02*
X768Y133D01*
X771Y133D02*
X793Y133D01*
X669Y132D02*
X675Y132D01*
X687Y132D02*
X694Y132D01*
X711Y132D02*
X717Y132D01*
X740Y132D02*
X746Y132D01*
X762Y132D02*
X768Y132D01*
X770Y132D02*
X794Y132D01*
X669Y131D02*
X675Y131D01*
X688Y131D02*
X694Y131D01*
X712Y131D02*
X718Y131D01*
X740Y131D02*
X746Y131D01*
X762Y131D02*
X794Y131D01*
X669Y130D02*
X675Y130D01*
X688Y130D02*
X695Y130D01*
X712Y130D02*
X718Y130D01*
X740Y130D02*
X746Y130D01*
X762Y130D02*
X779Y130D01*
X787Y130D02*
X794Y130D01*
X669Y129D02*
X675Y129D01*
X689Y129D02*
X695Y129D01*
X712Y129D02*
X718Y129D01*
X740Y129D02*
X746Y129D01*
X762Y129D02*
X777Y129D01*
X788Y129D02*
X795Y129D01*
X669Y128D02*
X675Y128D01*
X689Y128D02*
X695Y128D01*
X712Y128D02*
X718Y128D01*
X740Y128D02*
X746Y128D01*
X762Y128D02*
X776Y128D01*
X789Y128D02*
X795Y128D01*
X669Y127D02*
X675Y127D01*
X690Y127D02*
X696Y127D01*
X712Y127D02*
X718Y127D01*
X740Y127D02*
X746Y127D01*
X762Y127D02*
X774Y127D01*
X789Y127D02*
X795Y127D01*
X669Y126D02*
X675Y126D01*
X690Y126D02*
X696Y126D01*
X712Y126D02*
X718Y126D01*
X740Y126D02*
X746Y126D01*
X762Y126D02*
X773Y126D01*
X789Y126D02*
X795Y126D01*
X669Y125D02*
X675Y125D01*
X690Y125D02*
X696Y125D01*
X712Y125D02*
X718Y125D01*
X728Y125D02*
X730Y125D01*
X740Y125D02*
X746Y125D01*
X762Y125D02*
X771Y125D01*
X789Y125D02*
X795Y125D01*
X669Y124D02*
X675Y124D01*
X690Y124D02*
X696Y124D01*
X712Y124D02*
X718Y124D01*
X727Y124D02*
X731Y124D01*
X740Y124D02*
X746Y124D01*
X762Y124D02*
X769Y124D01*
X789Y124D02*
X795Y124D01*
X669Y123D02*
X675Y123D01*
X689Y123D02*
X696Y123D01*
X712Y123D02*
X718Y123D01*
X726Y123D02*
X732Y123D01*
X740Y123D02*
X746Y123D01*
X762Y123D02*
X768Y123D01*
X789Y123D02*
X795Y123D01*
X669Y122D02*
X675Y122D01*
X689Y122D02*
X695Y122D01*
X712Y122D02*
X718Y122D01*
X726Y122D02*
X732Y122D01*
X740Y122D02*
X746Y122D01*
X762Y122D02*
X768Y122D01*
X789Y122D02*
X795Y122D01*
X669Y121D02*
X675Y121D01*
X689Y121D02*
X695Y121D01*
X712Y121D02*
X718Y121D01*
X726Y121D02*
X732Y121D01*
X740Y121D02*
X746Y121D01*
X762Y121D02*
X768Y121D01*
X789Y121D02*
X795Y121D01*
X669Y120D02*
X675Y120D01*
X688Y120D02*
X695Y120D01*
X712Y120D02*
X718Y120D01*
X726Y120D02*
X732Y120D01*
X740Y120D02*
X746Y120D01*
X762Y120D02*
X768Y120D01*
X789Y120D02*
X795Y120D01*
X669Y119D02*
X675Y119D01*
X688Y119D02*
X694Y119D01*
X712Y119D02*
X718Y119D01*
X726Y119D02*
X732Y119D01*
X740Y119D02*
X746Y119D01*
X762Y119D02*
X768Y119D01*
X789Y119D02*
X795Y119D01*
X669Y118D02*
X675Y118D01*
X687Y118D02*
X694Y118D01*
X712Y118D02*
X718Y118D01*
X726Y118D02*
X732Y118D01*
X740Y118D02*
X746Y118D01*
X762Y118D02*
X768Y118D01*
X789Y118D02*
X795Y118D01*
X669Y117D02*
X675Y117D01*
X687Y117D02*
X694Y117D01*
X712Y117D02*
X718Y117D01*
X726Y117D02*
X732Y117D01*
X740Y117D02*
X746Y117D01*
X762Y117D02*
X768Y117D01*
X789Y117D02*
X795Y117D01*
X669Y116D02*
X675Y116D01*
X686Y116D02*
X693Y116D01*
X712Y116D02*
X718Y116D01*
X726Y116D02*
X732Y116D01*
X740Y116D02*
X746Y116D01*
X762Y116D02*
X768Y116D01*
X789Y116D02*
X795Y116D01*
X669Y115D02*
X675Y115D01*
X686Y115D02*
X693Y115D01*
X712Y115D02*
X718Y115D01*
X726Y115D02*
X732Y115D01*
X740Y115D02*
X746Y115D01*
X762Y115D02*
X768Y115D01*
X789Y115D02*
X795Y115D01*
X669Y114D02*
X675Y114D01*
X685Y114D02*
X692Y114D01*
X712Y114D02*
X718Y114D01*
X726Y114D02*
X732Y114D01*
X740Y114D02*
X746Y114D01*
X762Y114D02*
X768Y114D01*
X789Y114D02*
X795Y114D01*
X669Y113D02*
X675Y113D01*
X685Y113D02*
X692Y113D01*
X712Y113D02*
X718Y113D01*
X725Y113D02*
X733Y113D01*
X739Y113D02*
X746Y113D01*
X762Y113D02*
X768Y113D01*
X789Y113D02*
X795Y113D01*
X669Y112D02*
X675Y112D01*
X684Y112D02*
X691Y112D01*
X712Y112D02*
X719Y112D01*
X725Y112D02*
X733Y112D01*
X739Y112D02*
X746Y112D01*
X762Y112D02*
X768Y112D01*
X789Y112D02*
X795Y112D01*
X669Y111D02*
X675Y111D01*
X684Y111D02*
X691Y111D01*
X713Y111D02*
X719Y111D01*
X724Y111D02*
X734Y111D01*
X739Y111D02*
X745Y111D01*
X762Y111D02*
X768Y111D01*
X789Y111D02*
X795Y111D01*
X669Y110D02*
X675Y110D01*
X683Y110D02*
X690Y110D01*
X713Y110D02*
X719Y110D01*
X723Y110D02*
X734Y110D01*
X739Y110D02*
X745Y110D01*
X762Y110D02*
X768Y110D01*
X789Y110D02*
X795Y110D01*
X669Y109D02*
X675Y109D01*
X683Y109D02*
X690Y109D01*
X713Y109D02*
X720Y109D01*
X723Y109D02*
X735Y109D01*
X738Y109D02*
X745Y109D01*
X762Y109D02*
X768Y109D01*
X789Y109D02*
X795Y109D01*
X669Y108D02*
X675Y108D01*
X682Y108D02*
X689Y108D01*
X714Y108D02*
X720Y108D01*
X722Y108D02*
X736Y108D01*
X738Y108D02*
X744Y108D01*
X762Y108D02*
X768Y108D01*
X789Y108D02*
X795Y108D01*
X669Y107D02*
X675Y107D01*
X682Y107D02*
X689Y107D01*
X714Y107D02*
X720Y107D01*
X722Y107D02*
X736Y107D01*
X738Y107D02*
X744Y107D01*
X762Y107D02*
X768Y107D01*
X789Y107D02*
X795Y107D01*
X669Y106D02*
X675Y106D01*
X681Y106D02*
X688Y106D01*
X714Y106D02*
X744Y106D01*
X762Y106D02*
X768Y106D01*
X790Y106D02*
X795Y106D01*
X666Y105D02*
X688Y105D01*
X714Y105D02*
X728Y105D01*
X730Y105D02*
X743Y105D01*
X762Y105D02*
X768Y105D01*
X790Y105D02*
X796Y105D01*
X663Y104D02*
X687Y104D01*
X715Y104D02*
X727Y104D01*
X731Y104D02*
X743Y104D01*
X762Y104D02*
X768Y104D01*
X790Y104D02*
X796Y104D01*
X663Y103D02*
X687Y103D01*
X715Y103D02*
X726Y103D01*
X731Y103D02*
X743Y103D01*
X762Y103D02*
X768Y103D01*
X790Y103D02*
X796Y103D01*
X662Y102D02*
X686Y102D01*
X715Y102D02*
X726Y102D01*
X732Y102D02*
X743Y102D01*
X762Y102D02*
X768Y102D01*
X790Y102D02*
X796Y102D01*
X662Y101D02*
X685Y101D01*
X716Y101D02*
X725Y101D01*
X733Y101D02*
X742Y101D01*
X762Y101D02*
X768Y101D01*
X790Y101D02*
X796Y101D01*
X663Y100D02*
X684Y100D01*
X716Y100D02*
X725Y100D01*
X733Y100D02*
X742Y100D01*
X763Y100D02*
X768Y100D01*
X790Y100D02*
X795Y100D01*
X663Y99D02*
X682Y99D01*
X717Y99D02*
X724Y99D01*
X734Y99D02*
X741Y99D01*
X763Y99D02*
X767Y99D01*
X791Y99D02*
X794Y99D01*
X666Y98D02*
X677Y98D01*
X719Y98D02*
X721Y98D01*
X737Y98D02*
X738Y98D01*
D02*
G04 End of Silk1*
M02*