G04 MADE WITH FRITZING*
G04 WWW.FRITZING.ORG*
G04 DOUBLE SIDED*
G04 HOLES PLATED*
G04 CONTOUR ON CENTER OF CONTOUR VECTOR*
%ASAXBY*%
%FSLAX23Y23*%
%MOIN*%
%OFA0B0*%
%SFA1.0B1.0*%
%ADD10C,0.075000*%
%ADD11C,0.024000*%
%ADD12R,0.001000X0.001000*%
%LNCOPPER1*%
G90*
G70*
G54D10*
X811Y723D03*
X811Y323D03*
X721Y229D03*
X321Y229D03*
X297Y827D03*
X697Y827D03*
X421Y101D03*
X421Y357D03*
X598Y101D03*
X598Y357D03*
X720Y404D03*
X720Y660D03*
X897Y404D03*
X897Y660D03*
X419Y703D03*
X419Y959D03*
X596Y703D03*
X596Y959D03*
X120Y404D03*
X120Y659D03*
X298Y404D03*
X298Y659D03*
X261Y1100D03*
X155Y1098D03*
G54D11*
X159Y992D02*
X156Y1069D01*
D02*
X300Y992D02*
X159Y992D01*
D02*
X298Y856D02*
X300Y992D01*
D02*
X297Y688D02*
X297Y799D01*
D02*
X901Y322D02*
X899Y375D01*
D02*
X840Y323D02*
X901Y322D01*
D02*
X749Y229D02*
X815Y230D01*
D02*
X815Y230D02*
X812Y294D01*
D02*
X594Y830D02*
X596Y732D01*
D02*
X669Y828D02*
X594Y830D01*
D02*
X419Y988D02*
X422Y1101D01*
D02*
X422Y1101D02*
X290Y1100D01*
D02*
X121Y571D02*
X419Y571D01*
D02*
X419Y571D02*
X419Y675D01*
D02*
X121Y631D02*
X121Y571D01*
D02*
X722Y492D02*
X418Y493D01*
D02*
X418Y493D02*
X420Y386D01*
D02*
X721Y432D02*
X722Y492D01*
D02*
X420Y493D02*
X121Y491D01*
D02*
X121Y491D02*
X121Y432D01*
D02*
X421Y386D02*
X420Y493D01*
D02*
X812Y828D02*
X726Y827D01*
D02*
X811Y752D02*
X812Y828D01*
D02*
X596Y226D02*
X598Y328D01*
D02*
X349Y229D02*
X596Y226D01*
G54D12*
D02*
G04 End of Copper1*
M02*