; NON-PLATED HOLES START AT T1
; THROUGH (PLATED) HOLES START AT T100
M48
INCH
T1C0.118110
T100C0.035000
%
T1
X001400Y001444
X001405Y008970
X008924Y008987
X008924Y001459
T100
X002995Y006588
X004220Y001020
X002941Y010854
X008357Y010863
X007187Y004062
X004180Y007055
X001223Y004029
X001951Y010839
X005951Y007055
X002995Y004029
X008959Y006621
X005951Y009615
X005992Y001020
X009460Y010863
X000950Y010843
X008959Y004062
X004180Y009615
X004220Y003579
X005992Y003579
X007187Y006621
X001223Y006588
T00
M30
