<?xml version='1.0' encoding='UTF-8' standalone='no'?>
<!-- Created with Fritzing (http://www.fritzing.org/) -->
<svg xmlns="http://www.w3.org/2000/svg" version="1.2" x="0in" y="0in" baseProfile="tiny" height="1.16138in" xmlns:svg="http://www.w3.org/2000/svg"  width="1.0388in" viewBox="0 0 74.7933 83.6192">
 <g transform="matrix(-1, 0, 0, 1, 74.7933, 0)">
  <g partID="1433561">
   <g id="silkscreen">
    <rect stroke="black" x="0.288" y="0.288" height="83.0432" stroke-width="0.576" fill="none" width="74.2173"/>
   </g>
  </g>
  <g partID="1433560">
   <g id="board">
    <rect stroke="black" x="0.288" y="0.288" fill-opacity="0.5" height="83.0432" stroke-width="0.5" id="boardoutline" fill="none" width="74.2173"/>
   </g>
  </g>
  <g partID="1651030">
   <g transform="translate(8.2544,3.74904)">
    <g id="silkscreen">
     <text x="7.08664" font-family="OCRA" y="6.37796" xmlns:xml="http://www.w3.org/XML/1998/namespace" stroke-width="0" xml:space="preserve" id="label" font-size="7.08664" fill="black" text-anchor="middle">-+</text>
    </g>
   </g>
  </g>
  <g partID="1433561">
   <g id="silkscreen">
    <rect stroke="black" x="0.288" y="0.288" height="83.0432" stroke-width="0.576" fill="none" width="74.2173"/>
   </g>
  </g>
  <g partID="760171">
   <g transform="translate(61.4952,28.858)">
    <g transform="matrix(0,1,-1,0,0,0)">
     <g id="silkscreen">
      <line x2="10.584" stroke="black" y2="3.096" stroke-width="0.72" x1="5.4" y1="3.096"/>
      <line x2="28.8" stroke="black" y2="3.096" stroke-width="0.72" x1="24.984" y1="3.096"/>
      <line x2="24.984" stroke="black" y2="0.72" stroke-width="0.72" x1="10.584" y1="0.72"/>
      <line x2="24.984" stroke="black" y2="5.472" stroke-width="0.72" x1="24.984" y1="0.72"/>
      <line x2="10.584" stroke="black" y2="5.472" stroke-width="0.72" x1="24.984" y1="5.472"/>
      <line x2="10.584" stroke="black" y2="0.72" stroke-width="0.72" x1="10.584" y1="5.472"/>
     </g>
    </g>
   </g>
  </g>
  <g partID="760231">
   <g transform="translate(54.6,70.2147)">
    <g transform="matrix(-1,0,0,-1,0,0)">
     <g id="silkscreen">
      <line x2="10.584" stroke="black" y2="3.096" stroke-width="0.72" x1="5.4" y1="3.096"/>
      <line x2="28.8" stroke="black" y2="3.096" stroke-width="0.72" x1="24.984" y1="3.096"/>
      <line x2="24.984" stroke="black" y2="0.72" stroke-width="0.72" x1="10.584" y1="0.72"/>
      <line x2="24.984" stroke="black" y2="5.472" stroke-width="0.72" x1="24.984" y1="0.72"/>
      <line x2="10.584" stroke="black" y2="5.472" stroke-width="0.72" x1="24.984" y1="5.472"/>
      <line x2="10.584" stroke="black" y2="0.72" stroke-width="0.72" x1="10.584" y1="5.472"/>
     </g>
    </g>
   </g>
  </g>
  <g partID="759391">
   <g transform="translate(18.7,20.9522)">
    <g transform="matrix(1,0,0,1,0,0)">
     <g id="silkscreen">
      <line x2="10.584" stroke="black" y2="3.096" stroke-width="0.72" x1="5.4" y1="3.096"/>
      <line x2="28.8" stroke="black" y2="3.096" stroke-width="0.72" x1="24.984" y1="3.096"/>
      <line x2="24.984" stroke="black" y2="0.72" stroke-width="0.72" x1="10.584" y1="0.72"/>
      <line x2="24.984" stroke="black" y2="5.472" stroke-width="0.72" x1="24.984" y1="0.72"/>
      <line x2="10.584" stroke="black" y2="5.472" stroke-width="0.72" x1="24.984" y1="5.472"/>
      <line x2="10.584" stroke="black" y2="0.72" stroke-width="0.72" x1="10.584" y1="5.472"/>
     </g>
    </g>
   </g>
  </g>
  <g partID="755911">
   <g transform="translate(45.9293,55.5006)">
    <g transform="matrix(0,1,-1,0,0,0)">
     <g id="silkscreen">
      <line x2="20.137" stroke="black" y2="12.0586" stroke-width="0.72" x1="20.137" y1="6.38928"/>
      <line x2="18.0115" stroke="black" y2="0.72" stroke-width="0.72" x1="5.96376" y1="0.72"/>
      <line x2="18.0115" stroke="black" y2="17.7278" stroke-width="0.72" x1="5.96376" y1="17.7278"/>
      <line x2="3.12912" stroke="black" y2="12.0586" stroke-width="0.72" x1="3.12912" y1="6.38928"/>
      <line x2="11.633" stroke="black" y2="10.6416" stroke-width="0.72" x1="11.633" y1="7.80696"/>
      <line x2="10.2161" stroke="black" y2="9.22392" stroke-width="0.72" x1="13.0507" y1="9.22392"/>
     </g>
    </g>
   </g>
  </g>
  <g partID="755941">
   <g transform="translate(67.4573,33.7144)">
    <g transform="matrix(0,1,-1,0,0,0)">
     <g id="silkscreen">
      <line x2="20.137" stroke="black" y2="12.0586" stroke-width="0.72" x1="20.137" y1="6.38928"/>
      <line x2="18.0115" stroke="black" y2="0.72" stroke-width="0.72" x1="5.96376" y1="0.72"/>
      <line x2="18.0115" stroke="black" y2="17.7278" stroke-width="0.72" x1="5.96376" y1="17.7278"/>
      <line x2="3.12912" stroke="black" y2="12.0586" stroke-width="0.72" x1="3.12912" y1="6.38928"/>
      <line x2="11.633" stroke="black" y2="10.6416" stroke-width="0.72" x1="11.633" y1="7.80696"/>
      <line x2="10.2161" stroke="black" y2="9.22392" stroke-width="0.72" x1="13.0507" y1="9.22392"/>
     </g>
    </g>
   </g>
  </g>
  <g partID="756571">
   <g transform="translate(45.7629,12.1384)">
    <g transform="matrix(0,1,-1,0,0,0)">
     <g id="silkscreen">
      <line x2="20.137" stroke="black" y2="12.0586" stroke-width="0.72" x1="20.137" y1="6.38928"/>
      <line x2="18.0115" stroke="black" y2="0.72" stroke-width="0.72" x1="5.96376" y1="0.72"/>
      <line x2="18.0115" stroke="black" y2="17.7278" stroke-width="0.72" x1="5.96376" y1="17.7278"/>
      <line x2="3.12912" stroke="black" y2="12.0586" stroke-width="0.72" x1="3.12912" y1="6.38928"/>
      <line x2="11.633" stroke="black" y2="10.6416" stroke-width="0.72" x1="11.633" y1="7.80696"/>
      <line x2="10.2161" stroke="black" y2="9.22392" stroke-width="0.72" x1="13.0507" y1="9.22392"/>
     </g>
    </g>
   </g>
  </g>
  <g partID="757241">
   <g transform="translate(24.2677,33.7184)">
    <g transform="matrix(0,1,-1,0,0,0)">
     <g id="silkscreen">
      <line x2="20.137" stroke="black" y2="12.0586" stroke-width="0.72" x1="20.137" y1="6.38928"/>
      <line x2="18.0115" stroke="black" y2="0.72" stroke-width="0.72" x1="5.96376" y1="0.72"/>
      <line x2="18.0115" stroke="black" y2="17.7278" stroke-width="0.72" x1="5.96376" y1="17.7278"/>
      <line x2="3.12912" stroke="black" y2="12.0586" stroke-width="0.72" x1="3.12912" y1="6.38928"/>
      <line x2="11.633" stroke="black" y2="10.6416" stroke-width="0.72" x1="11.633" y1="7.80696"/>
      <line x2="10.2161" stroke="black" y2="9.22392" stroke-width="0.72" x1="13.0507" y1="9.22392"/>
     </g>
    </g>
   </g>
  </g>
  <g partID="1445052">
   <g transform="translate(14.0704,-34.1601)">
    <g id="silkscreen">
     <line x2="4.79556" stroke="black" y2="35.8578" stroke-width="1.512" x1="5.25393" y1="7.45164" stroke-linecap="round"/>
    </g>
   </g>
  </g>
  <g partID="1445992">
   <g transform="translate(6.3992,-34.0577)">
    <g id="silkscreen">
     <line x2="4.77374" stroke="black" y2="35.9257" stroke-width="1.512" x1="5.00301" y1="7.45193" stroke-linecap="round"/>
    </g>
   </g>
  </g>
  <g id="partLabel" partID="755910">
   <g transform="translate(46.6056,72.1283)">
    <g stroke="none" font-family="'OCRA'" fill-opacity="1" id="silkscreenLabel" font-size="5" fill="#000000" font-weight="normal" font-style="normal">
     <text x="0" y="3.75">Dwn</text>
    </g>
   </g>
  </g>
  <g id="partLabel" partID="755940">
   <g transform="translate(61.8744,30.925)">
    <g transform="matrix(1.22465e-16,-1,1,1.22465e-16,0,0)">
     <g stroke="none" font-family="'OCRA'" fill-opacity="1" id="silkscreenLabel" font-size="5" fill="#000000" font-weight="normal" font-style="normal">
      <text x="0" y="3.75">Up</text>
     </g>
    </g>
   </g>
  </g>
  <g id="partLabel" partID="757240">
   <g transform="translate(6.2608,28.7372)">
    <g transform="matrix(1,0,0,1,0,0)">
     <g stroke="none" font-family="'OCRA'" fill-opacity="1" id="silkscreenLabel" font-size="5" fill="#000000" font-weight="normal" font-style="normal">
      <text x="0" y="3.75">Bck</text>
     </g>
    </g>
   </g>
  </g>
  <g id="partLabel" partID="756570">
   <g transform="translate(47.2536,12.1134)">
    <g transform="matrix(1,0,0,1,0,0)">
     <g stroke="none" font-family="'OCRA'" fill-opacity="1" id="silkscreenLabel" font-size="5" fill="#000000" font-weight="normal" font-style="normal">
      <text x="0" y="3.75">Val</text>
     </g>
    </g>
   </g>
  </g>
  <g partID="1592041">
   <g transform="translate(58.408,13.0547)">
    <g id="copper1">
     <circle stroke="white" cx="5.85197" stroke-width="0.72" id="nonconn0" r="4.25197" fill="white" cy="5.85197"/>
    </g>
   </g>
  </g>
  <g partID="1592061">
   <g transform="translate(4.2688,13.1779)">
    <g id="copper1">
     <circle stroke="white" cx="5.85197" stroke-width="0.72" id="nonconn0" r="4.25197" fill="white" cy="5.85197"/>
    </g>
   </g>
  </g>
  <g partID="1592001">
   <g transform="translate(4.2296,67.3709)">
    <g id="copper1">
     <circle stroke="white" cx="5.85197" stroke-width="0.72" id="nonconn0" r="4.25197" fill="white" cy="5.85197"/>
    </g>
   </g>
  </g>
  <g partID="1592021">
   <g transform="translate(58.408,67.2567)">
    <g id="copper1">
     <circle stroke="white" cx="5.85197" stroke-width="0.72" id="nonconn0" r="4.25197" fill="white" cy="5.85197"/>
    </g>
   </g>
  </g>
  <g partID="760172">
   <g transform="translate(61.4952,28.858)">
    <g transform="matrix(0,1,-1,0,0,0)">
     <g id="copper1">
      <!-- <rect width="55" x="10" y="15.5" fill="none" height="55" stroke="rgb(255, 191, 0)" stroke-width="20" />  -->
      <circle stroke="white" cx="2.7" stroke-width="2.16" id="connector0pin" r="1.98" fill="white" cy="3.096"/>
      <circle stroke="white" cx="31.5" stroke-width="2.16" id="connector1pin" r="1.98" fill="white" cy="3.096"/>
     </g>
    </g>
   </g>
  </g>
  <g partID="760232">
   <g transform="translate(54.6,70.2147)">
    <g transform="matrix(-1,0,0,-1,0,0)">
     <g id="copper1">
      <!-- <rect width="55" x="10" y="15.5" fill="none" height="55" stroke="rgb(255, 191, 0)" stroke-width="20" />  -->
      <circle stroke="white" cx="2.7" stroke-width="2.16" id="connector0pin" r="1.98" fill="white" cy="3.096"/>
      <circle stroke="white" cx="31.5" stroke-width="2.16" id="connector1pin" r="1.98" fill="white" cy="3.096"/>
     </g>
    </g>
   </g>
  </g>
  <g partID="759392">
   <g transform="translate(18.7,20.9522)">
    <g transform="matrix(1,0,0,1,0,0)">
     <g id="copper1">
      <!-- <rect width="55" x="10" y="15.5" fill="none" height="55" stroke="rgb(255, 191, 0)" stroke-width="20" />  -->
      <circle stroke="white" cx="2.7" stroke-width="2.16" id="connector0pin" r="1.98" fill="white" cy="3.096"/>
      <circle stroke="white" cx="31.5" stroke-width="2.16" id="connector1pin" r="1.98" fill="white" cy="3.096"/>
     </g>
    </g>
   </g>
  </g>
  <g partID="755912">
   <g transform="translate(45.9293,55.5006)">
    <g transform="matrix(0,1,-1,0,0,0)">
     <g id="copper1">
      <g id="copper0">
       <circle stroke="white" cx="20.8462" stroke-width="2.16" id="connector0pad" r="1.98" fill="white" cy="15.6024"/>
       <circle stroke="white" cx="2.42064" stroke-width="2.16" id="connector1pad" r="1.98" fill="white" cy="15.6024"/>
       <circle stroke="white" cx="20.8462" stroke-width="2.16" id="connector2pad" r="1.98" fill="white" cy="2.84616"/>
       <circle stroke="white" cx="2.42064" stroke-width="2.16" id="connector3pad" r="1.98" fill="white" cy="2.84616"/>
      </g>
     </g>
    </g>
   </g>
  </g>
  <g partID="755942">
   <g transform="translate(67.4573,33.7144)">
    <g transform="matrix(0,1,-1,0,0,0)">
     <g id="copper1">
      <g id="copper0">
       <circle stroke="white" cx="20.8462" stroke-width="2.16" id="connector0pad" r="1.98" fill="white" cy="15.6024"/>
       <circle stroke="white" cx="2.42064" stroke-width="2.16" id="connector1pad" r="1.98" fill="white" cy="15.6024"/>
       <circle stroke="white" cx="20.8462" stroke-width="2.16" id="connector2pad" r="1.98" fill="white" cy="2.84616"/>
       <circle stroke="white" cx="2.42064" stroke-width="2.16" id="connector3pad" r="1.98" fill="white" cy="2.84616"/>
      </g>
     </g>
    </g>
   </g>
  </g>
  <g partID="756572">
   <g transform="translate(45.7629,12.1384)">
    <g transform="matrix(0,1,-1,0,0,0)">
     <g id="copper1">
      <g id="copper0">
       <circle stroke="white" cx="20.8462" stroke-width="2.16" id="connector0pad" r="1.98" fill="white" cy="15.6024"/>
       <circle stroke="white" cx="2.42064" stroke-width="2.16" id="connector1pad" r="1.98" fill="white" cy="15.6024"/>
       <circle stroke="white" cx="20.8462" stroke-width="2.16" id="connector2pad" r="1.98" fill="white" cy="2.84616"/>
       <circle stroke="white" cx="2.42064" stroke-width="2.16" id="connector3pad" r="1.98" fill="white" cy="2.84616"/>
      </g>
     </g>
    </g>
   </g>
  </g>
  <g partID="757242">
   <g transform="translate(24.2677,33.7184)">
    <g transform="matrix(0,1,-1,0,0,0)">
     <g id="copper1">
      <g id="copper0">
       <circle stroke="white" cx="20.8462" stroke-width="2.16" id="connector0pad" r="1.98" fill="white" cy="15.6024"/>
       <circle stroke="white" cx="2.42064" stroke-width="2.16" id="connector1pad" r="1.98" fill="white" cy="15.6024"/>
       <circle stroke="white" cx="20.8462" stroke-width="2.16" id="connector2pad" r="1.98" fill="white" cy="2.84616"/>
       <circle stroke="white" cx="2.42064" stroke-width="2.16" id="connector3pad" r="1.98" fill="white" cy="2.84616"/>
      </g>
     </g>
    </g>
   </g>
  </g>
  <g partID="1445053">
   <g transform="translate(14.0704,-34.1601)">
    <g id="copper1">
     <circle stroke="white" cx="5.29749" stroke-width="2.16" id="connector0pad" r="1.98" fill="white" cy="4.752"/>
     <circle stroke="white" cx="4.752" stroke-width="2.16" id="connector1pad" r="1.98" fill="white" cy="38.5574"/>
    </g>
   </g>
  </g>
  <g partID="1445993">
   <g transform="translate(6.3992,-34.0577)">
    <g id="copper1">
     <circle stroke="white" cx="5.02475" stroke-width="2.16" id="connector0pad" r="1.98" fill="white" cy="4.752"/>
     <circle stroke="white" cx="4.752" stroke-width="2.16" id="connector1pad" r="1.98" fill="white" cy="38.6256"/>
    </g>
   </g>
  </g>
 </g>
</svg>
