; NON-PLATED HOLES START AT T1
; THROUGH (PLATED) HOLES START AT T100
M48
INCH
T100C0.035000
%
T100
X006993Y012654
X002033Y005505
X009833Y008098
X009267Y003175
X003804Y005505
X002033Y008064
X006946Y004264
X003256Y013193
X005254Y011642
X010993Y012654
X007026Y009083
X003804Y008064
X005175Y004264
X005175Y001705
X008062Y008098
X005254Y009083
X007026Y011642
X006439Y006003
X002191Y013170
X009833Y005539
X008062Y005539
X006946Y001705
X009164Y010223
X006336Y007395
T00
M30
