; NON-PLATED HOLES START AT T1
; THROUGH (PLATED) HOLES START AT T100
M48
INCH
T1C0.118110
T100C0.035000
%
T1
X008924Y001459
X001400Y001444
X008924Y008987
X001405Y008970
T100
X004188Y007032
X005983Y001010
X002975Y004035
X007208Y002291
X007202Y004035
X008973Y004035
X004212Y001010
X005983Y003569
X008111Y003230
X005960Y007032
X007202Y006595
X002975Y006594
X005960Y009591
X006972Y008273
X001203Y006594
X008111Y007230
X004188Y009591
X001548Y010979
X004212Y003569
X001203Y004035
X008973Y006595
X002614Y011003
X003208Y002291
X002972Y008273
T00
M30
