<?xml version='1.0' encoding='UTF-8' standalone='no'?>
<!-- Created with Fritzing (http://www.fritzing.org/) -->
<svg xmlns="http://www.w3.org/2000/svg" version="1.2" x="0in" y="0in" baseProfile="tiny" height="1.16138in" xmlns:svg="http://www.w3.org/2000/svg"  width="1.0388in" viewBox="0 0 74.7933 83.6192">
 <g transform="matrix(-1, 0, 0, 1, 74.7933, 0)">
  <g partID="1433560">
   <g id="board" >
    <rect stroke="black" x="0.288" y="0.288" fill-opacity="0.5" height="83.0432" stroke-width="0.5" id="boardoutline" fill="none"  width="74.2173"/>
   </g>
  </g>
  <g partID="1592040">
   <g transform="translate(58.408,13.0547)">
    <g id="copper0" >
     <circle stroke="black" cx="5.85197" stroke-width="0.72" id="nonconn0" r="4.25197" fill="black"  cy="5.85197"/>
    </g>
   </g>
  </g>
  <g partID="1592060">
   <g transform="translate(4.2688,13.1779)">
    <g id="copper0" >
     <circle stroke="black" cx="5.85197" stroke-width="0.72" id="nonconn0" r="4.25197" fill="black"  cy="5.85197"/>
    </g>
   </g>
  </g>
  <g partID="1592000">
   <g transform="translate(4.2296,67.3709)">
    <g id="copper0" >
     <circle stroke="black" cx="5.85197" stroke-width="0.72" id="nonconn0" r="4.25197" fill="black"  cy="5.85197"/>
    </g>
   </g>
  </g>
  <g partID="1592020">
   <g transform="translate(58.408,67.2567)">
    <g id="copper0" >
     <circle stroke="black" cx="5.85197" stroke-width="0.72" id="nonconn0" r="4.25197" fill="black"  cy="5.85197"/>
    </g>
   </g>
  </g>
  <g partID="760170">
   <g transform="translate(61.4952,28.858)">
    <g transform="matrix(0,1,-1,0,0,0)">
     <g id="copper0" >
      <g id="copper1" >
       <!-- <rect width="55" x="10" y="15.5" fill="none" height="55" stroke="rgb(255, 191, 0)" stroke-width="20" />  -->
       <circle stroke="black" cx="2.7" stroke-width="2.16" id="connector0pin" r="1.98" fill="black"  cy="3.096"/>
       <circle stroke="black" cx="31.5" stroke-width="2.16" id="connector1pin" r="1.98" fill="black"  cy="3.096"/>
      </g>
     </g>
    </g>
   </g>
  </g>
  <g partID="760230">
   <g transform="translate(54.6,70.2147)">
    <g transform="matrix(-1,0,0,-1,0,0)">
     <g id="copper0" >
      <g id="copper1" >
       <!-- <rect width="55" x="10" y="15.5" fill="none" height="55" stroke="rgb(255, 191, 0)" stroke-width="20" />  -->
       <circle stroke="black" cx="2.7" stroke-width="2.16" id="connector0pin" r="1.98" fill="black"  cy="3.096"/>
       <circle stroke="black" cx="31.5" stroke-width="2.16" id="connector1pin" r="1.98" fill="black"  cy="3.096"/>
      </g>
     </g>
    </g>
   </g>
  </g>
  <g partID="759390">
   <g transform="translate(18.7,20.9522)">
    <g transform="matrix(1,0,0,1,0,0)">
     <g id="copper0" >
      <g id="copper1" >
       <!-- <rect width="55" x="10" y="15.5" fill="none" height="55" stroke="rgb(255, 191, 0)" stroke-width="20" />  -->
       <circle stroke="black" cx="2.7" stroke-width="2.16" id="connector0pin" r="1.98" fill="black"  cy="3.096"/>
       <circle stroke="black" cx="31.5" stroke-width="2.16" id="connector1pin" r="1.98" fill="black"  cy="3.096"/>
      </g>
     </g>
    </g>
   </g>
  </g>
  <g partID="755910">
   <g transform="translate(45.9293,55.5006)">
    <g transform="matrix(0,1,-1,0,0,0)">
     <g id="copper0" >
      <circle stroke="black" cx="20.8462" stroke-width="2.16" id="connector0pad" r="1.98" fill="black"  cy="15.6024"/>
      <circle stroke="black" cx="2.42064" stroke-width="2.16" id="connector1pad" r="1.98" fill="black"  cy="15.6024"/>
      <circle stroke="black" cx="20.8462" stroke-width="2.16" id="connector2pad" r="1.98" fill="black"  cy="2.84616"/>
      <circle stroke="black" cx="2.42064" stroke-width="2.16" id="connector3pad" r="1.98" fill="black"  cy="2.84616"/>
     </g>
    </g>
   </g>
  </g>
  <g partID="755940">
   <g transform="translate(67.4573,33.7144)">
    <g transform="matrix(0,1,-1,0,0,0)">
     <g id="copper0" >
      <circle stroke="black" cx="20.8462" stroke-width="2.16" id="connector0pad" r="1.98" fill="black"  cy="15.6024"/>
      <circle stroke="black" cx="2.42064" stroke-width="2.16" id="connector1pad" r="1.98" fill="black"  cy="15.6024"/>
      <circle stroke="black" cx="20.8462" stroke-width="2.16" id="connector2pad" r="1.98" fill="black"  cy="2.84616"/>
      <circle stroke="black" cx="2.42064" stroke-width="2.16" id="connector3pad" r="1.98" fill="black"  cy="2.84616"/>
     </g>
    </g>
   </g>
  </g>
  <g partID="756570">
   <g transform="translate(45.7629,12.1384)">
    <g transform="matrix(0,1,-1,0,0,0)">
     <g id="copper0" >
      <circle stroke="black" cx="20.8462" stroke-width="2.16" id="connector0pad" r="1.98" fill="black"  cy="15.6024"/>
      <circle stroke="black" cx="2.42064" stroke-width="2.16" id="connector1pad" r="1.98" fill="black"  cy="15.6024"/>
      <circle stroke="black" cx="20.8462" stroke-width="2.16" id="connector2pad" r="1.98" fill="black"  cy="2.84616"/>
      <circle stroke="black" cx="2.42064" stroke-width="2.16" id="connector3pad" r="1.98" fill="black"  cy="2.84616"/>
     </g>
    </g>
   </g>
  </g>
  <g partID="757240">
   <g transform="translate(24.2677,33.7184)">
    <g transform="matrix(0,1,-1,0,0,0)">
     <g id="copper0" >
      <circle stroke="black" cx="20.8462" stroke-width="2.16" id="connector0pad" r="1.98" fill="black"  cy="15.6024"/>
      <circle stroke="black" cx="2.42064" stroke-width="2.16" id="connector1pad" r="1.98" fill="black"  cy="15.6024"/>
      <circle stroke="black" cx="20.8462" stroke-width="2.16" id="connector2pad" r="1.98" fill="black"  cy="2.84616"/>
      <circle stroke="black" cx="2.42064" stroke-width="2.16" id="connector3pad" r="1.98" fill="black"  cy="2.84616"/>
     </g>
    </g>
   </g>
  </g>
  <g partID="1445050">
   <g transform="translate(14.0704,-34.1601)">
    <g id="copper0" >
     <circle stroke="black" cx="5.29749" stroke-width="2.16" id="connector0pad" r="1.98" fill="black"  cy="4.752"/>
     <circle stroke="black" cx="4.752" stroke-width="2.16" id="connector1pad" r="1.98" fill="black"  cy="38.5574"/>
    </g>
   </g>
  </g>
  <g partID="1445990">
   <g transform="translate(6.3992,-34.0577)">
    <g id="copper0" >
     <circle stroke="black" cx="5.02475" stroke-width="2.16" id="connector0pad" r="1.98" fill="black"  cy="4.752"/>
     <circle stroke="black" cx="4.752" stroke-width="2.16" id="connector1pad" r="1.98" fill="black"  cy="38.6256"/>
    </g>
   </g>
  </g>
 </g>
</svg>
